<svg width="14" height="17" viewBox="0 0 14 17" fill="none" xmlns="http://www.w3.org/2000/svg">
<path d="M13.5161 12.2374C13.4959 12.2931 13.1795 13.3866 12.4074 14.513C11.7417 15.4875 11.0481 16.4595 9.95718 16.4798C8.88646 16.5 8.54221 15.8444 7.31709 15.8444C6.09197 15.8444 5.70722 16.4595 4.69472 16.5C3.64172 16.5405 2.83932 15.447 2.16854 14.475C0.794072 12.488 -0.253864 8.8607 1.15604 6.41299C1.85466 5.19546 3.10763 4.42596 4.46691 4.40571C5.50219 4.38546 6.47672 5.09927 7.107 5.09927C7.73981 5.09927 8.92443 4.24118 10.1698 4.36521C10.6912 4.38799 12.1543 4.5753 13.0959 5.9523C13.02 6.0004 11.3468 6.97239 11.3671 8.99739C11.3873 11.4223 13.4908 12.2273 13.5161 12.2374ZM9.35221 3.05403C9.91162 2.37818 10.2888 1.43656 10.185 0.5C9.38005 0.530375 8.40553 1.03662 7.8284 1.71247C7.3095 2.31237 6.8564 3.26918 6.98043 4.18549C7.8765 4.25637 8.79281 3.72987 9.35221 3.05403Z" fill="white"/>
</svg>
