<svg width="58" height="49" viewBox="0 0 58 49" fill="none" xmlns="http://www.w3.org/2000/svg">
<circle cx="29" cy="3.86621" r="3" fill="#B29446"/>
<circle cx="56" cy="14.8662" r="2" fill="#B29446"/>
<circle cx="2" cy="14.8662" r="2" fill="#B29446"/>
<path fill-rule="evenodd" clip-rule="evenodd" d="M14.0634 27.3656L16.9002 28.9367L19.024 26.4861L28.9902 14.9867L38.9709 26.5875L41.1082 29.0716L43.9643 27.4649L49.785 24.1906L46.5745 44.8664H11.4281L10.8216 40.9604H42.0014V36.9604H10.2005L8.20691 24.1222L14.0634 27.3656ZM50.7367 19.0658L50.5659 19.1619L42.0031 23.9787L29.7566 9.74429C29.3585 9.28165 28.6425 9.28036 28.2428 9.74155L16.0013 23.8664L7.43008 19.1196L7.26641 19.0289L5.91475 18.2804L4.78716 17.6559C4.05969 17.253 3.18692 17.8624 3.31452 18.6841L3.51231 19.9578L3.7494 21.4846L3.7781 21.6695L7.86987 48.0198C7.94552 48.507 8.36498 48.8664 8.85802 48.8664H49.1446C49.6376 48.8664 50.0571 48.507 50.1327 48.0198L54.2204 21.6956L54.2505 21.5019L54.4903 19.9576L54.6854 18.7012C54.8134 17.8764 53.9344 17.267 53.2069 17.6762L52.0988 18.2996L50.7367 19.0658Z" fill="#B29446"/>
</svg>
