<svg width="13" height="17" viewBox="0 0 13 17" fill="none" xmlns="http://www.w3.org/2000/svg">
<path fill-rule="evenodd" clip-rule="evenodd" d="M-2.86102e-06 16.8382L0.388135 14.8762C0.797517 14.9572 1.22221 15 1.65887 15C2.09554 15 2.52023 14.9572 2.92961 14.8762L3.31775 16.8382C2.78123 16.9444 2.22655 17 1.65887 17C1.0912 17 0.53652 16.9444 -2.86102e-06 16.8382ZM6.38161 15.5683L5.26897 13.9064C5.97866 13.4312 6.59011 12.8198 7.06524 12.1101L8.72718 13.2227C8.10661 14.1497 7.30854 14.9477 6.38161 15.5683ZM9.99709 10.1589C10.1032 9.62235 10.1589 9.06768 10.1589 8.5C10.1589 7.93232 10.1032 7.37765 9.99709 6.84112L8.03511 7.22926C8.1161 7.63864 8.15887 8.06333 8.15887 8.5C8.15887 8.93667 8.1161 9.36136 8.03511 9.77074L9.99709 10.1589ZM8.72718 3.77727L7.06524 4.88991C6.59011 4.18021 5.97867 3.56876 5.26897 3.09363L6.38161 1.43169C7.30855 2.05226 8.10661 2.85033 8.72718 3.77727ZM3.31775 0.161789L2.92961 2.12376C2.52023 2.04278 2.09554 2 1.65887 2C1.22221 2 0.797517 2.04278 0.388135 2.12376L-2.86102e-06 0.161789C0.53652 0.0556488 1.0912 0 1.65887 0C2.22655 0 2.78123 0.0556488 3.31775 0.161789Z" fill="#E66A45"/>
</svg>
