<svg width="13" height="17" viewBox="0 0 13 17" fill="none" xmlns="http://www.w3.org/2000/svg">
<g clip-path="url(#clip0)">
<rect width="13" height="17" fill="white"/>
<path d="M17 8.5C17 13.1944 13.1944 17 8.5 17C3.80558 17 0 13.1944 0 8.5C0 3.80558 3.80558 0 8.5 0C13.1944 0 17 3.80558 17 8.5Z" fill="white"/>
<path fill-rule="evenodd" clip-rule="evenodd" d="M10.1589 0.161789L9.77074 2.12377C9.36136 2.04278 8.93667 2 8.5 2C8.06333 2 7.63864 2.04278 7.22926 2.12377L6.84112 0.161789C7.37765 0.055649 7.93232 0 8.5 0C9.06768 0 9.62235 0.055649 10.1589 0.161789ZM3.77727 1.43169L4.88991 3.09363C4.18021 3.56876 3.56876 4.18021 3.09363 4.8899L1.43169 3.77727C2.05226 2.85033 2.85033 2.05226 3.77727 1.43169ZM0.161789 6.84112C0.0556491 7.37765 0 7.93232 0 8.5C0 9.06768 0.055649 9.62235 0.161789 10.1589L2.12377 9.77074C2.04278 9.36136 2 8.93667 2 8.5C2 8.06333 2.04278 7.63864 2.12377 7.22926L0.161789 6.84112ZM1.43169 13.2227L3.09363 12.1101C3.56876 12.8198 4.18021 13.4312 4.8899 13.9064L3.77727 15.5683C2.85033 14.9477 2.05226 14.1497 1.43169 13.2227ZM6.84112 16.8382L7.22926 14.8762C7.63864 14.9572 8.06333 15 8.5 15C8.93667 15 9.36136 14.9572 9.77074 14.8762L10.1589 16.8382C9.62235 16.9444 9.06768 17 8.5 17C7.93232 17 7.37765 16.9444 6.84112 16.8382Z" fill="#E66A45"/>
</g>
<defs>
<clipPath id="clip0">
<rect width="13" height="17" fill="white"/>
</clipPath>
</defs>
</svg>
