<svg width="12" height="17" viewBox="0 0 12 17" fill="none" xmlns="http://www.w3.org/2000/svg">
<g clip-path="url(#clip0)">
<path fill-rule="evenodd" clip-rule="evenodd" d="M1.84112 16.8382L2.22926 14.8762C2.63864 14.9572 3.06333 15 3.5 15C3.93667 15 4.36136 14.9572 4.77074 14.8762L5.15888 16.8382C4.62235 16.9444 4.06768 17 3.5 17C2.93232 17 2.37765 16.9444 1.84112 16.8382ZM8.22273 15.5683L7.11009 13.9064C7.81979 13.4312 8.43124 12.8198 8.90637 12.1101L10.5683 13.2227C9.94774 14.1497 9.14967 14.9477 8.22273 15.5683ZM11.8382 10.1589C11.9444 9.62235 12 9.06768 12 8.5C12 7.93232 11.9444 7.37765 11.8382 6.84112L9.87623 7.22926C9.95722 7.63864 10 8.06333 10 8.5C10 8.93667 9.95722 9.36136 9.87623 9.77074L11.8382 10.1589ZM10.5683 3.77727L8.90637 4.88991C8.43124 4.18021 7.81979 3.56876 7.1101 3.09363L8.22273 1.43169C9.14967 2.05226 9.94774 2.85033 10.5683 3.77727ZM5.15888 0.161789L4.77074 2.12376C4.36136 2.04278 3.93667 2 3.5 2C3.06333 2 2.63864 2.04278 2.22926 2.12376L1.84112 0.161789C2.37765 0.0556488 2.93232 0 3.5 0C4.06768 0 4.62235 0.0556488 5.15888 0.161789Z" fill="#E66A45"/>
</g>
<defs>
<clipPath id="clip0">
<rect width="12" height="17" fill="white"/>
</clipPath>
</defs>
</svg>
