<svg width="10" height="3" viewBox="0 0 10 3" fill="none" xmlns="http://www.w3.org/2000/svg">
<path d="M1.004 0.648C0.56 0.648 0.212 0.996 0.212 1.44C0.212 1.884 0.56 2.232 1.004 2.232C1.448 2.232 1.796 1.884 1.796 1.44C1.796 0.996 1.448 0.648 1.004 0.648ZM5 0.648C4.556 0.648 4.208 0.996 4.208 1.44C4.208 1.884 4.556 2.232 5 2.232C5.444 2.232 5.792 1.884 5.792 1.44C5.792 0.996 5.444 0.648 5 0.648ZM8.996 0.648C8.552 0.648 8.204 0.996 8.204 1.44C8.204 1.884 8.552 2.232 8.996 2.232C9.44 2.232 9.788 1.884 9.788 1.44C9.788 0.996 9.44 0.648 8.996 0.648Z" fill="#E66A45"/>
</svg>
