<svg width="200" height="110" viewBox="0 0 200 110" fill="none" xmlns="http://www.w3.org/2000/svg">
<rect x="0.5" y="0.5" width="199" height="109" rx="3.5" stroke="#979797" stroke-dasharray="2 2"/>
<path fill-rule="evenodd" clip-rule="evenodd" d="M20.0479 24.6531C23.7381 24.6531 26.7296 21.6812 26.7296 18.0151C26.7296 14.3491 23.7381 11.3772 20.0479 11.3772C16.3577 11.3772 13.3662 14.3491 13.3662 18.0151C13.3662 21.6812 16.3577 24.6531 20.0479 24.6531Z" stroke="#979797"/>
<path fill-rule="evenodd" clip-rule="evenodd" d="M126.95 24.6531C130.64 24.6531 133.632 21.6812 133.632 18.0151C133.632 14.3491 130.64 11.3772 126.95 11.3772C123.26 11.3772 120.269 14.3491 120.269 18.0151C120.269 21.6812 123.26 24.6531 126.95 24.6531Z" stroke="#979797"/>
<path fill-rule="evenodd" clip-rule="evenodd" d="M73.4952 24.6531C77.1853 24.6531 80.1768 21.6812 80.1768 18.0151C80.1768 14.3491 77.1853 11.3772 73.4952 11.3772C69.805 11.3772 66.8135 14.3491 66.8135 18.0151C66.8135 21.6812 69.805 24.6531 73.4952 24.6531Z" stroke="#979797"/>
<path fill-rule="evenodd" clip-rule="evenodd" d="M180.408 24.654C184.098 24.654 187.09 21.6821 187.09 18.0161C187.09 14.3501 184.098 11.3782 180.408 11.3782C176.718 11.3782 173.727 14.3501 173.727 18.0161C173.727 21.6821 176.718 24.654 180.408 24.654Z" stroke="#979797"/>
<path fill-rule="evenodd" clip-rule="evenodd" d="M46.7686 24.6531C50.4588 24.6531 53.4503 21.6812 53.4503 18.0151C53.4503 14.3491 50.4588 11.3772 46.7686 11.3772C43.0784 11.3772 40.0869 14.3491 40.0869 18.0151C40.0869 21.6812 43.0784 24.6531 46.7686 24.6531Z" stroke="#979797"/>
<path fill-rule="evenodd" clip-rule="evenodd" d="M153.677 24.6531C157.367 24.6531 160.358 21.6812 160.358 18.0151C160.358 14.3491 157.367 11.3772 153.677 11.3772C149.987 11.3772 146.995 14.3491 146.995 18.0151C146.995 21.6812 149.987 24.6531 153.677 24.6531Z" stroke="#979797"/>
<path fill-rule="evenodd" clip-rule="evenodd" d="M100.228 24.6531C103.918 24.6531 106.909 21.6812 106.909 18.0151C106.909 14.3491 103.918 11.3772 100.228 11.3772C96.5374 11.3772 93.5459 14.3491 93.5459 18.0151C93.5459 21.6812 96.5374 24.6531 100.228 24.6531Z" stroke="#979797"/>
<path fill-rule="evenodd" clip-rule="evenodd" d="M35.4143 18.0196L31.4053 21.3386V14.7007L35.4143 18.0196Z" fill="#D1D1D1" fill-opacity="0.7"/>
<path fill-rule="evenodd" clip-rule="evenodd" d="M62.1428 18.0196L58.1338 21.3386V14.7007L62.1428 18.0196Z" fill="#D1D1D1" fill-opacity="0.7"/>
<path fill-rule="evenodd" clip-rule="evenodd" d="M88.8674 18.0187L84.8584 21.3376V14.6997L88.8674 18.0187Z" fill="#D1D1D1" fill-opacity="0.7"/>
<path fill-rule="evenodd" clip-rule="evenodd" d="M115.593 18.0196L111.584 21.3386V14.7007L115.593 18.0196Z" fill="#D1D1D1" fill-opacity="0.7"/>
<path fill-rule="evenodd" clip-rule="evenodd" d="M142.323 18.0196L138.314 21.3386V14.7007L142.323 18.0196Z" fill="#D1D1D1" fill-opacity="0.7"/>
<path fill-rule="evenodd" clip-rule="evenodd" d="M169.047 18.0187L165.038 21.3376V14.6997L169.047 18.0187Z" fill="#D1D1D1" fill-opacity="0.7"/>
<path fill-rule="evenodd" clip-rule="evenodd" d="M20.0479 49.3103C23.7381 49.3103 26.7296 46.3384 26.7296 42.6724C26.7296 39.0063 23.7381 36.0344 20.0479 36.0344C16.3577 36.0344 13.3662 39.0063 13.3662 42.6724C13.3662 46.3384 16.3577 49.3103 20.0479 49.3103Z" stroke="#979797"/>
<path fill-rule="evenodd" clip-rule="evenodd" d="M126.95 49.3113C130.64 49.3113 133.632 46.3394 133.632 42.6733C133.632 39.0073 130.64 36.0354 126.95 36.0354C123.26 36.0354 120.269 39.0073 120.269 42.6733C120.269 46.3394 123.26 49.3113 126.95 49.3113Z" stroke="#979797"/>
<path fill-rule="evenodd" clip-rule="evenodd" d="M73.4971 49.3113C77.1873 49.3113 80.1788 46.3394 80.1788 42.6733C80.1788 39.0073 77.1873 36.0354 73.4971 36.0354C69.8069 36.0354 66.8154 39.0073 66.8154 42.6733C66.8154 46.3394 69.8069 49.3113 73.4971 49.3113Z" stroke="#979797"/>
<path fill-rule="evenodd" clip-rule="evenodd" d="M180.408 49.3113C184.098 49.3113 187.09 46.3394 187.09 42.6733C187.09 39.0073 184.098 36.0354 180.408 36.0354C176.718 36.0354 173.727 39.0073 173.727 42.6733C173.727 46.3394 176.718 49.3113 180.408 49.3113Z" stroke="#979797"/>
<path fill-rule="evenodd" clip-rule="evenodd" d="M46.7725 49.3113C50.4627 49.3113 53.4542 46.3394 53.4542 42.6733C53.4542 39.0073 50.4627 36.0354 46.7725 36.0354C43.0823 36.0354 40.0908 39.0073 40.0908 42.6733C40.0908 46.3394 43.0823 49.3113 46.7725 49.3113Z" stroke="#979797"/>
<path fill-rule="evenodd" clip-rule="evenodd" d="M153.677 49.3113C157.367 49.3113 160.358 46.3394 160.358 42.6733C160.358 39.0073 157.367 36.0354 153.677 36.0354C149.987 36.0354 146.995 39.0073 146.995 42.6733C146.995 46.3394 149.987 49.3113 153.677 49.3113Z" stroke="#979797"/>
<path fill-rule="evenodd" clip-rule="evenodd" d="M100.228 49.3113C103.918 49.3113 106.909 46.3394 106.909 42.6733C106.909 39.0073 103.918 36.0354 100.228 36.0354C96.5374 36.0354 93.5459 39.0073 93.5459 42.6733C93.5459 46.3394 96.5374 49.3113 100.228 49.3113Z" stroke="#979797"/>
<path fill-rule="evenodd" clip-rule="evenodd" d="M35.4143 42.6764L31.4053 45.9954V39.3574L35.4143 42.6764Z" fill="#D1D1D1" fill-opacity="0.7"/>
<path fill-rule="evenodd" clip-rule="evenodd" d="M62.1428 42.6764L58.1338 45.9954V39.3574L62.1428 42.6764Z" fill="#D1D1D1" fill-opacity="0.7"/>
<path fill-rule="evenodd" clip-rule="evenodd" d="M88.8674 42.6774L84.8584 45.9963V39.3584L88.8674 42.6774Z" fill="#D1D1D1" fill-opacity="0.7"/>
<path fill-rule="evenodd" clip-rule="evenodd" d="M115.593 42.6774L111.584 45.9963V39.3584L115.593 42.6774Z" fill="#D1D1D1" fill-opacity="0.7"/>
<path fill-rule="evenodd" clip-rule="evenodd" d="M142.323 42.6774L138.314 45.9963V39.3584L142.323 42.6774Z" fill="#D1D1D1" fill-opacity="0.7"/>
<path fill-rule="evenodd" clip-rule="evenodd" d="M169.047 42.6764L165.038 45.9954V39.3574L169.047 42.6764Z" fill="#D1D1D1" fill-opacity="0.7"/>
<path fill-rule="evenodd" clip-rule="evenodd" d="M20.0479 73.9682C23.7381 73.9682 26.7296 70.9963 26.7296 67.3303C26.7296 63.6643 23.7381 60.6924 20.0479 60.6924C16.3577 60.6924 13.3662 63.6643 13.3662 67.3303C13.3662 70.9963 16.3577 73.9682 20.0479 73.9682Z" stroke="#979797"/>
<path fill-rule="evenodd" clip-rule="evenodd" d="M126.95 73.9643C130.64 73.9643 133.632 70.9924 133.632 67.3264C133.632 63.6604 130.64 60.6885 126.95 60.6885C123.26 60.6885 120.269 63.6604 120.269 67.3264C120.269 70.9924 123.26 73.9643 126.95 73.9643Z" stroke="#979797"/>
<path fill-rule="evenodd" clip-rule="evenodd" d="M73.4971 73.9653C77.1873 73.9653 80.1788 70.9934 80.1788 67.3274C80.1788 63.6614 77.1873 60.6895 73.4971 60.6895C69.8069 60.6895 66.8154 63.6614 66.8154 67.3274C66.8154 70.9934 69.8069 73.9653 73.4971 73.9653Z" stroke="#979797"/>
<path fill-rule="evenodd" clip-rule="evenodd" d="M180.408 73.9643C184.098 73.9643 187.09 70.9924 187.09 67.3264C187.09 63.6604 184.098 60.6885 180.408 60.6885C176.718 60.6885 173.727 63.6604 173.727 67.3264C173.727 70.9924 176.718 73.9643 180.408 73.9643Z" stroke="#979797"/>
<path fill-rule="evenodd" clip-rule="evenodd" d="M46.7725 73.9653C50.4627 73.9653 53.4542 70.9934 53.4542 67.3274C53.4542 63.6614 50.4627 60.6895 46.7725 60.6895C43.0823 60.6895 40.0908 63.6614 40.0908 67.3274C40.0908 70.9934 43.0823 73.9653 46.7725 73.9653Z" stroke="#979797"/>
<path fill-rule="evenodd" clip-rule="evenodd" d="M153.677 73.9643C157.367 73.9643 160.358 70.9924 160.358 67.3264C160.358 63.6604 157.367 60.6885 153.677 60.6885C149.987 60.6885 146.995 63.6604 146.995 67.3264C146.995 70.9924 149.987 73.9643 153.677 73.9643Z" stroke="#979797"/>
<path fill-rule="evenodd" clip-rule="evenodd" d="M100.228 73.9653C103.918 73.9653 106.909 70.9934 106.909 67.3274C106.909 63.6614 103.918 60.6895 100.228 60.6895C96.5374 60.6895 93.5459 63.6614 93.5459 67.3274C93.5459 70.9934 96.5374 73.9653 100.228 73.9653Z" stroke="#979797"/>
<path fill-rule="evenodd" clip-rule="evenodd" d="M35.4143 67.3273L31.4053 70.6462V64.0083L35.4143 67.3273Z" fill="#D1D1D1" fill-opacity="0.7"/>
<path fill-rule="evenodd" clip-rule="evenodd" d="M62.1428 67.3273L58.1338 70.6462V64.0083L62.1428 67.3273Z" fill="#D1D1D1" fill-opacity="0.7"/>
<path fill-rule="evenodd" clip-rule="evenodd" d="M88.8674 67.3273L84.8584 70.6462V64.0083L88.8674 67.3273Z" fill="#D1D1D1" fill-opacity="0.7"/>
<path fill-rule="evenodd" clip-rule="evenodd" d="M115.593 67.3273L111.584 70.6462V64.0083L115.593 67.3273Z" fill="#D1D1D1" fill-opacity="0.7"/>
<path fill-rule="evenodd" clip-rule="evenodd" d="M142.323 67.3273L138.314 70.6462V64.0083L142.323 67.3273Z" fill="#D1D1D1" fill-opacity="0.7"/>
<path fill-rule="evenodd" clip-rule="evenodd" d="M169.047 67.3282L165.038 70.6472V64.0093L169.047 67.3282Z" fill="#D1D1D1" fill-opacity="0.7"/>
<path fill-rule="evenodd" clip-rule="evenodd" d="M20.0479 98.6218C23.7381 98.6218 26.7296 95.6499 26.7296 91.9839C26.7296 88.3179 23.7381 85.3459 20.0479 85.3459C16.3577 85.3459 13.3662 88.3179 13.3662 91.9839C13.3662 95.6499 16.3577 98.6218 20.0479 98.6218Z" stroke="#979797"/>
<path fill-rule="evenodd" clip-rule="evenodd" d="M126.95 98.6186C130.64 98.6186 133.632 95.6467 133.632 91.9807C133.632 88.3147 130.64 85.3428 126.95 85.3428C123.26 85.3428 120.269 88.3147 120.269 91.9807C120.269 95.6467 123.26 98.6186 126.95 98.6186Z" stroke="#979797"/>
<path fill-rule="evenodd" clip-rule="evenodd" d="M73.4952 98.6196C77.1853 98.6196 80.1768 95.6477 80.1768 91.9817C80.1768 88.3157 77.1853 85.3438 73.4952 85.3438C69.805 85.3438 66.8135 88.3157 66.8135 91.9817C66.8135 95.6477 69.805 98.6196 73.4952 98.6196Z" stroke="#979797"/>
<path fill-rule="evenodd" clip-rule="evenodd" d="M180.408 98.6186C184.098 98.6186 187.09 95.6467 187.09 91.9807C187.09 88.3147 184.098 85.3428 180.408 85.3428C176.718 85.3428 173.727 88.3147 173.727 91.9807C173.727 95.6467 176.718 98.6186 180.408 98.6186Z" stroke="#979797"/>
<path fill-rule="evenodd" clip-rule="evenodd" d="M46.7686 98.6196C50.4588 98.6196 53.4503 95.6477 53.4503 91.9817C53.4503 88.3157 50.4588 85.3438 46.7686 85.3438C43.0784 85.3438 40.0869 88.3157 40.0869 91.9817C40.0869 95.6477 43.0784 98.6196 46.7686 98.6196Z" stroke="#979797"/>
<path fill-rule="evenodd" clip-rule="evenodd" d="M153.677 98.6186C157.367 98.6186 160.358 95.6467 160.358 91.9807C160.358 88.3147 157.367 85.3428 153.677 85.3428C149.987 85.3428 146.995 88.3147 146.995 91.9807C146.995 95.6467 149.987 98.6186 153.677 98.6186Z" stroke="#979797"/>
<path fill-rule="evenodd" clip-rule="evenodd" d="M100.228 98.6196C103.918 98.6196 106.909 95.6477 106.909 91.9817C106.909 88.3157 103.918 85.3438 100.228 85.3438C96.5374 85.3438 93.5459 88.3157 93.5459 91.9817C93.5459 95.6477 96.5374 98.6196 100.228 98.6196Z" stroke="#979797"/>
<path fill-rule="evenodd" clip-rule="evenodd" d="M35.4143 91.9816L31.4053 95.3005V88.6626L35.4143 91.9816Z" fill="#D1D1D1" fill-opacity="0.7"/>
<path fill-rule="evenodd" clip-rule="evenodd" d="M62.1428 91.9816L58.1338 95.3005V88.6626L62.1428 91.9816Z" fill="#D1D1D1" fill-opacity="0.7"/>
<path fill-rule="evenodd" clip-rule="evenodd" d="M88.8674 91.9816L84.8584 95.3005V88.6626L88.8674 91.9816Z" fill="#D1D1D1" fill-opacity="0.7"/>
<path fill-rule="evenodd" clip-rule="evenodd" d="M115.593 91.9816L111.584 95.3005V88.6626L115.593 91.9816Z" fill="#D1D1D1" fill-opacity="0.7"/>
<path fill-rule="evenodd" clip-rule="evenodd" d="M142.323 91.9816L138.314 95.3005V88.6626L142.323 91.9816Z" fill="#D1D1D1" fill-opacity="0.7"/>
<path fill-rule="evenodd" clip-rule="evenodd" d="M169.047 91.9825L165.038 95.3015V88.6636L169.047 91.9825Z" fill="#D1D1D1" fill-opacity="0.7"/>
</svg>