<svg width="174" height="98" viewBox="0 0 174 98" fill="none" xmlns="http://www.w3.org/2000/svg">
<rect y="0.834473" width="174" height="96.3308" rx="4" fill="#E8EBED"/>
<path fill-rule="evenodd" clip-rule="evenodd" d="M17.441 22.4245C20.6515 22.4245 23.2541 19.8219 23.2541 16.6114C23.2541 13.4009 20.6515 10.7983 17.441 10.7983C14.2305 10.7983 11.6279 13.4009 11.6279 16.6114C11.6279 19.8219 14.2305 22.4245 17.441 22.4245Z" fill="#AFB1B3"/>
<path fill-rule="evenodd" clip-rule="evenodd" d="M110.447 22.4245C113.657 22.4245 116.26 19.8219 116.26 16.6114C116.26 13.4009 113.657 10.7983 110.447 10.7983C107.236 10.7983 104.634 13.4009 104.634 16.6114C104.634 19.8219 107.236 22.4245 110.447 22.4245Z" fill="#AFB1B3"/>
<path fill-rule="evenodd" clip-rule="evenodd" d="M63.942 22.4245C67.1524 22.4245 69.755 19.8219 69.755 16.6114C69.755 13.4009 67.1524 10.7983 63.942 10.7983C60.7315 10.7983 58.1289 13.4009 58.1289 16.6114C58.1289 19.8219 60.7315 22.4245 63.942 22.4245Z" fill="#AFB1B3"/>
<path fill-rule="evenodd" clip-rule="evenodd" d="M156.955 22.4245C160.165 22.4245 162.768 19.8219 162.768 16.6114C162.768 13.4009 160.165 10.7983 156.955 10.7983C153.744 10.7983 151.142 13.4009 151.142 16.6114C151.142 19.8219 153.744 22.4245 156.955 22.4245Z" fill="#AFB1B3"/>
<path fill-rule="evenodd" clip-rule="evenodd" d="M40.69 22.4245C43.9005 22.4245 46.5031 19.8219 46.5031 16.6114C46.5031 13.4009 43.9005 10.7983 40.69 10.7983C37.4796 10.7983 34.877 13.4009 34.877 16.6114C34.877 19.8219 37.4796 22.4245 40.69 22.4245Z" fill="#AFB1B3"/>
<path fill-rule="evenodd" clip-rule="evenodd" d="M133.699 22.4245C136.909 22.4245 139.512 19.8219 139.512 16.6114C139.512 13.4009 136.909 10.7983 133.699 10.7983C130.488 10.7983 127.886 13.4009 127.886 16.6114C127.886 19.8219 130.488 22.4245 133.699 22.4245Z" fill="#AFB1B3"/>
<path fill-rule="evenodd" clip-rule="evenodd" d="M87.1978 22.4245C90.4083 22.4245 93.0109 19.8219 93.0109 16.6114C93.0109 13.4009 90.4083 10.7983 87.1978 10.7983C83.9874 10.7983 81.3848 13.4009 81.3848 16.6114C81.3848 19.8219 83.9874 22.4245 87.1978 22.4245Z" fill="#AFB1B3"/>
<path fill-rule="evenodd" clip-rule="evenodd" d="M30.8091 16.6145L27.3213 19.5211V13.708L30.8091 16.6145Z" fill="#D1D1D1" fill-opacity="0.7"/>
<path fill-rule="evenodd" clip-rule="evenodd" d="M54.065 16.6145L50.5771 19.5211V13.708L54.065 16.6145Z" fill="#D1D1D1" fill-opacity="0.7"/>
<path fill-rule="evenodd" clip-rule="evenodd" d="M77.314 16.6145L73.8262 19.5211V13.708L77.314 16.6145Z" fill="#D1D1D1" fill-opacity="0.7"/>
<path fill-rule="evenodd" clip-rule="evenodd" d="M100.566 16.6145L97.0781 19.5211V13.708L100.566 16.6145Z" fill="#D1D1D1" fill-opacity="0.7"/>
<path fill-rule="evenodd" clip-rule="evenodd" d="M123.822 16.6145L120.334 19.5211V13.708L123.822 16.6145Z" fill="#D1D1D1" fill-opacity="0.7"/>
<path fill-rule="evenodd" clip-rule="evenodd" d="M147.071 16.6145L143.583 19.5211V13.708L147.071 16.6145Z" fill="#D1D1D1" fill-opacity="0.7"/>
<path fill-rule="evenodd" clip-rule="evenodd" d="M17.441 44.0168C20.6515 44.0168 23.2541 41.4142 23.2541 38.2037C23.2541 34.9932 20.6515 32.3906 17.441 32.3906C14.2305 32.3906 11.6279 34.9932 11.6279 38.2037C11.6279 41.4142 14.2305 44.0168 17.441 44.0168Z" fill="#AFB1B3"/>
<path fill-rule="evenodd" clip-rule="evenodd" d="M110.447 44.0172C113.657 44.0172 116.26 41.4146 116.26 38.2042C116.26 34.9937 113.657 32.3911 110.447 32.3911C107.236 32.3911 104.634 34.9937 104.634 38.2042C104.634 41.4146 107.236 44.0172 110.447 44.0172Z" fill="#AFB1B3"/>
<path fill-rule="evenodd" clip-rule="evenodd" d="M63.942 44.0172C67.1524 44.0172 69.755 41.4146 69.755 38.2042C69.755 34.9937 67.1524 32.3911 63.942 32.3911C60.7315 32.3911 58.1289 34.9937 58.1289 38.2042C58.1289 41.4146 60.7315 44.0172 63.942 44.0172Z" fill="#7C8E9C"/>
<path fill-rule="evenodd" clip-rule="evenodd" d="M156.955 44.0172C160.165 44.0172 162.768 41.4146 162.768 38.2042C162.768 34.9937 160.165 32.3911 156.955 32.3911C153.744 32.3911 151.142 34.9937 151.142 38.2042C151.142 41.4146 153.744 44.0172 156.955 44.0172Z" fill="#AFB1B3"/>
<path fill-rule="evenodd" clip-rule="evenodd" d="M40.69 44.0172C43.9005 44.0172 46.5031 41.4146 46.5031 38.2042C46.5031 34.9937 43.9005 32.3911 40.69 32.3911C37.4796 32.3911 34.877 34.9937 34.877 38.2042C34.877 41.4146 37.4796 44.0172 40.69 44.0172Z" fill="#AFB1B3"/>
<path fill-rule="evenodd" clip-rule="evenodd" d="M133.699 44.0172C136.909 44.0172 139.512 41.4146 139.512 38.2042C139.512 34.9937 136.909 32.3911 133.699 32.3911C130.488 32.3911 127.886 34.9937 127.886 38.2042C127.886 41.4146 130.488 44.0172 133.699 44.0172Z" fill="#AFB1B3"/>
<path fill-rule="evenodd" clip-rule="evenodd" d="M87.1978 44.0172C90.4083 44.0172 93.0109 41.4146 93.0109 38.2042C93.0109 34.9937 90.4083 32.3911 87.1978 32.3911C83.9874 32.3911 81.3848 34.9937 81.3848 38.2042C81.3848 41.4146 83.9874 44.0172 87.1978 44.0172Z" fill="#7C8E9C"/>
<path fill-rule="evenodd" clip-rule="evenodd" d="M30.8091 38.2068L27.3213 41.1134V35.3003L30.8091 38.2068Z" fill="#D1D1D1" fill-opacity="0.7"/>
<path fill-rule="evenodd" clip-rule="evenodd" d="M54.065 38.2068L50.5771 41.1134V35.3003L54.065 38.2068Z" fill="#D1D1D1" fill-opacity="0.7"/>
<path fill-rule="evenodd" clip-rule="evenodd" d="M77.314 38.2068L73.8262 41.1134V35.3003L77.314 38.2068Z" fill="#D1D1D1" fill-opacity="0.7"/>
<path fill-rule="evenodd" clip-rule="evenodd" d="M100.566 38.2068L97.0781 41.1134V35.3003L100.566 38.2068Z" fill="#D1D1D1" fill-opacity="0.7"/>
<path fill-rule="evenodd" clip-rule="evenodd" d="M123.822 38.2068L120.334 41.1134V35.3003L123.822 38.2068Z" fill="#D1D1D1" fill-opacity="0.7"/>
<path fill-rule="evenodd" clip-rule="evenodd" d="M147.071 38.2068L143.583 41.1134V35.3003L147.071 38.2068Z" fill="#D1D1D1" fill-opacity="0.7"/>
<path fill-rule="evenodd" clip-rule="evenodd" d="M17.441 65.61C20.6515 65.61 23.2541 63.0074 23.2541 59.797C23.2541 56.5865 20.6515 53.9839 17.441 53.9839C14.2305 53.9839 11.6279 56.5865 11.6279 59.797C11.6279 63.0074 14.2305 65.61 17.441 65.61Z" fill="#AFB1B3"/>
<path fill-rule="evenodd" clip-rule="evenodd" d="M110.447 65.6081C113.657 65.6081 116.26 63.0055 116.26 59.795C116.26 56.5845 113.657 53.9819 110.447 53.9819C107.236 53.9819 104.634 56.5845 104.634 59.795C104.634 63.0055 107.236 65.6081 110.447 65.6081Z" fill="#AFB1B3"/>
<path fill-rule="evenodd" clip-rule="evenodd" d="M63.942 65.6081C67.1524 65.6081 69.755 63.0055 69.755 59.795C69.755 56.5845 67.1524 53.9819 63.942 53.9819C60.7315 53.9819 58.1289 56.5845 58.1289 59.795C58.1289 63.0055 60.7315 65.6081 63.942 65.6081Z" fill="#7C8E9C"/>
<path fill-rule="evenodd" clip-rule="evenodd" d="M156.955 65.6081C160.165 65.6081 162.768 63.0055 162.768 59.795C162.768 56.5845 160.165 53.9819 156.955 53.9819C153.744 53.9819 151.142 56.5845 151.142 59.795C151.142 63.0055 153.744 65.6081 156.955 65.6081Z" fill="#AFB1B3"/>
<path fill-rule="evenodd" clip-rule="evenodd" d="M40.69 65.6081C43.9005 65.6081 46.5031 63.0055 46.5031 59.795C46.5031 56.5845 43.9005 53.9819 40.69 53.9819C37.4796 53.9819 34.877 56.5845 34.877 59.795C34.877 63.0055 37.4796 65.6081 40.69 65.6081Z" fill="#AFB1B3"/>
<path fill-rule="evenodd" clip-rule="evenodd" d="M133.699 65.6081C136.909 65.6081 139.512 63.0055 139.512 59.795C139.512 56.5845 136.909 53.9819 133.699 53.9819C130.488 53.9819 127.886 56.5845 127.886 59.795C127.886 63.0055 130.488 65.6081 133.699 65.6081Z" fill="#AFB1B3"/>
<path fill-rule="evenodd" clip-rule="evenodd" d="M87.1978 65.6081C90.4083 65.6081 93.0109 63.0055 93.0109 59.795C93.0109 56.5845 90.4083 53.9819 87.1978 53.9819C83.9874 53.9819 81.3848 56.5845 81.3848 59.795C81.3848 63.0055 83.9874 65.6081 87.1978 65.6081Z" fill="#7C8E9C"/>
<path fill-rule="evenodd" clip-rule="evenodd" d="M30.8091 59.7962L27.3213 62.7027V56.8896L30.8091 59.7962Z" fill="#D1D1D1" fill-opacity="0.7"/>
<path fill-rule="evenodd" clip-rule="evenodd" d="M54.065 59.7962L50.5771 62.7027V56.8896L54.065 59.7962Z" fill="#D1D1D1" fill-opacity="0.7"/>
<path fill-rule="evenodd" clip-rule="evenodd" d="M77.314 59.7962L73.8262 62.7027V56.8896L77.314 59.7962Z" fill="#D1D1D1" fill-opacity="0.7"/>
<path fill-rule="evenodd" clip-rule="evenodd" d="M100.566 59.7962L97.0781 62.7027V56.8896L100.566 59.7962Z" fill="#D1D1D1" fill-opacity="0.7"/>
<path fill-rule="evenodd" clip-rule="evenodd" d="M123.822 59.7962L120.334 62.7027V56.8896L123.822 59.7962Z" fill="#D1D1D1" fill-opacity="0.7"/>
<path fill-rule="evenodd" clip-rule="evenodd" d="M147.071 59.7962L143.583 62.7027V56.8896L147.071 59.7962Z" fill="#D1D1D1" fill-opacity="0.7"/>
<path fill-rule="evenodd" clip-rule="evenodd" d="M17.441 87.1994C20.6515 87.1994 23.2541 84.5968 23.2541 81.3863C23.2541 78.1758 20.6515 75.5732 17.441 75.5732C14.2305 75.5732 11.6279 78.1758 11.6279 81.3863C11.6279 84.5968 14.2305 87.1994 17.441 87.1994Z" fill="#AFB1B3"/>
<path fill-rule="evenodd" clip-rule="evenodd" d="M110.447 87.1979C113.657 87.1979 116.26 84.5953 116.26 81.3848C116.26 78.1744 113.657 75.5718 110.447 75.5718C107.236 75.5718 104.634 78.1744 104.634 81.3848C104.634 84.5953 107.236 87.1979 110.447 87.1979Z" fill="#7C8E9C"/>
<path fill-rule="evenodd" clip-rule="evenodd" d="M63.942 87.1979C67.1524 87.1979 69.755 84.5953 69.755 81.3848C69.755 78.1744 67.1524 75.5718 63.942 75.5718C60.7315 75.5718 58.1289 78.1744 58.1289 81.3848C58.1289 84.5953 60.7315 87.1979 63.942 87.1979Z" fill="#AFB1B3"/>
<path fill-rule="evenodd" clip-rule="evenodd" d="M156.955 87.1979C160.165 87.1979 162.768 84.5953 162.768 81.3848C162.768 78.1744 160.165 75.5718 156.955 75.5718C153.744 75.5718 151.142 78.1744 151.142 81.3848C151.142 84.5953 153.744 87.1979 156.955 87.1979Z" fill="#7C8E9C"/>
<path fill-rule="evenodd" clip-rule="evenodd" d="M40.69 87.1979C43.9005 87.1979 46.5031 84.5953 46.5031 81.3848C46.5031 78.1744 43.9005 75.5718 40.69 75.5718C37.4796 75.5718 34.877 78.1744 34.877 81.3848C34.877 84.5953 37.4796 87.1979 40.69 87.1979Z" fill="#AFB1B3"/>
<path fill-rule="evenodd" clip-rule="evenodd" d="M133.699 87.1979C136.909 87.1979 139.512 84.5953 139.512 81.3848C139.512 78.1744 136.909 75.5718 133.699 75.5718C130.488 75.5718 127.886 78.1744 127.886 81.3848C127.886 84.5953 130.488 87.1979 133.699 87.1979Z" fill="#7C8E9C"/>
<path fill-rule="evenodd" clip-rule="evenodd" d="M87.1978 87.1979C90.4083 87.1979 93.0109 84.5953 93.0109 81.3848C93.0109 78.1744 90.4083 75.5718 87.1978 75.5718C83.9874 75.5718 81.3848 78.1744 81.3848 81.3848C81.3848 84.5953 83.9874 87.1979 87.1978 87.1979Z" fill="#7C8E9C"/>
<path fill-rule="evenodd" clip-rule="evenodd" d="M30.8091 81.386L27.3213 84.2926V78.4795L30.8091 81.386Z" fill="#D1D1D1" fill-opacity="0.7"/>
<path fill-rule="evenodd" clip-rule="evenodd" d="M54.065 81.386L50.5771 84.2926V78.4795L54.065 81.386Z" fill="#D1D1D1" fill-opacity="0.7"/>
<path fill-rule="evenodd" clip-rule="evenodd" d="M77.314 81.386L73.8262 84.2926V78.4795L77.314 81.386Z" fill="#D1D1D1" fill-opacity="0.7"/>
<path fill-rule="evenodd" clip-rule="evenodd" d="M100.566 81.386L97.0781 84.2926V78.4795L100.566 81.386Z" fill="#D1D1D1" fill-opacity="0.7"/>
<path fill-rule="evenodd" clip-rule="evenodd" d="M123.822 81.386L120.334 84.2926V78.4795L123.822 81.386Z" fill="#D1D1D1" fill-opacity="0.7"/>
<path fill-rule="evenodd" clip-rule="evenodd" d="M147.071 81.386L143.583 84.2926V78.4795L147.071 81.386Z" fill="#D1D1D1" fill-opacity="0.7"/>
<path fill-rule="evenodd" clip-rule="evenodd" d="M42 28.9995C39.7909 28.9995 38 30.7904 38 32.9995V66.9995C38 69.2086 39.7909 70.9995 42 70.9995H70.3428L75.4853 76.142L80.6278 70.9995H108C110.209 70.9995 112 69.2087 112 66.9995V32.9995C112 30.7904 110.209 28.9995 108 28.9995H42Z" fill="#E66A45"/>
<path d="M59.46 41.1315V39.7395H56.328V37.0275H54.912V39.7395H51.864V41.1315H54.348C53.652 42.8355 52.572 44.5035 51.384 45.4755V39.8835C51.864 39.0675 52.284 38.1915 52.62 37.3515L51.204 36.8955C50.532 38.6835 49.38 40.4115 48.168 41.5035C48.42 41.8515 48.852 42.6555 48.996 43.0035C49.332 42.6915 49.656 42.3195 49.98 41.9235V48.0195H51.384V45.6195C51.708 45.9075 52.128 46.3635 52.356 46.6755C53.328 45.7755 54.216 44.4915 54.912 43.0395V48.0435H56.328V42.7995C56.976 44.3115 57.816 45.6915 58.752 46.6155C58.992 46.2435 59.472 45.7275 59.82 45.4755C58.68 44.4915 57.636 42.8355 56.952 41.1315H59.46ZM65.204 39.4995H66.62V38.7195H69.368V39.4995H70.796V38.7195H73.364V37.5195H70.796V36.8475H69.368V37.5195H66.62V36.8475H65.204V37.5195H62.672V38.7195H65.204V39.4995ZM71.6 41.5515C72.068 41.1435 72.656 40.5195 73.148 39.9075L71.912 39.3195C71.564 39.8595 70.964 40.5675 70.496 41.0115L71.6 41.5515ZM62.852 40.0755C63.404 40.5555 64.016 41.2515 64.268 41.7195L65.372 40.9395C65.084 40.4595 64.448 39.8115 63.896 39.3555L62.852 40.0755ZM65.372 41.6715C64.352 42.1035 63.332 42.5475 62.624 42.7875L63.188 43.9875C63.932 43.6395 64.832 43.2075 65.66 42.7995L65.372 41.6715ZM66.98 42.1635H69.02V42.7875H66.98V42.1635ZM69.02 41.2995H66.98V40.6875H69.02V41.2995ZM73.328 45.4395V44.2395H68.696V43.7115H70.34V42.5835C71.084 43.0035 72.02 43.6155 72.476 43.9995L73.34 43.0275C72.8 42.6075 71.72 41.9955 70.976 41.5995L70.34 42.2835V39.7635H68.444C68.54 39.5595 68.648 39.3435 68.756 39.1155L67.364 38.8995C67.304 39.1515 67.196 39.4635 67.088 39.7635H65.72V43.7115H67.292V44.2395H62.672V45.4395H65.972C64.988 46.0635 63.668 46.5795 62.408 46.8555C62.684 47.1195 63.068 47.6235 63.26 47.9595C64.724 47.5635 66.212 46.7955 67.292 45.8475V48.0315H68.696V45.8835C69.764 46.8315 71.24 47.5635 72.764 47.9115C72.944 47.5635 73.328 47.0595 73.604 46.7835C72.224 46.5435 70.856 46.0635 69.86 45.4395H73.328ZM78.76 43.1355H80.248V43.9515H78.76V43.1355ZM80.248 39.4995V40.1955H78.76V39.4995H80.248ZM78.76 41.2875H80.248V42.0435H78.76V41.2875ZM82.288 43.9515H81.556V39.4995H82.372V38.2515H81.556V36.9795H80.248V38.2515H78.76V36.9795H77.476V38.2515H76.54V39.4995H77.476V43.9515H76.396V45.1995H82.288V43.9515ZM77.884 45.2835C77.548 46.0035 76.924 46.7595 76.3 47.2275C76.624 47.4195 77.176 47.8275 77.44 48.0795C78.088 47.4915 78.796 46.5555 79.216 45.6795L77.884 45.2835ZM84.1 42.7995C84.112 42.4275 84.112 42.0795 84.112 41.7675V41.3235H85.84V42.7995H84.1ZM85.84 38.6595V40.0635H84.112V38.6595H85.84ZM87.22 37.3635H82.78V41.7675C82.78 43.3275 82.72 45.3555 82.024 46.8555C81.724 46.3635 81.16 45.7035 80.728 45.2235L79.648 45.8115C80.116 46.3635 80.692 47.1555 80.932 47.6235L81.928 47.0595C81.892 47.1315 81.844 47.1915 81.808 47.2635C82.12 47.3835 82.708 47.8155 82.936 48.0675C83.584 46.9875 83.884 45.4875 84.016 44.0715H85.84V46.4355C85.84 46.6275 85.78 46.6875 85.6 46.6875C85.432 46.6875 84.856 46.6995 84.34 46.6635C84.52 47.0235 84.7 47.6475 84.748 48.0195C85.636 48.0315 86.248 47.9955 86.668 47.7675C87.088 47.5395 87.22 47.1675 87.22 46.4595V37.3635ZM94.236 38.3235V38.9595H92.388V38.3235H94.236ZM92.388 40.6035V39.9195H94.236V40.6035H92.388ZM95.568 41.6235V37.2915H90.972V48.0435H92.388V41.6235H95.568ZM97.752 40.6275V39.9195H99.66V40.6275H97.752ZM99.66 38.3235V38.9595H97.752V38.3235H99.66ZM94.98 45.8835V45.1395H96.96V45.8835H94.98ZM96.96 44.1195H94.98V43.3995H96.96V44.1195ZM101.1 37.2915H96.396V41.6475H99.66V46.3395C99.66 46.5315 99.588 46.6035 99.372 46.6035C99.216 46.6155 98.772 46.6155 98.304 46.6035V42.3555L94.272 42.3435V42.3555H93.684V47.5395H94.98V46.9275H97.956C98.1 47.2995 98.232 47.7435 98.268 48.0435C99.3 48.0435 99.996 48.0075 100.464 47.7675C100.944 47.5395 101.1 47.1195 101.1 46.3515V37.2915Z" fill="white"/>
<path fill-rule="evenodd" clip-rule="evenodd" d="M54 61.9995C56.2091 61.9995 58 60.2087 58 57.9995C58 55.7904 56.2091 53.9995 54 53.9995C51.7909 53.9995 50 55.7904 50 57.9995C50 60.2087 51.7909 61.9995 54 61.9995Z" fill="white"/>
<path fill-rule="evenodd" clip-rule="evenodd" d="M68 61.9995C70.2091 61.9995 72 60.2087 72 57.9995C72 55.7904 70.2091 53.9995 68 53.9995C65.7909 53.9995 64 55.7904 64 57.9995C64 60.2087 65.7909 61.9995 68 61.9995Z" fill="white"/>
<path fill-rule="evenodd" clip-rule="evenodd" d="M82 61.9995C84.2091 61.9995 86 60.2087 86 57.9995C86 55.7904 84.2091 53.9995 82 53.9995C79.7909 53.9995 78 55.7904 78 57.9995C78 60.2087 79.7909 61.9995 82 61.9995Z" fill="white"/>
<path fill-rule="evenodd" clip-rule="evenodd" d="M96 61.9995C98.2091 61.9995 100 60.2087 100 57.9995C100 55.7904 98.2091 53.9995 96 53.9995C93.7909 53.9995 92 55.7904 92 57.9995C92 60.2087 93.7909 61.9995 96 61.9995Z" fill="white"/>
</svg>
