<svg width="221" height="133" viewBox="0 0 221 133" fill="none" xmlns="http://www.w3.org/2000/svg">
<rect x="0.5" y="0.0299683" width="220" height="121.798" rx="5.05747" fill="#E8EBED"/>
<path fill-rule="evenodd" clip-rule="evenodd" d="M22.5518 27.3279C26.611 27.3279 29.9016 24.0373 29.9016 19.9781C29.9016 15.9189 26.611 12.6282 22.5518 12.6282C18.4925 12.6282 15.2019 15.9189 15.2019 19.9781C15.2019 24.0373 18.4925 27.3279 22.5518 27.3279Z" fill="#AFB1B3"/>
<path fill-rule="evenodd" clip-rule="evenodd" d="M140.146 27.3282C144.205 27.3282 147.496 24.0376 147.496 19.9783C147.496 15.9191 144.205 12.6285 140.146 12.6285C136.087 12.6285 132.796 15.9191 132.796 19.9783C132.796 24.0376 136.087 27.3282 140.146 27.3282Z" fill="#AFB1B3"/>
<path fill-rule="evenodd" clip-rule="evenodd" d="M81.3462 27.3282C85.4054 27.3282 88.696 24.0376 88.696 19.9783C88.696 15.9191 85.4054 12.6285 81.3462 12.6285C77.287 12.6285 73.9963 15.9191 73.9963 19.9783C73.9963 24.0376 77.287 27.3282 81.3462 27.3282Z" fill="#AFB1B3"/>
<path fill-rule="evenodd" clip-rule="evenodd" d="M198.948 27.3282C203.007 27.3282 206.298 24.0376 206.298 19.9783C206.298 15.9191 203.007 12.6285 198.948 12.6285C194.889 12.6285 191.598 15.9191 191.598 19.9783C191.598 24.0376 194.889 27.3282 198.948 27.3282Z" fill="#AFB1B3"/>
<path fill-rule="evenodd" clip-rule="evenodd" d="M51.9475 27.3282C56.0067 27.3282 59.2974 24.0376 59.2974 19.9783C59.2974 15.9191 56.0067 12.6285 51.9475 12.6285C47.8883 12.6285 44.5977 15.9191 44.5977 19.9783C44.5977 24.0376 47.8883 27.3282 51.9475 27.3282Z" fill="#AFB1B3"/>
<path fill-rule="evenodd" clip-rule="evenodd" d="M169.544 27.3282C173.604 27.3282 176.894 24.0376 176.894 19.9783C176.894 15.9191 173.604 12.6285 169.544 12.6285C165.485 12.6285 162.195 15.9191 162.195 19.9783C162.195 24.0376 165.485 27.3282 169.544 27.3282Z" fill="#AFB1B3"/>
<path fill-rule="evenodd" clip-rule="evenodd" d="M110.75 27.3282C114.809 27.3282 118.1 24.0376 118.1 19.9783C118.1 15.9191 114.809 12.6285 110.75 12.6285C106.691 12.6285 103.4 15.9191 103.4 19.9783C103.4 24.0376 106.691 27.3282 110.75 27.3282Z" fill="#AFB1B3"/>
<path fill-rule="evenodd" clip-rule="evenodd" d="M39.4536 19.9822L35.0437 23.6571V16.3072L39.4536 19.9822Z" fill="#D1D1D1" fill-opacity="0.7"/>
<path fill-rule="evenodd" clip-rule="evenodd" d="M68.8574 19.9822L64.4475 23.6571V16.3072L68.8574 19.9822Z" fill="#D1D1D1" fill-opacity="0.7"/>
<path fill-rule="evenodd" clip-rule="evenodd" d="M98.2534 19.9822L93.8435 23.6571V16.3072L98.2534 19.9822Z" fill="#D1D1D1" fill-opacity="0.7"/>
<path fill-rule="evenodd" clip-rule="evenodd" d="M127.652 19.9822L123.242 23.6571V16.3072L127.652 19.9822Z" fill="#D1D1D1" fill-opacity="0.7"/>
<path fill-rule="evenodd" clip-rule="evenodd" d="M157.056 19.9822L152.646 23.6571V16.3072L157.056 19.9822Z" fill="#D1D1D1" fill-opacity="0.7"/>
<path fill-rule="evenodd" clip-rule="evenodd" d="M186.452 19.9822L182.042 23.6571V16.3072L186.452 19.9822Z" fill="#D1D1D1" fill-opacity="0.7"/>
<path fill-rule="evenodd" clip-rule="evenodd" d="M22.5518 54.6281C26.611 54.6281 29.9016 51.3374 29.9016 47.2782C29.9016 43.219 26.611 39.9284 22.5518 39.9284C18.4925 39.9284 15.2019 43.219 15.2019 47.2782C15.2019 51.3374 18.4925 54.6281 22.5518 54.6281Z" fill="#AFB1B3"/>
<path fill-rule="evenodd" clip-rule="evenodd" d="M140.146 54.6285C144.205 54.6285 147.496 51.3379 147.496 47.2787C147.496 43.2195 144.205 39.9288 140.146 39.9288C136.087 39.9288 132.796 43.2195 132.796 47.2787C132.796 51.3379 136.087 54.6285 140.146 54.6285Z" fill="#AFB1B3"/>
<path fill-rule="evenodd" clip-rule="evenodd" d="M81.3462 54.6285C85.4054 54.6285 88.696 51.3379 88.696 47.2787C88.696 43.2195 85.4054 39.9288 81.3462 39.9288C77.287 39.9288 73.9963 43.2195 73.9963 47.2787C73.9963 51.3379 77.287 54.6285 81.3462 54.6285Z" fill="#AFB1B3"/>
<path fill-rule="evenodd" clip-rule="evenodd" d="M198.948 54.6285C203.007 54.6285 206.298 51.3379 206.298 47.2787C206.298 43.2195 203.007 39.9288 198.948 39.9288C194.889 39.9288 191.598 43.2195 191.598 47.2787C191.598 51.3379 194.889 54.6285 198.948 54.6285Z" fill="#AFB1B3"/>
<path fill-rule="evenodd" clip-rule="evenodd" d="M51.9475 54.6285C56.0067 54.6285 59.2974 51.3379 59.2974 47.2787C59.2974 43.2195 56.0067 39.9288 51.9475 39.9288C47.8883 39.9288 44.5977 43.2195 44.5977 47.2787C44.5977 51.3379 47.8883 54.6285 51.9475 54.6285Z" fill="#AFB1B3"/>
<path fill-rule="evenodd" clip-rule="evenodd" d="M169.544 54.6285C173.604 54.6285 176.894 51.3379 176.894 47.2787C176.894 43.2195 173.604 39.9288 169.544 39.9288C165.485 39.9288 162.195 43.2195 162.195 47.2787C162.195 51.3379 165.485 54.6285 169.544 54.6285Z" fill="#AFB1B3"/>
<path fill-rule="evenodd" clip-rule="evenodd" d="M110.75 54.6285C114.809 54.6285 118.1 51.3379 118.1 47.2787C118.1 43.2195 114.809 39.9288 110.75 39.9288C106.691 39.9288 103.4 43.2195 103.4 47.2787C103.4 51.3379 106.691 54.6285 110.75 54.6285Z" fill="#AFB1B3"/>
<path fill-rule="evenodd" clip-rule="evenodd" d="M39.4536 47.2825L35.0437 50.9574V43.6076L39.4536 47.2825Z" fill="#D1D1D1" fill-opacity="0.7"/>
<path fill-rule="evenodd" clip-rule="evenodd" d="M68.8574 47.2825L64.4475 50.9574V43.6076L68.8574 47.2825Z" fill="#D1D1D1" fill-opacity="0.7"/>
<path fill-rule="evenodd" clip-rule="evenodd" d="M98.2534 47.2825L93.8435 50.9574V43.6076L98.2534 47.2825Z" fill="#D1D1D1" fill-opacity="0.7"/>
<path fill-rule="evenodd" clip-rule="evenodd" d="M127.652 47.2825L123.242 50.9574V43.6076L127.652 47.2825Z" fill="#D1D1D1" fill-opacity="0.7"/>
<path fill-rule="evenodd" clip-rule="evenodd" d="M157.056 47.2825L152.646 50.9574V43.6076L157.056 47.2825Z" fill="#D1D1D1" fill-opacity="0.7"/>
<path fill-rule="evenodd" clip-rule="evenodd" d="M186.452 47.2825L182.042 50.9574V43.6076L186.452 47.2825Z" fill="#D1D1D1" fill-opacity="0.7"/>
<path fill-rule="evenodd" clip-rule="evenodd" d="M22.5518 81.9303C26.611 81.9303 29.9016 78.6397 29.9016 74.5804C29.9016 70.5212 26.611 67.2306 22.5518 67.2306C18.4925 67.2306 15.2019 70.5212 15.2019 74.5804C15.2019 78.6397 18.4925 81.9303 22.5518 81.9303Z" fill="#AFB1B3"/>
<path fill-rule="evenodd" clip-rule="evenodd" d="M140.146 81.9276C144.205 81.9276 147.496 78.637 147.496 74.5778C147.496 70.5185 144.205 67.2279 140.146 67.2279C136.087 67.2279 132.796 70.5185 132.796 74.5778C132.796 78.637 136.087 81.9276 140.146 81.9276Z" fill="#7C8E9C"/>
<path fill-rule="evenodd" clip-rule="evenodd" d="M81.3462 81.9276C85.4054 81.9276 88.696 78.637 88.696 74.5778C88.696 70.5185 85.4054 67.2279 81.3462 67.2279C77.287 67.2279 73.9963 70.5185 73.9963 74.5778C73.9963 78.637 77.287 81.9276 81.3462 81.9276Z" fill="#AFB1B3"/>
<path fill-rule="evenodd" clip-rule="evenodd" d="M198.948 81.9276C203.007 81.9276 206.298 78.637 206.298 74.5778C206.298 70.5185 203.007 67.2279 198.948 67.2279C194.889 67.2279 191.598 70.5185 191.598 74.5778C191.598 78.637 194.889 81.9276 198.948 81.9276Z" fill="#7C8E9C"/>
<path fill-rule="evenodd" clip-rule="evenodd" d="M51.9475 81.9276C56.0067 81.9276 59.2974 78.637 59.2974 74.5778C59.2974 70.5185 56.0067 67.2279 51.9475 67.2279C47.8883 67.2279 44.5977 70.5185 44.5977 74.5778C44.5977 78.637 47.8883 81.9276 51.9475 81.9276Z" fill="#AFB1B3"/>
<path fill-rule="evenodd" clip-rule="evenodd" d="M169.544 81.9276C173.604 81.9276 176.894 78.637 176.894 74.5778C176.894 70.5185 173.604 67.2279 169.544 67.2279C165.485 67.2279 162.195 70.5185 162.195 74.5778C162.195 78.637 165.485 81.9276 169.544 81.9276Z" fill="#7C8E9C"/>
<path fill-rule="evenodd" clip-rule="evenodd" d="M110.75 81.9276C114.809 81.9276 118.1 78.637 118.1 74.5778C118.1 70.5185 114.809 67.2279 110.75 67.2279C106.691 67.2279 103.4 70.5185 103.4 74.5778C103.4 78.637 106.691 81.9276 110.75 81.9276Z" fill="#7C8E9C"/>
<path fill-rule="evenodd" clip-rule="evenodd" d="M39.4536 74.579L35.0437 78.2539V70.904L39.4536 74.579Z" fill="#D1D1D1" fill-opacity="0.7"/>
<path fill-rule="evenodd" clip-rule="evenodd" d="M68.8574 74.579L64.4475 78.2539V70.904L68.8574 74.579Z" fill="#D1D1D1" fill-opacity="0.7"/>
<path fill-rule="evenodd" clip-rule="evenodd" d="M98.2534 74.579L93.8435 78.2539V70.904L98.2534 74.579Z" fill="#D1D1D1" fill-opacity="0.7"/>
<path fill-rule="evenodd" clip-rule="evenodd" d="M127.652 74.579L123.242 78.2539V70.904L127.652 74.579Z" fill="#D1D1D1" fill-opacity="0.7"/>
<path fill-rule="evenodd" clip-rule="evenodd" d="M157.056 74.579L152.646 78.2539V70.904L157.056 74.579Z" fill="#D1D1D1" fill-opacity="0.7"/>
<path fill-rule="evenodd" clip-rule="evenodd" d="M186.452 74.579L182.042 78.2539V70.904L186.452 74.579Z" fill="#D1D1D1" fill-opacity="0.7"/>
<path fill-rule="evenodd" clip-rule="evenodd" d="M22.5518 109.227C26.611 109.227 29.9016 105.936 29.9016 101.877C29.9016 97.8177 26.611 94.5271 22.5518 94.5271C18.4925 94.5271 15.2019 97.8177 15.2019 101.877C15.2019 105.936 18.4925 109.227 22.5518 109.227Z" fill="#7C8E9C"/>
<path fill-rule="evenodd" clip-rule="evenodd" d="M140.146 109.225C144.205 109.225 147.496 105.935 147.496 101.875C147.496 97.8161 144.205 94.5255 140.146 94.5255C136.087 94.5255 132.796 97.8161 132.796 101.875C132.796 105.935 136.087 109.225 140.146 109.225Z" fill="#7C8E9C"/>
<path fill-rule="evenodd" clip-rule="evenodd" d="M81.3462 109.225C85.4054 109.225 88.696 105.935 88.696 101.875C88.696 97.8161 85.4054 94.5255 81.3462 94.5255C77.287 94.5255 73.9963 97.8161 73.9963 101.875C73.9963 105.935 77.287 109.225 81.3462 109.225Z" fill="#AFB1B3"/>
<path fill-rule="evenodd" clip-rule="evenodd" d="M198.948 109.225C203.007 109.225 206.298 105.935 206.298 101.875C206.298 97.8161 203.007 94.5255 198.948 94.5255C194.889 94.5255 191.598 97.8161 191.598 101.875C191.598 105.935 194.889 109.225 198.948 109.225Z" fill="#7C8E9C"/>
<path fill-rule="evenodd" clip-rule="evenodd" d="M51.9475 109.225C56.0067 109.225 59.2974 105.935 59.2974 101.875C59.2974 97.8161 56.0067 94.5255 51.9475 94.5255C47.8883 94.5255 44.5977 97.8161 44.5977 101.875C44.5977 105.935 47.8883 109.225 51.9475 109.225Z" fill="#AFB1B3"/>
<path fill-rule="evenodd" clip-rule="evenodd" d="M169.544 109.225C173.604 109.225 176.894 105.935 176.894 101.875C176.894 97.8161 173.604 94.5255 169.544 94.5255C165.485 94.5255 162.195 97.8161 162.195 101.875C162.195 105.935 165.485 109.225 169.544 109.225Z" fill="#7C8E9C"/>
<path fill-rule="evenodd" clip-rule="evenodd" d="M110.75 109.225C114.809 109.225 118.1 105.935 118.1 101.875C118.1 97.8161 114.809 94.5255 110.75 94.5255C106.691 94.5255 103.4 97.8161 103.4 101.875C103.4 105.935 106.691 109.225 110.75 109.225Z" fill="#7C8E9C"/>
<path fill-rule="evenodd" clip-rule="evenodd" d="M39.4536 101.877L35.0437 105.551V98.2016L39.4536 101.877Z" fill="#D1D1D1" fill-opacity="0.7"/>
<path fill-rule="evenodd" clip-rule="evenodd" d="M68.8574 101.877L64.4475 105.551V98.2016L68.8574 101.877Z" fill="#D1D1D1" fill-opacity="0.7"/>
<path fill-rule="evenodd" clip-rule="evenodd" d="M98.2534 101.877L93.8435 105.551V98.2016L98.2534 101.877Z" fill="#D1D1D1" fill-opacity="0.7"/>
<path fill-rule="evenodd" clip-rule="evenodd" d="M127.652 101.877L123.242 105.551V98.2016L127.652 101.877Z" fill="#D1D1D1" fill-opacity="0.7"/>
<path fill-rule="evenodd" clip-rule="evenodd" d="M157.056 101.877L152.646 105.551V98.2016L157.056 101.877Z" fill="#D1D1D1" fill-opacity="0.7"/>
<path fill-rule="evenodd" clip-rule="evenodd" d="M186.452 101.877L182.042 105.551V98.2016L186.452 101.877Z" fill="#D1D1D1" fill-opacity="0.7"/>
<path opacity="0.8" d="M119.08 74.5804C119.08 78.9697 115.521 82.5279 111.132 82.5279C106.743 82.5279 103.185 78.9697 103.185 74.5804C103.185 70.1912 106.743 66.633 111.132 66.633C115.521 66.633 119.08 70.1912 119.08 74.5804Z" stroke="#E66A45" stroke-width="2.40832"/>
<path opacity="0.4" d="M120.133 74.5804C120.133 79.5516 116.103 83.5815 111.132 83.5815C106.161 83.5815 102.131 79.5516 102.131 74.5804C102.131 69.6093 106.161 65.5794 111.132 65.5794C116.103 65.5794 120.133 69.6093 120.133 74.5804Z" stroke="#E66A45" stroke-width="6.0208"/>
<path d="M68.3711 65.6285V59.3885L66.7871 60.6125L65.7431 59.1845L68.5391 57.1325H70.3871V65.6285H68.3711ZM74.0049 66.2525L72.6489 65.8085L76.3569 56.4845L77.7129 56.9525L74.0049 66.2525ZM81.1094 65.6285V59.3885L79.5254 60.6125L78.4814 59.1845L81.2774 57.1325H83.1254V65.6285H81.1094ZM88.8672 65.6285V59.3885L87.2832 60.6125L86.2392 59.1845L89.0352 57.1325H90.8832V65.6285H88.8672Z" fill="#29304D" fill-opacity="0.87"/>
<path d="M100.519 65.6285V59.3885L98.935 60.6125L97.891 59.1845L100.687 57.1325H102.535V65.6285H100.519ZM106.153 66.2525L104.797 65.8085L108.505 56.4845L109.861 56.9525L106.153 66.2525ZM113.257 65.6285V59.3885L111.673 60.6125L110.629 59.1845L113.425 57.1325H115.273V65.6285H113.257ZM124.603 62.8205C124.603 63.3405 124.511 63.7925 124.327 64.1765C124.143 64.5525 123.895 64.8645 123.583 65.1125C123.279 65.3605 122.931 65.5445 122.539 65.6645C122.147 65.7925 121.743 65.8565 121.327 65.8565C120.943 65.8565 120.575 65.8045 120.223 65.7005C119.879 65.6045 119.563 65.4645 119.275 65.2805C118.995 65.0965 118.751 64.8725 118.543 64.6085C118.343 64.3365 118.195 64.0325 118.099 63.6965L119.935 63.1325C120.023 63.4285 120.187 63.6725 120.427 63.8645C120.675 64.0565 120.967 64.1525 121.303 64.1525C121.647 64.1525 121.943 64.0485 122.191 63.8405C122.447 63.6325 122.575 63.3245 122.575 62.9165C122.575 62.6685 122.523 62.4605 122.419 62.2925C122.315 62.1245 122.179 61.9925 122.011 61.8965C121.851 61.7925 121.667 61.7205 121.459 61.6805C121.251 61.6405 121.043 61.6205 120.835 61.6205C120.531 61.6205 120.183 61.6565 119.791 61.7285C119.407 61.7925 119.063 61.8805 118.759 61.9925L118.963 57.1325H124.171V58.8605H120.751L120.679 60.2045C120.807 60.1725 120.947 60.1525 121.099 60.1445C121.259 60.1285 121.403 60.1205 121.531 60.1205C121.955 60.1205 122.355 60.1765 122.731 60.2885C123.107 60.4005 123.431 60.5725 123.703 60.8045C123.983 61.0285 124.203 61.3085 124.363 61.6445C124.523 61.9805 124.603 62.3725 124.603 62.8205Z" fill="#29304D" fill-opacity="0.87"/>
<path fill-rule="evenodd" clip-rule="evenodd" d="M95.8433 82.2776L87.358 90.7629L87.5652 90.9701H47.8433C45.6341 90.9701 43.8433 92.761 43.8433 94.9701V128.97C43.8433 131.179 45.6341 132.97 47.8433 132.97H143.843C146.052 132.97 147.843 131.179 147.843 128.97V94.9701C147.843 92.761 146.052 90.9701 143.843 90.9701H104.121L104.329 90.7629L95.8433 82.2776Z" fill="#4E6287"/>
<path d="M56.2313 103.975C56.2433 103.579 56.2433 103.207 56.2433 102.847V102.523H57.4193V103.975H56.2313ZM57.4193 99.8107V101.203H56.2433V99.8107H57.4193ZM58.7393 98.4907H54.9593V102.847C54.9593 104.599 54.9113 107.011 54.1673 108.643C54.4793 108.751 55.0673 109.087 55.3193 109.291C55.8113 108.199 56.0513 106.723 56.1593 105.319H57.4193V107.695C57.4193 107.863 57.3593 107.911 57.2153 107.911C57.0713 107.911 56.6273 107.923 56.1953 107.899C56.3753 108.259 56.5433 108.907 56.5793 109.279C57.3593 109.279 57.8753 109.243 58.2473 109.015C58.6433 108.763 58.7393 108.379 58.7393 107.719V98.4907ZM60.7553 103.951H60.8273C61.1873 105.043 61.6313 106.051 62.2193 106.927C61.7753 107.431 61.2953 107.851 60.7553 108.151V103.951ZM63.7433 103.951C63.5513 104.623 63.2873 105.259 62.9633 105.823C62.5913 105.247 62.2793 104.611 62.0393 103.951H63.7433ZM64.4393 102.619L64.2233 102.667H60.7553V99.8227H63.5513V100.783C63.5513 100.927 63.4913 100.963 63.2993 100.975C63.1073 100.987 62.3993 100.987 61.7993 100.951C61.9673 101.299 62.1593 101.779 62.2193 102.151C63.1313 102.151 63.8153 102.151 64.2833 101.971C64.7873 101.779 64.9193 101.443 64.9193 100.819V98.5027H59.3993V109.291H60.7553V108.307C61.0193 108.571 61.3193 108.991 61.4633 109.267C62.0513 108.919 62.5793 108.487 63.0353 107.983C63.5393 108.499 64.1153 108.943 64.7393 109.291C64.9433 108.943 65.3393 108.439 65.6273 108.175C64.9673 107.887 64.3673 107.443 63.8513 106.915C64.5233 105.835 65.0153 104.515 65.2913 102.895L64.4393 102.619ZM72.6833 104.431V102.955H75.2153V104.431H72.6833ZM68.9513 104.431C68.9753 103.987 68.9873 103.555 68.9873 103.171V102.955H71.2433V104.431H68.9513ZM71.2433 100.231V101.623H68.9873V100.231H71.2433ZM75.2153 101.623H72.6833V100.231H75.2153V101.623ZM76.6313 98.8747H67.5713V103.159C67.5713 104.839 67.4633 106.975 66.1553 108.415C66.4793 108.583 67.0553 109.075 67.2833 109.339C68.1473 108.403 68.5793 107.083 68.7953 105.775H71.2433V109.123H72.6833V105.775H75.2153V107.575C75.2153 107.791 75.1313 107.863 74.9033 107.863C74.6873 107.863 73.8953 107.875 73.2233 107.839C73.4033 108.211 73.6313 108.823 73.6793 109.207C74.7593 109.219 75.4913 109.195 75.9833 108.955C76.4633 108.739 76.6313 108.355 76.6313 107.587V98.8747ZM83.0753 98.4907H81.4193C81.4553 98.7067 81.5033 99.2947 81.5033 99.5467C81.5033 99.7507 81.5033 100.099 81.4913 100.519C81.2513 100.531 81.0113 100.543 80.7953 100.543C80.3633 100.543 79.8473 100.531 79.1393 100.447L79.1633 101.899C79.5713 101.947 80.0393 101.959 80.8433 101.959C81.0353 101.959 81.2513 101.947 81.4793 101.935C81.4793 102.271 81.4793 102.607 81.4793 102.943C81.4793 103.219 81.4793 103.507 81.4913 103.795C80.0153 104.431 78.8153 105.523 78.8153 106.567C78.8153 107.839 80.4593 108.847 81.6233 108.847C82.4153 108.847 82.9433 108.451 82.9433 106.963C82.9433 106.555 82.9193 105.619 82.8953 104.671C83.6273 104.455 84.4073 104.335 85.1513 104.335C86.1953 104.335 86.9153 104.815 86.9153 105.631C86.9153 106.507 86.1473 106.987 85.1753 107.167C84.7553 107.239 84.2393 107.251 83.6993 107.251L84.2513 108.799C84.7433 108.763 85.2713 108.727 85.8233 108.607C87.7313 108.127 88.4753 107.059 88.4753 105.643C88.4753 103.987 87.0233 103.027 85.1753 103.027C84.5153 103.027 83.6873 103.135 82.8713 103.339C82.8713 103.183 82.8713 103.039 82.8713 102.895C82.8713 102.547 82.8713 102.175 82.8833 101.815C83.6633 101.719 84.4913 101.599 85.1753 101.443L85.1393 99.9547C84.5153 100.135 83.7233 100.291 82.9313 100.387C82.9433 100.087 82.9553 99.7987 82.9673 99.5347C82.9913 99.2227 83.0393 98.7067 83.0753 98.4907ZM86.4953 99.7867L85.8353 100.951C86.5793 101.311 88.1513 102.211 88.7273 102.703L89.4473 101.479C88.8113 101.023 87.4193 100.231 86.4953 99.7867ZM80.2913 106.507C80.2913 106.087 80.7833 105.595 81.5153 105.199C81.5393 105.847 81.5513 106.399 81.5513 106.699C81.5513 107.107 81.3833 107.203 81.1673 107.203C80.8553 107.203 80.2913 106.879 80.2913 106.507ZM101.303 102.367V100.975H98.1713V98.2627H96.7553V100.975H93.7073V102.367H96.1913C95.4953 104.071 94.4153 105.739 93.2273 106.711V101.119C93.7073 100.303 94.1273 99.4267 94.4633 98.5867L93.0473 98.1307C92.3753 99.9187 91.2233 101.647 90.0113 102.739C90.2633 103.087 90.6953 103.891 90.8393 104.239C91.1753 103.927 91.4993 103.555 91.8233 103.159V109.255H93.2273V106.855C93.5513 107.143 93.9713 107.599 94.1993 107.911C95.1713 107.011 96.0593 105.727 96.7553 104.275V109.279H98.1713V104.035C98.8193 105.547 99.6593 106.927 100.595 107.851C100.835 107.479 101.315 106.963 101.663 106.711C100.523 105.727 99.4793 104.071 98.7953 102.367H101.303ZM104.411 99.1507L104.471 100.699C104.783 100.651 105.203 100.615 105.443 100.603C105.995 100.567 107.027 100.531 107.507 100.507C107.231 101.071 106.883 101.887 106.547 102.679C104.135 102.787 102.443 104.203 102.443 106.063C102.443 107.275 103.235 108.007 104.291 108.007C105.107 108.007 105.683 107.671 106.163 106.951C106.583 106.291 107.087 105.091 107.519 104.071C108.551 104.215 109.511 104.575 110.363 105.043C109.967 106.135 109.127 107.275 107.315 108.055L108.587 109.099C110.195 108.259 111.107 107.203 111.635 105.847C112.007 106.123 112.355 106.399 112.667 106.687L113.363 105.019C113.015 104.779 112.583 104.503 112.079 104.215C112.199 103.543 112.259 102.799 112.307 101.995L110.735 101.815C110.771 102.175 110.771 102.655 110.735 103.123C110.723 103.255 110.711 103.387 110.699 103.531C109.919 103.195 109.031 102.907 108.095 102.763C108.527 101.743 108.983 100.699 109.295 100.183C109.391 100.015 109.535 99.8587 109.703 99.6787L108.743 98.9347C108.539 99.0187 108.227 99.0907 107.927 99.1027C107.363 99.1507 106.091 99.2107 105.407 99.2107C105.143 99.2107 104.735 99.1867 104.411 99.1507ZM103.847 105.835C103.847 105.079 104.603 104.263 105.947 104.059C105.611 104.815 105.287 105.571 104.975 106.015C104.759 106.315 104.591 106.435 104.351 106.435C104.075 106.435 103.847 106.231 103.847 105.835ZM116.603 104.371H118.091V105.187H116.603V104.371ZM118.091 100.735V101.431H116.603V100.735H118.091ZM116.603 102.523H118.091V103.279H116.603V102.523ZM120.131 105.187H119.399V100.735H120.215V99.4867H119.399V98.2147H118.091V99.4867H116.603V98.2147H115.319V99.4867H114.383V100.735H115.319V105.187H114.239V106.435H120.131V105.187ZM115.727 106.519C115.391 107.239 114.767 107.995 114.143 108.463C114.467 108.655 115.019 109.063 115.283 109.315C115.931 108.727 116.639 107.791 117.059 106.915L115.727 106.519ZM121.943 104.035C121.955 103.663 121.955 103.315 121.955 103.003V102.559H123.683V104.035H121.943ZM123.683 99.8947V101.299H121.955V99.8947H123.683ZM125.063 98.5987H120.623V103.003C120.623 104.563 120.563 106.591 119.867 108.091C119.567 107.599 119.003 106.939 118.571 106.459L117.491 107.047C117.959 107.599 118.535 108.391 118.775 108.859L119.771 108.295C119.735 108.367 119.687 108.427 119.651 108.499C119.963 108.619 120.551 109.051 120.779 109.303C121.427 108.223 121.727 106.723 121.859 105.307H123.683V107.671C123.683 107.863 123.623 107.923 123.443 107.923C123.275 107.923 122.699 107.935 122.183 107.899C122.363 108.259 122.543 108.883 122.591 109.255C123.479 109.267 124.091 109.231 124.511 109.003C124.931 108.775 125.063 108.403 125.063 107.695V98.5987ZM130.079 99.5587V100.195H128.231V99.5587H130.079ZM128.231 101.839V101.155H130.079V101.839H128.231ZM131.411 102.859V98.5267H126.815V109.279H128.231V102.859H131.411ZM133.595 101.863V101.155H135.503V101.863H133.595ZM135.503 99.5587V100.195H133.595V99.5587H135.503ZM130.823 107.119V106.375H132.803V107.119H130.823ZM132.803 105.355H130.823V104.635H132.803V105.355ZM136.943 98.5267H132.239V102.883H135.503V107.575C135.503 107.767 135.431 107.839 135.215 107.839C135.059 107.851 134.615 107.851 134.147 107.839V103.591L130.115 103.579V103.591H129.527V108.775H130.823V108.163H133.799C133.943 108.535 134.075 108.979 134.111 109.279C135.143 109.279 135.839 109.243 136.307 109.003C136.787 108.775 136.943 108.355 136.943 107.587V98.5267ZM73.3019 125.235H78.6419V123.807H76.9739V116.343H75.6659C75.1019 116.703 74.4899 116.931 73.6019 117.099V118.191H75.2099V123.807H73.3019V125.235ZM79.5523 127.419H80.7283L83.7043 115.563H82.5403L79.5523 127.419ZM85.0206 125.235H90.3606V123.807H88.6926V116.343H87.3846C86.8206 116.703 86.2086 116.931 85.3206 117.099V118.191H86.9286V123.807H85.0206V125.235ZM91.619 125.235H97.571V123.747H95.651C95.231 123.747 94.643 123.795 94.199 123.843C95.819 122.259 97.151 120.531 97.151 118.923C97.151 117.267 96.035 116.187 94.355 116.187C93.143 116.187 92.351 116.655 91.535 117.531L92.495 118.491C92.951 117.999 93.479 117.579 94.127 117.579C94.979 117.579 95.459 118.119 95.459 119.019C95.459 120.387 94.031 122.055 91.619 124.215V125.235ZM102.873 121.899C103.521 121.899 104.205 121.527 104.817 120.555L103.893 119.847C103.605 120.375 103.281 120.639 102.897 120.639C102.153 120.639 101.649 119.583 100.545 119.583C99.8854 119.583 99.2134 119.955 98.5894 120.939L99.5134 121.635C99.8014 121.107 100.137 120.843 100.509 120.843C101.265 120.843 101.769 121.899 102.873 121.899ZM106.22 125.235H111.56V123.807H109.892V116.343H108.584C108.02 116.703 107.408 116.931 106.52 117.099V118.191H108.128V123.807H106.22V125.235ZM114.27 121.587L115.65 119.379C115.902 118.899 116.142 118.407 116.358 117.927H116.406C116.382 118.455 116.346 119.259 116.346 119.775V121.587H114.27ZM116.346 125.235H117.99V122.931H119.034V121.587H117.99V116.343H115.866L112.554 121.731V122.931H116.346V125.235Z" fill="white"/>
</svg>
