<svg width="17" height="17" viewBox="0 0 17 17" fill="none" xmlns="http://www.w3.org/2000/svg">
<path fill-rule="evenodd" clip-rule="evenodd" d="M16.18 8.68177C16.18 8.1145 16.1291 7.56905 16.0345 7.04541H8.5V10.14H12.8055C12.62 11.14 12.0564 11.9872 11.2091 12.5545V14.5618H13.7945C15.3073 13.169 16.18 11.1181 16.18 8.68177Z" fill="#4285F4"/>
<path fill-rule="evenodd" clip-rule="evenodd" d="M8.49992 16.4995C10.6599 16.4995 12.4708 15.7832 13.7945 14.5613L11.209 12.5541C10.4926 13.0341 9.57629 13.3177 8.49992 13.3177C6.41629 13.3177 4.65265 11.9104 4.02356 10.0195H1.35083V12.0923C2.66719 14.7068 5.37265 16.4995 8.49992 16.4995Z" fill="#34A853"/>
<path fill-rule="evenodd" clip-rule="evenodd" d="M4.02364 10.02C3.86364 9.53995 3.77273 9.02723 3.77273 8.49995C3.77273 7.97268 3.86364 7.45995 4.02364 6.97995V4.90723H1.35091C0.809091 5.98723 0.5 7.20904 0.5 8.49995C0.5 9.79086 0.809091 11.0127 1.35091 12.0927L4.02364 10.02Z" fill="#FBBC05"/>
<path fill-rule="evenodd" clip-rule="evenodd" d="M8.49992 3.68182C9.67447 3.68182 10.729 4.08545 11.5581 4.87818L13.8526 2.58364C12.4672 1.29273 10.6563 0.5 8.49992 0.5C5.37265 0.5 2.66719 2.29273 1.35083 4.90727L4.02356 6.98C4.65265 5.08909 6.41629 3.68182 8.49992 3.68182Z" fill="#EA4335"/>
</svg>
