<svg width="13" height="17" viewBox="0 0 13 17" fill="none" xmlns="http://www.w3.org/2000/svg">
<g clip-path="url(#clip0)">
<path fill-rule="evenodd" clip-rule="evenodd" d="M2.14179 2.14164C2.57985 2.04851 3.03423 1.99951 3.50006 1.99951C7.08991 1.99951 10.0001 4.90966 10.0001 8.49951C10.0001 12.0894 7.08991 14.9995 3.50006 14.9995C3.03423 14.9995 2.57985 14.9505 2.14179 14.8574C1.50592 15.422 0.784757 15.8928 5.91278e-05 16.2478C1.06743 16.7307 2.25235 16.9995 3.50006 16.9995C8.19448 16.9995 12.0001 13.1939 12.0001 8.49951C12.0001 3.80509 8.19448 -0.000488281 3.50006 -0.000488281C2.25235 -0.000488281 1.06743 0.268347 5.91278e-05 0.751251C0.784757 1.10627 1.50592 1.57699 2.14179 2.14164Z" fill="#E66A45"/>
</g>
<defs>
<clipPath id="clip0">
<rect width="13" height="17" fill="white"/>
</clipPath>
</defs>
</svg>
