<svg width="12" height="17" viewBox="0 0 12 17" fill="none" xmlns="http://www.w3.org/2000/svg">
<g clip-path="url(#clip0)">
<path fill-rule="evenodd" clip-rule="evenodd" d="M2.14173 2.14164C2.57979 2.04851 3.03417 1.99951 3.5 1.99951C7.08985 1.99951 10 4.90966 10 8.49951C10 12.0894 7.08985 14.9995 3.5 14.9995C3.03417 14.9995 2.57979 14.9505 2.14173 14.8574C1.50586 15.422 0.784696 15.8928 -1.90735e-06 16.2478C1.06737 16.7307 2.25229 16.9995 3.5 16.9995C8.19442 16.9995 12 13.1939 12 8.49951C12 3.80509 8.19442 -0.000488281 3.5 -0.000488281C2.25229 -0.000488281 1.06737 0.268347 -1.90735e-06 0.751251C0.784696 1.10627 1.50586 1.57699 2.14173 2.14164Z" fill="#E66A45"/>
</g>
<defs>
<clipPath id="clip0">
<rect width="12" height="17" fill="white"/>
</clipPath>
</defs>
</svg>
