<svg width="13" height="17" viewBox="0 0 13 17" fill="none" xmlns="http://www.w3.org/2000/svg">
<path fill-rule="evenodd" clip-rule="evenodd" d="M9.85827 14.8579C9.42021 14.951 8.96583 15 8.5 15C4.91015 15 2 12.0899 2 8.5C2 4.91015 4.91015 2 8.5 2C8.96583 2 9.42021 2.049 9.85827 2.14213C10.4941 1.57747 11.2153 1.10676 12 0.75174C10.9326 0.268835 9.74771 0 8.5 0C3.80558 0 0 3.80558 0 8.5C0 13.1944 3.80558 17 8.5 17C9.74771 17 10.9326 16.7312 12 16.2483C11.2153 15.8932 10.4941 15.4225 9.85827 14.8579Z" fill="#E66A45"/>
</svg>
