<svg width="24" height="24" viewBox="0 0 24 24" fill="none" xmlns="http://www.w3.org/2000/svg">
<g id="icon_hart">
<path id="icon" d="M11.3565 18.0991L11.355 18.0978C9.01689 16.0437 7.15894 14.4088 5.87347 12.8862C4.59841 11.376 4 10.1046 4 8.79564C4 6.69199 5.70019 5 7.95 5C9.22486 5 10.4554 5.57977 11.2489 6.48254L12 7.33705L12.7511 6.48254C13.5446 5.57977 14.7751 5 16.05 5C18.2998 5 20 6.69199 20 8.79564C20 10.1046 19.4016 11.376 18.1263 12.8876C16.8408 14.4113 14.9831 16.0481 12.6452 18.1063C12.6449 18.1066 12.6445 18.1069 12.6442 18.1072L12.0025 18.6689L11.3565 18.0991Z" stroke="black" stroke-opacity="0.38" stroke-width="2"/>
</g>
</svg>
