<svg width="18" height="16" viewBox="0 0 18 16" fill="none" xmlns="http://www.w3.org/2000/svg">
<path d="M8.35646 14.0991L8.355 14.0978C6.01689 12.0437 4.15894 10.4088 2.87347 8.88624C1.59841 7.37597 1 6.10462 1 4.79564C1 2.69199 2.70019 1 4.95 1C6.22486 1 7.4554 1.57977 8.2489 2.48254L9 3.33705L9.7511 2.48254C10.5446 1.57977 11.7751 1 13.05 1C15.2998 1 17 2.69199 17 4.79564C17 6.10464 16.4016 7.37602 15.1263 8.88758C13.8408 10.4113 11.9831 12.0481 9.64523 14.1063C9.64489 14.1066 9.64454 14.1069 9.6442 14.1072L9.00251 14.6689L8.35646 14.0991Z" stroke="black" stroke-opacity="0.38" stroke-width="2"/>
</svg>
