<svg width="218" height="95" viewBox="0 0 218 95" fill="none" xmlns="http://www.w3.org/2000/svg">
<path d="M49.81 9.77074V7.94074H50.76V9.77074H49.81ZM50.76 5.17074V6.91074H49.81V5.17074H50.76ZM57.68 5.99074V4.89074H54.03C54.19 4.44074 54.33 4.00074 54.43 3.54074L53.26 3.28074C52.99 4.50074 52.5 5.73074 51.9 6.57074V4.11074H48.69V11.5907H49.81V10.8307H51.9V6.99074C52.15 7.23074 52.45 7.55074 52.59 7.73074C52.96 7.26074 53.31 6.65074 53.6 5.99074H53.79V12.6407H54.97V10.3007H57.54V9.22074H54.97V8.09074H57.45V7.02074H54.97V5.99074H57.68ZM62.78 10.6607V8.42074H67.22V10.6607H62.78ZM67.22 5.09074V7.24074H62.78V5.09074H67.22ZM61.55 3.89074V12.5107H62.78V11.8607H67.22V12.4907H68.5V3.89074H61.55Z" fill="#29304D" fill-opacity="0.87"/>
<path d="M155.23 8.39074H149.5V9.51074H154.64C154.25 10.3807 153.74 11.4507 153.3 12.3107L154.56 12.6607C155.18 11.3907 155.9 9.84074 156.39 8.61074L155.44 8.33074L155.23 8.39074ZM151.2 6.33074C151.92 5.69074 152.53 5.01074 152.96 4.39074C153.4 5.01074 154.05 5.69074 154.78 6.33074H151.2ZM152.31 3.23074C151.56 4.47074 149.95 6.08074 148.26 7.01074C148.52 7.26074 148.86 7.68074 149.01 7.96074C149.66 7.57074 150.29 7.12074 150.86 6.63074V7.43074H155.1V6.60074C155.71 7.11074 156.36 7.57074 156.99 7.94074C157.21 7.58074 157.47 7.20074 157.77 6.90074C156.21 6.17074 154.57 4.76074 153.5 3.23074H152.31ZM162.78 10.6607V8.42074H167.22V10.6607H162.78ZM167.22 5.09074V7.24074H162.78V5.09074H167.22ZM161.55 3.89074V12.5107H162.78V11.8607H167.22V12.4907H168.5V3.89074H161.55Z" fill="#29304D" fill-opacity="0.87"/>
<path d="M158.99 61.9468V69.0168H160.01V61.9468C160.32 62.3768 160.87 62.9068 161.38 63.2768L161.88 62.3768C161 61.6868 160.09 60.6668 159.5 59.7668C158.91 60.6668 158 61.6868 157.12 62.3768L157.62 63.2768C158.13 62.9068 158.68 62.3768 158.99 61.9468ZM133.931 78.8868V77.7068H130.081V76.4268H133.211V75.2468H130.081V73.7568H128.811V75.2468H125.771V76.4268H128.811V77.7068H125.021V78.8868H128.261C127.381 79.9968 126.021 81.0568 124.691 81.6268C124.971 81.8768 125.361 82.3568 125.561 82.6568C126.731 82.0468 127.901 81.0768 128.811 79.9768V83.0968H130.081V79.9168C130.991 81.0568 132.151 82.0568 133.331 82.6668C133.531 82.3568 133.911 81.8768 134.191 81.6368C132.861 81.0568 131.501 79.9968 130.631 78.8868H133.931ZM138.441 78.6668C138.451 78.3368 138.451 78.0268 138.451 77.7268V77.4568H139.431V78.6668H138.441ZM139.431 75.1968V76.3568H138.451V75.1968H139.431ZM140.531 74.0968H137.381V77.7268C137.381 79.1868 137.341 81.1968 136.721 82.5568C136.981 82.6468 137.471 82.9268 137.681 83.0968C138.091 82.1868 138.291 80.9568 138.381 79.7868H139.431V81.7668C139.431 81.9068 139.381 81.9468 139.261 81.9468C139.141 81.9468 138.771 81.9568 138.411 81.9368C138.561 82.2368 138.701 82.7768 138.731 83.0868C139.381 83.0868 139.811 83.0568 140.121 82.8668C140.451 82.6568 140.531 82.3368 140.531 81.7868V74.0968ZM142.211 78.6468H142.271C142.571 79.5568 142.941 80.3968 143.431 81.1268C143.061 81.5468 142.661 81.8968 142.211 82.1468V78.6468ZM144.701 78.6468C144.541 79.2068 144.321 79.7368 144.051 80.2068C143.741 79.7268 143.481 79.1968 143.281 78.6468H144.701ZM145.281 77.5368L145.101 77.5768H142.211V75.2068H144.541V76.0068C144.541 76.1268 144.491 76.1568 144.331 76.1668C144.171 76.1768 143.581 76.1768 143.081 76.1468C143.221 76.4368 143.381 76.8368 143.431 77.1468C144.191 77.1468 144.761 77.1468 145.151 76.9968C145.571 76.8368 145.681 76.5568 145.681 76.0368V74.1068H141.081V83.0968H142.211V82.2768C142.431 82.4968 142.681 82.8468 142.801 83.0768C143.291 82.7868 143.731 82.4268 144.111 82.0068C144.531 82.4368 145.011 82.8068 145.531 83.0968C145.701 82.8068 146.031 82.3868 146.271 82.1668C145.721 81.9268 145.221 81.5568 144.791 81.1168C145.351 80.2168 145.761 79.1168 145.991 77.7668L145.281 77.5368ZM154.151 79.0468V77.8168H156.261V79.0468H154.151ZM151.041 79.0468C151.061 78.6768 151.071 78.3168 151.071 77.9968V77.8168H152.951V79.0468H151.041ZM152.951 75.5468V76.7068H151.071V75.5468H152.951ZM156.261 76.7068H154.151V75.5468H156.261V76.7068ZM157.441 74.4168H149.891V77.9868C149.891 79.3868 149.801 81.1668 148.711 82.3668C148.981 82.5068 149.461 82.9168 149.651 83.1368C150.371 82.3568 150.731 81.2568 150.911 80.1668H152.951V82.9568H154.151V80.1668H156.261V81.6668C156.261 81.8468 156.191 81.9068 156.001 81.9068C155.821 81.9068 155.161 81.9168 154.601 81.8868C154.751 82.1968 154.941 82.7068 154.981 83.0268C155.881 83.0368 156.491 83.0168 156.901 82.8168C157.301 82.6368 157.441 82.3168 157.441 81.6768V74.4168ZM164.931 75.2268V76.5068C166.191 76.6268 168.001 76.6168 169.231 76.5068V75.2168C168.151 75.3468 166.161 75.3968 164.931 75.2268ZM165.731 79.4968L164.581 79.3868C164.471 79.8968 164.411 80.2968 164.411 80.6868C164.411 81.7168 165.241 82.3268 166.961 82.3268C168.091 82.3268 168.891 82.2568 169.541 82.1368L169.521 80.7868C168.641 80.9668 167.901 81.0468 167.011 81.0468C165.991 81.0468 165.611 80.7768 165.611 80.3368C165.611 80.0668 165.651 79.8268 165.731 79.4968ZM163.391 74.5568L161.991 74.4368C161.981 74.7568 161.921 75.1368 161.891 75.4168C161.781 76.1868 161.471 77.8768 161.471 79.3768C161.471 80.7368 161.661 81.9568 161.861 82.6468L163.021 82.5668C163.011 82.4268 163.001 82.2668 163.001 82.1568C163.001 82.0568 163.021 81.8368 163.051 81.6868C163.161 81.1568 163.491 80.0668 163.771 79.2368L163.151 78.7468C163.011 79.0768 162.851 79.4268 162.701 79.7668C162.671 79.5668 162.661 79.3068 162.661 79.1168C162.661 78.1168 163.011 76.1168 163.141 75.4468C163.181 75.2668 163.311 74.7668 163.391 74.5568ZM179.079 74.1568H177.629C177.659 74.2768 177.699 74.6168 177.729 75.0268C177.739 75.1068 177.739 75.2068 177.749 75.3368C176.389 75.3568 174.569 75.3968 173.429 75.3968L173.459 76.6068C174.689 76.5368 176.249 76.4768 177.759 76.4568C177.769 76.6768 177.769 76.9068 177.769 77.1268C177.639 77.1068 177.509 77.0968 177.369 77.0968C176.279 77.0968 175.369 77.8368 175.369 78.9668C175.369 80.1868 176.319 80.8068 177.089 80.8068C177.249 80.8068 177.399 80.7868 177.539 80.7568C176.989 81.3568 176.109 81.6868 175.099 81.8968L176.169 82.9568C178.609 82.2768 179.369 80.6168 179.369 79.3168C179.369 78.7968 179.249 78.3268 179.009 77.9468C179.009 77.5068 178.999 76.9568 178.999 76.4468C180.359 76.4468 181.289 76.4668 181.889 76.4968L181.899 75.3168C181.379 75.3068 180.009 75.3268 178.999 75.3268C179.009 75.2068 179.009 75.0968 179.009 75.0168C179.019 74.8568 179.059 74.3168 179.079 74.1568ZM176.569 78.9468C176.569 78.4168 176.949 78.1468 177.339 78.1468C177.609 78.1468 177.849 78.2668 177.989 78.4968C178.129 79.3768 177.759 79.6968 177.339 79.6968C176.939 79.6968 176.569 79.4068 176.569 78.9468ZM188.449 81.0368C188.449 80.7868 188.689 80.5568 189.069 80.5568C189.609 80.5568 189.979 80.9768 190.039 81.6268C189.859 81.6468 189.669 81.6568 189.459 81.6568C188.859 81.6568 188.449 81.4068 188.449 81.0368ZM186.749 74.5968L186.789 75.8968C187.019 75.8668 187.339 75.8368 187.609 75.8168C188.139 75.7868 189.519 75.7268 190.029 75.7168C189.539 76.1468 188.499 76.9868 187.939 77.4468C187.349 77.9368 186.139 78.9568 185.429 79.5268L186.339 80.4668C187.409 79.2468 188.409 78.4368 189.939 78.4368C191.119 78.4368 192.019 79.0468 192.019 79.9468C192.019 80.5568 191.739 81.0168 191.189 81.3068C191.049 80.3568 190.299 79.5968 189.059 79.5968C187.999 79.5968 187.269 80.3468 187.269 81.1568C187.269 82.1568 188.319 82.7968 189.709 82.7968C192.129 82.7968 193.329 81.5468 193.329 79.9668C193.329 78.5068 192.039 77.4468 190.339 77.4468C190.019 77.4468 189.719 77.4768 189.389 77.5568C190.019 77.0568 191.069 76.1768 191.609 75.7968C191.839 75.6268 192.079 75.4868 192.309 75.3368L191.659 74.4468C191.539 74.4868 191.309 74.5168 190.899 74.5568C190.329 74.6068 188.189 74.6468 187.659 74.6468C187.379 74.6468 187.029 74.6368 186.749 74.5968Z" fill="#29304D" fill-opacity="0.87"/>
<line x1="0.436523" y1="34.6304" x2="40.4365" y2="34.6304" stroke="black"/>
<path fill-rule="evenodd" clip-rule="evenodd" d="M58.7183 43.4121C63.2922 43.4121 67 39.7043 67 35.1304C67 30.5565 63.2922 26.8486 58.7183 26.8486C54.1444 26.8486 50.4365 30.5565 50.4365 35.1304C50.4365 39.7043 54.1444 43.4121 58.7183 43.4121Z" fill="#CDCFD1"/>
<path fill-rule="evenodd" clip-rule="evenodd" d="M62.6604 31.8179L57.5483 36.803L55.5891 34.928L54.5771 35.9602L57.5181 38.8394H57.5308L63.6871 32.8291L62.6604 31.8179Z" fill="#7C8E9C"/>
<line x1="77" y1="34.6304" x2="141" y2="34.6304" stroke="black"/>
<path fill-rule="evenodd" clip-rule="evenodd" d="M159.282 43.4121C163.856 43.4121 167.564 39.7043 167.564 35.1304C167.564 30.5565 163.856 26.8486 159.282 26.8486C154.708 26.8486 151 30.5565 151 35.1304C151 39.7043 154.708 43.4121 159.282 43.4121Z" fill="#4E6287"/>
<line x1="177.563" y1="34.6304" x2="217.563" y2="34.6304" stroke="black" stroke-dasharray="2 2"/>
<path opacity="0.8" d="M169.953 34.8489C169.953 40.8977 165.049 45.8012 159 45.8012C152.951 45.8012 148.048 40.8977 148.048 34.8489C148.048 28.8 152.951 23.8965 159 23.8965C165.049 23.8965 169.953 28.8 169.953 34.8489Z" stroke="#E66A45" stroke-width="4"/>
<path opacity="0.4" d="M171 34.8486C171 41.4761 165.627 46.8486 159 46.8486C152.373 46.8486 147 41.4761 147 34.8486C147 28.2212 152.373 22.8486 159 22.8486C165.627 22.8486 171 28.2212 171 34.8486Z" stroke="#E66A45" stroke-width="10"/>
<path fill-rule="evenodd" clip-rule="evenodd" d="M92 94.5703C94.2091 94.5703 96 92.7795 96 90.5703L96 56.5703C96 54.3612 94.2091 52.5703 92 52.5703L63.6572 52.5703L58.5147 47.4278L53.3722 52.5703L26 52.5703C23.7909 52.5703 22 54.3612 22 56.5703L22 90.5703C22 92.7794 23.7909 94.5703 26 94.5703L92 94.5703Z" fill="#E66A45"/>
<path d="M32.055 63.3154V64.6354C32.865 64.7054 33.735 64.7454 34.785 64.7454C35.735 64.7454 36.975 64.6854 37.675 64.6254V63.2954C36.905 63.3754 35.765 63.4354 34.775 63.4354C33.725 63.4354 32.795 63.3954 32.055 63.3154ZM32.895 67.5554L31.585 67.4354C31.505 67.8054 31.385 68.2954 31.385 68.8754C31.385 70.2454 32.535 71.0154 34.825 71.0154C36.225 71.0154 37.425 70.8854 38.295 70.6754L38.285 69.2654C37.405 69.5154 36.125 69.6654 34.775 69.6654C33.335 69.6654 32.725 69.2054 32.725 68.5654C32.725 68.2254 32.795 67.9154 32.895 67.5554ZM51.145 67.0654C51.145 64.8854 49.585 63.1654 47.105 63.1654C44.515 63.1654 42.515 65.1354 42.515 67.4454C42.515 69.1354 43.435 70.3554 44.545 70.3554C45.635 70.3554 46.495 69.1154 47.095 67.0954C47.385 66.1554 47.555 65.2354 47.695 64.3854C49.045 64.6154 49.795 65.6454 49.795 67.0254C49.795 68.4854 48.795 69.4054 47.515 69.7054C47.245 69.7654 46.965 69.8254 46.585 69.8654L47.335 71.0554C49.855 70.6654 51.145 69.1754 51.145 67.0654ZM43.795 67.3154C43.795 66.2154 44.685 64.7554 46.335 64.4154C46.225 65.2454 46.035 66.0954 45.805 66.8354C45.395 68.1854 45.005 68.8154 44.585 68.8154C44.195 68.8154 43.795 68.3254 43.795 67.3154ZM56.655 69.4854V67.2454H61.095V69.4854H56.655ZM61.095 63.9154V66.0654H56.655V63.9154H61.095ZM55.425 62.7154V71.3354H56.655V70.6854H61.095V71.3154H62.375V62.7154H55.425ZM68.715 69.4554C68.715 69.1154 69.105 68.8354 69.815 68.8354C70.095 68.8354 70.365 68.8654 70.635 68.9054C70.645 69.0854 70.645 69.2254 70.645 69.3354C70.645 69.9154 70.295 70.0654 69.765 70.0654C69.075 70.0654 68.715 69.8354 68.715 69.4554ZM71.845 62.4954H70.495C70.535 62.6854 70.555 62.9954 70.555 63.1854C70.555 63.3054 70.555 63.4654 70.555 63.6554C70.425 63.6554 70.295 63.6554 70.165 63.6554C69.555 63.6554 68.415 63.5554 67.695 63.4354L67.725 64.5754C68.385 64.6654 69.545 64.7554 70.175 64.7554C70.295 64.7554 70.415 64.7554 70.545 64.7554C70.535 65.0954 70.535 65.4554 70.535 65.7854C70.375 65.7854 70.215 65.7854 70.055 65.7854C69.525 65.7854 68.295 65.7154 67.645 65.5954L67.655 66.7754C68.315 66.8554 69.455 66.9054 70.035 66.9054C70.215 66.9054 70.385 66.9054 70.555 66.9054C70.565 67.2054 70.575 67.5254 70.595 67.8354C70.395 67.8154 70.185 67.8054 69.975 67.8054C68.435 67.8054 67.505 68.5154 67.505 69.5254C67.505 70.5854 68.345 71.1954 69.945 71.1954C71.265 71.1954 71.915 70.5354 71.915 69.6854C71.915 69.5754 71.915 69.4554 71.905 69.3154C72.705 69.6754 73.385 70.2054 73.925 70.7054L74.645 69.5854C74.065 69.1054 73.105 68.4354 71.845 68.0754C71.815 67.6754 71.795 67.2654 71.775 66.8854C72.735 66.8554 73.515 66.7854 74.415 66.6854L74.425 65.5054C73.615 65.6154 72.765 65.6954 71.755 65.7454C71.755 65.4354 71.755 65.0654 71.755 64.7154C72.725 64.6654 73.635 64.5754 74.295 64.4954L74.305 63.3454C73.425 63.4954 72.595 63.5754 71.775 63.6154C71.775 63.4554 71.775 63.3054 71.785 63.2054C71.795 62.9454 71.815 62.6954 71.845 62.4954ZM78.565 63.7254L78.695 65.0954C79.855 64.8454 81.895 64.6254 82.835 64.5254C82.155 65.0354 81.345 66.1754 81.345 67.6154C81.345 69.7854 83.325 70.9054 85.425 71.0454L85.895 69.6754C84.195 69.5854 82.655 68.9954 82.655 67.3454C82.655 66.1554 83.565 64.8654 84.775 64.5454C85.305 64.4154 86.165 64.4154 86.705 64.4054L86.695 63.1254C85.985 63.1554 84.895 63.2154 83.865 63.3054C82.035 63.4554 80.385 63.6054 79.545 63.6754C79.355 63.6954 78.965 63.7154 78.565 63.7254ZM85.275 65.3854L84.535 65.6954C84.855 66.1454 85.065 66.5354 85.315 67.0854L86.075 66.7454C85.885 66.3554 85.525 65.7454 85.275 65.3854ZM86.395 64.9254L85.665 65.2654C85.985 65.7054 86.215 66.0754 86.485 66.6154L87.235 66.2554C87.025 65.8654 86.645 65.2754 86.395 64.9254ZM31.865 81.0354C31.875 80.7054 31.875 80.3954 31.875 80.0954V79.8254H32.855V81.0354H31.865ZM32.855 77.5654V78.7254H31.875V77.5654H32.855ZM33.955 76.4654H30.805V80.0954C30.805 81.5554 30.765 83.5654 30.145 84.9254C30.405 85.0154 30.895 85.2954 31.105 85.4654C31.515 84.5554 31.715 83.3254 31.805 82.1554H32.855V84.1354C32.855 84.2754 32.805 84.3154 32.685 84.3154C32.565 84.3154 32.195 84.3254 31.835 84.3054C31.985 84.6054 32.125 85.1454 32.155 85.4554C32.805 85.4554 33.235 85.4254 33.545 85.2354C33.875 85.0254 33.955 84.7054 33.955 84.1554V76.4654ZM35.635 81.0154H35.695C35.995 81.9254 36.365 82.7654 36.855 83.4954C36.485 83.9154 36.085 84.2654 35.635 84.5154V81.0154ZM38.125 81.0154C37.965 81.5754 37.745 82.1054 37.475 82.5754C37.165 82.0954 36.905 81.5654 36.705 81.0154H38.125ZM38.705 79.9054L38.525 79.9454H35.635V77.5754H37.965V78.3754C37.965 78.4954 37.915 78.5254 37.755 78.5354C37.595 78.5454 37.005 78.5454 36.505 78.5154C36.645 78.8054 36.805 79.2054 36.855 79.5154C37.615 79.5154 38.185 79.5154 38.575 79.3654C38.995 79.2054 39.105 78.9254 39.105 78.4054V76.4754H34.505V85.4654H35.635V84.6454C35.855 84.8654 36.105 85.2154 36.225 85.4454C36.715 85.1554 37.155 84.7954 37.535 84.3754C37.955 84.8054 38.435 85.1754 38.955 85.4654C39.125 85.1754 39.455 84.7554 39.695 84.5354C39.145 84.2954 38.645 83.9254 38.215 83.4854C38.775 82.5854 39.185 81.4854 39.415 80.1354L38.705 79.9054ZM47.575 81.4154V80.1854H49.685V81.4154H47.575ZM44.465 81.4154C44.485 81.0454 44.495 80.6854 44.495 80.3654V80.1854H46.375V81.4154H44.465ZM46.375 77.9154V79.0754H44.495V77.9154H46.375ZM49.685 79.0754H47.575V77.9154H49.685V79.0754ZM50.865 76.7854H43.315V80.3554C43.315 81.7554 43.225 83.5354 42.135 84.7354C42.405 84.8754 42.885 85.2854 43.075 85.5054C43.795 84.7254 44.155 83.6254 44.335 82.5354H46.375V85.3254H47.575V82.5354H49.685V84.0354C49.685 84.2154 49.615 84.2754 49.425 84.2754C49.245 84.2754 48.585 84.2854 48.025 84.2554C48.175 84.5654 48.365 85.0754 48.405 85.3954C49.305 85.4054 49.915 85.3854 50.325 85.1854C50.725 85.0054 50.865 84.6854 50.865 84.0454V76.7854ZM56.255 81.3854C55.685 82.5554 54.965 83.8154 54.465 84.5754L55.505 85.3154C56.065 84.3354 56.655 83.1854 57.155 82.1254L56.255 81.3854ZM56.665 79.8054C56.265 79.4654 55.435 79.0754 54.815 78.8554L54.185 79.7454C54.815 80.0154 55.605 80.4554 55.985 80.7954L56.665 79.8054ZM61.495 80.6754V81.0854H59.045V80.6454H58.205C58.925 80.4554 59.605 80.2254 60.225 79.9354C60.935 80.2754 61.715 80.4954 62.535 80.6754H61.495ZM58.985 82.7654C59.025 82.5254 59.035 82.2854 59.045 82.0754H61.495V82.7654H58.985ZM61.155 78.0454C60.915 78.3154 60.625 78.5554 60.285 78.7654C59.935 78.5754 59.605 78.3354 59.285 78.0454H61.155ZM63.425 78.0454V77.0154H60.875V76.1254H59.645V77.0154H57.135V77.0854C56.715 76.7654 55.975 76.3854 55.405 76.1654L54.755 77.0454C55.385 77.3154 56.165 77.7754 56.525 78.1254L57.135 77.2554V78.0454H57.915C58.295 78.5554 58.715 78.9554 59.165 79.2954C58.435 79.5554 57.595 79.7354 56.725 79.8554C56.905 80.0854 57.185 80.5854 57.285 80.8554C57.495 80.8154 57.705 80.7654 57.905 80.7154V81.8054C57.905 82.6554 57.775 84.0454 56.655 84.9254C56.945 85.0554 57.395 85.3754 57.605 85.5554C58.225 85.0554 58.575 84.4054 58.785 83.7454H61.495V85.4354H62.665V80.7054L63.025 80.7754C63.135 80.4054 63.405 79.9754 63.665 79.7054C62.845 79.5954 62.085 79.4554 61.375 79.2354C61.815 78.8954 62.195 78.5054 62.495 78.0454H63.425ZM68.015 77.0154L68.065 78.3054C68.325 78.2654 68.675 78.2354 68.875 78.2254C69.335 78.1954 70.195 78.1654 70.595 78.1454C70.365 78.6154 70.075 79.2954 69.795 79.9554C67.785 80.0454 66.375 81.2254 66.375 82.7754C66.375 83.7854 67.035 84.3954 67.915 84.3954C68.595 84.3954 69.075 84.1154 69.475 83.5154C69.825 82.9654 70.245 81.9654 70.605 81.1154C71.465 81.2354 72.265 81.5354 72.975 81.9254C72.645 82.8354 71.945 83.7854 70.435 84.4354L71.495 85.3054C72.835 84.6054 73.595 83.7254 74.035 82.5954C74.345 82.8254 74.635 83.0554 74.895 83.2954L75.475 81.9054C75.185 81.7054 74.825 81.4754 74.405 81.2354C74.505 80.6754 74.555 80.0554 74.595 79.3854L73.285 79.2354C73.315 79.5354 73.315 79.9354 73.285 80.3254C73.275 80.4354 73.265 80.5454 73.255 80.6654C72.605 80.3854 71.865 80.1454 71.085 80.0254C71.445 79.1754 71.825 78.3054 72.085 77.8754C72.165 77.7354 72.285 77.6054 72.425 77.4554L71.625 76.8354C71.455 76.9054 71.195 76.9654 70.945 76.9754C70.475 77.0154 69.415 77.0654 68.845 77.0654C68.625 77.0654 68.285 77.0454 68.015 77.0154ZM67.545 82.5854C67.545 81.9554 68.175 81.2754 69.295 81.1054C69.015 81.7354 68.745 82.3654 68.485 82.7354C68.305 82.9854 68.165 83.0854 67.965 83.0854C67.735 83.0854 67.545 82.9154 67.545 82.5854ZM82.355 77.5954V78.8754C83.615 78.9954 85.425 78.9854 86.655 78.8754V77.5854C85.575 77.7154 83.585 77.7654 82.355 77.5954ZM83.155 81.8654L82.005 81.7554C81.895 82.2654 81.835 82.6654 81.835 83.0554C81.835 84.0854 82.665 84.6954 84.385 84.6954C85.515 84.6954 86.315 84.6254 86.965 84.5054L86.945 83.1554C86.065 83.3354 85.325 83.4154 84.435 83.4154C83.415 83.4154 83.035 83.1454 83.035 82.7054C83.035 82.4354 83.075 82.1954 83.155 81.8654ZM80.815 76.9254L79.415 76.8054C79.405 77.1254 79.345 77.5054 79.315 77.7854C79.205 78.5554 78.895 80.2454 78.895 81.7454C78.895 83.1054 79.085 84.3254 79.285 85.0154L80.445 84.9354C80.435 84.7954 80.425 84.6354 80.425 84.5254C80.425 84.4254 80.445 84.2054 80.475 84.0554C80.585 83.5254 80.915 82.4354 81.195 81.6054L80.575 81.1154C80.435 81.4454 80.275 81.7954 80.125 82.1354C80.095 81.9354 80.085 81.6754 80.085 81.4854C80.085 80.4854 80.435 78.4854 80.565 77.8154C80.605 77.6354 80.735 77.1354 80.815 76.9254Z" fill="white"/>
</svg>
