<svg width="58" height="62" viewBox="0 0 58 62" fill="none" xmlns="http://www.w3.org/2000/svg">
<mask id="path-1-inside-1" fill="white">
<path fill-rule="evenodd" clip-rule="evenodd" d="M28.6211 8.56563L27.1723 11.0983L29.4181 9.22898L31.665 11.0992L30.2154 8.56533L36.9995 2.91856L33.5213 0L29.4184 7.17204L25.3159 0.000834139L21.8377 2.91939L28.6211 8.56563ZM49.8417 12.0952H18.9726V16.0952H48.5003L53.0124 27.0962L29.1983 55.0101L6.4114 28.7196H44.0429V24.7196H5.96644L10.0128 14.8542L6.31197 13.3363L0.827854 26.7071L0.360779 27.8459L1.16693 28.776L27.699 59.3875L29.2223 61.145L30.7318 59.3756L56.8473 28.7641L57.6392 27.8359L57.1762 26.7071L51.6921 13.3363L51.183 12.0952H49.8417Z"/>
</mask>
<path d="M27.1723 11.0983L23.7002 9.11211L29.7312 14.1727L27.1723 11.0983ZM28.6211 8.56563L32.0932 10.5519L33.7598 7.6385L31.1801 5.49127L28.6211 8.56563ZM29.4181 9.22898L31.9771 6.15463L29.4181 4.02464L26.8591 6.15463L29.4181 9.22898ZM31.665 11.0992L29.106 14.1735L35.137 9.11294L31.665 11.0992ZM30.2154 8.56533L27.6565 5.49097L25.0768 7.6382L26.7434 10.5516L30.2154 8.56533ZM36.9995 2.91856L39.5585 5.99291L43.2371 2.93093L39.5706 -0.145622L36.9995 2.91856ZM33.5213 0L36.0924 -3.06418L32.4259 -6.14073L30.0493 -1.98624L33.5213 0ZM29.4184 7.17204L25.9464 9.15828L29.4184 15.2275L32.8904 9.15828L29.4184 7.17204ZM25.3159 0.000834139L28.7879 -1.9854L26.4113 -6.1399L22.7448 -3.06334L25.3159 0.000834139ZM21.8377 2.91939L19.2666 -0.144788L15.6001 2.93177L19.2788 5.99375L21.8377 2.91939ZM18.9726 12.0952V8.09524H14.9726V12.0952H18.9726ZM18.9726 16.0952H14.9726V20.0952H18.9726V16.0952ZM48.5003 16.0952L52.2011 14.5773L51.183 12.0952H48.5003V16.0952ZM53.0124 27.0962L56.0555 29.6923L57.6392 27.8359L56.7132 25.5783L53.0124 27.0962ZM29.1983 55.0101L26.1756 57.6299L29.2223 61.145L32.2413 57.6062L29.1983 55.0101ZM6.4114 28.7196V24.7196H-2.3489L3.38874 31.3394L6.4114 28.7196ZM44.0429 28.7196V32.7196H48.0429V28.7196H44.0429ZM44.0429 24.7196H48.0429V20.7196H44.0429V24.7196ZM5.96644 24.7196L2.26563 23.2016L0.00242814 28.7196H5.96644V24.7196ZM10.0128 14.8542L13.7136 16.3721L15.2315 12.6713L11.5307 11.1534L10.0128 14.8542ZM6.31197 13.3363L7.82988 9.63548L4.12908 8.11757L2.61117 11.8184L6.31197 13.3363ZM0.827854 26.7071L4.52866 28.225L0.827854 26.7071ZM0.360779 27.8459L-3.34003 26.328L-4.27418 28.6055L-2.66188 30.4657L0.360779 27.8459ZM1.16693 28.776L4.18958 26.1561L4.18958 26.1561L1.16693 28.776ZM27.699 59.3875L30.7216 56.7676L30.7216 56.7676L27.699 59.3875ZM29.2223 61.145L26.1996 63.7648L29.2463 67.2799L32.2653 63.7411L29.2223 61.145ZM30.7318 59.3756L27.6888 56.7795L30.7318 59.3756ZM56.8473 28.7641L59.8904 31.3602L59.8904 31.3602L56.8473 28.7641ZM57.6392 27.8359L60.6822 30.432L62.266 28.5756L61.34 26.318L57.6392 27.8359ZM57.1762 26.7071L60.877 25.1892L60.877 25.1892L57.1762 26.7071ZM51.6921 13.3363L47.9913 14.8542L47.9913 14.8542L51.6921 13.3363ZM51.183 12.0952L54.8839 10.5773L53.8658 8.09524H51.183V12.0952ZM30.6443 13.0846L32.0932 10.5519L25.1491 6.57939L23.7002 9.11211L30.6443 13.0846ZM26.8591 6.15463L24.6133 8.02399L29.7312 14.1727L31.9771 12.3033L26.8591 6.15463ZM26.8591 12.3033L29.106 14.1735L34.2239 8.02482L31.9771 6.15463L26.8591 12.3033ZM35.137 9.11294L33.6874 6.57909L26.7434 10.5516L28.193 13.0854L35.137 9.11294ZM34.4405 -0.155802L27.6565 5.49097L32.7744 11.6397L39.5585 5.99291L34.4405 -0.155802ZM30.9501 3.06418L34.4283 5.98273L39.5706 -0.145622L36.0924 -3.06418L30.9501 3.06418ZM32.8904 9.15828L36.9933 1.98624L30.0493 -1.98624L25.9464 5.18581L32.8904 9.15828ZM32.8904 5.18581L28.7879 -1.9854L21.8439 1.98707L25.9464 9.15828L32.8904 5.18581ZM22.7448 -3.06334L19.2666 -0.144788L24.4089 5.98357L27.8871 3.06501L22.7448 -3.06334ZM19.2788 5.99375L26.0622 11.64L31.1801 5.49127L24.3967 -0.154968L19.2788 5.99375ZM18.9726 16.0952H49.8417V8.09524H18.9726V16.0952ZM22.9726 16.0952V12.0952H14.9726V16.0952H22.9726ZM48.5003 12.0952H18.9726V20.0952H48.5003V12.0952ZM56.7132 25.5783L52.2011 14.5773L44.7995 17.6131L49.3116 28.6141L56.7132 25.5783ZM32.2413 57.6062L56.0555 29.6923L49.9693 24.5001L26.1552 52.414L32.2413 57.6062ZM3.38874 31.3394L26.1756 57.6299L32.2209 52.3902L9.43405 26.0997L3.38874 31.3394ZM44.0429 24.7196H6.4114V32.7196H44.0429V24.7196ZM40.0429 24.7196V28.7196H48.0429V24.7196H40.0429ZM5.96644 28.7196H44.0429V20.7196H5.96644V28.7196ZM6.31197 13.3363L2.26563 23.2016L9.66724 26.2375L13.7136 16.3721L6.31197 13.3363ZM4.79406 17.0371L8.49487 18.555L11.5307 11.1534L7.82988 9.63548L4.79406 17.0371ZM4.52866 28.225L10.0128 14.8542L2.61117 11.8184L-2.87295 25.1892L4.52866 28.225ZM4.06158 29.3638L4.52866 28.225L-2.87295 25.1892L-3.34003 26.328L4.06158 29.3638ZM4.18958 26.1561L3.38343 25.226L-2.66188 30.4657L-1.85573 31.3958L4.18958 26.1561ZM30.7216 56.7676L4.18958 26.1561L-1.85573 31.3958L24.6763 62.0073L30.7216 56.7676ZM32.2449 58.5252L30.7216 56.7676L24.6763 62.0073L26.1996 63.7648L32.2449 58.5252ZM27.6888 56.7795L26.1792 58.5489L32.2653 63.7411L33.7749 61.9717L27.6888 56.7795ZM53.8043 26.168L27.6888 56.7795L33.7749 61.9717L59.8904 31.3602L53.8043 26.168ZM54.5961 25.2398L53.8043 26.168L59.8904 31.3602L60.6822 30.432L54.5961 25.2398ZM53.4754 28.225L53.9384 29.3538L61.34 26.318L60.877 25.1892L53.4754 28.225ZM47.9913 14.8542L53.4754 28.225L60.877 25.1892L55.3929 11.8184L47.9913 14.8542ZM47.4822 13.6131L47.9913 14.8542L55.3929 11.8184L54.8839 10.5773L47.4822 13.6131ZM49.8417 16.0952H51.183V8.09524H49.8417V16.0952Z" fill="#F8C242" mask="url(#path-1-inside-1)"/>
</svg>
