<svg width="30" height="30" viewBox="0 0 30 30" fill="none" xmlns="http://www.w3.org/2000/svg">
<path d="M15.6225 4.3111L15.6238 4.3127C16.759 5.69854 18.5701 8.04808 20.0906 10.5724C20.8507 11.8344 21.5244 13.1175 22.0052 14.3291C22.491 15.5534 22.75 16.6312 22.75 17.5031C22.75 17.8135 22.7167 18.143 22.6638 18.5138C22.4173 20.1873 21.5333 21.8208 20.267 22.9424C18.9973 24.067 17.3338 24.7531 15.5 24.7531C11.5012 24.7531 8.25 21.5019 8.25 17.5031C8.25 16.107 8.90512 14.265 9.97729 12.2181C10.4796 11.2592 11.6718 9.46832 12.8541 7.77413C14.031 6.08778 15.1141 4.61641 15.3633 4.3111C15.4298 4.22963 15.556 4.22964 15.6225 4.3111Z" fill="#FBFBFB" stroke="#7E7E7E" stroke-width="2.5"/>
</svg>
