<svg width="24" height="22" viewBox="0 0 24 22" fill="none" xmlns="http://www.w3.org/2000/svg">
<path fill-rule="evenodd" clip-rule="evenodd" d="M6.78 3.06738V5.63327C6.78 6.5117 7.5053 7.22381 8.4 7.22381C9.2947 7.22381 10.02 6.5117 10.02 5.63327V3.06738H13.98V5.63326C13.98 6.5117 14.7053 7.22381 15.6 7.22381C16.4947 7.22381 17.22 6.5117 17.22 5.63326V3.06738H18.3C19.7912 3.06738 21 4.25424 21 5.71829V9.25282V18.0892C21 19.5533 19.7912 20.7401 18.3 20.7401H5.7C4.20883 20.7401 3 19.5533 3 18.0892V9.25282V5.71829C3 4.25424 4.20883 3.06738 5.7 3.06738H6.78ZM4.8 10.1365V18.0892C4.8 18.5772 5.20294 18.9728 5.7 18.9728H18.3C18.7971 18.9728 19.2 18.5772 19.2 18.0892V10.1365H4.8ZM18 12H6V14H18V12Z" fill="#666666"/>
<path d="M14.7 2.18369V5.71823C14.7 6.20625 15.1029 6.60187 15.6 6.60187C16.097 6.60187 16.5 6.20625 16.5 5.71823V2.18369C16.5 1.69567 16.097 1.30005 15.6 1.30005C15.1029 1.30005 14.7 1.69567 14.7 2.18369Z" fill="#666666"/>
<path d="M7.5 2.18369V5.71823C7.5 6.20625 7.90294 6.60187 8.4 6.60187C8.89706 6.60187 9.3 6.20625 9.3 5.71823V2.18369C9.3 1.69567 8.89706 1.30005 8.4 1.30005C7.90294 1.30005 7.5 1.69567 7.5 2.18369Z" fill="#666666"/>
</svg>
