<svg width="34" height="34" viewBox="0 0 34 34" fill="none" xmlns="http://www.w3.org/2000/svg">
<path d="M17.1225 6.6413L17.1238 6.6429C18.259 8.02874 20.0701 10.3783 21.5906 12.9026C22.3507 14.1646 23.0244 15.4477 23.5052 16.6593C23.991 17.8836 24.25 18.9614 24.25 19.8333C24.25 20.1437 24.2167 20.4732 24.1638 20.844C23.9173 22.5175 23.0333 24.151 21.767 25.2726C20.4973 26.3972 18.8338 27.0833 17 27.0833C13.0012 27.0833 9.75 23.8321 9.75 19.8333C9.75 18.4372 10.4051 16.5952 11.4773 14.5483C11.9796 13.5894 13.1718 11.7985 14.3541 10.1043C15.531 8.41798 16.6141 6.94661 16.8633 6.6413C16.9298 6.55983 17.056 6.55984 17.1225 6.6413Z" stroke="#7E7E7E" stroke-width="2.5"/>
</svg>
