<svg width="24" height="22" viewBox="0 0 24 22" fill="none" xmlns="http://www.w3.org/2000/svg">
<path fill-rule="evenodd" clip-rule="evenodd" d="M14.7 5.71823V2.18369C14.7 1.69567 15.1029 1.30005 15.6 1.30005C16.0971 1.30005 16.5 1.69567 16.5 2.18369V5.71823C16.5 6.20625 16.0971 6.60187 15.6 6.60187C15.1029 6.60187 14.7 6.20625 14.7 5.71823ZM6.78 5.63324V3.06735H5.7C4.20883 3.06735 3 4.25421 3 5.71826V9.25279V18.0892C3 19.5532 4.20883 20.7401 5.7 20.7401H18.3C19.7912 20.7401 21 19.5532 21 18.0892V9.25279V5.71826C21 4.25421 19.7912 3.06735 18.3 3.06735H17.22V5.63324C17.22 6.51167 16.4947 7.22378 15.6 7.22378C14.7053 7.22378 13.98 6.51167 13.98 5.63324V3.06735H10.02V5.63324C10.02 6.51167 9.2947 7.22378 8.4 7.22378C7.5053 7.22378 6.78 6.51167 6.78 5.63324ZM4.8 10.1364V18.0892C4.8 18.5772 5.20294 18.9728 5.7 18.9728H18.3C18.7971 18.9728 19.2 18.5772 19.2 18.0892V10.1364H4.8ZM7.5 2.18369V5.71823C7.5 6.20625 7.90294 6.60187 8.4 6.60187C8.89706 6.60187 9.3 6.20625 9.3 5.71823V2.18369C9.3 1.69567 8.89706 1.30005 8.4 1.30005C7.90294 1.30005 7.5 1.69567 7.5 2.18369ZM11.752 12.8401V17.0001H13.096V11.3361H11.864L10 12.7041L10.696 13.6561L11.752 12.8401Z" fill="#666666"/>
</svg>
