<svg width="76" height="84" viewBox="0 0 76 84" fill="none" xmlns="http://www.w3.org/2000/svg">
<mask id="path-1-inside-1" fill="white">
<path fill-rule="evenodd" clip-rule="evenodd" d="M59.3334 71.9999C68.0472 71.9999 75.1112 64.9359 75.1112 56.2221C75.1112 47.5083 68.0472 40.4443 59.3334 40.4443C50.6196 40.4443 43.5556 47.5083 43.5556 56.2221C43.5556 64.9359 50.6196 71.9999 59.3334 71.9999ZM59.3334 62.1383C62.6007 62.1383 65.2493 59.4896 65.2493 56.2223C65.2493 52.955 62.6007 50.3064 59.3334 50.3064C56.0661 50.3064 53.4174 52.955 53.4174 56.2223C53.4174 59.4896 56.0661 62.1383 59.3334 62.1383Z"/>
</mask>
<path fill-rule="evenodd" clip-rule="evenodd" d="M59.3334 71.9999C68.0472 71.9999 75.1112 64.9359 75.1112 56.2221C75.1112 47.5083 68.0472 40.4443 59.3334 40.4443C50.6196 40.4443 43.5556 47.5083 43.5556 56.2221C43.5556 64.9359 50.6196 71.9999 59.3334 71.9999ZM59.3334 62.1383C62.6007 62.1383 65.2493 59.4896 65.2493 56.2223C65.2493 52.955 62.6007 50.3064 59.3334 50.3064C56.0661 50.3064 53.4174 52.955 53.4174 56.2223C53.4174 59.4896 56.0661 62.1383 59.3334 62.1383Z" fill="#DDD7CE"/>
<path d="M71.1112 56.2221C71.1112 62.7268 65.8381 67.9999 59.3334 67.9999V75.9999C70.2563 75.9999 79.1112 67.1451 79.1112 56.2221H71.1112ZM59.3334 44.4443C65.8381 44.4443 71.1112 49.7174 71.1112 56.2221H79.1112C79.1112 45.2991 70.2563 36.4443 59.3334 36.4443V44.4443ZM47.5556 56.2221C47.5556 49.7174 52.8287 44.4443 59.3334 44.4443V36.4443C48.4104 36.4443 39.5556 45.2991 39.5556 56.2221H47.5556ZM59.3334 67.9999C52.8287 67.9999 47.5556 62.7268 47.5556 56.2221H39.5556C39.5556 67.1451 48.4104 75.9999 59.3334 75.9999V67.9999ZM61.2493 56.2223C61.2493 57.2805 60.3915 58.1383 59.3334 58.1383V66.1383C64.8098 66.1383 69.2493 61.6988 69.2493 56.2223H61.2493ZM59.3334 54.3064C60.3915 54.3064 61.2493 55.1642 61.2493 56.2223H69.2493C69.2493 50.7459 64.8098 46.3064 59.3334 46.3064V54.3064ZM57.4174 56.2223C57.4174 55.1642 58.2752 54.3064 59.3334 54.3064V46.3064C53.8569 46.3064 49.4174 50.7459 49.4174 56.2223H57.4174ZM59.3334 58.1383C58.2752 58.1383 57.4174 57.2805 57.4174 56.2223H49.4174C49.4174 61.6988 53.8569 66.1383 59.3334 66.1383V58.1383Z" fill="#5C5450" mask="url(#path-1-inside-1)"/>
<path d="M7.33337 37.1113H57.021V72.0002C57.021 77.5231 52.5439 82.0002 47.021 82.0002H17.3334C11.8105 82.0002 7.33337 77.5231 7.33337 72.0002V37.1113Z" fill="#DDD7CE" stroke="#5C5450" stroke-width="4"/>
<circle cx="33.2443" cy="56.8247" r="4.82471" fill="#5C5450"/>
<rect x="30.9368" y="52" width="2.51724" height="2.51724" fill="#5C5450"/>
<path d="M28 52H30.9368V64.6932C30.9368 66.3152 29.6219 67.63 28 67.63V52Z" fill="url(#paint0_linear)"/>
<path d="M28 52H30.9368V64.6932C30.9368 66.3152 29.6219 67.63 28 67.63V52Z" fill="#5C5450"/>
<rect x="2.88892" y="30.4443" width="58.2222" height="8" rx="4" fill="#7B809C" stroke="#5C5450" stroke-width="4"/>
<path d="M18.7625 5.55705C18.5064 5.85135 18.1736 6.33499 17.8531 6.99549C16.6108 9.55556 16.6108 12.597 18.6187 15.7812C20.0287 18.0172 20.0285 20.3268 19.17 22.4958C19.0444 22.813 18.9109 23.0954 18.7797 23.3369C18.7071 23.4707 18.6569 23.5533 18.6396 23.5792C18.1543 24.3065 18.3689 25.2776 19.119 25.7482C19.8691 26.2188 20.8706 26.0107 21.3559 25.2834C21.5839 24.9417 21.8913 24.3759 22.1905 23.6199C23.3789 20.6176 23.3791 17.3166 21.379 14.1447C19.9766 11.9208 19.9766 9.98779 20.7806 8.33107C20.9716 7.93736 21.1503 7.67771 21.2352 7.58011C21.8114 6.91802 21.7249 5.92842 21.0421 5.36977C20.3593 4.81112 19.3387 4.89497 18.7625 5.55705Z" fill="#7F7F7F"/>
<path d="M29.7625 0.557052C29.5064 0.851347 29.1736 1.33499 28.8531 1.99549C27.6108 4.55556 27.6108 7.59697 29.6187 10.7812C31.0287 13.0172 31.0285 15.3268 30.17 17.4958C30.0444 17.813 29.9109 18.0954 29.7797 18.3369C29.7071 18.4707 29.6569 18.5533 29.6396 18.5792C29.1543 19.3065 29.3689 20.2776 30.119 20.7482C30.8691 21.2188 31.8706 21.0107 32.3559 20.2834C32.5839 19.9417 32.8913 19.3759 33.1905 18.6199C34.3789 15.6176 34.3791 12.3166 32.379 9.14472C30.9766 6.92083 30.9766 4.98779 31.7806 3.33107C31.9716 2.93736 32.1503 2.67771 32.2352 2.58011C32.8114 1.91802 32.7249 0.928422 32.0421 0.36977C31.3593 -0.188882 30.3387 -0.105033 29.7625 0.557052Z" fill="#808080"/>
<path d="M40.7625 5.55705C40.5064 5.85135 40.1736 6.33499 39.8531 6.99549C38.6108 9.55556 38.6108 12.597 40.6187 15.7812C42.0287 18.0172 42.0285 20.3268 41.17 22.4958C41.0444 22.813 40.9109 23.0954 40.7797 23.3369C40.7071 23.4707 40.6569 23.5533 40.6396 23.5792C40.1543 24.3065 40.3689 25.2776 41.119 25.7482C41.8691 26.2188 42.8706 26.0107 43.3559 25.2834C43.5839 24.9417 43.8913 24.3759 44.1905 23.6199C45.3789 20.6176 45.3791 17.3166 43.379 14.1447C41.9766 11.9208 41.9766 9.98779 42.7806 8.33107C42.9716 7.93736 43.1503 7.67771 43.2352 7.58011C43.8114 6.91802 43.7249 5.92842 43.0421 5.36977C42.3593 4.81112 41.3387 4.89497 40.7625 5.55705Z" fill="#7F7F7F"/>
<defs>
<linearGradient id="paint0_linear" x1="29.4684" y1="52" x2="29.4684" y2="67.63" gradientUnits="userSpaceOnUse">
<stop stop-color="#4E6287"/>
<stop offset="1" stop-color="#E56A45"/>
</linearGradient>
</defs>
</svg>
