<svg width="16" height="16" viewBox="0 0 16 16" fill="none" xmlns="http://www.w3.org/2000/svg">
<path d="M2.00033 3.33366H0.666992V14.0003C0.666992 14.7337 1.26699 15.3337 2.00033 15.3337H12.667V14.0003H2.00033V3.33366ZM9.33366 10.0003H10.667V3.33366H8.00032V4.66699H9.33366V10.0003ZM14.0003 0.666992H4.66699C3.93366 0.666992 3.33366 1.26699 3.33366 2.00033V11.3337C3.33366 12.067 3.93366 12.667 4.66699 12.667H14.0003C14.7337 12.667 15.3337 12.067 15.3337 11.3337V2.00033C15.3337 1.26699 14.7337 0.666992 14.0003 0.666992ZM14.0003 11.3337H4.66699V2.00033H14.0003V11.3337Z" fill="white"/>
</svg>
