<svg width="121" height="50" viewBox="0 0 121 50" fill="none" xmlns="http://www.w3.org/2000/svg">
<g clip-path="url(#clip0_6064_34375)">
<g filter="url(#filter0_d_6064_34375)">
<rect x="16.5" y="0.5" width="61.5113" height="33.5411" rx="1.96541" fill="white" stroke="#4E6287"/>
<path fill-rule="evenodd" clip-rule="evenodd" d="M22.2517 7.74249C23.4025 7.74249 24.3354 6.80928 24.3354 5.65811C24.3354 4.50694 23.4025 3.57373 22.2517 3.57373C21.1009 3.57373 20.168 4.50694 20.168 5.65811C20.168 6.80928 21.1009 7.74249 22.2517 7.74249Z" fill="#7C8E9C" fill-opacity="0.3" stroke="#4E6287"/>
<path fill-rule="evenodd" clip-rule="evenodd" d="M55.5925 7.74249C56.7433 7.74249 57.6762 6.80928 57.6762 5.65811C57.6762 4.50694 56.7433 3.57373 55.5925 3.57373C54.4417 3.57373 53.5088 4.50694 53.5088 5.65811C53.5088 6.80928 54.4417 7.74249 55.5925 7.74249Z" fill="#7C8E9C"/>
<path fill-rule="evenodd" clip-rule="evenodd" d="M38.9206 7.74249C40.0714 7.74249 41.0043 6.80928 41.0043 5.65811C41.0043 4.50694 40.0714 3.57373 38.9206 3.57373C37.7698 3.57373 36.8369 4.50694 36.8369 5.65811C36.8369 6.80928 37.7698 7.74249 38.9206 7.74249Z" fill="#7C8E9C"/>
<path fill-rule="evenodd" clip-rule="evenodd" d="M72.2605 7.74249C73.4113 7.74249 74.3442 6.80928 74.3442 5.65811C74.3442 4.50694 73.4113 3.57373 72.2605 3.57373C71.1097 3.57373 70.1768 4.50694 70.1768 5.65811C70.1768 6.80928 71.1097 7.74249 72.2605 7.74249Z" fill="#7C8E9C"/>
<path fill-rule="evenodd" clip-rule="evenodd" d="M30.5857 7.74249C31.7365 7.74249 32.6694 6.80928 32.6694 5.65811C32.6694 4.50694 31.7365 3.57373 30.5857 3.57373C29.4349 3.57373 28.502 4.50694 28.502 5.65811C28.502 6.80928 29.4349 7.74249 30.5857 7.74249Z" fill="#7C8E9C"/>
<path fill-rule="evenodd" clip-rule="evenodd" d="M63.9255 7.74249C65.0763 7.74249 66.0092 6.80928 66.0092 5.65811C66.0092 4.50694 65.0763 3.57373 63.9255 3.57373C62.7747 3.57373 61.8418 4.50694 61.8418 5.65811C61.8418 6.80928 62.7747 7.74249 63.9255 7.74249Z" fill="#7C8E9C"/>
<path fill-rule="evenodd" clip-rule="evenodd" d="M47.2546 7.74249C48.4054 7.74249 49.3383 6.80928 49.3383 5.65811C49.3383 4.50694 48.4054 3.57373 47.2546 3.57373C46.1038 3.57373 45.1709 4.50694 45.1709 5.65811C45.1709 6.80928 46.1038 7.74249 47.2546 7.74249Z" fill="#7C8E9C"/>
<path fill-rule="evenodd" clip-rule="evenodd" d="M27.0432 5.65733L25.793 6.69919V4.61548L27.0432 5.65733Z" fill="#D1D1D1" fill-opacity="0.7"/>
<path fill-rule="evenodd" clip-rule="evenodd" d="M35.3801 5.65733L34.1299 6.69919V4.61548L35.3801 5.65733Z" fill="#D1D1D1" fill-opacity="0.7"/>
<path fill-rule="evenodd" clip-rule="evenodd" d="M43.7131 5.65733L42.4629 6.69919V4.61548L43.7131 5.65733Z" fill="#D1D1D1" fill-opacity="0.7"/>
<path fill-rule="evenodd" clip-rule="evenodd" d="M52.0491 5.65733L50.7988 6.69919V4.61548L52.0491 5.65733Z" fill="#D1D1D1" fill-opacity="0.7"/>
<path fill-rule="evenodd" clip-rule="evenodd" d="M60.384 5.65733L59.1338 6.69919V4.61548L60.384 5.65733Z" fill="#D1D1D1" fill-opacity="0.7"/>
<path fill-rule="evenodd" clip-rule="evenodd" d="M68.718 5.65733L67.4678 6.69919V4.61548L68.718 5.65733Z" fill="#D1D1D1" fill-opacity="0.7"/>
<path fill-rule="evenodd" clip-rule="evenodd" d="M22.2517 15.4837C23.4025 15.4837 24.3354 14.5505 24.3354 13.3993C24.3354 12.2481 23.4025 11.3149 22.2517 11.3149C21.1009 11.3149 20.168 12.2481 20.168 13.3993C20.168 14.5505 21.1009 15.4837 22.2517 15.4837Z" fill="#7C8E9C" fill-opacity="0.3" stroke="#4E6287"/>
<path fill-rule="evenodd" clip-rule="evenodd" d="M55.5925 15.4837C56.7433 15.4837 57.6762 14.5505 57.6762 13.3993C57.6762 12.2481 56.7433 11.3149 55.5925 11.3149C54.4417 11.3149 53.5088 12.2481 53.5088 13.3993C53.5088 14.5505 54.4417 15.4837 55.5925 15.4837Z" fill="#7C8E9C"/>
<path fill-rule="evenodd" clip-rule="evenodd" d="M38.9206 15.4837C40.0714 15.4837 41.0043 14.5505 41.0043 13.3993C41.0043 12.2481 40.0714 11.3149 38.9206 11.3149C37.7698 11.3149 36.8369 12.2481 36.8369 13.3993C36.8369 14.5505 37.7698 15.4837 38.9206 15.4837Z" fill="#7C8E9C"/>
<path fill-rule="evenodd" clip-rule="evenodd" d="M72.2605 15.4837C73.4113 15.4837 74.3442 14.5505 74.3442 13.3993C74.3442 12.2481 73.4113 11.3149 72.2605 11.3149C71.1097 11.3149 70.1768 12.2481 70.1768 13.3993C70.1768 14.5505 71.1097 15.4837 72.2605 15.4837Z" fill="#7C8E9C"/>
<path fill-rule="evenodd" clip-rule="evenodd" d="M30.5857 15.4837C31.7365 15.4837 32.6694 14.5505 32.6694 13.3993C32.6694 12.2481 31.7365 11.3149 30.5857 11.3149C29.4349 11.3149 28.502 12.2481 28.502 13.3993C28.502 14.5505 29.4349 15.4837 30.5857 15.4837Z" fill="#7C8E9C"/>
<path fill-rule="evenodd" clip-rule="evenodd" d="M63.9255 15.4837C65.0763 15.4837 66.0092 14.5505 66.0092 13.3993C66.0092 12.2481 65.0763 11.3149 63.9255 11.3149C62.7747 11.3149 61.8418 12.2481 61.8418 13.3993C61.8418 14.5505 62.7747 15.4837 63.9255 15.4837Z" fill="#7C8E9C"/>
<path fill-rule="evenodd" clip-rule="evenodd" d="M47.2546 15.4837C48.4054 15.4837 49.3383 14.5505 49.3383 13.3993C49.3383 12.2481 48.4054 11.3149 47.2546 11.3149C46.1038 11.3149 45.1709 12.2481 45.1709 13.3993C45.1709 14.5505 46.1038 15.4837 47.2546 15.4837Z" fill="#7C8E9C"/>
<path fill-rule="evenodd" clip-rule="evenodd" d="M27.0432 13.3985L25.793 14.4404V12.3567L27.0432 13.3985Z" fill="#D1D1D1" fill-opacity="0.7"/>
<path fill-rule="evenodd" clip-rule="evenodd" d="M35.3801 13.3985L34.1299 14.4404V12.3567L35.3801 13.3985Z" fill="#D1D1D1" fill-opacity="0.7"/>
<path fill-rule="evenodd" clip-rule="evenodd" d="M43.7141 13.3985L42.4639 14.4404V12.3567L43.7141 13.3985Z" fill="#D1D1D1" fill-opacity="0.7"/>
<path fill-rule="evenodd" clip-rule="evenodd" d="M52.0491 13.3985L50.7988 14.4404V12.3567L52.0491 13.3985Z" fill="#D1D1D1" fill-opacity="0.7"/>
<path fill-rule="evenodd" clip-rule="evenodd" d="M60.384 13.3985L59.1338 14.4404V12.3567L60.384 13.3985Z" fill="#D1D1D1" fill-opacity="0.7"/>
<path fill-rule="evenodd" clip-rule="evenodd" d="M68.718 13.3985L67.4678 14.4404V12.3567L68.718 13.3985Z" fill="#D1D1D1" fill-opacity="0.7"/>
<path fill-rule="evenodd" clip-rule="evenodd" d="M22.2517 23.2259C23.4025 23.2259 24.3354 22.2927 24.3354 21.1415C24.3354 19.9903 23.4025 19.0571 22.2517 19.0571C21.1009 19.0571 20.168 19.9903 20.168 21.1415C20.168 22.2927 21.1009 23.2259 22.2517 23.2259Z" fill="#7C8E9C" fill-opacity="0.3" stroke="#4E6287"/>
<path fill-rule="evenodd" clip-rule="evenodd" d="M55.5925 23.2259C56.7433 23.2259 57.6762 22.2927 57.6762 21.1415C57.6762 19.9903 56.7433 19.0571 55.5925 19.0571C54.4417 19.0571 53.5088 19.9903 53.5088 21.1415C53.5088 22.2927 54.4417 23.2259 55.5925 23.2259Z" fill="#7C8E9C"/>
<path fill-rule="evenodd" clip-rule="evenodd" d="M38.9206 23.2259C40.0714 23.2259 41.0043 22.2927 41.0043 21.1415C41.0043 19.9903 40.0714 19.0571 38.9206 19.0571C37.7698 19.0571 36.8369 19.9903 36.8369 21.1415C36.8369 22.2927 37.7698 23.2259 38.9206 23.2259Z" fill="#7C8E9C"/>
<path fill-rule="evenodd" clip-rule="evenodd" d="M72.2605 23.2259C73.4113 23.2259 74.3442 22.2927 74.3442 21.1415C74.3442 19.9903 73.4113 19.0571 72.2605 19.0571C71.1097 19.0571 70.1768 19.9903 70.1768 21.1415C70.1768 22.2927 71.1097 23.2259 72.2605 23.2259Z" fill="#7C8E9C"/>
<path fill-rule="evenodd" clip-rule="evenodd" d="M30.5857 23.2259C31.7365 23.2259 32.6694 22.2927 32.6694 21.1415C32.6694 19.9903 31.7365 19.0571 30.5857 19.0571C29.4349 19.0571 28.502 19.9903 28.502 21.1415C28.502 22.2927 29.4349 23.2259 30.5857 23.2259Z" fill="#7C8E9C"/>
<path fill-rule="evenodd" clip-rule="evenodd" d="M63.9255 23.2259C65.0763 23.2259 66.0092 22.2927 66.0092 21.1415C66.0092 19.9903 65.0763 19.0571 63.9255 19.0571C62.7747 19.0571 61.8418 19.9903 61.8418 21.1415C61.8418 22.2927 62.7747 23.2259 63.9255 23.2259Z" fill="#7C8E9C"/>
<path fill-rule="evenodd" clip-rule="evenodd" d="M47.2546 23.2259C48.4054 23.2259 49.3383 22.2927 49.3383 21.1415C49.3383 19.9903 48.4054 19.0571 47.2546 19.0571C46.1038 19.0571 45.1709 19.9903 45.1709 21.1415C45.1709 22.2927 46.1038 23.2259 47.2546 23.2259Z" fill="#7C8E9C"/>
<path fill-rule="evenodd" clip-rule="evenodd" d="M27.0432 21.141L25.793 22.1828V20.0991L27.0432 21.141Z" fill="#D1D1D1" fill-opacity="0.7"/>
<path fill-rule="evenodd" clip-rule="evenodd" d="M35.3801 21.141L34.1299 22.1828V20.0991L35.3801 21.141Z" fill="#D1D1D1" fill-opacity="0.7"/>
<path fill-rule="evenodd" clip-rule="evenodd" d="M43.7131 21.141L42.4629 22.1828V20.0991L43.7131 21.141Z" fill="#D1D1D1" fill-opacity="0.7"/>
<path fill-rule="evenodd" clip-rule="evenodd" d="M52.0491 21.141L50.7988 22.1828V20.0991L52.0491 21.141Z" fill="#D1D1D1" fill-opacity="0.7"/>
<path fill-rule="evenodd" clip-rule="evenodd" d="M60.384 21.141L59.1338 22.1828V20.0991L60.384 21.141Z" fill="#D1D1D1" fill-opacity="0.7"/>
<path fill-rule="evenodd" clip-rule="evenodd" d="M68.718 21.141L67.4678 22.1828V20.0991L68.718 21.141Z" fill="#D1D1D1" fill-opacity="0.7"/>
<path fill-rule="evenodd" clip-rule="evenodd" d="M22.2517 30.9683C23.4025 30.9683 24.3354 30.0351 24.3354 28.8839C24.3354 27.7328 23.4025 26.7996 22.2517 26.7996C21.1009 26.7996 20.168 27.7328 20.168 28.8839C20.168 30.0351 21.1009 30.9683 22.2517 30.9683Z" fill="#7C8E9C" fill-opacity="0.3" stroke="#4E6287"/>
<path fill-rule="evenodd" clip-rule="evenodd" d="M55.5925 30.9683C56.7433 30.9683 57.6762 30.0351 57.6762 28.8839C57.6762 27.7328 56.7433 26.7996 55.5925 26.7996C54.4417 26.7996 53.5088 27.7328 53.5088 28.8839C53.5088 30.0351 54.4417 30.9683 55.5925 30.9683Z" fill="#7C8E9C"/>
<path fill-rule="evenodd" clip-rule="evenodd" d="M38.9206 30.9683C40.0714 30.9683 41.0043 30.0351 41.0043 28.8839C41.0043 27.7328 40.0714 26.7996 38.9206 26.7996C37.7698 26.7996 36.8369 27.7328 36.8369 28.8839C36.8369 30.0351 37.7698 30.9683 38.9206 30.9683Z" fill="#7C8E9C"/>
<path fill-rule="evenodd" clip-rule="evenodd" d="M72.2605 30.9683C73.4113 30.9683 74.3442 30.0351 74.3442 28.8839C74.3442 27.7328 73.4113 26.7996 72.2605 26.7996C71.1097 26.7996 70.1768 27.7328 70.1768 28.8839C70.1768 30.0351 71.1097 30.9683 72.2605 30.9683Z" fill="#7C8E9C"/>
<path fill-rule="evenodd" clip-rule="evenodd" d="M30.5857 30.9683C31.7365 30.9683 32.6694 30.0351 32.6694 28.8839C32.6694 27.7328 31.7365 26.7996 30.5857 26.7996C29.4349 26.7996 28.502 27.7328 28.502 28.8839C28.502 30.0351 29.4349 30.9683 30.5857 30.9683Z" fill="#7C8E9C"/>
<path fill-rule="evenodd" clip-rule="evenodd" d="M63.9255 30.9683C65.0763 30.9683 66.0092 30.0351 66.0092 28.8839C66.0092 27.7328 65.0763 26.7996 63.9255 26.7996C62.7747 26.7996 61.8418 27.7328 61.8418 28.8839C61.8418 30.0351 62.7747 30.9683 63.9255 30.9683Z" fill="#7C8E9C"/>
<path fill-rule="evenodd" clip-rule="evenodd" d="M47.2546 30.9683C48.4054 30.9683 49.3383 30.0351 49.3383 28.8839C49.3383 27.7328 48.4054 26.7996 47.2546 26.7996C46.1038 26.7996 45.1709 27.7328 45.1709 28.8839C45.1709 30.0351 46.1038 30.9683 47.2546 30.9683Z" fill="#7C8E9C"/>
<path fill-rule="evenodd" clip-rule="evenodd" d="M27.0432 28.8832L25.793 29.925V27.8413L27.0432 28.8832Z" fill="#D1D1D1" fill-opacity="0.7"/>
<path fill-rule="evenodd" clip-rule="evenodd" d="M35.3801 28.8832L34.1299 29.925V27.8413L35.3801 28.8832Z" fill="#D1D1D1" fill-opacity="0.7"/>
<path fill-rule="evenodd" clip-rule="evenodd" d="M43.7141 28.8832L42.4639 29.925V27.8413L43.7141 28.8832Z" fill="#D1D1D1" fill-opacity="0.7"/>
<path fill-rule="evenodd" clip-rule="evenodd" d="M52.0491 28.8832L50.7988 29.925V27.8413L52.0491 28.8832Z" fill="#D1D1D1" fill-opacity="0.7"/>
<path fill-rule="evenodd" clip-rule="evenodd" d="M60.384 28.8832L59.1338 29.925V27.8413L60.384 28.8832Z" fill="#D1D1D1" fill-opacity="0.7"/>
<path fill-rule="evenodd" clip-rule="evenodd" d="M68.718 28.8832L67.4678 29.925V27.8413L68.718 28.8832Z" fill="#D1D1D1" fill-opacity="0.7"/>
</g>
<g filter="url(#filter1_d_6064_34375)">
<rect x="22.9883" y="4.36475" width="61.5113" height="33.5411" rx="1.96541" fill="white" stroke="#4E6287"/>
<path fill-rule="evenodd" clip-rule="evenodd" d="M28.7419 11.6072C29.8927 11.6072 30.8256 10.674 30.8256 9.52286C30.8256 8.37168 29.8927 7.43848 28.7419 7.43848C27.5911 7.43848 26.6582 8.37168 26.6582 9.52286C26.6582 10.674 27.5911 11.6072 28.7419 11.6072Z" fill="#7C8E9C" fill-opacity="0.3" stroke="#4E6287"/>
<path fill-rule="evenodd" clip-rule="evenodd" d="M62.0818 11.6072C63.2326 11.6072 64.1655 10.674 64.1655 9.52286C64.1655 8.37168 63.2326 7.43848 62.0818 7.43848C60.931 7.43848 59.998 8.37168 59.998 9.52286C59.998 10.674 60.931 11.6072 62.0818 11.6072Z" fill="#7C8E9C"/>
<path fill-rule="evenodd" clip-rule="evenodd" d="M45.4109 11.6072C46.5617 11.6072 47.4946 10.674 47.4946 9.52286C47.4946 8.37168 46.5617 7.43848 45.4109 7.43848C44.2601 7.43848 43.3271 8.37168 43.3271 9.52286C43.3271 10.674 44.2601 11.6072 45.4109 11.6072Z" fill="#7C8E9C"/>
<path fill-rule="evenodd" clip-rule="evenodd" d="M78.7507 11.6072C79.9015 11.6072 80.8344 10.674 80.8344 9.52286C80.8344 8.37168 79.9015 7.43848 78.7507 7.43848C77.5999 7.43848 76.667 8.37168 76.667 9.52286C76.667 10.674 77.5999 11.6072 78.7507 11.6072Z" fill="#7C8E9C"/>
<path fill-rule="evenodd" clip-rule="evenodd" d="M37.0759 11.6072C38.2267 11.6072 39.1596 10.674 39.1596 9.52286C39.1596 8.37168 38.2267 7.43848 37.0759 7.43848C35.9251 7.43848 34.9922 8.37168 34.9922 9.52286C34.9922 10.674 35.9251 11.6072 37.0759 11.6072Z" fill="#7C8E9C"/>
<path fill-rule="evenodd" clip-rule="evenodd" d="M70.4157 11.6072C71.5665 11.6072 72.4994 10.674 72.4994 9.52286C72.4994 8.37168 71.5665 7.43848 70.4157 7.43848C69.2649 7.43848 68.332 8.37168 68.332 9.52286C68.332 10.674 69.2649 11.6072 70.4157 11.6072Z" fill="#7C8E9C"/>
<path fill-rule="evenodd" clip-rule="evenodd" d="M53.7448 11.6072C54.8956 11.6072 55.8285 10.674 55.8285 9.52286C55.8285 8.37168 54.8956 7.43848 53.7448 7.43848C52.594 7.43848 51.6611 8.37168 51.6611 9.52286C51.6611 10.674 52.594 11.6072 53.7448 11.6072Z" fill="#7C8E9C"/>
<path fill-rule="evenodd" clip-rule="evenodd" d="M33.5334 9.52232L32.2832 10.5642V8.48047L33.5334 9.52232Z" fill="#D1D1D1" fill-opacity="0.7"/>
<path fill-rule="evenodd" clip-rule="evenodd" d="M41.8703 9.52232L40.6201 10.5642V8.48047L41.8703 9.52232Z" fill="#D1D1D1" fill-opacity="0.7"/>
<path fill-rule="evenodd" clip-rule="evenodd" d="M50.2034 9.52232L48.9531 10.5642V8.48047L50.2034 9.52232Z" fill="#D1D1D1" fill-opacity="0.7"/>
<path fill-rule="evenodd" clip-rule="evenodd" d="M58.5383 9.52232L57.2881 10.5642V8.48047L58.5383 9.52232Z" fill="#D1D1D1" fill-opacity="0.7"/>
<path fill-rule="evenodd" clip-rule="evenodd" d="M66.8742 9.52232L65.624 10.5642V8.48047L66.8742 9.52232Z" fill="#D1D1D1" fill-opacity="0.7"/>
<path fill-rule="evenodd" clip-rule="evenodd" d="M75.2082 9.52232L73.958 10.5642V8.48047L75.2082 9.52232Z" fill="#D1D1D1" fill-opacity="0.7"/>
<path fill-rule="evenodd" clip-rule="evenodd" d="M28.7419 19.3487C29.8927 19.3487 30.8256 18.4155 30.8256 17.2643C30.8256 16.1131 29.8927 15.1799 28.7419 15.1799C27.5911 15.1799 26.6582 16.1131 26.6582 17.2643C26.6582 18.4155 27.5911 19.3487 28.7419 19.3487Z" fill="#7C8E9C" fill-opacity="0.3" stroke="#4E6287"/>
<path fill-rule="evenodd" clip-rule="evenodd" d="M62.0818 19.3487C63.2326 19.3487 64.1655 18.4155 64.1655 17.2643C64.1655 16.1131 63.2326 15.1799 62.0818 15.1799C60.931 15.1799 59.998 16.1131 59.998 17.2643C59.998 18.4155 60.931 19.3487 62.0818 19.3487Z" fill="#7C8E9C"/>
<path fill-rule="evenodd" clip-rule="evenodd" d="M45.4109 19.3487C46.5617 19.3487 47.4946 18.4155 47.4946 17.2643C47.4946 16.1131 46.5617 15.1799 45.4109 15.1799C44.2601 15.1799 43.3271 16.1131 43.3271 17.2643C43.3271 18.4155 44.2601 19.3487 45.4109 19.3487Z" fill="#7C8E9C"/>
<path fill-rule="evenodd" clip-rule="evenodd" d="M78.7507 19.3487C79.9015 19.3487 80.8344 18.4155 80.8344 17.2643C80.8344 16.1131 79.9015 15.1799 78.7507 15.1799C77.5999 15.1799 76.667 16.1131 76.667 17.2643C76.667 18.4155 77.5999 19.3487 78.7507 19.3487Z" fill="#7C8E9C"/>
<path fill-rule="evenodd" clip-rule="evenodd" d="M37.0759 19.3487C38.2267 19.3487 39.1596 18.4155 39.1596 17.2643C39.1596 16.1131 38.2267 15.1799 37.0759 15.1799C35.9251 15.1799 34.9922 16.1131 34.9922 17.2643C34.9922 18.4155 35.9251 19.3487 37.0759 19.3487Z" fill="#7C8E9C"/>
<path fill-rule="evenodd" clip-rule="evenodd" d="M70.4157 19.3487C71.5665 19.3487 72.4994 18.4155 72.4994 17.2643C72.4994 16.1131 71.5665 15.1799 70.4157 15.1799C69.2649 15.1799 68.332 16.1131 68.332 17.2643C68.332 18.4155 69.2649 19.3487 70.4157 19.3487Z" fill="#7C8E9C"/>
<path fill-rule="evenodd" clip-rule="evenodd" d="M53.7448 19.3487C54.8956 19.3487 55.8285 18.4155 55.8285 17.2643C55.8285 16.1131 54.8956 15.1799 53.7448 15.1799C52.594 15.1799 51.6611 16.1131 51.6611 17.2643C51.6611 18.4155 52.594 19.3487 53.7448 19.3487Z" fill="#7C8E9C"/>
<path fill-rule="evenodd" clip-rule="evenodd" d="M33.5334 17.2635L32.2832 18.3054V16.2217L33.5334 17.2635Z" fill="#D1D1D1" fill-opacity="0.7"/>
<path fill-rule="evenodd" clip-rule="evenodd" d="M41.8703 17.2635L40.6201 18.3054V16.2217L41.8703 17.2635Z" fill="#D1D1D1" fill-opacity="0.7"/>
<path fill-rule="evenodd" clip-rule="evenodd" d="M50.2053 17.2635L48.9551 18.3054V16.2217L50.2053 17.2635Z" fill="#D1D1D1" fill-opacity="0.7"/>
<path fill-rule="evenodd" clip-rule="evenodd" d="M58.5383 17.2635L57.2881 18.3054V16.2217L58.5383 17.2635Z" fill="#D1D1D1" fill-opacity="0.7"/>
<path fill-rule="evenodd" clip-rule="evenodd" d="M66.8742 17.2635L65.624 18.3054V16.2217L66.8742 17.2635Z" fill="#D1D1D1" fill-opacity="0.7"/>
<path fill-rule="evenodd" clip-rule="evenodd" d="M75.2082 17.2635L73.958 18.3054V16.2217L75.2082 17.2635Z" fill="#D1D1D1" fill-opacity="0.7"/>
<path fill-rule="evenodd" clip-rule="evenodd" d="M28.7419 27.0909C29.8927 27.0909 30.8256 26.1577 30.8256 25.0065C30.8256 23.8553 29.8927 22.9221 28.7419 22.9221C27.5911 22.9221 26.6582 23.8553 26.6582 25.0065C26.6582 26.1577 27.5911 27.0909 28.7419 27.0909Z" fill="#7C8E9C" fill-opacity="0.3" stroke="#4E6287"/>
<path fill-rule="evenodd" clip-rule="evenodd" d="M62.0818 27.0909C63.2326 27.0909 64.1655 26.1577 64.1655 25.0065C64.1655 23.8553 63.2326 22.9221 62.0818 22.9221C60.931 22.9221 59.998 23.8553 59.998 25.0065C59.998 26.1577 60.931 27.0909 62.0818 27.0909Z" fill="#7C8E9C"/>
<path fill-rule="evenodd" clip-rule="evenodd" d="M45.4109 27.0909C46.5617 27.0909 47.4946 26.1577 47.4946 25.0065C47.4946 23.8553 46.5617 22.9221 45.4109 22.9221C44.2601 22.9221 43.3271 23.8553 43.3271 25.0065C43.3271 26.1577 44.2601 27.0909 45.4109 27.0909Z" fill="#7C8E9C"/>
<path fill-rule="evenodd" clip-rule="evenodd" d="M78.7507 27.0909C79.9015 27.0909 80.8344 26.1577 80.8344 25.0065C80.8344 23.8553 79.9015 22.9221 78.7507 22.9221C77.5999 22.9221 76.667 23.8553 76.667 25.0065C76.667 26.1577 77.5999 27.0909 78.7507 27.0909Z" fill="#7C8E9C"/>
<path fill-rule="evenodd" clip-rule="evenodd" d="M37.0759 27.0909C38.2267 27.0909 39.1596 26.1577 39.1596 25.0065C39.1596 23.8553 38.2267 22.9221 37.0759 22.9221C35.9251 22.9221 34.9922 23.8553 34.9922 25.0065C34.9922 26.1577 35.9251 27.0909 37.0759 27.0909Z" fill="#7C8E9C"/>
<path fill-rule="evenodd" clip-rule="evenodd" d="M70.4157 27.0909C71.5665 27.0909 72.4994 26.1577 72.4994 25.0065C72.4994 23.8553 71.5665 22.9221 70.4157 22.9221C69.2649 22.9221 68.332 23.8553 68.332 25.0065C68.332 26.1577 69.2649 27.0909 70.4157 27.0909Z" fill="#7C8E9C"/>
<path fill-rule="evenodd" clip-rule="evenodd" d="M53.7448 27.0909C54.8956 27.0909 55.8285 26.1577 55.8285 25.0065C55.8285 23.8553 54.8956 22.9221 53.7448 22.9221C52.594 22.9221 51.6611 23.8553 51.6611 25.0065C51.6611 26.1577 52.594 27.0909 53.7448 27.0909Z" fill="#7C8E9C"/>
<path fill-rule="evenodd" clip-rule="evenodd" d="M33.5334 25.006L32.2832 26.0478V23.9641L33.5334 25.006Z" fill="#D1D1D1" fill-opacity="0.7"/>
<path fill-rule="evenodd" clip-rule="evenodd" d="M41.8703 25.006L40.6201 26.0478V23.9641L41.8703 25.006Z" fill="#D1D1D1" fill-opacity="0.7"/>
<path fill-rule="evenodd" clip-rule="evenodd" d="M50.2034 25.006L48.9531 26.0478V23.9641L50.2034 25.006Z" fill="#D1D1D1" fill-opacity="0.7"/>
<path fill-rule="evenodd" clip-rule="evenodd" d="M58.5383 25.006L57.2881 26.0478V23.9641L58.5383 25.006Z" fill="#D1D1D1" fill-opacity="0.7"/>
<path fill-rule="evenodd" clip-rule="evenodd" d="M66.8742 25.006L65.624 26.0478V23.9641L66.8742 25.006Z" fill="#D1D1D1" fill-opacity="0.7"/>
<path fill-rule="evenodd" clip-rule="evenodd" d="M75.2082 25.006L73.958 26.0478V23.9641L75.2082 25.006Z" fill="#D1D1D1" fill-opacity="0.7"/>
<path fill-rule="evenodd" clip-rule="evenodd" d="M28.7419 34.8328C29.8927 34.8328 30.8256 33.8996 30.8256 32.7484C30.8256 31.5973 29.8927 30.6641 28.7419 30.6641C27.5911 30.6641 26.6582 31.5973 26.6582 32.7484C26.6582 33.8996 27.5911 34.8328 28.7419 34.8328Z" fill="#7C8E9C" fill-opacity="0.3" stroke="#4E6287"/>
<path fill-rule="evenodd" clip-rule="evenodd" d="M62.0818 34.8328C63.2326 34.8328 64.1655 33.8996 64.1655 32.7484C64.1655 31.5973 63.2326 30.6641 62.0818 30.6641C60.931 30.6641 59.998 31.5973 59.998 32.7484C59.998 33.8996 60.931 34.8328 62.0818 34.8328Z" fill="#7C8E9C"/>
<path fill-rule="evenodd" clip-rule="evenodd" d="M45.4109 34.8328C46.5617 34.8328 47.4946 33.8996 47.4946 32.7484C47.4946 31.5973 46.5617 30.6641 45.4109 30.6641C44.2601 30.6641 43.3271 31.5973 43.3271 32.7484C43.3271 33.8996 44.2601 34.8328 45.4109 34.8328Z" fill="#7C8E9C"/>
<path fill-rule="evenodd" clip-rule="evenodd" d="M78.7507 34.8328C79.9015 34.8328 80.8344 33.8996 80.8344 32.7484C80.8344 31.5973 79.9015 30.6641 78.7507 30.6641C77.5999 30.6641 76.667 31.5973 76.667 32.7484C76.667 33.8996 77.5999 34.8328 78.7507 34.8328Z" fill="#7C8E9C"/>
<path fill-rule="evenodd" clip-rule="evenodd" d="M37.0759 34.8328C38.2267 34.8328 39.1596 33.8996 39.1596 32.7484C39.1596 31.5973 38.2267 30.6641 37.0759 30.6641C35.9251 30.6641 34.9922 31.5973 34.9922 32.7484C34.9922 33.8996 35.9251 34.8328 37.0759 34.8328Z" fill="#7C8E9C"/>
<path fill-rule="evenodd" clip-rule="evenodd" d="M70.4157 34.8328C71.5665 34.8328 72.4994 33.8996 72.4994 32.7484C72.4994 31.5973 71.5665 30.6641 70.4157 30.6641C69.2649 30.6641 68.332 31.5973 68.332 32.7484C68.332 33.8996 69.2649 34.8328 70.4157 34.8328Z" fill="#7C8E9C"/>
<path fill-rule="evenodd" clip-rule="evenodd" d="M53.7448 34.8328C54.8956 34.8328 55.8285 33.8996 55.8285 32.7484C55.8285 31.5973 54.8956 30.6641 53.7448 30.6641C52.594 30.6641 51.6611 31.5973 51.6611 32.7484C51.6611 33.8996 52.594 34.8328 53.7448 34.8328Z" fill="#7C8E9C"/>
<path fill-rule="evenodd" clip-rule="evenodd" d="M33.5334 32.7477L32.2832 33.7895V31.7058L33.5334 32.7477Z" fill="#D1D1D1" fill-opacity="0.7"/>
<path fill-rule="evenodd" clip-rule="evenodd" d="M41.8703 32.7477L40.6201 33.7895V31.7058L41.8703 32.7477Z" fill="#D1D1D1" fill-opacity="0.7"/>
<path fill-rule="evenodd" clip-rule="evenodd" d="M50.2053 32.7477L48.9551 33.7895V31.7058L50.2053 32.7477Z" fill="#D1D1D1" fill-opacity="0.7"/>
<path fill-rule="evenodd" clip-rule="evenodd" d="M58.5383 32.7477L57.2881 33.7895V31.7058L58.5383 32.7477Z" fill="#D1D1D1" fill-opacity="0.7"/>
<path fill-rule="evenodd" clip-rule="evenodd" d="M66.8742 32.7477L65.624 33.7895V31.7058L66.8742 32.7477Z" fill="#D1D1D1" fill-opacity="0.7"/>
<path fill-rule="evenodd" clip-rule="evenodd" d="M75.2082 32.7477L73.958 33.7895V31.7058L75.2082 32.7477Z" fill="#D1D1D1" fill-opacity="0.7"/>
</g>
<g filter="url(#filter2_d_6064_34375)">
<rect x="29.4756" y="8.23022" width="61.5113" height="33.5411" rx="1.96541" fill="white" stroke="#4E6287"/>
<path fill-rule="evenodd" clip-rule="evenodd" d="M35.2292 15.4725C36.38 15.4725 37.3129 14.5393 37.3129 13.3881C37.3129 12.2369 36.38 11.3037 35.2292 11.3037C34.0784 11.3037 33.1455 12.2369 33.1455 13.3881C33.1455 14.5393 34.0784 15.4725 35.2292 15.4725Z" fill="#7C8E9C" fill-opacity="0.3" stroke="#4E6287"/>
<path fill-rule="evenodd" clip-rule="evenodd" d="M68.5691 15.4725C69.7199 15.4725 70.6528 14.5393 70.6528 13.3881C70.6528 12.2369 69.7199 11.3037 68.5691 11.3037C67.4183 11.3037 66.4854 12.2369 66.4854 13.3881C66.4854 14.5393 67.4183 15.4725 68.5691 15.4725Z" fill="#7C8E9C"/>
<path fill-rule="evenodd" clip-rule="evenodd" d="M51.8982 15.4725C53.049 15.4725 53.9819 14.5393 53.9819 13.3881C53.9819 12.2369 53.049 11.3037 51.8982 11.3037C50.7474 11.3037 49.8145 12.2369 49.8145 13.3881C49.8145 14.5393 50.7474 15.4725 51.8982 15.4725Z" fill="#7C8E9C"/>
<path fill-rule="evenodd" clip-rule="evenodd" d="M85.238 15.4725C86.3888 15.4725 87.3217 14.5393 87.3217 13.3881C87.3217 12.2369 86.3888 11.3037 85.238 11.3037C84.0872 11.3037 83.1543 12.2369 83.1543 13.3881C83.1543 14.5393 84.0872 15.4725 85.238 15.4725Z" fill="#7C8E9C"/>
<path fill-rule="evenodd" clip-rule="evenodd" d="M43.5632 15.4725C44.714 15.4725 45.6469 14.5393 45.6469 13.3881C45.6469 12.2369 44.714 11.3037 43.5632 11.3037C42.4124 11.3037 41.4795 12.2369 41.4795 13.3881C41.4795 14.5393 42.4124 15.4725 43.5632 15.4725Z" fill="#7C8E9C"/>
<path fill-rule="evenodd" clip-rule="evenodd" d="M76.903 15.4725C78.0538 15.4725 78.9868 14.5393 78.9868 13.3881C78.9868 12.2369 78.0538 11.3037 76.903 11.3037C75.7522 11.3037 74.8193 12.2369 74.8193 13.3881C74.8193 14.5393 75.7522 15.4725 76.903 15.4725Z" fill="#7C8E9C"/>
<path fill-rule="evenodd" clip-rule="evenodd" d="M60.2321 15.4725C61.3829 15.4725 62.3159 14.5393 62.3159 13.3881C62.3159 12.2369 61.3829 11.3037 60.2321 11.3037C59.0813 11.3037 58.1484 12.2369 58.1484 13.3881C58.1484 14.5393 59.0813 15.4725 60.2321 15.4725Z" fill="#7C8E9C"/>
<path fill-rule="evenodd" clip-rule="evenodd" d="M40.0207 13.3873L38.7705 14.4292V12.3455L40.0207 13.3873Z" fill="#D1D1D1" fill-opacity="0.7"/>
<path fill-rule="evenodd" clip-rule="evenodd" d="M48.3567 13.3873L47.1064 14.4292V12.3455L48.3567 13.3873Z" fill="#D1D1D1" fill-opacity="0.7"/>
<path fill-rule="evenodd" clip-rule="evenodd" d="M56.6907 13.3873L55.4404 14.4292V12.3455L56.6907 13.3873Z" fill="#D1D1D1" fill-opacity="0.7"/>
<path fill-rule="evenodd" clip-rule="evenodd" d="M65.0256 13.3873L63.7754 14.4292V12.3455L65.0256 13.3873Z" fill="#D1D1D1" fill-opacity="0.7"/>
<path fill-rule="evenodd" clip-rule="evenodd" d="M73.3616 13.3873L72.1113 14.4292V12.3455L73.3616 13.3873Z" fill="#D1D1D1" fill-opacity="0.7"/>
<path fill-rule="evenodd" clip-rule="evenodd" d="M81.6955 13.3873L80.4453 14.4292V12.3455L81.6955 13.3873Z" fill="#D1D1D1" fill-opacity="0.7"/>
<path fill-rule="evenodd" clip-rule="evenodd" d="M35.2292 23.2142C36.38 23.2142 37.3129 22.281 37.3129 21.1298C37.3129 19.9786 36.38 19.0454 35.2292 19.0454C34.0784 19.0454 33.1455 19.9786 33.1455 21.1298C33.1455 22.281 34.0784 23.2142 35.2292 23.2142Z" fill="#7C8E9C" fill-opacity="0.3" stroke="#4E6287"/>
<path fill-rule="evenodd" clip-rule="evenodd" d="M68.5691 23.2142C69.7199 23.2142 70.6528 22.281 70.6528 21.1298C70.6528 19.9786 69.7199 19.0454 68.5691 19.0454C67.4183 19.0454 66.4854 19.9786 66.4854 21.1298C66.4854 22.281 67.4183 23.2142 68.5691 23.2142Z" fill="#7C8E9C"/>
<path fill-rule="evenodd" clip-rule="evenodd" d="M51.8982 23.2142C53.049 23.2142 53.9819 22.281 53.9819 21.1298C53.9819 19.9786 53.049 19.0454 51.8982 19.0454C50.7474 19.0454 49.8145 19.9786 49.8145 21.1298C49.8145 22.281 50.7474 23.2142 51.8982 23.2142Z" fill="#7C8E9C"/>
<path fill-rule="evenodd" clip-rule="evenodd" d="M85.238 23.2142C86.3888 23.2142 87.3217 22.281 87.3217 21.1298C87.3217 19.9786 86.3888 19.0454 85.238 19.0454C84.0872 19.0454 83.1543 19.9786 83.1543 21.1298C83.1543 22.281 84.0872 23.2142 85.238 23.2142Z" fill="#7C8E9C"/>
<path fill-rule="evenodd" clip-rule="evenodd" d="M43.5632 23.2142C44.714 23.2142 45.6469 22.281 45.6469 21.1298C45.6469 19.9786 44.714 19.0454 43.5632 19.0454C42.4124 19.0454 41.4795 19.9786 41.4795 21.1298C41.4795 22.281 42.4124 23.2142 43.5632 23.2142Z" fill="#7C8E9C"/>
<path fill-rule="evenodd" clip-rule="evenodd" d="M76.903 23.2142C78.0538 23.2142 78.9868 22.281 78.9868 21.1298C78.9868 19.9786 78.0538 19.0454 76.903 19.0454C75.7522 19.0454 74.8193 19.9786 74.8193 21.1298C74.8193 22.281 75.7522 23.2142 76.903 23.2142Z" fill="#7C8E9C"/>
<path fill-rule="evenodd" clip-rule="evenodd" d="M60.2321 23.2142C61.3829 23.2142 62.3159 22.281 62.3159 21.1298C62.3159 19.9786 61.3829 19.0454 60.2321 19.0454C59.0813 19.0454 58.1484 19.9786 58.1484 21.1298C58.1484 22.281 59.0813 23.2142 60.2321 23.2142Z" fill="#7C8E9C"/>
<path fill-rule="evenodd" clip-rule="evenodd" d="M40.0207 21.1293L38.7705 22.1711V20.0874L40.0207 21.1293Z" fill="#D1D1D1" fill-opacity="0.7"/>
<path fill-rule="evenodd" clip-rule="evenodd" d="M48.3567 21.1293L47.1064 22.1711V20.0874L48.3567 21.1293Z" fill="#D1D1D1" fill-opacity="0.7"/>
<path fill-rule="evenodd" clip-rule="evenodd" d="M56.6907 21.1293L55.4404 22.1711V20.0874L56.6907 21.1293Z" fill="#D1D1D1" fill-opacity="0.7"/>
<path fill-rule="evenodd" clip-rule="evenodd" d="M65.0256 21.1293L63.7754 22.1711V20.0874L65.0256 21.1293Z" fill="#D1D1D1" fill-opacity="0.7"/>
<path fill-rule="evenodd" clip-rule="evenodd" d="M73.3616 21.1293L72.1113 22.1711V20.0874L73.3616 21.1293Z" fill="#D1D1D1" fill-opacity="0.7"/>
<path fill-rule="evenodd" clip-rule="evenodd" d="M81.6955 21.1293L80.4453 22.1711V20.0874L81.6955 21.1293Z" fill="#D1D1D1" fill-opacity="0.7"/>
<path fill-rule="evenodd" clip-rule="evenodd" d="M35.2292 30.9556C36.38 30.9556 37.3129 30.0224 37.3129 28.8712C37.3129 27.7201 36.38 26.7869 35.2292 26.7869C34.0784 26.7869 33.1455 27.7201 33.1455 28.8712C33.1455 30.0224 34.0784 30.9556 35.2292 30.9556Z" fill="#7C8E9C" fill-opacity="0.3" stroke="#4E6287"/>
<path fill-rule="evenodd" clip-rule="evenodd" d="M68.5691 30.9556C69.7199 30.9556 70.6528 30.0224 70.6528 28.8712C70.6528 27.7201 69.7199 26.7869 68.5691 26.7869C67.4183 26.7869 66.4854 27.7201 66.4854 28.8712C66.4854 30.0224 67.4183 30.9556 68.5691 30.9556Z" fill="#7C8E9C"/>
<path fill-rule="evenodd" clip-rule="evenodd" d="M51.8982 30.9556C53.049 30.9556 53.9819 30.0224 53.9819 28.8712C53.9819 27.7201 53.049 26.7869 51.8982 26.7869C50.7474 26.7869 49.8145 27.7201 49.8145 28.8712C49.8145 30.0224 50.7474 30.9556 51.8982 30.9556Z" fill="#7C8E9C"/>
<path fill-rule="evenodd" clip-rule="evenodd" d="M85.238 30.9556C86.3888 30.9556 87.3217 30.0224 87.3217 28.8712C87.3217 27.7201 86.3888 26.7869 85.238 26.7869C84.0872 26.7869 83.1543 27.7201 83.1543 28.8712C83.1543 30.0224 84.0872 30.9556 85.238 30.9556Z" fill="#7C8E9C"/>
<path fill-rule="evenodd" clip-rule="evenodd" d="M43.5632 30.9556C44.714 30.9556 45.6469 30.0224 45.6469 28.8712C45.6469 27.7201 44.714 26.7869 43.5632 26.7869C42.4124 26.7869 41.4795 27.7201 41.4795 28.8712C41.4795 30.0224 42.4124 30.9556 43.5632 30.9556Z" fill="#7C8E9C"/>
<path fill-rule="evenodd" clip-rule="evenodd" d="M76.903 30.9556C78.0538 30.9556 78.9868 30.0224 78.9868 28.8712C78.9868 27.7201 78.0538 26.7869 76.903 26.7869C75.7522 26.7869 74.8193 27.7201 74.8193 28.8712C74.8193 30.0224 75.7522 30.9556 76.903 30.9556Z" fill="#7C8E9C"/>
<path fill-rule="evenodd" clip-rule="evenodd" d="M60.2321 30.9556C61.3829 30.9556 62.3159 30.0224 62.3159 28.8712C62.3159 27.7201 61.3829 26.7869 60.2321 26.7869C59.0813 26.7869 58.1484 27.7201 58.1484 28.8712C58.1484 30.0224 59.0813 30.9556 60.2321 30.9556Z" fill="#7C8E9C"/>
<path fill-rule="evenodd" clip-rule="evenodd" d="M40.0207 28.8705L38.7705 29.9123V27.8286L40.0207 28.8705Z" fill="#D1D1D1" fill-opacity="0.7"/>
<path fill-rule="evenodd" clip-rule="evenodd" d="M48.3567 28.8705L47.1064 29.9123V27.8286L48.3567 28.8705Z" fill="#D1D1D1" fill-opacity="0.7"/>
<path fill-rule="evenodd" clip-rule="evenodd" d="M56.6907 28.8705L55.4404 29.9123V27.8286L56.6907 28.8705Z" fill="#D1D1D1" fill-opacity="0.7"/>
<path fill-rule="evenodd" clip-rule="evenodd" d="M65.0256 28.8705L63.7754 29.9123V27.8286L65.0256 28.8705Z" fill="#D1D1D1" fill-opacity="0.7"/>
<path fill-rule="evenodd" clip-rule="evenodd" d="M73.3616 28.8705L72.1113 29.9123V27.8286L73.3616 28.8705Z" fill="#D1D1D1" fill-opacity="0.7"/>
<path fill-rule="evenodd" clip-rule="evenodd" d="M81.6955 28.8705L80.4453 29.9123V27.8286L81.6955 28.8705Z" fill="#D1D1D1" fill-opacity="0.7"/>
<path fill-rule="evenodd" clip-rule="evenodd" d="M35.2292 38.6981C36.38 38.6981 37.3129 37.7648 37.3129 36.6137C37.3129 35.4625 36.38 34.5293 35.2292 34.5293C34.0784 34.5293 33.1455 35.4625 33.1455 36.6137C33.1455 37.7648 34.0784 38.6981 35.2292 38.6981Z" fill="#7C8E9C" fill-opacity="0.3" stroke="#4E6287"/>
<path fill-rule="evenodd" clip-rule="evenodd" d="M68.5691 38.6981C69.7199 38.6981 70.6528 37.7648 70.6528 36.6137C70.6528 35.4625 69.7199 34.5293 68.5691 34.5293C67.4183 34.5293 66.4854 35.4625 66.4854 36.6137C66.4854 37.7648 67.4183 38.6981 68.5691 38.6981Z" fill="#7C8E9C"/>
<path fill-rule="evenodd" clip-rule="evenodd" d="M51.8982 38.6981C53.049 38.6981 53.9819 37.7648 53.9819 36.6137C53.9819 35.4625 53.049 34.5293 51.8982 34.5293C50.7474 34.5293 49.8145 35.4625 49.8145 36.6137C49.8145 37.7648 50.7474 38.6981 51.8982 38.6981Z" fill="#7C8E9C"/>
<path fill-rule="evenodd" clip-rule="evenodd" d="M85.238 38.6981C86.3888 38.6981 87.3217 37.7648 87.3217 36.6137C87.3217 35.4625 86.3888 34.5293 85.238 34.5293C84.0872 34.5293 83.1543 35.4625 83.1543 36.6137C83.1543 37.7648 84.0872 38.6981 85.238 38.6981Z" fill="#7C8E9C"/>
<path fill-rule="evenodd" clip-rule="evenodd" d="M43.5632 38.6981C44.714 38.6981 45.6469 37.7648 45.6469 36.6137C45.6469 35.4625 44.714 34.5293 43.5632 34.5293C42.4124 34.5293 41.4795 35.4625 41.4795 36.6137C41.4795 37.7648 42.4124 38.6981 43.5632 38.6981Z" fill="#7C8E9C"/>
<path fill-rule="evenodd" clip-rule="evenodd" d="M76.903 38.6981C78.0538 38.6981 78.9868 37.7648 78.9868 36.6137C78.9868 35.4625 78.0538 34.5293 76.903 34.5293C75.7522 34.5293 74.8193 35.4625 74.8193 36.6137C74.8193 37.7648 75.7522 38.6981 76.903 38.6981Z" fill="#7C8E9C"/>
<path fill-rule="evenodd" clip-rule="evenodd" d="M60.2321 38.6981C61.3829 38.6981 62.3159 37.7648 62.3159 36.6137C62.3159 35.4625 61.3829 34.5293 60.2321 34.5293C59.0813 34.5293 58.1484 35.4625 58.1484 36.6137C58.1484 37.7648 59.0813 38.6981 60.2321 38.6981Z" fill="#7C8E9C"/>
<path fill-rule="evenodd" clip-rule="evenodd" d="M40.0207 36.6131L38.7705 37.655V35.5713L40.0207 36.6131Z" fill="#D1D1D1" fill-opacity="0.7"/>
<path fill-rule="evenodd" clip-rule="evenodd" d="M48.3567 36.6131L47.1064 37.655V35.5713L48.3567 36.6131Z" fill="#D1D1D1" fill-opacity="0.7"/>
<path fill-rule="evenodd" clip-rule="evenodd" d="M56.6907 36.6131L55.4404 37.655V35.5713L56.6907 36.6131Z" fill="#D1D1D1" fill-opacity="0.7"/>
<path fill-rule="evenodd" clip-rule="evenodd" d="M65.0256 36.6131L63.7754 37.655V35.5713L65.0256 36.6131Z" fill="#D1D1D1" fill-opacity="0.7"/>
<path fill-rule="evenodd" clip-rule="evenodd" d="M73.3616 36.6131L72.1113 37.655V35.5713L73.3616 36.6131Z" fill="#D1D1D1" fill-opacity="0.7"/>
<path fill-rule="evenodd" clip-rule="evenodd" d="M81.6955 36.6131L80.4453 37.655V35.5713L81.6955 36.6131Z" fill="#D1D1D1" fill-opacity="0.7"/>
</g>
<g filter="url(#filter3_d_6064_34375)">
<rect x="35.7314" y="12.0386" width="61.5113" height="33.5411" rx="1.96541" fill="white" stroke="#4E6287"/>
<path fill-rule="evenodd" clip-rule="evenodd" d="M41.7126 19.3365C42.8634 19.3365 43.7963 18.4033 43.7963 17.2521C43.7963 16.1009 42.8634 15.1677 41.7126 15.1677C40.5618 15.1677 39.6289 16.1009 39.6289 17.2521C39.6289 18.4033 40.5618 19.3365 41.7126 19.3365Z" fill="#7C8E9C" fill-opacity="0.3" stroke="#4E6287"/>
<path fill-rule="evenodd" clip-rule="evenodd" d="M75.0525 19.3365C76.2033 19.3365 77.1362 18.4033 77.1362 17.2521C77.1362 16.1009 76.2033 15.1677 75.0525 15.1677C73.9017 15.1677 72.9688 16.1009 72.9688 17.2521C72.9688 18.4033 73.9017 19.3365 75.0525 19.3365Z" fill="#7C8E9C"/>
<path fill-rule="evenodd" clip-rule="evenodd" d="M58.3825 19.3365C59.5333 19.3365 60.4662 18.4033 60.4662 17.2521C60.4662 16.1009 59.5333 15.1677 58.3825 15.1677C57.2317 15.1677 56.2988 16.1009 56.2988 17.2521C56.2988 18.4033 57.2317 19.3365 58.3825 19.3365Z" fill="#7C8E9C"/>
<path fill-rule="evenodd" clip-rule="evenodd" d="M91.7224 19.3365C92.8732 19.3365 93.8061 18.4033 93.8061 17.2521C93.8061 16.1009 92.8732 15.1677 91.7224 15.1677C90.5716 15.1677 89.6387 16.1009 89.6387 17.2521C89.6387 18.4033 90.5716 19.3365 91.7224 19.3365Z" fill="#7C8E9C"/>
<path fill-rule="evenodd" clip-rule="evenodd" d="M50.0466 19.3365C51.1974 19.3365 52.1303 18.4033 52.1303 17.2521C52.1303 16.1009 51.1974 15.1677 50.0466 15.1677C48.8958 15.1677 47.9629 16.1009 47.9629 17.2521C47.9629 18.4033 48.8958 19.3365 50.0466 19.3365Z" fill="#7C8E9C"/>
<path fill-rule="evenodd" clip-rule="evenodd" d="M83.3864 19.3365C84.5372 19.3365 85.4702 18.4033 85.4702 17.2521C85.4702 16.1009 84.5372 15.1677 83.3864 15.1677C82.2356 15.1677 81.3027 16.1009 81.3027 17.2521C81.3027 18.4033 82.2356 19.3365 83.3864 19.3365Z" fill="#7C8E9C"/>
<path fill-rule="evenodd" clip-rule="evenodd" d="M66.7155 19.3365C67.8663 19.3365 68.7993 18.4033 68.7993 17.2521C68.7993 16.1009 67.8663 15.1677 66.7155 15.1677C65.5647 15.1677 64.6318 16.1009 64.6318 17.2521C64.6318 18.4033 65.5647 19.3365 66.7155 19.3365Z" fill="#7C8E9C"/>
<path fill-rule="evenodd" clip-rule="evenodd" d="M46.5041 17.2513L45.2539 18.2932V16.2095L46.5041 17.2513Z" fill="#D1D1D1" fill-opacity="0.7"/>
<path fill-rule="evenodd" clip-rule="evenodd" d="M54.841 17.2513L53.5908 18.2932V16.2095L54.841 17.2513Z" fill="#D1D1D1" fill-opacity="0.7"/>
<path fill-rule="evenodd" clip-rule="evenodd" d="M63.1741 17.2513L61.9238 18.2932V16.2095L63.1741 17.2513Z" fill="#D1D1D1" fill-opacity="0.7"/>
<path fill-rule="evenodd" clip-rule="evenodd" d="M71.51 17.2513L70.2598 18.2932V16.2095L71.51 17.2513Z" fill="#D1D1D1" fill-opacity="0.7"/>
<path fill-rule="evenodd" clip-rule="evenodd" d="M79.845 17.2513L78.5947 18.2932V16.2095L79.845 17.2513Z" fill="#D1D1D1" fill-opacity="0.7"/>
<path fill-rule="evenodd" clip-rule="evenodd" d="M88.1789 17.2513L86.9287 18.2932V16.2095L88.1789 17.2513Z" fill="#D1D1D1" fill-opacity="0.7"/>
<path fill-rule="evenodd" clip-rule="evenodd" d="M41.7126 27.0787C42.8634 27.0787 43.7963 26.1455 43.7963 24.9943C43.7963 23.8431 42.8634 22.9099 41.7126 22.9099C40.5618 22.9099 39.6289 23.8431 39.6289 24.9943C39.6289 26.1455 40.5618 27.0787 41.7126 27.0787Z" fill="#7C8E9C" fill-opacity="0.3" stroke="#4E6287"/>
<path fill-rule="evenodd" clip-rule="evenodd" d="M75.0525 27.0787C76.2033 27.0787 77.1362 26.1455 77.1362 24.9943C77.1362 23.8431 76.2033 22.9099 75.0525 22.9099C73.9017 22.9099 72.9688 23.8431 72.9688 24.9943C72.9688 26.1455 73.9017 27.0787 75.0525 27.0787Z" fill="#7C8E9C"/>
<path fill-rule="evenodd" clip-rule="evenodd" d="M58.3825 27.0787C59.5333 27.0787 60.4662 26.1455 60.4662 24.9943C60.4662 23.8431 59.5333 22.9099 58.3825 22.9099C57.2317 22.9099 56.2988 23.8431 56.2988 24.9943C56.2988 26.1455 57.2317 27.0787 58.3825 27.0787Z" fill="#7C8E9C"/>
<path fill-rule="evenodd" clip-rule="evenodd" d="M91.7224 27.0787C92.8732 27.0787 93.8061 26.1455 93.8061 24.9943C93.8061 23.8431 92.8732 22.9099 91.7224 22.9099C90.5716 22.9099 89.6387 23.8431 89.6387 24.9943C89.6387 26.1455 90.5716 27.0787 91.7224 27.0787Z" fill="#7C8E9C"/>
<path fill-rule="evenodd" clip-rule="evenodd" d="M50.0466 27.0787C51.1974 27.0787 52.1303 26.1455 52.1303 24.9943C52.1303 23.8431 51.1974 22.9099 50.0466 22.9099C48.8958 22.9099 47.9629 23.8431 47.9629 24.9943C47.9629 26.1455 48.8958 27.0787 50.0466 27.0787Z" fill="#7C8E9C"/>
<path fill-rule="evenodd" clip-rule="evenodd" d="M83.3864 27.0787C84.5372 27.0787 85.4702 26.1455 85.4702 24.9943C85.4702 23.8431 84.5372 22.9099 83.3864 22.9099C82.2356 22.9099 81.3027 23.8431 81.3027 24.9943C81.3027 26.1455 82.2356 27.0787 83.3864 27.0787Z" fill="#7C8E9C"/>
<path fill-rule="evenodd" clip-rule="evenodd" d="M66.7155 27.0787C67.8663 27.0787 68.7993 26.1455 68.7993 24.9943C68.7993 23.8431 67.8663 22.9099 66.7155 22.9099C65.5647 22.9099 64.6318 23.8431 64.6318 24.9943C64.6318 26.1455 65.5647 27.0787 66.7155 27.0787Z" fill="#7C8E9C"/>
<path fill-rule="evenodd" clip-rule="evenodd" d="M46.5041 24.9942L45.2539 26.0361V23.9524L46.5041 24.9942Z" fill="#D1D1D1" fill-opacity="0.7"/>
<path fill-rule="evenodd" clip-rule="evenodd" d="M54.841 24.9942L53.5908 26.0361V23.9524L54.841 24.9942Z" fill="#D1D1D1" fill-opacity="0.7"/>
<path fill-rule="evenodd" clip-rule="evenodd" d="M63.1741 24.9942L61.9238 26.0361V23.9524L63.1741 24.9942Z" fill="#D1D1D1" fill-opacity="0.7"/>
<path fill-rule="evenodd" clip-rule="evenodd" d="M71.51 24.9942L70.2598 26.0361V23.9524L71.51 24.9942Z" fill="#D1D1D1" fill-opacity="0.7"/>
<path fill-rule="evenodd" clip-rule="evenodd" d="M79.845 24.9942L78.5947 26.0361V23.9524L79.845 24.9942Z" fill="#D1D1D1" fill-opacity="0.7"/>
<path fill-rule="evenodd" clip-rule="evenodd" d="M88.1789 24.9942L86.9287 26.0361V23.9524L88.1789 24.9942Z" fill="#D1D1D1" fill-opacity="0.7"/>
<path fill-rule="evenodd" clip-rule="evenodd" d="M41.7126 34.8206C42.8634 34.8206 43.7963 33.8874 43.7963 32.7362C43.7963 31.5851 42.8634 30.6519 41.7126 30.6519C40.5618 30.6519 39.6289 31.5851 39.6289 32.7362C39.6289 33.8874 40.5618 34.8206 41.7126 34.8206Z" fill="#7C8E9C" fill-opacity="0.3" stroke="#4E6287"/>
<path fill-rule="evenodd" clip-rule="evenodd" d="M75.0525 34.8206C76.2033 34.8206 77.1362 33.8874 77.1362 32.7362C77.1362 31.5851 76.2033 30.6519 75.0525 30.6519C73.9017 30.6519 72.9688 31.5851 72.9688 32.7362C72.9688 33.8874 73.9017 34.8206 75.0525 34.8206Z" fill="#7C8E9C"/>
<path fill-rule="evenodd" clip-rule="evenodd" d="M58.3825 34.8206C59.5333 34.8206 60.4662 33.8874 60.4662 32.7362C60.4662 31.5851 59.5333 30.6519 58.3825 30.6519C57.2317 30.6519 56.2988 31.5851 56.2988 32.7362C56.2988 33.8874 57.2317 34.8206 58.3825 34.8206Z" fill="#7C8E9C"/>
<path fill-rule="evenodd" clip-rule="evenodd" d="M91.7224 34.8206C92.8732 34.8206 93.8061 33.8874 93.8061 32.7362C93.8061 31.5851 92.8732 30.6519 91.7224 30.6519C90.5716 30.6519 89.6387 31.5851 89.6387 32.7362C89.6387 33.8874 90.5716 34.8206 91.7224 34.8206Z" fill="#7C8E9C"/>
<path fill-rule="evenodd" clip-rule="evenodd" d="M50.0466 34.8206C51.1974 34.8206 52.1303 33.8874 52.1303 32.7362C52.1303 31.5851 51.1974 30.6519 50.0466 30.6519C48.8958 30.6519 47.9629 31.5851 47.9629 32.7362C47.9629 33.8874 48.8958 34.8206 50.0466 34.8206Z" fill="#7C8E9C"/>
<path fill-rule="evenodd" clip-rule="evenodd" d="M83.3864 34.8206C84.5372 34.8206 85.4702 33.8874 85.4702 32.7362C85.4702 31.5851 84.5372 30.6519 83.3864 30.6519C82.2356 30.6519 81.3027 31.5851 81.3027 32.7362C81.3027 33.8874 82.2356 34.8206 83.3864 34.8206Z" fill="#7C8E9C"/>
<path fill-rule="evenodd" clip-rule="evenodd" d="M66.7155 34.8206C67.8663 34.8206 68.7993 33.8874 68.7993 32.7362C68.7993 31.5851 67.8663 30.6519 66.7155 30.6519C65.5647 30.6519 64.6318 31.5851 64.6318 32.7362C64.6318 33.8874 65.5647 34.8206 66.7155 34.8206Z" fill="#7C8E9C"/>
<path fill-rule="evenodd" clip-rule="evenodd" d="M46.5041 32.7355L45.2539 33.7773V31.6936L46.5041 32.7355Z" fill="#D1D1D1" fill-opacity="0.7"/>
<path fill-rule="evenodd" clip-rule="evenodd" d="M54.841 32.7355L53.5908 33.7773V31.6936L54.841 32.7355Z" fill="#D1D1D1" fill-opacity="0.7"/>
<path fill-rule="evenodd" clip-rule="evenodd" d="M63.1741 32.7355L61.9238 33.7773V31.6936L63.1741 32.7355Z" fill="#D1D1D1" fill-opacity="0.7"/>
<path fill-rule="evenodd" clip-rule="evenodd" d="M71.51 32.7355L70.2598 33.7773V31.6936L71.51 32.7355Z" fill="#D1D1D1" fill-opacity="0.7"/>
<path fill-rule="evenodd" clip-rule="evenodd" d="M79.845 32.7355L78.5947 33.7773V31.6936L79.845 32.7355Z" fill="#D1D1D1" fill-opacity="0.7"/>
<path fill-rule="evenodd" clip-rule="evenodd" d="M88.1789 32.7355L86.9287 33.7773V31.6936L88.1789 32.7355Z" fill="#D1D1D1" fill-opacity="0.7"/>
<path fill-rule="evenodd" clip-rule="evenodd" d="M41.7126 42.5623C42.8634 42.5623 43.7963 41.6291 43.7963 40.4779C43.7963 39.3268 42.8634 38.3936 41.7126 38.3936C40.5618 38.3936 39.6289 39.3268 39.6289 40.4779C39.6289 41.6291 40.5618 42.5623 41.7126 42.5623Z" fill="#7C8E9C" fill-opacity="0.3" stroke="#4E6287"/>
<path fill-rule="evenodd" clip-rule="evenodd" d="M75.0525 42.5623C76.2033 42.5623 77.1362 41.6291 77.1362 40.4779C77.1362 39.3268 76.2033 38.3936 75.0525 38.3936C73.9017 38.3936 72.9688 39.3268 72.9688 40.4779C72.9688 41.6291 73.9017 42.5623 75.0525 42.5623Z" fill="#7C8E9C"/>
<path fill-rule="evenodd" clip-rule="evenodd" d="M58.3825 42.5623C59.5333 42.5623 60.4662 41.6291 60.4662 40.4779C60.4662 39.3268 59.5333 38.3936 58.3825 38.3936C57.2317 38.3936 56.2988 39.3268 56.2988 40.4779C56.2988 41.6291 57.2317 42.5623 58.3825 42.5623Z" fill="#7C8E9C"/>
<path fill-rule="evenodd" clip-rule="evenodd" d="M91.7224 42.5623C92.8732 42.5623 93.8061 41.6291 93.8061 40.4779C93.8061 39.3268 92.8732 38.3936 91.7224 38.3936C90.5716 38.3936 89.6387 39.3268 89.6387 40.4779C89.6387 41.6291 90.5716 42.5623 91.7224 42.5623Z" fill="#7C8E9C"/>
<path fill-rule="evenodd" clip-rule="evenodd" d="M50.0466 42.5623C51.1974 42.5623 52.1303 41.6291 52.1303 40.4779C52.1303 39.3268 51.1974 38.3936 50.0466 38.3936C48.8958 38.3936 47.9629 39.3268 47.9629 40.4779C47.9629 41.6291 48.8958 42.5623 50.0466 42.5623Z" fill="#7C8E9C"/>
<path fill-rule="evenodd" clip-rule="evenodd" d="M83.3864 42.5623C84.5372 42.5623 85.4702 41.6291 85.4702 40.4779C85.4702 39.3268 84.5372 38.3936 83.3864 38.3936C82.2356 38.3936 81.3027 39.3268 81.3027 40.4779C81.3027 41.6291 82.2356 42.5623 83.3864 42.5623Z" fill="#7C8E9C"/>
<path fill-rule="evenodd" clip-rule="evenodd" d="M66.7155 42.5623C67.8663 42.5623 68.7993 41.6291 68.7993 40.4779C68.7993 39.3268 67.8663 38.3936 66.7155 38.3936C65.5647 38.3936 64.6318 39.3268 64.6318 40.4779C64.6318 41.6291 65.5647 42.5623 66.7155 42.5623Z" fill="#7C8E9C"/>
<path fill-rule="evenodd" clip-rule="evenodd" d="M46.5041 40.4774L45.2539 41.5193V39.4355L46.5041 40.4774Z" fill="#D1D1D1" fill-opacity="0.7"/>
<path fill-rule="evenodd" clip-rule="evenodd" d="M54.841 40.4774L53.5908 41.5193V39.4355L54.841 40.4774Z" fill="#D1D1D1" fill-opacity="0.7"/>
<path fill-rule="evenodd" clip-rule="evenodd" d="M63.1741 40.4774L61.9238 41.5193V39.4355L63.1741 40.4774Z" fill="#D1D1D1" fill-opacity="0.7"/>
<path fill-rule="evenodd" clip-rule="evenodd" d="M71.51 40.4774L70.2598 41.5193V39.4355L71.51 40.4774Z" fill="#D1D1D1" fill-opacity="0.7"/>
<path fill-rule="evenodd" clip-rule="evenodd" d="M79.845 40.4774L78.5947 41.5193V39.4355L79.845 40.4774Z" fill="#D1D1D1" fill-opacity="0.7"/>
<path fill-rule="evenodd" clip-rule="evenodd" d="M88.1789 40.4774L86.9287 41.5193V39.4355L88.1789 40.4774Z" fill="#D1D1D1" fill-opacity="0.7"/>
</g>
<g filter="url(#filter4_d_6064_34375)">
<rect x="42.4521" y="15.959" width="61.5113" height="33.5411" rx="1.96541" fill="white" stroke="#4E6287"/>
<path fill-rule="evenodd" clip-rule="evenodd" d="M48.2028 23.201C49.3536 23.201 50.2866 22.2678 50.2866 21.1166C50.2866 19.9654 49.3536 19.0322 48.2028 19.0322C47.052 19.0322 46.1191 19.9654 46.1191 21.1166C46.1191 22.2678 47.052 23.201 48.2028 23.201Z" fill="#7C8E9C" fill-opacity="0.3" stroke="#4E6287"/>
<path fill-rule="evenodd" clip-rule="evenodd" d="M81.5427 23.201C82.6935 23.201 83.6264 22.2678 83.6264 21.1166C83.6264 19.9654 82.6935 19.0322 81.5427 19.0322C80.3919 19.0322 79.459 19.9654 79.459 21.1166C79.459 22.2678 80.3919 23.201 81.5427 23.201Z" fill="#7C8E9C" fill-opacity="0.3" stroke="#4E6287"/>
<path fill-rule="evenodd" clip-rule="evenodd" d="M64.8718 23.201C66.0226 23.201 66.9555 22.2678 66.9555 21.1166C66.9555 19.9654 66.0226 19.0322 64.8718 19.0322C63.721 19.0322 62.7881 19.9654 62.7881 21.1166C62.7881 22.2678 63.721 23.201 64.8718 23.201Z" fill="#7C8E9C" fill-opacity="0.3" stroke="#4E6287"/>
<path fill-rule="evenodd" clip-rule="evenodd" d="M98.2116 23.201C99.3624 23.201 100.295 22.2678 100.295 21.1166C100.295 19.9654 99.3624 19.0322 98.2116 19.0322C97.0608 19.0322 96.1279 19.9654 96.1279 21.1166C96.1279 22.2678 97.0608 23.201 98.2116 23.201Z" fill="#7C8E9C" fill-opacity="0.3" stroke="#4E6287"/>
<path fill-rule="evenodd" clip-rule="evenodd" d="M56.5368 23.201C57.6876 23.201 58.6205 22.2678 58.6205 21.1166C58.6205 19.9654 57.6876 19.0322 56.5368 19.0322C55.386 19.0322 54.4531 19.9654 54.4531 21.1166C54.4531 22.2678 55.386 23.201 56.5368 23.201Z" fill="#7C8E9C" fill-opacity="0.3" stroke="#4E6287"/>
<path fill-rule="evenodd" clip-rule="evenodd" d="M89.8767 23.201C91.0275 23.201 91.9604 22.2678 91.9604 21.1166C91.9604 19.9654 91.0275 19.0322 89.8767 19.0322C88.7259 19.0322 87.793 19.9654 87.793 21.1166C87.793 22.2678 88.7259 23.201 89.8767 23.201Z" fill="#7C8E9C" fill-opacity="0.3" stroke="#4E6287"/>
<path fill-rule="evenodd" clip-rule="evenodd" d="M73.2058 23.201C74.3566 23.201 75.2895 22.2678 75.2895 21.1166C75.2895 19.9654 74.3566 19.0322 73.2058 19.0322C72.055 19.0322 71.1221 19.9654 71.1221 21.1166C71.1221 22.2678 72.055 23.201 73.2058 23.201Z" fill="#7C8E9C" fill-opacity="0.3" stroke="#4E6287"/>
<path fill-rule="evenodd" clip-rule="evenodd" d="M52.9944 21.1158L51.7441 22.1577V20.074L52.9944 21.1158Z" fill="#D1D1D1" fill-opacity="0.7"/>
<path fill-rule="evenodd" clip-rule="evenodd" d="M61.3313 21.1158L60.0811 22.1577V20.074L61.3313 21.1158Z" fill="#D1D1D1" fill-opacity="0.7"/>
<path fill-rule="evenodd" clip-rule="evenodd" d="M69.6643 21.1158L68.4141 22.1577V20.074L69.6643 21.1158Z" fill="#D1D1D1" fill-opacity="0.7"/>
<path fill-rule="evenodd" clip-rule="evenodd" d="M77.9992 21.1158L76.749 22.1577V20.074L77.9992 21.1158Z" fill="#D1D1D1" fill-opacity="0.7"/>
<path fill-rule="evenodd" clip-rule="evenodd" d="M86.3352 21.1158L85.085 22.1577V20.074L86.3352 21.1158Z" fill="#D1D1D1" fill-opacity="0.7"/>
<path fill-rule="evenodd" clip-rule="evenodd" d="M94.6692 21.1158L93.4189 22.1577V20.074L94.6692 21.1158Z" fill="#D1D1D1" fill-opacity="0.7"/>
<path fill-rule="evenodd" clip-rule="evenodd" d="M48.2028 30.9432C49.3536 30.9432 50.2866 30.01 50.2866 28.8588C50.2866 27.7076 49.3536 26.7744 48.2028 26.7744C47.052 26.7744 46.1191 27.7076 46.1191 28.8588C46.1191 30.01 47.052 30.9432 48.2028 30.9432Z" fill="#7C8E9C" fill-opacity="0.3" stroke="#4E6287"/>
<path fill-rule="evenodd" clip-rule="evenodd" d="M81.5427 30.9432C82.6935 30.9432 83.6264 30.01 83.6264 28.8588C83.6264 27.7076 82.6935 26.7744 81.5427 26.7744C80.3919 26.7744 79.459 27.7076 79.459 28.8588C79.459 30.01 80.3919 30.9432 81.5427 30.9432Z" fill="#7C8E9C" fill-opacity="0.3" stroke="#4E6287"/>
<path fill-rule="evenodd" clip-rule="evenodd" d="M64.8728 30.9432C66.0236 30.9432 66.9565 30.01 66.9565 28.8588C66.9565 27.7076 66.0236 26.7744 64.8728 26.7744C63.722 26.7744 62.7891 27.7076 62.7891 28.8588C62.7891 30.01 63.722 30.9432 64.8728 30.9432Z" fill="#7C8E9C" fill-opacity="0.3" stroke="#4E6287"/>
<path fill-rule="evenodd" clip-rule="evenodd" d="M98.2126 30.9432C99.3634 30.9432 100.296 30.01 100.296 28.8588C100.296 27.7076 99.3634 26.7744 98.2126 26.7744C97.0618 26.7744 96.1289 27.7076 96.1289 28.8588C96.1289 30.01 97.0618 30.9432 98.2126 30.9432Z" fill="#7C8E9C" fill-opacity="0.3" stroke="#4E6287"/>
<path fill-rule="evenodd" clip-rule="evenodd" d="M56.5368 30.9432C57.6876 30.9432 58.6205 30.01 58.6205 28.8588C58.6205 27.7076 57.6876 26.7744 56.5368 26.7744C55.386 26.7744 54.4531 27.7076 54.4531 28.8588C54.4531 30.01 55.386 30.9432 56.5368 30.9432Z" fill="#7C8E9C" fill-opacity="0.3" stroke="#4E6287"/>
<path fill-rule="evenodd" clip-rule="evenodd" d="M89.8767 30.9432C91.0275 30.9432 91.9604 30.01 91.9604 28.8588C91.9604 27.7076 91.0275 26.7744 89.8767 26.7744C88.7259 26.7744 87.793 27.7076 87.793 28.8588C87.793 30.01 88.7259 30.9432 89.8767 30.9432Z" fill="#7C8E9C" fill-opacity="0.3" stroke="#4E6287"/>
<path fill-rule="evenodd" clip-rule="evenodd" d="M73.2058 30.9432C74.3566 30.9432 75.2895 30.01 75.2895 28.8588C75.2895 27.7076 74.3566 26.7744 73.2058 26.7744C72.055 26.7744 71.1221 27.7076 71.1221 28.8588C71.1221 30.01 72.055 30.9432 73.2058 30.9432Z" fill="#7C8E9C" fill-opacity="0.3" stroke="#4E6287"/>
<path fill-rule="evenodd" clip-rule="evenodd" d="M52.9944 28.858L51.7441 29.8999V27.8162L52.9944 28.858Z" fill="#D1D1D1" fill-opacity="0.7"/>
<path fill-rule="evenodd" clip-rule="evenodd" d="M61.3313 28.858L60.0811 29.8999V27.8162L61.3313 28.858Z" fill="#D1D1D1" fill-opacity="0.7"/>
<path fill-rule="evenodd" clip-rule="evenodd" d="M69.6643 28.858L68.4141 29.8999V27.8162L69.6643 28.858Z" fill="#D1D1D1" fill-opacity="0.7"/>
<path fill-rule="evenodd" clip-rule="evenodd" d="M78.0002 28.858L76.75 29.8999V27.8162L78.0002 28.858Z" fill="#D1D1D1" fill-opacity="0.7"/>
<path fill-rule="evenodd" clip-rule="evenodd" d="M86.3352 28.858L85.085 29.8999V27.8162L86.3352 28.858Z" fill="#D1D1D1" fill-opacity="0.7"/>
<path fill-rule="evenodd" clip-rule="evenodd" d="M94.6692 28.858L93.4189 29.8999V27.8162L94.6692 28.858Z" fill="#D1D1D1" fill-opacity="0.7"/>
<path fill-rule="evenodd" clip-rule="evenodd" d="M48.2028 38.6846C49.3536 38.6846 50.2866 37.7514 50.2866 36.6002C50.2866 35.4491 49.3536 34.5159 48.2028 34.5159C47.052 34.5159 46.1191 35.4491 46.1191 36.6002C46.1191 37.7514 47.052 38.6846 48.2028 38.6846Z" fill="#7C8E9C" fill-opacity="0.3" stroke="#4E6287"/>
<path fill-rule="evenodd" clip-rule="evenodd" d="M81.5427 38.6846C82.6935 38.6846 83.6264 37.7514 83.6264 36.6002C83.6264 35.4491 82.6935 34.5159 81.5427 34.5159C80.3919 34.5159 79.459 35.4491 79.459 36.6002C79.459 37.7514 80.3919 38.6846 81.5427 38.6846Z" fill="#7C8E9C" fill-opacity="0.3" stroke="#4E6287"/>
<path fill-rule="evenodd" clip-rule="evenodd" d="M64.8728 38.6846C66.0236 38.6846 66.9565 37.7514 66.9565 36.6002C66.9565 35.4491 66.0236 34.5159 64.8728 34.5159C63.722 34.5159 62.7891 35.4491 62.7891 36.6002C62.7891 37.7514 63.722 38.6846 64.8728 38.6846Z" fill="#7C8E9C" fill-opacity="0.3" stroke="#4E6287"/>
<path fill-rule="evenodd" clip-rule="evenodd" d="M98.2126 38.6846C99.3634 38.6846 100.296 37.7514 100.296 36.6002C100.296 35.4491 99.3634 34.5159 98.2126 34.5159C97.0618 34.5159 96.1289 35.4491 96.1289 36.6002C96.1289 37.7514 97.0618 38.6846 98.2126 38.6846Z" fill="#7C8E9C" fill-opacity="0.3" stroke="#4E6287"/>
<path fill-rule="evenodd" clip-rule="evenodd" d="M56.5368 38.6846C57.6876 38.6846 58.6205 37.7514 58.6205 36.6002C58.6205 35.4491 57.6876 34.5159 56.5368 34.5159C55.386 34.5159 54.4531 35.4491 54.4531 36.6002C54.4531 37.7514 55.386 38.6846 56.5368 38.6846Z" fill="#7C8E9C" fill-opacity="0.3" stroke="#4E6287"/>
<path fill-rule="evenodd" clip-rule="evenodd" d="M89.8767 38.6846C91.0275 38.6846 91.9604 37.7514 91.9604 36.6002C91.9604 35.4491 91.0275 34.5159 89.8767 34.5159C88.7259 34.5159 87.793 35.4491 87.793 36.6002C87.793 37.7514 88.7259 38.6846 89.8767 38.6846Z" fill="#7C8E9C" fill-opacity="0.3" stroke="#4E6287"/>
<path fill-rule="evenodd" clip-rule="evenodd" d="M73.2058 38.6846C74.3566 38.6846 75.2895 37.7514 75.2895 36.6002C75.2895 35.4491 74.3566 34.5159 73.2058 34.5159C72.055 34.5159 71.1221 35.4491 71.1221 36.6002C71.1221 37.7514 72.055 38.6846 73.2058 38.6846Z" fill="#7C8E9C" fill-opacity="0.3" stroke="#4E6287"/>
<path fill-rule="evenodd" clip-rule="evenodd" d="M52.9944 36.6L51.7441 37.6418V35.5581L52.9944 36.6Z" fill="#D1D1D1" fill-opacity="0.7"/>
<path fill-rule="evenodd" clip-rule="evenodd" d="M61.3313 36.6L60.0811 37.6418V35.5581L61.3313 36.6Z" fill="#D1D1D1" fill-opacity="0.7"/>
<path fill-rule="evenodd" clip-rule="evenodd" d="M69.6643 36.6L68.4141 37.6418V35.5581L69.6643 36.6Z" fill="#D1D1D1" fill-opacity="0.7"/>
<path fill-rule="evenodd" clip-rule="evenodd" d="M78.0002 36.6L76.75 37.6418V35.5581L78.0002 36.6Z" fill="#D1D1D1" fill-opacity="0.7"/>
<path fill-rule="evenodd" clip-rule="evenodd" d="M86.3352 36.6L85.085 37.6418V35.5581L86.3352 36.6Z" fill="#D1D1D1" fill-opacity="0.7"/>
<path fill-rule="evenodd" clip-rule="evenodd" d="M94.6692 36.6L93.4189 37.6418V35.5581L94.6692 36.6Z" fill="#D1D1D1" fill-opacity="0.7"/>
<path fill-rule="evenodd" clip-rule="evenodd" d="M48.2028 46.4268C49.3536 46.4268 50.2866 45.4936 50.2866 44.3424C50.2866 43.1913 49.3536 42.2581 48.2028 42.2581C47.052 42.2581 46.1191 43.1913 46.1191 44.3424C46.1191 45.4936 47.052 46.4268 48.2028 46.4268Z" fill="#7C8E9C" fill-opacity="0.3" stroke="#4E6287"/>
<path fill-rule="evenodd" clip-rule="evenodd" d="M81.5427 46.4268C82.6935 46.4268 83.6264 45.4936 83.6264 44.3424C83.6264 43.1913 82.6935 42.2581 81.5427 42.2581C80.3919 42.2581 79.459 43.1913 79.459 44.3424C79.459 45.4936 80.3919 46.4268 81.5427 46.4268Z" fill="#7C8E9C" fill-opacity="0.3" stroke="#4E6287"/>
<path fill-rule="evenodd" clip-rule="evenodd" d="M64.8728 46.4268C66.0236 46.4268 66.9565 45.4936 66.9565 44.3424C66.9565 43.1913 66.0236 42.2581 64.8728 42.2581C63.722 42.2581 62.7891 43.1913 62.7891 44.3424C62.7891 45.4936 63.722 46.4268 64.8728 46.4268Z" fill="#7C8E9C" fill-opacity="0.3" stroke="#4E6287"/>
<path fill-rule="evenodd" clip-rule="evenodd" d="M98.2126 46.4268C99.3634 46.4268 100.296 45.4936 100.296 44.3424C100.296 43.1913 99.3634 42.2581 98.2126 42.2581C97.0618 42.2581 96.1289 43.1913 96.1289 44.3424C96.1289 45.4936 97.0618 46.4268 98.2126 46.4268Z" fill="#7C8E9C" fill-opacity="0.3" stroke="#4E6287"/>
<path fill-rule="evenodd" clip-rule="evenodd" d="M56.5368 46.4268C57.6876 46.4268 58.6205 45.4936 58.6205 44.3424C58.6205 43.1913 57.6876 42.2581 56.5368 42.2581C55.386 42.2581 54.4531 43.1913 54.4531 44.3424C54.4531 45.4936 55.386 46.4268 56.5368 46.4268Z" fill="#7C8E9C" fill-opacity="0.3" stroke="#4E6287"/>
<path fill-rule="evenodd" clip-rule="evenodd" d="M89.8767 46.4268C91.0275 46.4268 91.9604 45.4936 91.9604 44.3424C91.9604 43.1913 91.0275 42.2581 89.8767 42.2581C88.7259 42.2581 87.793 43.1913 87.793 44.3424C87.793 45.4936 88.7259 46.4268 89.8767 46.4268Z" fill="#7C8E9C" fill-opacity="0.3" stroke="#4E6287"/>
<path fill-rule="evenodd" clip-rule="evenodd" d="M73.2058 46.4268C74.3566 46.4268 75.2895 45.4936 75.2895 44.3424C75.2895 43.1913 74.3566 42.2581 73.2058 42.2581C72.055 42.2581 71.1221 43.1913 71.1221 44.3424C71.1221 45.4936 72.055 46.4268 73.2058 46.4268Z" fill="#7C8E9C" fill-opacity="0.3" stroke="#4E6287"/>
<path fill-rule="evenodd" clip-rule="evenodd" d="M52.9944 44.3417L51.7441 45.3835V43.2998L52.9944 44.3417Z" fill="#D1D1D1" fill-opacity="0.7"/>
<path fill-rule="evenodd" clip-rule="evenodd" d="M61.3313 44.3417L60.0811 45.3835V43.2998L61.3313 44.3417Z" fill="#D1D1D1" fill-opacity="0.7"/>
<path fill-rule="evenodd" clip-rule="evenodd" d="M69.6643 44.3417L68.4141 45.3835V43.2998L69.6643 44.3417Z" fill="#D1D1D1" fill-opacity="0.7"/>
<path fill-rule="evenodd" clip-rule="evenodd" d="M78.0002 44.3417L76.75 45.3835V43.2998L78.0002 44.3417Z" fill="#D1D1D1" fill-opacity="0.7"/>
<path fill-rule="evenodd" clip-rule="evenodd" d="M86.3352 44.3417L85.085 45.3835V43.2998L86.3352 44.3417Z" fill="#D1D1D1" fill-opacity="0.7"/>
<path fill-rule="evenodd" clip-rule="evenodd" d="M94.6692 44.3417L93.4189 45.3835V43.2998L94.6692 44.3417Z" fill="#D1D1D1" fill-opacity="0.7"/>
</g>
</g>
<defs>
<filter id="filter0_d_6064_34375" x="14.7673" y="-1.2327" width="64.9771" height="37.0064" filterUnits="userSpaceOnUse" color-interpolation-filters="sRGB">
<feFlood flood-opacity="0" result="BackgroundImageFix"/>
<feColorMatrix in="SourceAlpha" type="matrix" values="0 0 0 0 0 0 0 0 0 0 0 0 0 0 0 0 0 0 127 0" result="hardAlpha"/>
<feOffset/>
<feGaussianBlur stdDeviation="0.616352"/>
<feComposite in2="hardAlpha" operator="out"/>
<feColorMatrix type="matrix" values="0 0 0 0 0 0 0 0 0 0 0 0 0 0 0 0 0 0 0.2 0"/>
<feBlend mode="normal" in2="BackgroundImageFix" result="effect1_dropShadow_6064_34375"/>
<feBlend mode="normal" in="SourceGraphic" in2="effect1_dropShadow_6064_34375" result="shape"/>
</filter>
<filter id="filter1_d_6064_34375" x="21.2556" y="2.63204" width="64.9771" height="37.0064" filterUnits="userSpaceOnUse" color-interpolation-filters="sRGB">
<feFlood flood-opacity="0" result="BackgroundImageFix"/>
<feColorMatrix in="SourceAlpha" type="matrix" values="0 0 0 0 0 0 0 0 0 0 0 0 0 0 0 0 0 0 127 0" result="hardAlpha"/>
<feOffset/>
<feGaussianBlur stdDeviation="0.616352"/>
<feComposite in2="hardAlpha" operator="out"/>
<feColorMatrix type="matrix" values="0 0 0 0 0 0 0 0 0 0 0 0 0 0 0 0 0 0 0.2 0"/>
<feBlend mode="normal" in2="BackgroundImageFix" result="effect1_dropShadow_6064_34375"/>
<feBlend mode="normal" in="SourceGraphic" in2="effect1_dropShadow_6064_34375" result="shape"/>
</filter>
<filter id="filter2_d_6064_34375" x="27.7429" y="6.49752" width="64.9771" height="37.0064" filterUnits="userSpaceOnUse" color-interpolation-filters="sRGB">
<feFlood flood-opacity="0" result="BackgroundImageFix"/>
<feColorMatrix in="SourceAlpha" type="matrix" values="0 0 0 0 0 0 0 0 0 0 0 0 0 0 0 0 0 0 127 0" result="hardAlpha"/>
<feOffset/>
<feGaussianBlur stdDeviation="0.616352"/>
<feComposite in2="hardAlpha" operator="out"/>
<feColorMatrix type="matrix" values="0 0 0 0 0 0 0 0 0 0 0 0 0 0 0 0 0 0 0.2 0"/>
<feBlend mode="normal" in2="BackgroundImageFix" result="effect1_dropShadow_6064_34375"/>
<feBlend mode="normal" in="SourceGraphic" in2="effect1_dropShadow_6064_34375" result="shape"/>
</filter>
<filter id="filter3_d_6064_34375" x="33.9987" y="10.3059" width="64.9771" height="37.0064" filterUnits="userSpaceOnUse" color-interpolation-filters="sRGB">
<feFlood flood-opacity="0" result="BackgroundImageFix"/>
<feColorMatrix in="SourceAlpha" type="matrix" values="0 0 0 0 0 0 0 0 0 0 0 0 0 0 0 0 0 0 127 0" result="hardAlpha"/>
<feOffset/>
<feGaussianBlur stdDeviation="0.616352"/>
<feComposite in2="hardAlpha" operator="out"/>
<feColorMatrix type="matrix" values="0 0 0 0 0 0 0 0 0 0 0 0 0 0 0 0 0 0 0.2 0"/>
<feBlend mode="normal" in2="BackgroundImageFix" result="effect1_dropShadow_6064_34375"/>
<feBlend mode="normal" in="SourceGraphic" in2="effect1_dropShadow_6064_34375" result="shape"/>
</filter>
<filter id="filter4_d_6064_34375" x="40.7194" y="14.2263" width="64.9771" height="37.0064" filterUnits="userSpaceOnUse" color-interpolation-filters="sRGB">
<feFlood flood-opacity="0" result="BackgroundImageFix"/>
<feColorMatrix in="SourceAlpha" type="matrix" values="0 0 0 0 0 0 0 0 0 0 0 0 0 0 0 0 0 0 127 0" result="hardAlpha"/>
<feOffset/>
<feGaussianBlur stdDeviation="0.616352"/>
<feComposite in2="hardAlpha" operator="out"/>
<feColorMatrix type="matrix" values="0 0 0 0 0 0 0 0 0 0 0 0 0 0 0 0 0 0 0.2 0"/>
<feBlend mode="normal" in2="BackgroundImageFix" result="effect1_dropShadow_6064_34375"/>
<feBlend mode="normal" in="SourceGraphic" in2="effect1_dropShadow_6064_34375" result="shape"/>
</filter>
<clipPath id="clip0_6064_34375">
<rect width="121" height="50" fill="white"/>
</clipPath>
</defs>
</svg>
