<svg width="113" height="66" viewBox="0 0 113 66" fill="none" xmlns="http://www.w3.org/2000/svg">
<g filter="url(#filter0_d)">
<rect x="4" width="105" height="58" rx="4" fill="#E8EBED"/>
<path fill-rule="evenodd" clip-rule="evenodd" d="M14.5 13C16.433 13 18 11.433 18 9.5C18 7.567 16.433 6 14.5 6C12.567 6 11 7.567 11 9.5C11 11.433 12.567 13 14.5 13Z" fill="#7C8E9C"/>
<path fill-rule="evenodd" clip-rule="evenodd" d="M70.5 13C72.433 13 74 11.433 74 9.5C74 7.567 72.433 6 70.5 6C68.567 6 67 7.567 67 9.5C67 11.433 68.567 13 70.5 13Z" fill="#7C8E9C"/>
<path fill-rule="evenodd" clip-rule="evenodd" d="M42.5 13C44.433 13 46 11.433 46 9.5C46 7.567 44.433 6 42.5 6C40.567 6 39 7.567 39 9.5C39 11.433 40.567 13 42.5 13Z" fill="#7C8E9C"/>
<path fill-rule="evenodd" clip-rule="evenodd" d="M98.5 13C100.433 13 102 11.433 102 9.5C102 7.567 100.433 6 98.5 6C96.567 6 95 7.567 95 9.5C95 11.433 96.567 13 98.5 13Z" fill="#7C8E9C"/>
<path fill-rule="evenodd" clip-rule="evenodd" d="M28.5 13C30.433 13 32 11.433 32 9.5C32 7.567 30.433 6 28.5 6C26.567 6 25 7.567 25 9.5C25 11.433 26.567 13 28.5 13Z" fill="#7C8E9C"/>
<path fill-rule="evenodd" clip-rule="evenodd" d="M84.5 13C86.433 13 88 11.433 88 9.5C88 7.567 86.433 6 84.5 6C82.567 6 81 7.567 81 9.5C81 11.433 82.567 13 84.5 13Z" fill="#7C8E9C"/>
<path fill-rule="evenodd" clip-rule="evenodd" d="M56.5 13C58.433 13 60 11.433 60 9.5C60 7.567 58.433 6 56.5 6C54.567 6 53 7.567 53 9.5C53 11.433 54.567 13 56.5 13Z" fill="#7C8E9C"/>
<path fill-rule="evenodd" clip-rule="evenodd" d="M22.5501 9.5L20.4501 11.25V7.75L22.5501 9.5Z" fill="#D1D1D1" fill-opacity="0.7"/>
<path fill-rule="evenodd" clip-rule="evenodd" d="M36.5501 9.5L34.4501 11.25V7.75L36.5501 9.5Z" fill="#D1D1D1" fill-opacity="0.7"/>
<path fill-rule="evenodd" clip-rule="evenodd" d="M50.5501 9.5L48.4501 11.25V7.75L50.5501 9.5Z" fill="#D1D1D1" fill-opacity="0.7"/>
<path fill-rule="evenodd" clip-rule="evenodd" d="M64.5501 9.5L62.4501 11.25V7.75L64.5501 9.5Z" fill="#D1D1D1" fill-opacity="0.7"/>
<path fill-rule="evenodd" clip-rule="evenodd" d="M78.5501 9.5L76.4501 11.25V7.75L78.5501 9.5Z" fill="#D1D1D1" fill-opacity="0.7"/>
<path fill-rule="evenodd" clip-rule="evenodd" d="M92.5501 9.5L90.4501 11.25V7.75L92.5501 9.5Z" fill="#D1D1D1" fill-opacity="0.7"/>
<path fill-rule="evenodd" clip-rule="evenodd" d="M14.5 26C16.433 26 18 24.433 18 22.5C18 20.567 16.433 19 14.5 19C12.567 19 11 20.567 11 22.5C11 24.433 12.567 26 14.5 26Z" fill="#7C8E9C"/>
<path fill-rule="evenodd" clip-rule="evenodd" d="M70.5 26C72.433 26 74 24.433 74 22.5C74 20.567 72.433 19 70.5 19C68.567 19 67 20.567 67 22.5C67 24.433 68.567 26 70.5 26Z" fill="#7C8E9C"/>
<path fill-rule="evenodd" clip-rule="evenodd" d="M42.5 26C44.433 26 46 24.433 46 22.5C46 20.567 44.433 19 42.5 19C40.567 19 39 20.567 39 22.5C39 24.433 40.567 26 42.5 26Z" fill="#7C8E9C"/>
<path fill-rule="evenodd" clip-rule="evenodd" d="M98.5 26C100.433 26 102 24.433 102 22.5C102 20.567 100.433 19 98.5 19C96.567 19 95 20.567 95 22.5C95 24.433 96.567 26 98.5 26Z" fill="#7C8E9C"/>
<path fill-rule="evenodd" clip-rule="evenodd" d="M28.5 26C30.433 26 32 24.433 32 22.5C32 20.567 30.433 19 28.5 19C26.567 19 25 20.567 25 22.5C25 24.433 26.567 26 28.5 26Z" fill="#7C8E9C"/>
<path fill-rule="evenodd" clip-rule="evenodd" d="M84.5 26C86.433 26 88 24.433 88 22.5C88 20.567 86.433 19 84.5 19C82.567 19 81 20.567 81 22.5C81 24.433 82.567 26 84.5 26Z" fill="#7C8E9C"/>
<path fill-rule="evenodd" clip-rule="evenodd" d="M56.5 26C58.433 26 60 24.433 60 22.5C60 20.567 58.433 19 56.5 19C54.567 19 53 20.567 53 22.5C53 24.433 54.567 26 56.5 26Z" fill="#7C8E9C"/>
<path fill-rule="evenodd" clip-rule="evenodd" d="M22.5501 22.5L20.4501 24.25V20.75L22.5501 22.5Z" fill="#D1D1D1" fill-opacity="0.7"/>
<path fill-rule="evenodd" clip-rule="evenodd" d="M36.5501 22.5L34.4501 24.25V20.75L36.5501 22.5Z" fill="#D1D1D1" fill-opacity="0.7"/>
<path fill-rule="evenodd" clip-rule="evenodd" d="M50.5501 22.5L48.4501 24.25V20.75L50.5501 22.5Z" fill="#D1D1D1" fill-opacity="0.7"/>
<path fill-rule="evenodd" clip-rule="evenodd" d="M64.5501 22.5L62.4501 24.25V20.75L64.5501 22.5Z" fill="#D1D1D1" fill-opacity="0.7"/>
<path fill-rule="evenodd" clip-rule="evenodd" d="M78.5501 22.5L76.4501 24.25V20.75L78.5501 22.5Z" fill="#D1D1D1" fill-opacity="0.7"/>
<path fill-rule="evenodd" clip-rule="evenodd" d="M92.5501 22.5L90.4501 24.25V20.75L92.5501 22.5Z" fill="#D1D1D1" fill-opacity="0.7"/>
<path fill-rule="evenodd" clip-rule="evenodd" d="M14.5 39C16.433 39 18 37.433 18 35.5C18 33.567 16.433 32 14.5 32C12.567 32 11 33.567 11 35.5C11 37.433 12.567 39 14.5 39Z" fill="#7C8E9C"/>
<path fill-rule="evenodd" clip-rule="evenodd" d="M70.5 39C72.433 39 74 37.433 74 35.5C74 33.567 72.433 32 70.5 32C68.567 32 67 33.567 67 35.5C67 37.433 68.567 39 70.5 39Z" fill="#7C8E9C"/>
<path fill-rule="evenodd" clip-rule="evenodd" d="M42.5 39C44.433 39 46 37.433 46 35.5C46 33.567 44.433 32 42.5 32C40.567 32 39 33.567 39 35.5C39 37.433 40.567 39 42.5 39Z" fill="#7C8E9C"/>
<path fill-rule="evenodd" clip-rule="evenodd" d="M98.5 39C100.433 39 102 37.433 102 35.5C102 33.567 100.433 32 98.5 32C96.567 32 95 33.567 95 35.5C95 37.433 96.567 39 98.5 39Z" fill="#7C8E9C"/>
<path fill-rule="evenodd" clip-rule="evenodd" d="M28.5 39C30.433 39 32 37.433 32 35.5C32 33.567 30.433 32 28.5 32C26.567 32 25 33.567 25 35.5C25 37.433 26.567 39 28.5 39Z" fill="#7C8E9C"/>
<path fill-rule="evenodd" clip-rule="evenodd" d="M84.5 39C86.433 39 88 37.433 88 35.5C88 33.567 86.433 32 84.5 32C82.567 32 81 33.567 81 35.5C81 37.433 82.567 39 84.5 39Z" fill="#7C8E9C"/>
<path fill-rule="evenodd" clip-rule="evenodd" d="M56.5 39C58.433 39 60 37.433 60 35.5C60 33.567 58.433 32 56.5 32C54.567 32 53 33.567 53 35.5C53 37.433 54.567 39 56.5 39Z" fill="#7C8E9C"/>
<path fill-rule="evenodd" clip-rule="evenodd" d="M22.5501 35.5L20.4501 37.25V33.75L22.5501 35.5Z" fill="#D1D1D1" fill-opacity="0.7"/>
<path fill-rule="evenodd" clip-rule="evenodd" d="M36.5501 35.5L34.4501 37.25V33.75L36.5501 35.5Z" fill="#D1D1D1" fill-opacity="0.7"/>
<path fill-rule="evenodd" clip-rule="evenodd" d="M50.5501 35.5L48.4501 37.25V33.75L50.5501 35.5Z" fill="#D1D1D1" fill-opacity="0.7"/>
<path fill-rule="evenodd" clip-rule="evenodd" d="M64.5501 35.5L62.4501 37.25V33.75L64.5501 35.5Z" fill="#D1D1D1" fill-opacity="0.7"/>
<path fill-rule="evenodd" clip-rule="evenodd" d="M78.5501 35.5L76.4501 37.25V33.75L78.5501 35.5Z" fill="#D1D1D1" fill-opacity="0.7"/>
<path fill-rule="evenodd" clip-rule="evenodd" d="M92.5501 35.5L90.4501 37.25V33.75L92.5501 35.5Z" fill="#D1D1D1" fill-opacity="0.7"/>
<path fill-rule="evenodd" clip-rule="evenodd" d="M14.5 52C16.433 52 18 50.433 18 48.5C18 46.567 16.433 45 14.5 45C12.567 45 11 46.567 11 48.5C11 50.433 12.567 52 14.5 52Z" fill="#7C8E9C"/>
<path fill-rule="evenodd" clip-rule="evenodd" d="M42.5 52C44.433 52 46 50.433 46 48.5C46 46.567 44.433 45 42.5 45C40.567 45 39 46.567 39 48.5C39 50.433 40.567 52 42.5 52Z" fill="#7C8E9C"/>
<path fill-rule="evenodd" clip-rule="evenodd" d="M28.5 52C30.433 52 32 50.433 32 48.5C32 46.567 30.433 45 28.5 45C26.567 45 25 46.567 25 48.5C25 50.433 26.567 52 28.5 52Z" fill="#7C8E9C"/>
<path fill-rule="evenodd" clip-rule="evenodd" d="M22.5501 48.5L20.4501 50.25V46.75L22.5501 48.5Z" fill="#D1D1D1" fill-opacity="0.7"/>
<path fill-rule="evenodd" clip-rule="evenodd" d="M36.5501 48.5L34.4501 50.25V46.75L36.5501 48.5Z" fill="#D1D1D1" fill-opacity="0.7"/>
</g>
<defs>
<filter id="filter0_d" x="0" y="0" width="113" height="66" filterUnits="userSpaceOnUse" color-interpolation-filters="sRGB">
<feFlood flood-opacity="0" result="BackgroundImageFix"/>
<feColorMatrix in="SourceAlpha" type="matrix" values="0 0 0 0 0 0 0 0 0 0 0 0 0 0 0 0 0 0 127 0"/>
<feOffset dy="4"/>
<feGaussianBlur stdDeviation="2"/>
<feColorMatrix type="matrix" values="0 0 0 0 0 0 0 0 0 0 0 0 0 0 0 0 0 0 0.25 0"/>
<feBlend mode="normal" in2="BackgroundImageFix" result="effect1_dropShadow"/>
<feBlend mode="normal" in="SourceGraphic" in2="effect1_dropShadow" result="shape"/>
</filter>
</defs>
</svg>
