<svg width="121" height="50" viewBox="0 0 121 50" fill="none" xmlns="http://www.w3.org/2000/svg">
<rect x="15.5" y="0.5" width="89.5172" height="49" rx="3.5" stroke="#4E6287"/>
<path fill-rule="evenodd" clip-rule="evenodd" d="M24.0524 11.2071C25.7188 11.2071 27.0696 9.85623 27.0696 8.18985C27.0696 6.52347 25.7188 5.17261 24.0524 5.17261C22.386 5.17261 21.0352 6.52347 21.0352 8.18985C21.0352 9.85623 22.386 11.2071 24.0524 11.2071Z" fill="#7C8E9C" fill-opacity="0.3" stroke="#4E6287"/>
<path fill-rule="evenodd" clip-rule="evenodd" d="M72.3288 11.2071C73.9951 11.2071 75.346 9.85623 75.346 8.18985C75.346 6.52347 73.9951 5.17261 72.3288 5.17261C70.6624 5.17261 69.3115 6.52347 69.3115 8.18985C69.3115 9.85623 70.6624 11.2071 72.3288 11.2071Z" fill="#7C8E9C" fill-opacity="0.3" stroke="#4E6287"/>
<path fill-rule="evenodd" clip-rule="evenodd" d="M48.1901 11.2071C49.8565 11.2071 51.2073 9.85623 51.2073 8.18985C51.2073 6.52347 49.8565 5.17261 48.1901 5.17261C46.5237 5.17261 45.1729 6.52347 45.1729 8.18985C45.1729 9.85623 46.5237 11.2071 48.1901 11.2071Z" fill="#7C8E9C" fill-opacity="0.3" stroke="#4E6287"/>
<path fill-rule="evenodd" clip-rule="evenodd" d="M96.4665 11.2071C98.1328 11.2071 99.4837 9.85623 99.4837 8.18985C99.4837 6.52347 98.1328 5.17261 96.4665 5.17261C94.8001 5.17261 93.4492 6.52347 93.4492 8.18985C93.4492 9.85623 94.8001 11.2071 96.4665 11.2071Z" fill="#7C8E9C" fill-opacity="0.3" stroke="#4E6287"/>
<path fill-rule="evenodd" clip-rule="evenodd" d="M36.1217 11.2071C37.7881 11.2071 39.139 9.85623 39.139 8.18985C39.139 6.52347 37.7881 5.17261 36.1217 5.17261C34.4554 5.17261 33.1045 6.52347 33.1045 8.18985C33.1045 9.85623 34.4554 11.2071 36.1217 11.2071Z" fill="#7C8E9C" fill-opacity="0.3" stroke="#4E6287"/>
<path fill-rule="evenodd" clip-rule="evenodd" d="M84.3971 11.2071C86.0635 11.2071 87.4144 9.85623 87.4144 8.18985C87.4144 6.52347 86.0635 5.17261 84.3971 5.17261C82.7307 5.17261 81.3799 6.52347 81.3799 8.18985C81.3799 9.85623 82.7307 11.2071 84.3971 11.2071Z" fill="#7C8E9C" fill-opacity="0.3" stroke="#4E6287"/>
<path fill-rule="evenodd" clip-rule="evenodd" d="M60.2594 11.2071C61.9258 11.2071 63.2767 9.85623 63.2767 8.18985C63.2767 6.52347 61.9258 5.17261 60.2594 5.17261C58.5931 5.17261 57.2422 6.52347 57.2422 8.18985C57.2422 9.85623 58.5931 11.2071 60.2594 11.2071Z" fill="#7C8E9C" fill-opacity="0.3" stroke="#4E6287"/>
<path fill-rule="evenodd" clip-rule="evenodd" d="M30.992 8.18977L29.1816 9.69839V6.68115L30.992 8.18977Z" fill="#D1D1D1" fill-opacity="0.7"/>
<path fill-rule="evenodd" clip-rule="evenodd" d="M43.0613 8.18977L41.251 9.69839V6.68115L43.0613 8.18977Z" fill="#D1D1D1" fill-opacity="0.7"/>
<path fill-rule="evenodd" clip-rule="evenodd" d="M55.1307 8.18977L53.3203 9.69839V6.68115L55.1307 8.18977Z" fill="#D1D1D1" fill-opacity="0.7"/>
<path fill-rule="evenodd" clip-rule="evenodd" d="M67.199 8.18977L65.3887 9.69839V6.68115L67.199 8.18977Z" fill="#D1D1D1" fill-opacity="0.7"/>
<path fill-rule="evenodd" clip-rule="evenodd" d="M79.2684 8.18977L77.458 9.69839V6.68115L79.2684 8.18977Z" fill="#D1D1D1" fill-opacity="0.7"/>
<path fill-rule="evenodd" clip-rule="evenodd" d="M91.3377 8.18977L89.5273 9.69839V6.68115L91.3377 8.18977Z" fill="#D1D1D1" fill-opacity="0.7"/>
<path fill-rule="evenodd" clip-rule="evenodd" d="M24.0524 22.4139C25.7188 22.4139 27.0696 21.063 27.0696 19.3966C27.0696 17.7303 25.7188 16.3794 24.0524 16.3794C22.386 16.3794 21.0352 17.7303 21.0352 19.3966C21.0352 21.063 22.386 22.4139 24.0524 22.4139Z" fill="#7C8E9C" fill-opacity="0.3" stroke="#4E6287"/>
<path fill-rule="evenodd" clip-rule="evenodd" d="M72.3288 22.4139C73.9951 22.4139 75.346 21.063 75.346 19.3966C75.346 17.7303 73.9951 16.3794 72.3288 16.3794C70.6624 16.3794 69.3115 17.7303 69.3115 19.3966C69.3115 21.063 70.6624 22.4139 72.3288 22.4139Z" fill="#7C8E9C" fill-opacity="0.3" stroke="#4E6287"/>
<path fill-rule="evenodd" clip-rule="evenodd" d="M48.1901 22.4139C49.8565 22.4139 51.2073 21.063 51.2073 19.3966C51.2073 17.7303 49.8565 16.3794 48.1901 16.3794C46.5237 16.3794 45.1729 17.7303 45.1729 19.3966C45.1729 21.063 46.5237 22.4139 48.1901 22.4139Z" fill="#7C8E9C" fill-opacity="0.3" stroke="#4E6287"/>
<path fill-rule="evenodd" clip-rule="evenodd" d="M96.4665 22.4139C98.1328 22.4139 99.4837 21.063 99.4837 19.3966C99.4837 17.7303 98.1328 16.3794 96.4665 16.3794C94.8001 16.3794 93.4492 17.7303 93.4492 19.3966C93.4492 21.063 94.8001 22.4139 96.4665 22.4139Z" fill="#7C8E9C" fill-opacity="0.3" stroke="#4E6287"/>
<path fill-rule="evenodd" clip-rule="evenodd" d="M36.1217 22.4139C37.7881 22.4139 39.139 21.063 39.139 19.3966C39.139 17.7303 37.7881 16.3794 36.1217 16.3794C34.4554 16.3794 33.1045 17.7303 33.1045 19.3966C33.1045 21.063 34.4554 22.4139 36.1217 22.4139Z" fill="#7C8E9C" fill-opacity="0.3" stroke="#4E6287"/>
<path fill-rule="evenodd" clip-rule="evenodd" d="M84.3971 22.4139C86.0635 22.4139 87.4144 21.063 87.4144 19.3966C87.4144 17.7303 86.0635 16.3794 84.3971 16.3794C82.7307 16.3794 81.3799 17.7303 81.3799 19.3966C81.3799 21.063 82.7307 22.4139 84.3971 22.4139Z" fill="#7C8E9C" fill-opacity="0.3" stroke="#4E6287"/>
<path fill-rule="evenodd" clip-rule="evenodd" d="M60.2594 22.4139C61.9258 22.4139 63.2767 21.063 63.2767 19.3966C63.2767 17.7303 61.9258 16.3794 60.2594 16.3794C58.5931 16.3794 57.2422 17.7303 57.2422 19.3966C57.2422 21.063 58.5931 22.4139 60.2594 22.4139Z" fill="#7C8E9C" fill-opacity="0.3" stroke="#4E6287"/>
<path fill-rule="evenodd" clip-rule="evenodd" d="M30.992 19.3966L29.1816 20.9052V17.8879L30.992 19.3966Z" fill="#D1D1D1" fill-opacity="0.7"/>
<path fill-rule="evenodd" clip-rule="evenodd" d="M43.0613 19.3966L41.251 20.9052V17.8879L43.0613 19.3966Z" fill="#D1D1D1" fill-opacity="0.7"/>
<path fill-rule="evenodd" clip-rule="evenodd" d="M55.1307 19.3966L53.3203 20.9052V17.8879L55.1307 19.3966Z" fill="#D1D1D1" fill-opacity="0.7"/>
<path fill-rule="evenodd" clip-rule="evenodd" d="M67.199 19.3966L65.3887 20.9052V17.8879L67.199 19.3966Z" fill="#D1D1D1" fill-opacity="0.7"/>
<path fill-rule="evenodd" clip-rule="evenodd" d="M79.2684 19.3966L77.458 20.9052V17.8879L79.2684 19.3966Z" fill="#D1D1D1" fill-opacity="0.7"/>
<path fill-rule="evenodd" clip-rule="evenodd" d="M91.3377 19.3966L89.5273 20.9052V17.8879L91.3377 19.3966Z" fill="#D1D1D1" fill-opacity="0.7"/>
<path fill-rule="evenodd" clip-rule="evenodd" d="M24.0524 33.6207C25.7188 33.6207 27.0696 32.2698 27.0696 30.6034C27.0696 28.937 25.7188 27.5862 24.0524 27.5862C22.386 27.5862 21.0352 28.937 21.0352 30.6034C21.0352 32.2698 22.386 33.6207 24.0524 33.6207Z" fill="#7C8E9C" fill-opacity="0.3" stroke="#4E6287"/>
<path fill-rule="evenodd" clip-rule="evenodd" d="M72.3288 33.6207C73.9951 33.6207 75.346 32.2698 75.346 30.6034C75.346 28.937 73.9951 27.5862 72.3288 27.5862C70.6624 27.5862 69.3115 28.937 69.3115 30.6034C69.3115 32.2698 70.6624 33.6207 72.3288 33.6207Z" fill="#7C8E9C" fill-opacity="0.3" stroke="#4E6287"/>
<path fill-rule="evenodd" clip-rule="evenodd" d="M48.1901 33.6207C49.8565 33.6207 51.2073 32.2698 51.2073 30.6034C51.2073 28.937 49.8565 27.5862 48.1901 27.5862C46.5237 27.5862 45.1729 28.937 45.1729 30.6034C45.1729 32.2698 46.5237 33.6207 48.1901 33.6207Z" fill="#7C8E9C" fill-opacity="0.3" stroke="#4E6287"/>
<path fill-rule="evenodd" clip-rule="evenodd" d="M96.4665 33.6207C98.1328 33.6207 99.4837 32.2698 99.4837 30.6034C99.4837 28.937 98.1328 27.5862 96.4665 27.5862C94.8001 27.5862 93.4492 28.937 93.4492 30.6034C93.4492 32.2698 94.8001 33.6207 96.4665 33.6207Z" fill="#7C8E9C" fill-opacity="0.3" stroke="#4E6287"/>
<path fill-rule="evenodd" clip-rule="evenodd" d="M36.1217 33.6207C37.7881 33.6207 39.139 32.2698 39.139 30.6034C39.139 28.937 37.7881 27.5862 36.1217 27.5862C34.4554 27.5862 33.1045 28.937 33.1045 30.6034C33.1045 32.2698 34.4554 33.6207 36.1217 33.6207Z" fill="#7C8E9C" fill-opacity="0.3" stroke="#4E6287"/>
<path fill-rule="evenodd" clip-rule="evenodd" d="M84.3971 33.6207C86.0635 33.6207 87.4144 32.2698 87.4144 30.6034C87.4144 28.937 86.0635 27.5862 84.3971 27.5862C82.7307 27.5862 81.3799 28.937 81.3799 30.6034C81.3799 32.2698 82.7307 33.6207 84.3971 33.6207Z" fill="#7C8E9C" fill-opacity="0.3" stroke="#4E6287"/>
<path fill-rule="evenodd" clip-rule="evenodd" d="M60.2594 33.6207C61.9258 33.6207 63.2767 32.2698 63.2767 30.6034C63.2767 28.937 61.9258 27.5862 60.2594 27.5862C58.5931 27.5862 57.2422 28.937 57.2422 30.6034C57.2422 32.2698 58.5931 33.6207 60.2594 33.6207Z" fill="#7C8E9C" fill-opacity="0.3" stroke="#4E6287"/>
<path fill-rule="evenodd" clip-rule="evenodd" d="M30.992 30.6033L29.1816 32.112V29.0947L30.992 30.6033Z" fill="#D1D1D1" fill-opacity="0.7"/>
<path fill-rule="evenodd" clip-rule="evenodd" d="M43.0613 30.6033L41.251 32.112V29.0947L43.0613 30.6033Z" fill="#D1D1D1" fill-opacity="0.7"/>
<path fill-rule="evenodd" clip-rule="evenodd" d="M55.1307 30.6033L53.3203 32.112V29.0947L55.1307 30.6033Z" fill="#D1D1D1" fill-opacity="0.7"/>
<path fill-rule="evenodd" clip-rule="evenodd" d="M67.199 30.6033L65.3887 32.112V29.0947L67.199 30.6033Z" fill="#D1D1D1" fill-opacity="0.7"/>
<path fill-rule="evenodd" clip-rule="evenodd" d="M79.2684 30.6033L77.458 32.112V29.0947L79.2684 30.6033Z" fill="#D1D1D1" fill-opacity="0.7"/>
<path fill-rule="evenodd" clip-rule="evenodd" d="M91.3377 30.6033L89.5273 32.112V29.0947L91.3377 30.6033Z" fill="#D1D1D1" fill-opacity="0.7"/>
<path fill-rule="evenodd" clip-rule="evenodd" d="M24.0524 44.8275C25.7188 44.8275 27.0696 43.4766 27.0696 41.8102C27.0696 40.1438 25.7188 38.793 24.0524 38.793C22.386 38.793 21.0352 40.1438 21.0352 41.8102C21.0352 43.4766 22.386 44.8275 24.0524 44.8275Z" fill="#7C8E9C" fill-opacity="0.3" stroke="#4E6287"/>
<path opacity="0.86" fill-rule="evenodd" clip-rule="evenodd" d="M72.3288 44.8275C73.9951 44.8275 75.346 43.4766 75.346 41.8102C75.346 40.1438 73.9951 38.793 72.3288 38.793C70.6624 38.793 69.3115 40.1438 69.3115 41.8102C69.3115 43.4766 70.6624 44.8275 72.3288 44.8275Z" fill="#4E6287" stroke="#4E6287"/>
<path fill-rule="evenodd" clip-rule="evenodd" d="M48.1901 44.8275C49.8565 44.8275 51.2073 43.4766 51.2073 41.8102C51.2073 40.1438 49.8565 38.793 48.1901 38.793C46.5237 38.793 45.1729 40.1438 45.1729 41.8102C45.1729 43.4766 46.5237 44.8275 48.1901 44.8275Z" fill="#7C8E9C" fill-opacity="0.3" stroke="#4E6287"/>
<path opacity="0.86" fill-rule="evenodd" clip-rule="evenodd" d="M96.4665 44.8275C98.1328 44.8275 99.4837 43.4766 99.4837 41.8102C99.4837 40.1438 98.1328 38.793 96.4665 38.793C94.8001 38.793 93.4492 40.1438 93.4492 41.8102C93.4492 43.4766 94.8001 44.8275 96.4665 44.8275Z" fill="#4E6287" stroke="#4E6287"/>
<path fill-rule="evenodd" clip-rule="evenodd" d="M36.1217 44.8275C37.7881 44.8275 39.139 43.4766 39.139 41.8102C39.139 40.1438 37.7881 38.793 36.1217 38.793C34.4554 38.793 33.1045 40.1438 33.1045 41.8102C33.1045 43.4766 34.4554 44.8275 36.1217 44.8275Z" fill="#7C8E9C" fill-opacity="0.3" stroke="#4E6287"/>
<path opacity="0.86" fill-rule="evenodd" clip-rule="evenodd" d="M84.3971 44.8275C86.0635 44.8275 87.4144 43.4766 87.4144 41.8102C87.4144 40.1438 86.0635 38.793 84.3971 38.793C82.7307 38.793 81.3799 40.1438 81.3799 41.8102C81.3799 43.4766 82.7307 44.8275 84.3971 44.8275Z" fill="#4E6287" stroke="#4E6287"/>
<path opacity="0.86" fill-rule="evenodd" clip-rule="evenodd" d="M60.2594 44.8275C61.9258 44.8275 63.2767 43.4766 63.2767 41.8102C63.2767 40.1438 61.9258 38.793 60.2594 38.793C58.5931 38.793 57.2422 40.1438 57.2422 41.8102C57.2422 43.4766 58.5931 44.8275 60.2594 44.8275Z" fill="#4E6287" stroke="#4E6287"/>
<path fill-rule="evenodd" clip-rule="evenodd" d="M30.992 41.8101L29.1816 43.3188V40.3015L30.992 41.8101Z" fill="#D1D1D1" fill-opacity="0.7"/>
<path fill-rule="evenodd" clip-rule="evenodd" d="M43.0613 41.8101L41.251 43.3188V40.3015L43.0613 41.8101Z" fill="#D1D1D1" fill-opacity="0.7"/>
<path fill-rule="evenodd" clip-rule="evenodd" d="M55.1307 41.8101L53.3203 43.3188V40.3015L55.1307 41.8101Z" fill="#D1D1D1" fill-opacity="0.7"/>
<path fill-rule="evenodd" clip-rule="evenodd" d="M67.199 41.8101L65.3887 43.3188V40.3015L67.199 41.8101Z" fill="#D1D1D1" fill-opacity="0.7"/>
<path fill-rule="evenodd" clip-rule="evenodd" d="M79.2684 41.8101L77.458 43.3188V40.3015L79.2684 41.8101Z" fill="#D1D1D1" fill-opacity="0.7"/>
<path fill-rule="evenodd" clip-rule="evenodd" d="M91.3377 41.8101L89.5273 43.3188V40.3015L91.3377 41.8101Z" fill="#D1D1D1" fill-opacity="0.7"/>
</svg>
