<?xml version="1.0" encoding="utf-8"?>
<!-- Generator: Adobe Illustrator 25.2.1, SVG Export Plug-In . SVG Version: 6.00 Build 0)  -->
<svg version="1.1" id="レイヤー_1" xmlns="http://www.w3.org/2000/svg" xmlns:xlink="http://www.w3.org/1999/xlink" x="0px"
	 y="0px" viewBox="0 0 32 32" style="enable-background:new 0 0 32 32;" xml:space="preserve">
<style type="text/css">
	.st0{fill:#FFFFFF;}
	.st1{fill:#D3D3D3;}
	.st2{fill-rule:evenodd;clip-rule:evenodd;fill:url(#SVGID_1_);}
	.st3{fill:url(#SVGID_2_);}
</style>
<path class="st0" d="M26.5,31.5h-21c-2.8,0-5-2.2-5-5v-21c0-2.8,2.2-5,5-5h21c2.8,0,5,2.2,5,5v21C31.5,29.3,29.3,31.5,26.5,31.5z"/>
<path class="st1" d="M26.6,0.5c2.7,0,4.9,2.2,4.9,4.9v21.1c0,2.7-2.2,4.9-4.9,4.9H5.4c-2.7,0-4.9-2.2-4.9-4.9V5.4
	c0-2.7,2.2-4.9,4.9-4.9H26.6 M26.6,0H5.4C2.4,0,0,2.4,0,5.4v21.1c0,3,2.4,5.4,5.4,5.4h21.1c3,0,5.4-2.4,5.4-5.4V5.4
	C32,2.4,29.6,0,26.6,0L26.6,0z"/>
<linearGradient id="SVGID_1_" gradientUnits="userSpaceOnUse" x1="13.0918" y1="12.8623" x2="20.4467" y2="23.046" gradientTransform="matrix(1 0 0 -1 0 31)">
	<stop  offset="0" style="stop-color:#E66B46"/>
	<stop  offset="1" style="stop-color:#4E6287"/>
</linearGradient>
<path class="st2" d="M14.4,17.5c1,0.7,2.2,0.6,2.6,0.6c7.1,0.1,7.3-10.9,0.2-11.1c0,0-2.7,0-2.8,0"/>
<linearGradient id="SVGID_2_" gradientUnits="userSpaceOnUse" x1="11.0496" y1="14.8789" x2="15.2645" y2="16.6087" gradientTransform="matrix(1 0 0 -1 0 31)">
	<stop  offset="0" style="stop-color:#E56A45"/>
	<stop  offset="1" style="stop-color:#E5A28E"/>
</linearGradient>
<path class="st3" d="M11,7h3.4v14.6c0,1.9-1.5,3.4-3.4,3.4V7z"/>
</svg>
