<?xml version="1.0" encoding="UTF-8"?>
<svg width="140px" height="60px" viewBox="0 0 140 60" version="1.1" xmlns="http://www.w3.org/2000/svg" xmlns:xlink="http://www.w3.org/1999/xlink">
    <!-- Generator: Sketch 59 (86127) - https://sketch.com -->
    <title>pillsheet_21</title>
    <desc>Created with Sketch.</desc>
    <defs>
        <path d="M5.30526337,0 L134.694737,0 C137.624753,-1.42641364e-15 140,2.37524732 140,5.30526337 L140,54.6947366 C140,57.6247527 137.624753,60 134.694737,60 L5.30526337,60 C2.37524732,60 -7.6347823e-15,57.6247527 0,54.6947366 L0,5.30526337 C-1.2470019e-15,2.37524732 2.37524732,2.31459206e-15 5.30526337,0 Z" id="path-1"></path>
    </defs>
    <g id="Page-1" stroke="none" stroke-width="1" fill="none" fill-rule="evenodd">
        <g id="初期設定01_01" transform="translate(-56.000000, -187.000000)">
            <g id="21錠タイプ" transform="translate(40.000000, 140.000000)">
                <g id="pillsheet_21" transform="translate(16.000000, 47.000000)">
                    <g>
                        <g>
                            <mask id="mask-2" fill="white">
                                <use xlink:href="#path-1"></use>
                            </mask>
                            <use id="Mask" fill="#E8EBED" xlink:href="#path-1"></use>
                            <g id="Group-3" mask="url(#mask-2)">
                                <g transform="translate(11.789474, 8.780488)">
                                    <ellipse id="Oval" fill="#BEC0C2" cx="5.01052698" cy="5.12195305" rx="4.42105281" ry="4.39024408"></ellipse>
                                    <ellipse id="Oval" fill="#BEC0C2" cx="75.7473719" cy="5.12195305" rx="4.42105281" ry="4.39024408"></ellipse>
                                    <ellipse id="Oval" fill="#BEC0C2" cx="40.3789494" cy="5.12195305" rx="4.42105281" ry="4.39024408"></ellipse>
                                    <ellipse id="Oval" fill="#BEC0C2" cx="111.115794" cy="5.12195305" rx="4.42105281" ry="4.39024408"></ellipse>
                                    <ellipse id="Oval" fill="#BEC0C2" cx="22.6947382" cy="5.12195305" rx="4.42105281" ry="4.39024408"></ellipse>
                                    <ellipse id="Oval" fill="#BEC0C2" cx="93.4315831" cy="5.12195305" rx="4.42105281" ry="4.39024408"></ellipse>
                                    <ellipse id="Oval" fill="#BEC0C2" cx="58.0631607" cy="5.12195305" rx="4.42105281" ry="4.39024408"></ellipse>
                                    <polygon id="Triangle" fill-opacity="0.7" fill="#D1D1D1" points="15.1789484 5.12195305 12.5263168 7.31707509 12.5263168 2.92683101"></polygon>
                                    <polygon id="Triangle" fill-opacity="0.7" fill="#D1D1D1" points="32.8631597 5.12195305 30.210528 7.31707509 30.210528 2.92683101"></polygon>
                                    <polygon id="Triangle" fill-opacity="0.7" fill="#D1D1D1" points="50.5473709 5.12195305 47.8947392 7.31707509 47.8947392 2.92683101"></polygon>
                                    <polygon id="Triangle" fill-opacity="0.7" fill="#D1D1D1" points="68.2315821 5.12195305 65.5789504 7.31707509 65.5789504 2.92683101"></polygon>
                                    <polygon id="Triangle" fill-opacity="0.7" fill="#D1D1D1" points="85.9157934 5.12195305 83.2631617 7.31707509 83.2631617 2.92683101"></polygon>
                                    <polygon id="Triangle" fill-opacity="0.7" fill="#D1D1D1" points="103.600005 5.12195305 100.947373 7.31707509 100.947373 2.92683101"></polygon>
                                </g>
                            </g>
                            <g id="Group-3" mask="url(#mask-2)">
                                <g transform="translate(11.789474, 24.878049)">
                                    <ellipse id="Oval" fill="#BEC0C2" cx="5.01052698" cy="5.12195305" rx="4.42105281" ry="4.39024408"></ellipse>
                                    <ellipse id="Oval" fill="#BEC0C2" cx="75.7473719" cy="5.12195305" rx="4.42105281" ry="4.39024408"></ellipse>
                                    <ellipse id="Oval" fill="#BEC0C2" cx="40.3789494" cy="5.12195305" rx="4.42105281" ry="4.39024408"></ellipse>
                                    <ellipse id="Oval" fill="#BEC0C2" cx="111.115794" cy="5.12195305" rx="4.42105281" ry="4.39024408"></ellipse>
                                    <ellipse id="Oval" fill="#BEC0C2" cx="22.6947382" cy="5.12195305" rx="4.42105281" ry="4.39024408"></ellipse>
                                    <ellipse id="Oval" fill="#BEC0C2" cx="93.4315831" cy="5.12195305" rx="4.42105281" ry="4.39024408"></ellipse>
                                    <ellipse id="Oval" fill="#BEC0C2" cx="58.0631607" cy="5.12195305" rx="4.42105281" ry="4.39024408"></ellipse>
                                    <polygon id="Triangle" fill-opacity="0.7" fill="#D1D1D1" points="15.1789484 5.12195305 12.5263168 7.31707509 12.5263168 2.92683101"></polygon>
                                    <polygon id="Triangle" fill-opacity="0.7" fill="#D1D1D1" points="32.8631597 5.12195305 30.210528 7.31707509 30.210528 2.92683101"></polygon>
                                    <polygon id="Triangle" fill-opacity="0.7" fill="#D1D1D1" points="50.5473709 5.12195305 47.8947392 7.31707509 47.8947392 2.92683101"></polygon>
                                    <polygon id="Triangle" fill-opacity="0.7" fill="#D1D1D1" points="68.2315821 5.12195305 65.5789504 7.31707509 65.5789504 2.92683101"></polygon>
                                    <polygon id="Triangle" fill-opacity="0.7" fill="#D1D1D1" points="85.9157934 5.12195305 83.2631617 7.31707509 83.2631617 2.92683101"></polygon>
                                    <polygon id="Triangle" fill-opacity="0.7" fill="#D1D1D1" points="103.600005 5.12195305 100.947373 7.31707509 100.947373 2.92683101"></polygon>
                                </g>
                            </g>
                            <g id="Group-3" mask="url(#mask-2)">
                                <g transform="translate(11.789474, 40.975610)">
                                    <ellipse id="Oval" fill="#BEC0C2" cx="5.01052698" cy="5.12195305" rx="4.42105281" ry="4.39024408"></ellipse>
                                    <ellipse id="Oval" fill="#BEC0C2" cx="75.7473719" cy="5.12195305" rx="4.42105281" ry="4.39024408"></ellipse>
                                    <ellipse id="Oval" fill="#BEC0C2" cx="40.3789494" cy="5.12195305" rx="4.42105281" ry="4.39024408"></ellipse>
                                    <ellipse id="Oval" fill="#BEC0C2" cx="111.115794" cy="5.12195305" rx="4.42105281" ry="4.39024408"></ellipse>
                                    <ellipse id="Oval" fill="#BEC0C2" cx="22.6947382" cy="5.12195305" rx="4.42105281" ry="4.39024408"></ellipse>
                                    <ellipse id="Oval" fill="#BEC0C2" cx="93.4315831" cy="5.12195305" rx="4.42105281" ry="4.39024408"></ellipse>
                                    <ellipse id="Oval" fill="#BEC0C2" cx="58.0631607" cy="5.12195305" rx="4.42105281" ry="4.39024408"></ellipse>
                                    <polygon id="Triangle" fill-opacity="0.7" fill="#D1D1D1" points="15.1789484 5.12195305 12.5263168 7.31707509 12.5263168 2.92683101"></polygon>
                                    <polygon id="Triangle" fill-opacity="0.7" fill="#D1D1D1" points="32.8631597 5.12195305 30.210528 7.31707509 30.210528 2.92683101"></polygon>
                                    <polygon id="Triangle" fill-opacity="0.7" fill="#D1D1D1" points="50.5473709 5.12195305 47.8947392 7.31707509 47.8947392 2.92683101"></polygon>
                                    <polygon id="Triangle" fill-opacity="0.7" fill="#D1D1D1" points="68.2315821 5.12195305 65.5789504 7.31707509 65.5789504 2.92683101"></polygon>
                                    <polygon id="Triangle" fill-opacity="0.7" fill="#D1D1D1" points="85.9157934 5.12195305 83.2631617 7.31707509 83.2631617 2.92683101"></polygon>
                                    <polygon id="Triangle" fill-opacity="0.7" fill="#D1D1D1" points="103.600005 5.12195305 100.947373 7.31707509 100.947373 2.92683101"></polygon>
                                </g>
                            </g>
                        </g>
                    </g>
                </g>
            </g>
        </g>
    </g>
</svg>