<svg width="105" height="58" viewBox="0 0 105 58" fill="none" xmlns="http://www.w3.org/2000/svg">
<rect width="105" height="58" rx="4" fill="#E8EBED"/>
<path fill-rule="evenodd" clip-rule="evenodd" d="M10.5 13C12.433 13 14 11.433 14 9.5C14 7.567 12.433 6 10.5 6C8.567 6 7 7.567 7 9.5C7 11.433 8.567 13 10.5 13Z" fill="#7C8E9C"/>
<path fill-rule="evenodd" clip-rule="evenodd" d="M66.5 13C68.433 13 70 11.433 70 9.5C70 7.567 68.433 6 66.5 6C64.567 6 63 7.567 63 9.5C63 11.433 64.567 13 66.5 13Z" fill="#7C8E9C"/>
<path fill-rule="evenodd" clip-rule="evenodd" d="M38.5 13C40.433 13 42 11.433 42 9.5C42 7.567 40.433 6 38.5 6C36.567 6 35 7.567 35 9.5C35 11.433 36.567 13 38.5 13Z" fill="#7C8E9C"/>
<path fill-rule="evenodd" clip-rule="evenodd" d="M94.5 13C96.433 13 98 11.433 98 9.5C98 7.567 96.433 6 94.5 6C92.567 6 91 7.567 91 9.5C91 11.433 92.567 13 94.5 13Z" fill="#7C8E9C"/>
<path fill-rule="evenodd" clip-rule="evenodd" d="M24.5 13C26.433 13 28 11.433 28 9.5C28 7.567 26.433 6 24.5 6C22.567 6 21 7.567 21 9.5C21 11.433 22.567 13 24.5 13Z" fill="#7C8E9C"/>
<path fill-rule="evenodd" clip-rule="evenodd" d="M80.5 13C82.433 13 84 11.433 84 9.5C84 7.567 82.433 6 80.5 6C78.567 6 77 7.567 77 9.5C77 11.433 78.567 13 80.5 13Z" fill="#7C8E9C"/>
<path fill-rule="evenodd" clip-rule="evenodd" d="M52.5 13C54.433 13 56 11.433 56 9.5C56 7.567 54.433 6 52.5 6C50.567 6 49 7.567 49 9.5C49 11.433 50.567 13 52.5 13Z" fill="#7C8E9C"/>
<path fill-rule="evenodd" clip-rule="evenodd" d="M18.5501 9.5L16.4501 11.25V7.75L18.5501 9.5Z" fill="#D1D1D1" fill-opacity="0.7"/>
<path fill-rule="evenodd" clip-rule="evenodd" d="M32.5501 9.5L30.4501 11.25V7.75L32.5501 9.5Z" fill="#D1D1D1" fill-opacity="0.7"/>
<path fill-rule="evenodd" clip-rule="evenodd" d="M46.5501 9.5L44.4501 11.25V7.75L46.5501 9.5Z" fill="#D1D1D1" fill-opacity="0.7"/>
<path fill-rule="evenodd" clip-rule="evenodd" d="M60.5501 9.5L58.4501 11.25V7.75L60.5501 9.5Z" fill="#D1D1D1" fill-opacity="0.7"/>
<path fill-rule="evenodd" clip-rule="evenodd" d="M74.5501 9.5L72.4501 11.25V7.75L74.5501 9.5Z" fill="#D1D1D1" fill-opacity="0.7"/>
<path fill-rule="evenodd" clip-rule="evenodd" d="M88.5501 9.5L86.4501 11.25V7.75L88.5501 9.5Z" fill="#D1D1D1" fill-opacity="0.7"/>
<path fill-rule="evenodd" clip-rule="evenodd" d="M10.5 26C12.433 26 14 24.433 14 22.5C14 20.567 12.433 19 10.5 19C8.567 19 7 20.567 7 22.5C7 24.433 8.567 26 10.5 26Z" fill="#7C8E9C"/>
<path fill-rule="evenodd" clip-rule="evenodd" d="M66.5 26C68.433 26 70 24.433 70 22.5C70 20.567 68.433 19 66.5 19C64.567 19 63 20.567 63 22.5C63 24.433 64.567 26 66.5 26Z" fill="#7C8E9C"/>
<path fill-rule="evenodd" clip-rule="evenodd" d="M38.5 26C40.433 26 42 24.433 42 22.5C42 20.567 40.433 19 38.5 19C36.567 19 35 20.567 35 22.5C35 24.433 36.567 26 38.5 26Z" fill="#7C8E9C"/>
<path fill-rule="evenodd" clip-rule="evenodd" d="M94.5 26C96.433 26 98 24.433 98 22.5C98 20.567 96.433 19 94.5 19C92.567 19 91 20.567 91 22.5C91 24.433 92.567 26 94.5 26Z" fill="#7C8E9C"/>
<path fill-rule="evenodd" clip-rule="evenodd" d="M24.5 26C26.433 26 28 24.433 28 22.5C28 20.567 26.433 19 24.5 19C22.567 19 21 20.567 21 22.5C21 24.433 22.567 26 24.5 26Z" fill="#7C8E9C"/>
<path fill-rule="evenodd" clip-rule="evenodd" d="M80.5 26C82.433 26 84 24.433 84 22.5C84 20.567 82.433 19 80.5 19C78.567 19 77 20.567 77 22.5C77 24.433 78.567 26 80.5 26Z" fill="#7C8E9C"/>
<path fill-rule="evenodd" clip-rule="evenodd" d="M52.5 26C54.433 26 56 24.433 56 22.5C56 20.567 54.433 19 52.5 19C50.567 19 49 20.567 49 22.5C49 24.433 50.567 26 52.5 26Z" fill="#7C8E9C"/>
<path fill-rule="evenodd" clip-rule="evenodd" d="M18.5501 22.5L16.4501 24.25V20.75L18.5501 22.5Z" fill="#D1D1D1" fill-opacity="0.7"/>
<path fill-rule="evenodd" clip-rule="evenodd" d="M32.5501 22.5L30.4501 24.25V20.75L32.5501 22.5Z" fill="#D1D1D1" fill-opacity="0.7"/>
<path fill-rule="evenodd" clip-rule="evenodd" d="M46.5501 22.5L44.4501 24.25V20.75L46.5501 22.5Z" fill="#D1D1D1" fill-opacity="0.7"/>
<path fill-rule="evenodd" clip-rule="evenodd" d="M60.5501 22.5L58.4501 24.25V20.75L60.5501 22.5Z" fill="#D1D1D1" fill-opacity="0.7"/>
<path fill-rule="evenodd" clip-rule="evenodd" d="M74.5501 22.5L72.4501 24.25V20.75L74.5501 22.5Z" fill="#D1D1D1" fill-opacity="0.7"/>
<path fill-rule="evenodd" clip-rule="evenodd" d="M88.5501 22.5L86.4501 24.25V20.75L88.5501 22.5Z" fill="#D1D1D1" fill-opacity="0.7"/>
<path fill-rule="evenodd" clip-rule="evenodd" d="M10.5 39C12.433 39 14 37.433 14 35.5C14 33.567 12.433 32 10.5 32C8.567 32 7 33.567 7 35.5C7 37.433 8.567 39 10.5 39Z" fill="#7C8E9C"/>
<path fill-rule="evenodd" clip-rule="evenodd" d="M66.5 39C68.433 39 70 37.433 70 35.5C70 33.567 68.433 32 66.5 32C64.567 32 63 33.567 63 35.5C63 37.433 64.567 39 66.5 39Z" fill="#7C8E9C"/>
<path fill-rule="evenodd" clip-rule="evenodd" d="M38.5 39C40.433 39 42 37.433 42 35.5C42 33.567 40.433 32 38.5 32C36.567 32 35 33.567 35 35.5C35 37.433 36.567 39 38.5 39Z" fill="#7C8E9C"/>
<path fill-rule="evenodd" clip-rule="evenodd" d="M94.5 39C96.433 39 98 37.433 98 35.5C98 33.567 96.433 32 94.5 32C92.567 32 91 33.567 91 35.5C91 37.433 92.567 39 94.5 39Z" fill="#7C8E9C"/>
<path fill-rule="evenodd" clip-rule="evenodd" d="M24.5 39C26.433 39 28 37.433 28 35.5C28 33.567 26.433 32 24.5 32C22.567 32 21 33.567 21 35.5C21 37.433 22.567 39 24.5 39Z" fill="#7C8E9C"/>
<path fill-rule="evenodd" clip-rule="evenodd" d="M80.5 39C82.433 39 84 37.433 84 35.5C84 33.567 82.433 32 80.5 32C78.567 32 77 33.567 77 35.5C77 37.433 78.567 39 80.5 39Z" fill="#7C8E9C"/>
<path fill-rule="evenodd" clip-rule="evenodd" d="M52.5 39C54.433 39 56 37.433 56 35.5C56 33.567 54.433 32 52.5 32C50.567 32 49 33.567 49 35.5C49 37.433 50.567 39 52.5 39Z" fill="#7C8E9C"/>
<path fill-rule="evenodd" clip-rule="evenodd" d="M18.5501 35.5L16.4501 37.25V33.75L18.5501 35.5Z" fill="#D1D1D1" fill-opacity="0.7"/>
<path fill-rule="evenodd" clip-rule="evenodd" d="M32.5501 35.5L30.4501 37.25V33.75L32.5501 35.5Z" fill="#D1D1D1" fill-opacity="0.7"/>
<path fill-rule="evenodd" clip-rule="evenodd" d="M46.5501 35.5L44.4501 37.25V33.75L46.5501 35.5Z" fill="#D1D1D1" fill-opacity="0.7"/>
<path fill-rule="evenodd" clip-rule="evenodd" d="M60.5501 35.5L58.4501 37.25V33.75L60.5501 35.5Z" fill="#D1D1D1" fill-opacity="0.7"/>
<path fill-rule="evenodd" clip-rule="evenodd" d="M74.5501 35.5L72.4501 37.25V33.75L74.5501 35.5Z" fill="#D1D1D1" fill-opacity="0.7"/>
<path fill-rule="evenodd" clip-rule="evenodd" d="M88.5501 35.5L86.4501 37.25V33.75L88.5501 35.5Z" fill="#D1D1D1" fill-opacity="0.7"/>
<path fill-rule="evenodd" clip-rule="evenodd" d="M10.5 52C12.433 52 14 50.433 14 48.5C14 46.567 12.433 45 10.5 45C8.567 45 7 46.567 7 48.5C7 50.433 8.567 52 10.5 52Z" fill="#7C8E9C"/>
<path fill-rule="evenodd" clip-rule="evenodd" d="M66.5 52C68.433 52 70 50.433 70 48.5C70 46.567 68.433 45 66.5 45C64.567 45 63 46.567 63 48.5C63 50.433 64.567 52 66.5 52Z" fill="#7C8E9C"/>
<path fill-rule="evenodd" clip-rule="evenodd" d="M38.5 52C40.433 52 42 50.433 42 48.5C42 46.567 40.433 45 38.5 45C36.567 45 35 46.567 35 48.5C35 50.433 36.567 52 38.5 52Z" fill="#7C8E9C"/>
<path fill-rule="evenodd" clip-rule="evenodd" d="M94.5 52C96.433 52 98 50.433 98 48.5C98 46.567 96.433 45 94.5 45C92.567 45 91 46.567 91 48.5C91 50.433 92.567 52 94.5 52Z" fill="#7C8E9C"/>
<path fill-rule="evenodd" clip-rule="evenodd" d="M24.5 52C26.433 52 28 50.433 28 48.5C28 46.567 26.433 45 24.5 45C22.567 45 21 46.567 21 48.5C21 50.433 22.567 52 24.5 52Z" fill="#7C8E9C"/>
<path fill-rule="evenodd" clip-rule="evenodd" d="M80.5 52C82.433 52 84 50.433 84 48.5C84 46.567 82.433 45 80.5 45C78.567 45 77 46.567 77 48.5C77 50.433 78.567 52 80.5 52Z" fill="#7C8E9C"/>
<path fill-rule="evenodd" clip-rule="evenodd" d="M52.5 52C54.433 52 56 50.433 56 48.5C56 46.567 54.433 45 52.5 45C50.567 45 49 46.567 49 48.5C49 50.433 50.567 52 52.5 52Z" fill="#7C8E9C"/>
<path fill-rule="evenodd" clip-rule="evenodd" d="M18.5501 48.5L16.4501 50.25V46.75L18.5501 48.5Z" fill="#D1D1D1" fill-opacity="0.7"/>
<path fill-rule="evenodd" clip-rule="evenodd" d="M32.5501 48.5L30.4501 50.25V46.75L32.5501 48.5Z" fill="#D1D1D1" fill-opacity="0.7"/>
<path fill-rule="evenodd" clip-rule="evenodd" d="M46.5501 48.5L44.4501 50.25V46.75L46.5501 48.5Z" fill="#D1D1D1" fill-opacity="0.7"/>
<path fill-rule="evenodd" clip-rule="evenodd" d="M60.5501 48.5L58.4501 50.25V46.75L60.5501 48.5Z" fill="#D1D1D1" fill-opacity="0.7"/>
<path fill-rule="evenodd" clip-rule="evenodd" d="M74.5501 48.5L72.4501 50.25V46.75L74.5501 48.5Z" fill="#D1D1D1" fill-opacity="0.7"/>
<path fill-rule="evenodd" clip-rule="evenodd" d="M88.5501 48.5L86.4501 50.25V46.75L88.5501 48.5Z" fill="#D1D1D1" fill-opacity="0.7"/>
</svg>
