<svg width="121" height="50" viewBox="0 0 121 50" fill="none" xmlns="http://www.w3.org/2000/svg">
<g clip-path="url(#clip0_6064_34193)">
<g filter="url(#filter0_d_6064_34193)">
<rect x="16.5" y="0.5" width="72.9412" height="39.8569" rx="1.96541" fill="white" stroke="#4E6287"/>
<path fill-rule="evenodd" clip-rule="evenodd" d="M23.3934 9.15781C24.7546 9.15781 25.8581 8.05396 25.8581 6.69231C25.8581 5.33065 24.7546 4.22681 23.3934 4.22681C22.0322 4.22681 20.9287 5.33065 20.9287 6.69231C20.9287 8.05396 22.0322 9.15781 23.3934 9.15781Z" fill="#7C8E9C" fill-opacity="0.3" stroke="#4E6287"/>
<path fill-rule="evenodd" clip-rule="evenodd" d="M62.829 9.15781C64.1902 9.15781 65.2937 8.05396 65.2937 6.69231C65.2937 5.33065 64.1902 4.22681 62.829 4.22681C61.4677 4.22681 60.3643 5.33065 60.3643 6.69231C60.3643 8.05396 61.4677 9.15781 62.829 9.15781Z" fill="#7C8E9C"/>
<path fill-rule="evenodd" clip-rule="evenodd" d="M43.1112 9.15781C44.4724 9.15781 45.5759 8.05396 45.5759 6.69231C45.5759 5.33065 44.4724 4.22681 43.1112 4.22681C41.75 4.22681 40.6465 5.33065 40.6465 6.69231C40.6465 8.05396 41.75 9.15781 43.1112 9.15781Z" fill="#7C8E9C"/>
<path fill-rule="evenodd" clip-rule="evenodd" d="M82.5467 9.15781C83.908 9.15781 85.0114 8.05396 85.0114 6.69231C85.0114 5.33065 83.908 4.22681 82.5467 4.22681C81.1855 4.22681 80.082 5.33065 80.082 6.69231C80.082 8.05396 81.1855 9.15781 82.5467 9.15781Z" fill="#7C8E9C"/>
<path fill-rule="evenodd" clip-rule="evenodd" d="M33.2518 9.15781C34.613 9.15781 35.7165 8.05396 35.7165 6.69231C35.7165 5.33065 34.613 4.22681 33.2518 4.22681C31.8906 4.22681 30.7871 5.33065 30.7871 6.69231C30.7871 8.05396 31.8906 9.15781 33.2518 9.15781Z" fill="#7C8E9C"/>
<path fill-rule="evenodd" clip-rule="evenodd" d="M72.6883 9.15781C74.0496 9.15781 75.153 8.05396 75.153 6.69231C75.153 5.33065 74.0496 4.22681 72.6883 4.22681C71.3271 4.22681 70.2236 5.33065 70.2236 6.69231C70.2236 8.05396 71.3271 9.15781 72.6883 9.15781Z" fill="#7C8E9C"/>
<path fill-rule="evenodd" clip-rule="evenodd" d="M52.9696 9.15781C54.3308 9.15781 55.4343 8.05396 55.4343 6.69231C55.4343 5.33065 54.3308 4.22681 52.9696 4.22681C51.6084 4.22681 50.5049 5.33065 50.5049 6.69231C50.5049 8.05396 51.6084 9.15781 52.9696 9.15781Z" fill="#7C8E9C"/>
<path fill-rule="evenodd" clip-rule="evenodd" d="M29.0618 6.69183L27.583 7.92418V5.45947L29.0618 6.69183Z" fill="#D1D1D1" fill-opacity="0.7"/>
<path fill-rule="evenodd" clip-rule="evenodd" d="M38.9202 6.69183L37.4414 7.92418V5.45947L38.9202 6.69183Z" fill="#D1D1D1" fill-opacity="0.7"/>
<path fill-rule="evenodd" clip-rule="evenodd" d="M48.7796 6.69183L47.3008 7.92418V5.45947L48.7796 6.69183Z" fill="#D1D1D1" fill-opacity="0.7"/>
<path fill-rule="evenodd" clip-rule="evenodd" d="M58.64 6.69183L57.1611 7.92418V5.45947L58.64 6.69183Z" fill="#D1D1D1" fill-opacity="0.7"/>
<path fill-rule="evenodd" clip-rule="evenodd" d="M68.4984 6.69183L67.0195 7.92418V5.45947L68.4984 6.69183Z" fill="#D1D1D1" fill-opacity="0.7"/>
<path fill-rule="evenodd" clip-rule="evenodd" d="M78.3577 6.69183L76.8789 7.92418V5.45947L78.3577 6.69183Z" fill="#D1D1D1" fill-opacity="0.7"/>
<path fill-rule="evenodd" clip-rule="evenodd" d="M23.3934 18.3155C24.7546 18.3155 25.8581 17.2117 25.8581 15.85C25.8581 14.4884 24.7546 13.3845 23.3934 13.3845C22.0322 13.3845 20.9287 14.4884 20.9287 15.85C20.9287 17.2117 22.0322 18.3155 23.3934 18.3155Z" fill="#7C8E9C" fill-opacity="0.3" stroke="#4E6287"/>
<path fill-rule="evenodd" clip-rule="evenodd" d="M62.829 18.3155C64.1902 18.3155 65.2937 17.2117 65.2937 15.85C65.2937 14.4884 64.1902 13.3845 62.829 13.3845C61.4677 13.3845 60.3643 14.4884 60.3643 15.85C60.3643 17.2117 61.4677 18.3155 62.829 18.3155Z" fill="#7C8E9C"/>
<path fill-rule="evenodd" clip-rule="evenodd" d="M43.1112 18.3155C44.4724 18.3155 45.5759 17.2117 45.5759 15.85C45.5759 14.4884 44.4724 13.3845 43.1112 13.3845C41.75 13.3845 40.6465 14.4884 40.6465 15.85C40.6465 17.2117 41.75 18.3155 43.1112 18.3155Z" fill="#7C8E9C"/>
<path fill-rule="evenodd" clip-rule="evenodd" d="M82.5467 18.3155C83.908 18.3155 85.0114 17.2117 85.0114 15.85C85.0114 14.4884 83.908 13.3845 82.5467 13.3845C81.1855 13.3845 80.082 14.4884 80.082 15.85C80.082 17.2117 81.1855 18.3155 82.5467 18.3155Z" fill="#7C8E9C"/>
<path fill-rule="evenodd" clip-rule="evenodd" d="M33.2518 18.3155C34.613 18.3155 35.7165 17.2117 35.7165 15.85C35.7165 14.4884 34.613 13.3845 33.2518 13.3845C31.8906 13.3845 30.7871 14.4884 30.7871 15.85C30.7871 17.2117 31.8906 18.3155 33.2518 18.3155Z" fill="#7C8E9C"/>
<path fill-rule="evenodd" clip-rule="evenodd" d="M72.6883 18.3155C74.0496 18.3155 75.153 17.2117 75.153 15.85C75.153 14.4884 74.0496 13.3845 72.6883 13.3845C71.3271 13.3845 70.2236 14.4884 70.2236 15.85C70.2236 17.2117 71.3271 18.3155 72.6883 18.3155Z" fill="#7C8E9C"/>
<path fill-rule="evenodd" clip-rule="evenodd" d="M52.9696 18.3155C54.3308 18.3155 55.4343 17.2117 55.4343 15.85C55.4343 14.4884 54.3308 13.3845 52.9696 13.3845C51.6084 13.3845 50.5049 14.4884 50.5049 15.85C50.5049 17.2117 51.6084 18.3155 52.9696 18.3155Z" fill="#7C8E9C"/>
<path fill-rule="evenodd" clip-rule="evenodd" d="M29.0618 15.8495L27.583 17.0819V14.6172L29.0618 15.8495Z" fill="#D1D1D1" fill-opacity="0.7"/>
<path fill-rule="evenodd" clip-rule="evenodd" d="M38.9202 15.8495L37.4414 17.0819V14.6172L38.9202 15.8495Z" fill="#D1D1D1" fill-opacity="0.7"/>
<path fill-rule="evenodd" clip-rule="evenodd" d="M48.7806 15.8495L47.3018 17.0819V14.6172L48.7806 15.8495Z" fill="#D1D1D1" fill-opacity="0.7"/>
<path fill-rule="evenodd" clip-rule="evenodd" d="M58.64 15.8495L57.1611 17.0819V14.6172L58.64 15.8495Z" fill="#D1D1D1" fill-opacity="0.7"/>
<path fill-rule="evenodd" clip-rule="evenodd" d="M68.4984 15.8495L67.0195 17.0819V14.6172L68.4984 15.8495Z" fill="#D1D1D1" fill-opacity="0.7"/>
<path fill-rule="evenodd" clip-rule="evenodd" d="M78.3577 15.8495L76.8789 17.0819V14.6172L78.3577 15.8495Z" fill="#D1D1D1" fill-opacity="0.7"/>
<path fill-rule="evenodd" clip-rule="evenodd" d="M23.3934 27.4727C24.7546 27.4727 25.8581 26.3689 25.8581 25.0072C25.8581 23.6456 24.7546 22.5417 23.3934 22.5417C22.0322 22.5417 20.9287 23.6456 20.9287 25.0072C20.9287 26.3689 22.0322 27.4727 23.3934 27.4727Z" fill="#7C8E9C" fill-opacity="0.3" stroke="#4E6287"/>
<path fill-rule="evenodd" clip-rule="evenodd" d="M62.829 27.4727C64.1902 27.4727 65.2937 26.3689 65.2937 25.0072C65.2937 23.6456 64.1902 22.5417 62.829 22.5417C61.4677 22.5417 60.3643 23.6456 60.3643 25.0072C60.3643 26.3689 61.4677 27.4727 62.829 27.4727Z" fill="#7C8E9C"/>
<path fill-rule="evenodd" clip-rule="evenodd" d="M43.1112 27.4727C44.4724 27.4727 45.5759 26.3689 45.5759 25.0072C45.5759 23.6456 44.4724 22.5417 43.1112 22.5417C41.75 22.5417 40.6465 23.6456 40.6465 25.0072C40.6465 26.3689 41.75 27.4727 43.1112 27.4727Z" fill="#7C8E9C"/>
<path fill-rule="evenodd" clip-rule="evenodd" d="M82.5467 27.4727C83.908 27.4727 85.0114 26.3689 85.0114 25.0072C85.0114 23.6456 83.908 22.5417 82.5467 22.5417C81.1855 22.5417 80.082 23.6456 80.082 25.0072C80.082 26.3689 81.1855 27.4727 82.5467 27.4727Z" fill="#7C8E9C"/>
<path fill-rule="evenodd" clip-rule="evenodd" d="M33.2518 27.4727C34.613 27.4727 35.7165 26.3689 35.7165 25.0072C35.7165 23.6456 34.613 22.5417 33.2518 22.5417C31.8906 22.5417 30.7871 23.6456 30.7871 25.0072C30.7871 26.3689 31.8906 27.4727 33.2518 27.4727Z" fill="#7C8E9C"/>
<path fill-rule="evenodd" clip-rule="evenodd" d="M72.6883 27.4727C74.0496 27.4727 75.153 26.3689 75.153 25.0072C75.153 23.6456 74.0496 22.5417 72.6883 22.5417C71.3271 22.5417 70.2236 23.6456 70.2236 25.0072C70.2236 26.3689 71.3271 27.4727 72.6883 27.4727Z" fill="#7C8E9C"/>
<path fill-rule="evenodd" clip-rule="evenodd" d="M52.9696 27.4727C54.3308 27.4727 55.4343 26.3689 55.4343 25.0072C55.4343 23.6456 54.3308 22.5417 52.9696 22.5417C51.6084 22.5417 50.5049 23.6456 50.5049 25.0072C50.5049 26.3689 51.6084 27.4727 52.9696 27.4727Z" fill="#7C8E9C"/>
<path fill-rule="evenodd" clip-rule="evenodd" d="M29.0618 25.007L27.583 26.2394V23.7747L29.0618 25.007Z" fill="#D1D1D1" fill-opacity="0.7"/>
<path fill-rule="evenodd" clip-rule="evenodd" d="M38.9202 25.007L37.4414 26.2394V23.7747L38.9202 25.007Z" fill="#D1D1D1" fill-opacity="0.7"/>
<path fill-rule="evenodd" clip-rule="evenodd" d="M48.7796 25.007L47.3008 26.2394V23.7747L48.7796 25.007Z" fill="#D1D1D1" fill-opacity="0.7"/>
<path fill-rule="evenodd" clip-rule="evenodd" d="M58.64 25.007L57.1611 26.2394V23.7747L58.64 25.007Z" fill="#D1D1D1" fill-opacity="0.7"/>
<path fill-rule="evenodd" clip-rule="evenodd" d="M68.4984 25.007L67.0195 26.2394V23.7747L68.4984 25.007Z" fill="#D1D1D1" fill-opacity="0.7"/>
<path fill-rule="evenodd" clip-rule="evenodd" d="M78.3577 25.007L76.8789 26.2394V23.7747L78.3577 25.007Z" fill="#D1D1D1" fill-opacity="0.7"/>
<path fill-rule="evenodd" clip-rule="evenodd" d="M23.3934 36.6305C24.7546 36.6305 25.8581 35.5266 25.8581 34.165C25.8581 32.8033 24.7546 31.6995 23.3934 31.6995C22.0322 31.6995 20.9287 32.8033 20.9287 34.165C20.9287 35.5266 22.0322 36.6305 23.3934 36.6305Z" fill="#7C8E9C" fill-opacity="0.3" stroke="#4E6287"/>
<path fill-rule="evenodd" clip-rule="evenodd" d="M62.829 36.6305C64.1902 36.6305 65.2937 35.5266 65.2937 34.165C65.2937 32.8033 64.1902 31.6995 62.829 31.6995C61.4677 31.6995 60.3643 32.8033 60.3643 34.165C60.3643 35.5266 61.4677 36.6305 62.829 36.6305Z" fill="#7C8E9C"/>
<path fill-rule="evenodd" clip-rule="evenodd" d="M43.1112 36.6305C44.4724 36.6305 45.5759 35.5266 45.5759 34.165C45.5759 32.8033 44.4724 31.6995 43.1112 31.6995C41.75 31.6995 40.6465 32.8033 40.6465 34.165C40.6465 35.5266 41.75 36.6305 43.1112 36.6305Z" fill="#7C8E9C"/>
<path fill-rule="evenodd" clip-rule="evenodd" d="M82.5467 36.6305C83.908 36.6305 85.0114 35.5266 85.0114 34.165C85.0114 32.8033 83.908 31.6995 82.5467 31.6995C81.1855 31.6995 80.082 32.8033 80.082 34.165C80.082 35.5266 81.1855 36.6305 82.5467 36.6305Z" fill="#7C8E9C"/>
<path fill-rule="evenodd" clip-rule="evenodd" d="M33.2518 36.6305C34.613 36.6305 35.7165 35.5266 35.7165 34.165C35.7165 32.8033 34.613 31.6995 33.2518 31.6995C31.8906 31.6995 30.7871 32.8033 30.7871 34.165C30.7871 35.5266 31.8906 36.6305 33.2518 36.6305Z" fill="#7C8E9C"/>
<path fill-rule="evenodd" clip-rule="evenodd" d="M72.6883 36.6305C74.0496 36.6305 75.153 35.5266 75.153 34.165C75.153 32.8033 74.0496 31.6995 72.6883 31.6995C71.3271 31.6995 70.2236 32.8033 70.2236 34.165C70.2236 35.5266 71.3271 36.6305 72.6883 36.6305Z" fill="#7C8E9C"/>
<path fill-rule="evenodd" clip-rule="evenodd" d="M52.9696 36.6305C54.3308 36.6305 55.4343 35.5266 55.4343 34.165C55.4343 32.8033 54.3308 31.6995 52.9696 31.6995C51.6084 31.6995 50.5049 32.8033 50.5049 34.165C50.5049 35.5266 51.6084 36.6305 52.9696 36.6305Z" fill="#7C8E9C"/>
<path fill-rule="evenodd" clip-rule="evenodd" d="M29.0618 34.1645L27.583 35.3968V32.9321L29.0618 34.1645Z" fill="#D1D1D1" fill-opacity="0.7"/>
<path fill-rule="evenodd" clip-rule="evenodd" d="M38.9202 34.1645L37.4414 35.3968V32.9321L38.9202 34.1645Z" fill="#D1D1D1" fill-opacity="0.7"/>
<path fill-rule="evenodd" clip-rule="evenodd" d="M48.7806 34.1645L47.3018 35.3968V32.9321L48.7806 34.1645Z" fill="#D1D1D1" fill-opacity="0.7"/>
<path fill-rule="evenodd" clip-rule="evenodd" d="M58.64 34.1645L57.1611 35.3968V32.9321L58.64 34.1645Z" fill="#D1D1D1" fill-opacity="0.7"/>
<path fill-rule="evenodd" clip-rule="evenodd" d="M68.4984 34.1645L67.0195 35.3968V32.9321L68.4984 34.1645Z" fill="#D1D1D1" fill-opacity="0.7"/>
<path fill-rule="evenodd" clip-rule="evenodd" d="M78.3577 34.1645L76.8789 35.3968V32.9321L78.3577 34.1645Z" fill="#D1D1D1" fill-opacity="0.7"/>
</g>
<g filter="url(#filter1_d_6064_34193)">
<rect x="24.1738" y="5.07178" width="72.9412" height="39.8569" rx="1.96541" fill="white" stroke="#4E6287"/>
<path fill-rule="evenodd" clip-rule="evenodd" d="M31.0672 13.7293C32.4285 13.7293 33.532 12.6255 33.532 11.2638C33.532 9.90218 32.4285 8.79834 31.0672 8.79834C29.706 8.79834 28.6025 9.90218 28.6025 11.2638C28.6025 12.6255 29.706 13.7293 31.0672 13.7293Z" fill="#7C8E9C" fill-opacity="0.3" stroke="#4E6287"/>
<path fill-rule="evenodd" clip-rule="evenodd" d="M70.5018 13.7293C71.863 13.7293 72.9665 12.6255 72.9665 11.2638C72.9665 9.90218 71.863 8.79834 70.5018 8.79834C69.1406 8.79834 68.0371 9.90218 68.0371 11.2638C68.0371 12.6255 69.1406 13.7293 70.5018 13.7293Z" fill="#7C8E9C"/>
<path fill-rule="evenodd" clip-rule="evenodd" d="M50.785 13.7293C52.1462 13.7293 53.2497 12.6255 53.2497 11.2638C53.2497 9.90218 52.1462 8.79834 50.785 8.79834C49.4238 8.79834 48.3203 9.90218 48.3203 11.2638C48.3203 12.6255 49.4238 13.7293 50.785 13.7293Z" fill="#7C8E9C"/>
<path fill-rule="evenodd" clip-rule="evenodd" d="M90.2206 13.7293C91.5818 13.7293 92.6853 12.6255 92.6853 11.2638C92.6853 9.90218 91.5818 8.79834 90.2206 8.79834C88.8593 8.79834 87.7559 9.90218 87.7559 11.2638C87.7559 12.6255 88.8593 13.7293 90.2206 13.7293Z" fill="#7C8E9C"/>
<path fill-rule="evenodd" clip-rule="evenodd" d="M40.9256 13.7293C42.2869 13.7293 43.3904 12.6255 43.3904 11.2638C43.3904 9.90218 42.2869 8.79834 40.9256 8.79834C39.5644 8.79834 38.4609 9.90218 38.4609 11.2638C38.4609 12.6255 39.5644 13.7293 40.9256 13.7293Z" fill="#7C8E9C"/>
<path fill-rule="evenodd" clip-rule="evenodd" d="M80.3622 13.7293C81.7234 13.7293 82.8269 12.6255 82.8269 11.2638C82.8269 9.90218 81.7234 8.79834 80.3622 8.79834C79.0009 8.79834 77.8975 9.90218 77.8975 11.2638C77.8975 12.6255 79.0009 13.7293 80.3622 13.7293Z" fill="#7C8E9C"/>
<path fill-rule="evenodd" clip-rule="evenodd" d="M60.6434 13.7293C62.0046 13.7293 63.1081 12.6255 63.1081 11.2638C63.1081 9.90218 62.0046 8.79834 60.6434 8.79834C59.2822 8.79834 58.1787 9.90218 58.1787 11.2638C58.1787 12.6255 59.2822 13.7293 60.6434 13.7293Z" fill="#7C8E9C"/>
<path fill-rule="evenodd" clip-rule="evenodd" d="M36.7357 11.2636L35.2568 12.496V10.0312L36.7357 11.2636Z" fill="#D1D1D1" fill-opacity="0.7"/>
<path fill-rule="evenodd" clip-rule="evenodd" d="M46.5941 11.2636L45.1152 12.496V10.0312L46.5941 11.2636Z" fill="#D1D1D1" fill-opacity="0.7"/>
<path fill-rule="evenodd" clip-rule="evenodd" d="M56.4534 11.2636L54.9746 12.496V10.0312L56.4534 11.2636Z" fill="#D1D1D1" fill-opacity="0.7"/>
<path fill-rule="evenodd" clip-rule="evenodd" d="M66.3128 11.2636L64.834 12.496V10.0312L66.3128 11.2636Z" fill="#D1D1D1" fill-opacity="0.7"/>
<path fill-rule="evenodd" clip-rule="evenodd" d="M76.1722 11.2636L74.6934 12.496V10.0312L76.1722 11.2636Z" fill="#D1D1D1" fill-opacity="0.7"/>
<path fill-rule="evenodd" clip-rule="evenodd" d="M86.0316 11.2636L84.5527 12.496V10.0312L86.0316 11.2636Z" fill="#D1D1D1" fill-opacity="0.7"/>
<path fill-rule="evenodd" clip-rule="evenodd" d="M31.0672 22.8871C32.4285 22.8871 33.532 21.7832 33.532 20.4216C33.532 19.0599 32.4285 17.9561 31.0672 17.9561C29.706 17.9561 28.6025 19.0599 28.6025 20.4216C28.6025 21.7832 29.706 22.8871 31.0672 22.8871Z" fill="#7C8E9C" fill-opacity="0.3" stroke="#4E6287"/>
<path fill-rule="evenodd" clip-rule="evenodd" d="M70.5018 22.8871C71.863 22.8871 72.9665 21.7832 72.9665 20.4216C72.9665 19.0599 71.863 17.9561 70.5018 17.9561C69.1406 17.9561 68.0371 19.0599 68.0371 20.4216C68.0371 21.7832 69.1406 22.8871 70.5018 22.8871Z" fill="#7C8E9C"/>
<path fill-rule="evenodd" clip-rule="evenodd" d="M50.785 22.8871C52.1462 22.8871 53.2497 21.7832 53.2497 20.4216C53.2497 19.0599 52.1462 17.9561 50.785 17.9561C49.4238 17.9561 48.3203 19.0599 48.3203 20.4216C48.3203 21.7832 49.4238 22.8871 50.785 22.8871Z" fill="#7C8E9C"/>
<path fill-rule="evenodd" clip-rule="evenodd" d="M90.2206 22.8871C91.5818 22.8871 92.6853 21.7832 92.6853 20.4216C92.6853 19.0599 91.5818 17.9561 90.2206 17.9561C88.8593 17.9561 87.7559 19.0599 87.7559 20.4216C87.7559 21.7832 88.8593 22.8871 90.2206 22.8871Z" fill="#7C8E9C"/>
<path fill-rule="evenodd" clip-rule="evenodd" d="M40.9256 22.8871C42.2869 22.8871 43.3904 21.7832 43.3904 20.4216C43.3904 19.0599 42.2869 17.9561 40.9256 17.9561C39.5644 17.9561 38.4609 19.0599 38.4609 20.4216C38.4609 21.7832 39.5644 22.8871 40.9256 22.8871Z" fill="#7C8E9C"/>
<path fill-rule="evenodd" clip-rule="evenodd" d="M80.3622 22.8871C81.7234 22.8871 82.8269 21.7832 82.8269 20.4216C82.8269 19.0599 81.7234 17.9561 80.3622 17.9561C79.0009 17.9561 77.8975 19.0599 77.8975 20.4216C77.8975 21.7832 79.0009 22.8871 80.3622 22.8871Z" fill="#7C8E9C"/>
<path fill-rule="evenodd" clip-rule="evenodd" d="M60.6434 22.8871C62.0046 22.8871 63.1081 21.7832 63.1081 20.4216C63.1081 19.0599 62.0046 17.9561 60.6434 17.9561C59.2822 17.9561 58.1787 19.0599 58.1787 20.4216C58.1787 21.7832 59.2822 22.8871 60.6434 22.8871Z" fill="#7C8E9C"/>
<path fill-rule="evenodd" clip-rule="evenodd" d="M36.7357 20.4211L35.2568 21.6534V19.1887L36.7357 20.4211Z" fill="#D1D1D1" fill-opacity="0.7"/>
<path fill-rule="evenodd" clip-rule="evenodd" d="M46.595 20.4211L45.1162 21.6534V19.1887L46.595 20.4211Z" fill="#D1D1D1" fill-opacity="0.7"/>
<path fill-rule="evenodd" clip-rule="evenodd" d="M56.4544 20.4211L54.9756 21.6534V19.1887L56.4544 20.4211Z" fill="#D1D1D1" fill-opacity="0.7"/>
<path fill-rule="evenodd" clip-rule="evenodd" d="M66.3128 20.4211L64.834 21.6534V19.1887L66.3128 20.4211Z" fill="#D1D1D1" fill-opacity="0.7"/>
<path fill-rule="evenodd" clip-rule="evenodd" d="M76.1722 20.4211L74.6934 21.6534V19.1887L76.1722 20.4211Z" fill="#D1D1D1" fill-opacity="0.7"/>
<path fill-rule="evenodd" clip-rule="evenodd" d="M86.0316 20.4211L84.5527 21.6534V19.1887L86.0316 20.4211Z" fill="#D1D1D1" fill-opacity="0.7"/>
<path fill-rule="evenodd" clip-rule="evenodd" d="M31.0672 32.0443C32.4285 32.0443 33.532 30.9404 33.532 29.5788C33.532 28.2171 32.4285 27.1133 31.0672 27.1133C29.706 27.1133 28.6025 28.2171 28.6025 29.5788C28.6025 30.9404 29.706 32.0443 31.0672 32.0443Z" fill="#7C8E9C" fill-opacity="0.3" stroke="#4E6287"/>
<path fill-rule="evenodd" clip-rule="evenodd" d="M70.5018 32.0443C71.863 32.0443 72.9665 30.9404 72.9665 29.5788C72.9665 28.2171 71.863 27.1133 70.5018 27.1133C69.1406 27.1133 68.0371 28.2171 68.0371 29.5788C68.0371 30.9404 69.1406 32.0443 70.5018 32.0443Z" fill="#7C8E9C"/>
<path fill-rule="evenodd" clip-rule="evenodd" d="M50.785 32.0443C52.1462 32.0443 53.2497 30.9404 53.2497 29.5788C53.2497 28.2171 52.1462 27.1133 50.785 27.1133C49.4238 27.1133 48.3203 28.2171 48.3203 29.5788C48.3203 30.9404 49.4238 32.0443 50.785 32.0443Z" fill="#7C8E9C"/>
<path fill-rule="evenodd" clip-rule="evenodd" d="M90.2206 32.0443C91.5818 32.0443 92.6853 30.9404 92.6853 29.5788C92.6853 28.2171 91.5818 27.1133 90.2206 27.1133C88.8593 27.1133 87.7559 28.2171 87.7559 29.5788C87.7559 30.9404 88.8593 32.0443 90.2206 32.0443Z" fill="#7C8E9C"/>
<path fill-rule="evenodd" clip-rule="evenodd" d="M40.9256 32.0443C42.2869 32.0443 43.3904 30.9404 43.3904 29.5788C43.3904 28.2171 42.2869 27.1133 40.9256 27.1133C39.5644 27.1133 38.4609 28.2171 38.4609 29.5788C38.4609 30.9404 39.5644 32.0443 40.9256 32.0443Z" fill="#7C8E9C"/>
<path fill-rule="evenodd" clip-rule="evenodd" d="M80.3622 32.0443C81.7234 32.0443 82.8269 30.9404 82.8269 29.5788C82.8269 28.2171 81.7234 27.1133 80.3622 27.1133C79.0009 27.1133 77.8975 28.2171 77.8975 29.5788C77.8975 30.9404 79.0009 32.0443 80.3622 32.0443Z" fill="#7C8E9C"/>
<path fill-rule="evenodd" clip-rule="evenodd" d="M60.6434 32.0443C62.0046 32.0443 63.1081 30.9404 63.1081 29.5788C63.1081 28.2171 62.0046 27.1133 60.6434 27.1133C59.2822 27.1133 58.1787 28.2171 58.1787 29.5788C58.1787 30.9404 59.2822 32.0443 60.6434 32.0443Z" fill="#7C8E9C"/>
<path fill-rule="evenodd" clip-rule="evenodd" d="M36.7357 29.5785L35.2568 30.8109V28.3462L36.7357 29.5785Z" fill="#D1D1D1" fill-opacity="0.7"/>
<path fill-rule="evenodd" clip-rule="evenodd" d="M46.5941 29.5785L45.1152 30.8109V28.3462L46.5941 29.5785Z" fill="#D1D1D1" fill-opacity="0.7"/>
<path fill-rule="evenodd" clip-rule="evenodd" d="M56.4534 29.5785L54.9746 30.8109V28.3462L56.4534 29.5785Z" fill="#D1D1D1" fill-opacity="0.7"/>
<path fill-rule="evenodd" clip-rule="evenodd" d="M66.3128 29.5785L64.834 30.8109V28.3462L66.3128 29.5785Z" fill="#D1D1D1" fill-opacity="0.7"/>
<path fill-rule="evenodd" clip-rule="evenodd" d="M76.1722 29.5785L74.6934 30.8109V28.3462L76.1722 29.5785Z" fill="#D1D1D1" fill-opacity="0.7"/>
<path fill-rule="evenodd" clip-rule="evenodd" d="M86.0316 29.5785L84.5527 30.8109V28.3462L86.0316 29.5785Z" fill="#D1D1D1" fill-opacity="0.7"/>
<path fill-rule="evenodd" clip-rule="evenodd" d="M31.0672 41.2022C32.4285 41.2022 33.532 40.0984 33.532 38.7367C33.532 37.3751 32.4285 36.2712 31.0672 36.2712C29.706 36.2712 28.6025 37.3751 28.6025 38.7367C28.6025 40.0984 29.706 41.2022 31.0672 41.2022Z" fill="#7C8E9C" fill-opacity="0.3" stroke="#4E6287"/>
<path fill-rule="evenodd" clip-rule="evenodd" d="M70.5018 41.2022C71.863 41.2022 72.9665 40.0984 72.9665 38.7367C72.9665 37.3751 71.863 36.2712 70.5018 36.2712C69.1406 36.2712 68.0371 37.3751 68.0371 38.7367C68.0371 40.0984 69.1406 41.2022 70.5018 41.2022Z" fill="#7C8E9C"/>
<path fill-rule="evenodd" clip-rule="evenodd" d="M50.785 41.2022C52.1462 41.2022 53.2497 40.0984 53.2497 38.7367C53.2497 37.3751 52.1462 36.2712 50.785 36.2712C49.4238 36.2712 48.3203 37.3751 48.3203 38.7367C48.3203 40.0984 49.4238 41.2022 50.785 41.2022Z" fill="#7C8E9C"/>
<path fill-rule="evenodd" clip-rule="evenodd" d="M90.2206 41.2022C91.5818 41.2022 92.6853 40.0984 92.6853 38.7367C92.6853 37.3751 91.5818 36.2712 90.2206 36.2712C88.8593 36.2712 87.7559 37.3751 87.7559 38.7367C87.7559 40.0984 88.8593 41.2022 90.2206 41.2022Z" fill="#7C8E9C"/>
<path fill-rule="evenodd" clip-rule="evenodd" d="M40.9256 41.2022C42.2869 41.2022 43.3904 40.0984 43.3904 38.7367C43.3904 37.3751 42.2869 36.2712 40.9256 36.2712C39.5644 36.2712 38.4609 37.3751 38.4609 38.7367C38.4609 40.0984 39.5644 41.2022 40.9256 41.2022Z" fill="#7C8E9C"/>
<path fill-rule="evenodd" clip-rule="evenodd" d="M80.3622 41.2022C81.7234 41.2022 82.8269 40.0984 82.8269 38.7367C82.8269 37.3751 81.7234 36.2712 80.3622 36.2712C79.0009 36.2712 77.8975 37.3751 77.8975 38.7367C77.8975 40.0984 79.0009 41.2022 80.3622 41.2022Z" fill="#7C8E9C"/>
<path fill-rule="evenodd" clip-rule="evenodd" d="M60.6434 41.2022C62.0046 41.2022 63.1081 40.0984 63.1081 38.7367C63.1081 37.3751 62.0046 36.2712 60.6434 36.2712C59.2822 36.2712 58.1787 37.3751 58.1787 38.7367C58.1787 40.0984 59.2822 41.2022 60.6434 41.2022Z" fill="#7C8E9C"/>
<path fill-rule="evenodd" clip-rule="evenodd" d="M36.7357 38.7363L35.2568 39.9686V37.5039L36.7357 38.7363Z" fill="#D1D1D1" fill-opacity="0.7"/>
<path fill-rule="evenodd" clip-rule="evenodd" d="M46.595 38.7363L45.1162 39.9686V37.5039L46.595 38.7363Z" fill="#D1D1D1" fill-opacity="0.7"/>
<path fill-rule="evenodd" clip-rule="evenodd" d="M56.4544 38.7363L54.9756 39.9686V37.5039L56.4544 38.7363Z" fill="#D1D1D1" fill-opacity="0.7"/>
<path fill-rule="evenodd" clip-rule="evenodd" d="M66.3128 38.7363L64.834 39.9686V37.5039L66.3128 38.7363Z" fill="#D1D1D1" fill-opacity="0.7"/>
<path fill-rule="evenodd" clip-rule="evenodd" d="M76.1722 38.7363L74.6934 39.9686V37.5039L76.1722 38.7363Z" fill="#D1D1D1" fill-opacity="0.7"/>
<path fill-rule="evenodd" clip-rule="evenodd" d="M86.0316 38.7363L84.5527 39.9686V37.5039L86.0316 38.7363Z" fill="#D1D1D1" fill-opacity="0.7"/>
</g>
<g filter="url(#filter2_d_6064_34193)">
<rect x="31.8496" y="9.64307" width="72.9412" height="39.8569" rx="1.96541" fill="white" stroke="#4E6287"/>
<path fill-rule="evenodd" clip-rule="evenodd" d="M38.744 18.3006C40.1052 18.3006 41.2087 17.1968 41.2087 15.8351C41.2087 14.4735 40.1052 13.3696 38.744 13.3696C37.3828 13.3696 36.2793 14.4735 36.2793 15.8351C36.2793 17.1968 37.3828 18.3006 38.744 18.3006Z" fill="#7C8E9C" fill-opacity="0.3" stroke="#4E6287"/>
<path fill-rule="evenodd" clip-rule="evenodd" d="M78.1786 18.3006C79.5398 18.3006 80.6433 17.1968 80.6433 15.8351C80.6433 14.4735 79.5398 13.3696 78.1786 13.3696C76.8174 13.3696 75.7139 14.4735 75.7139 15.8351C75.7139 17.1968 76.8174 18.3006 78.1786 18.3006Z" fill="#7C8E9C" fill-opacity="0.3" stroke="#4E6287"/>
<path fill-rule="evenodd" clip-rule="evenodd" d="M58.4608 18.3006C59.822 18.3006 60.9255 17.1968 60.9255 15.8351C60.9255 14.4735 59.822 13.3696 58.4608 13.3696C57.0996 13.3696 55.9961 14.4735 55.9961 15.8351C55.9961 17.1968 57.0996 18.3006 58.4608 18.3006Z" fill="#7C8E9C" fill-opacity="0.3" stroke="#4E6287"/>
<path fill-rule="evenodd" clip-rule="evenodd" d="M97.8973 18.3006C99.2585 18.3006 100.362 17.1968 100.362 15.8351C100.362 14.4735 99.2585 13.3696 97.8973 13.3696C96.5361 13.3696 95.4326 14.4735 95.4326 15.8351C95.4326 17.1968 96.5361 18.3006 97.8973 18.3006Z" fill="#7C8E9C" fill-opacity="0.3" stroke="#4E6287"/>
<path fill-rule="evenodd" clip-rule="evenodd" d="M48.6024 18.3006C49.9636 18.3006 51.0671 17.1968 51.0671 15.8351C51.0671 14.4735 49.9636 13.3696 48.6024 13.3696C47.2412 13.3696 46.1377 14.4735 46.1377 15.8351C46.1377 17.1968 47.2412 18.3006 48.6024 18.3006Z" fill="#7C8E9C" fill-opacity="0.3" stroke="#4E6287"/>
<path fill-rule="evenodd" clip-rule="evenodd" d="M88.0379 18.3006C89.3992 18.3006 90.5027 17.1968 90.5027 15.8351C90.5027 14.4735 89.3992 13.3696 88.0379 13.3696C86.6767 13.3696 85.5732 14.4735 85.5732 15.8351C85.5732 17.1968 86.6767 18.3006 88.0379 18.3006Z" fill="#7C8E9C" fill-opacity="0.3" stroke="#4E6287"/>
<path fill-rule="evenodd" clip-rule="evenodd" d="M68.3202 18.3006C69.6814 18.3006 70.7849 17.1968 70.7849 15.8351C70.7849 14.4735 69.6814 13.3696 68.3202 13.3696C66.959 13.3696 65.8555 14.4735 65.8555 15.8351C65.8555 17.1968 66.959 18.3006 68.3202 18.3006Z" fill="#7C8E9C" fill-opacity="0.3" stroke="#4E6287"/>
<path fill-rule="evenodd" clip-rule="evenodd" d="M44.4124 15.8346L42.9336 17.067V14.6023L44.4124 15.8346Z" fill="#D1D1D1" fill-opacity="0.7"/>
<path fill-rule="evenodd" clip-rule="evenodd" d="M54.2708 15.8346L52.792 17.067V14.6023L54.2708 15.8346Z" fill="#D1D1D1" fill-opacity="0.7"/>
<path fill-rule="evenodd" clip-rule="evenodd" d="M64.1292 15.8346L62.6504 17.067V14.6023L64.1292 15.8346Z" fill="#D1D1D1" fill-opacity="0.7"/>
<path fill-rule="evenodd" clip-rule="evenodd" d="M73.9896 15.8346L72.5107 17.067V14.6023L73.9896 15.8346Z" fill="#D1D1D1" fill-opacity="0.7"/>
<path fill-rule="evenodd" clip-rule="evenodd" d="M83.8489 15.8346L82.3701 17.067V14.6023L83.8489 15.8346Z" fill="#D1D1D1" fill-opacity="0.7"/>
<path fill-rule="evenodd" clip-rule="evenodd" d="M93.7083 15.8346L92.2295 17.067V14.6023L93.7083 15.8346Z" fill="#D1D1D1" fill-opacity="0.7"/>
<path fill-rule="evenodd" clip-rule="evenodd" d="M38.744 27.4579C40.1052 27.4579 41.2087 26.354 41.2087 24.9924C41.2087 23.6307 40.1052 22.5269 38.744 22.5269C37.3828 22.5269 36.2793 23.6307 36.2793 24.9924C36.2793 26.354 37.3828 27.4579 38.744 27.4579Z" fill="#7C8E9C" fill-opacity="0.3" stroke="#4E6287"/>
<path fill-rule="evenodd" clip-rule="evenodd" d="M78.1786 27.4579C79.5398 27.4579 80.6433 26.354 80.6433 24.9924C80.6433 23.6307 79.5398 22.5269 78.1786 22.5269C76.8174 22.5269 75.7139 23.6307 75.7139 24.9924C75.7139 26.354 76.8174 27.4579 78.1786 27.4579Z" fill="#7C8E9C" fill-opacity="0.3" stroke="#4E6287"/>
<path fill-rule="evenodd" clip-rule="evenodd" d="M58.4608 27.4579C59.822 27.4579 60.9255 26.354 60.9255 24.9924C60.9255 23.6307 59.822 22.5269 58.4608 22.5269C57.0996 22.5269 55.9961 23.6307 55.9961 24.9924C55.9961 26.354 57.0996 27.4579 58.4608 27.4579Z" fill="#7C8E9C" fill-opacity="0.3" stroke="#4E6287"/>
<path fill-rule="evenodd" clip-rule="evenodd" d="M97.8973 27.4579C99.2585 27.4579 100.362 26.354 100.362 24.9924C100.362 23.6307 99.2585 22.5269 97.8973 22.5269C96.5361 22.5269 95.4326 23.6307 95.4326 24.9924C95.4326 26.354 96.5361 27.4579 97.8973 27.4579Z" fill="#7C8E9C" fill-opacity="0.3" stroke="#4E6287"/>
<path fill-rule="evenodd" clip-rule="evenodd" d="M48.6024 27.4579C49.9636 27.4579 51.0671 26.354 51.0671 24.9924C51.0671 23.6307 49.9636 22.5269 48.6024 22.5269C47.2412 22.5269 46.1377 23.6307 46.1377 24.9924C46.1377 26.354 47.2412 27.4579 48.6024 27.4579Z" fill="#7C8E9C" fill-opacity="0.3" stroke="#4E6287"/>
<path fill-rule="evenodd" clip-rule="evenodd" d="M88.0379 27.4579C89.3992 27.4579 90.5027 26.354 90.5027 24.9924C90.5027 23.6307 89.3992 22.5269 88.0379 22.5269C86.6767 22.5269 85.5732 23.6307 85.5732 24.9924C85.5732 26.354 86.6767 27.4579 88.0379 27.4579Z" fill="#7C8E9C" fill-opacity="0.3" stroke="#4E6287"/>
<path fill-rule="evenodd" clip-rule="evenodd" d="M68.3202 27.4579C69.6814 27.4579 70.7849 26.354 70.7849 24.9924C70.7849 23.6307 69.6814 22.5269 68.3202 22.5269C66.959 22.5269 65.8555 23.6307 65.8555 24.9924C65.8555 26.354 66.959 27.4579 68.3202 27.4579Z" fill="#7C8E9C" fill-opacity="0.3" stroke="#4E6287"/>
<path fill-rule="evenodd" clip-rule="evenodd" d="M44.4124 24.9921L42.9336 26.2245V23.7598L44.4124 24.9921Z" fill="#D1D1D1" fill-opacity="0.7"/>
<path fill-rule="evenodd" clip-rule="evenodd" d="M54.2708 24.9921L52.792 26.2245V23.7598L54.2708 24.9921Z" fill="#D1D1D1" fill-opacity="0.7"/>
<path fill-rule="evenodd" clip-rule="evenodd" d="M64.1292 24.9921L62.6504 26.2245V23.7598L64.1292 24.9921Z" fill="#D1D1D1" fill-opacity="0.7"/>
<path fill-rule="evenodd" clip-rule="evenodd" d="M73.9896 24.9921L72.5107 26.2245V23.7598L73.9896 24.9921Z" fill="#D1D1D1" fill-opacity="0.7"/>
<path fill-rule="evenodd" clip-rule="evenodd" d="M83.8489 24.9921L82.3701 26.2245V23.7598L83.8489 24.9921Z" fill="#D1D1D1" fill-opacity="0.7"/>
<path fill-rule="evenodd" clip-rule="evenodd" d="M93.7083 24.9921L92.2295 26.2245V23.7598L93.7083 24.9921Z" fill="#D1D1D1" fill-opacity="0.7"/>
<path fill-rule="evenodd" clip-rule="evenodd" d="M38.744 36.6153C40.1052 36.6153 41.2087 35.5115 41.2087 34.1498C41.2087 32.7882 40.1052 31.6843 38.744 31.6843C37.3828 31.6843 36.2793 32.7882 36.2793 34.1498C36.2793 35.5115 37.3828 36.6153 38.744 36.6153Z" fill="#7C8E9C" fill-opacity="0.3" stroke="#4E6287"/>
<path fill-rule="evenodd" clip-rule="evenodd" d="M78.1786 36.6153C79.5398 36.6153 80.6433 35.5115 80.6433 34.1498C80.6433 32.7882 79.5398 31.6843 78.1786 31.6843C76.8174 31.6843 75.7139 32.7882 75.7139 34.1498C75.7139 35.5115 76.8174 36.6153 78.1786 36.6153Z" fill="#7C8E9C" fill-opacity="0.3" stroke="#4E6287"/>
<path fill-rule="evenodd" clip-rule="evenodd" d="M58.4608 36.6153C59.822 36.6153 60.9255 35.5115 60.9255 34.1498C60.9255 32.7882 59.822 31.6843 58.4608 31.6843C57.0996 31.6843 55.9961 32.7882 55.9961 34.1498C55.9961 35.5115 57.0996 36.6153 58.4608 36.6153Z" fill="#7C8E9C" fill-opacity="0.3" stroke="#4E6287"/>
<path fill-rule="evenodd" clip-rule="evenodd" d="M97.8973 36.6153C99.2585 36.6153 100.362 35.5115 100.362 34.1498C100.362 32.7882 99.2585 31.6843 97.8973 31.6843C96.5361 31.6843 95.4326 32.7882 95.4326 34.1498C95.4326 35.5115 96.5361 36.6153 97.8973 36.6153Z" fill="#7C8E9C" fill-opacity="0.3" stroke="#4E6287"/>
<path fill-rule="evenodd" clip-rule="evenodd" d="M48.6024 36.6153C49.9636 36.6153 51.0671 35.5115 51.0671 34.1498C51.0671 32.7882 49.9636 31.6843 48.6024 31.6843C47.2412 31.6843 46.1377 32.7882 46.1377 34.1498C46.1377 35.5115 47.2412 36.6153 48.6024 36.6153Z" fill="#7C8E9C" fill-opacity="0.3" stroke="#4E6287"/>
<path fill-rule="evenodd" clip-rule="evenodd" d="M88.0379 36.6153C89.3992 36.6153 90.5027 35.5115 90.5027 34.1498C90.5027 32.7882 89.3992 31.6843 88.0379 31.6843C86.6767 31.6843 85.5732 32.7882 85.5732 34.1498C85.5732 35.5115 86.6767 36.6153 88.0379 36.6153Z" fill="#7C8E9C" fill-opacity="0.3" stroke="#4E6287"/>
<path fill-rule="evenodd" clip-rule="evenodd" d="M68.3202 36.6153C69.6814 36.6153 70.7849 35.5115 70.7849 34.1498C70.7849 32.7882 69.6814 31.6843 68.3202 31.6843C66.959 31.6843 65.8555 32.7882 65.8555 34.1498C65.8555 35.5115 66.959 36.6153 68.3202 36.6153Z" fill="#7C8E9C" fill-opacity="0.3" stroke="#4E6287"/>
<path fill-rule="evenodd" clip-rule="evenodd" d="M44.4124 34.1493L42.9336 35.3817V32.917L44.4124 34.1493Z" fill="#D1D1D1" fill-opacity="0.7"/>
<path fill-rule="evenodd" clip-rule="evenodd" d="M54.2708 34.1493L52.792 35.3817V32.917L54.2708 34.1493Z" fill="#D1D1D1" fill-opacity="0.7"/>
<path fill-rule="evenodd" clip-rule="evenodd" d="M64.1292 34.1493L62.6504 35.3817V32.917L64.1292 34.1493Z" fill="#D1D1D1" fill-opacity="0.7"/>
<path fill-rule="evenodd" clip-rule="evenodd" d="M73.9896 34.1493L72.5107 35.3817V32.917L73.9896 34.1493Z" fill="#D1D1D1" fill-opacity="0.7"/>
<path fill-rule="evenodd" clip-rule="evenodd" d="M83.8489 34.1493L82.3701 35.3817V32.917L83.8489 34.1493Z" fill="#D1D1D1" fill-opacity="0.7"/>
<path fill-rule="evenodd" clip-rule="evenodd" d="M93.7083 34.1493L92.2295 35.3817V32.917L93.7083 34.1493Z" fill="#D1D1D1" fill-opacity="0.7"/>
<path fill-rule="evenodd" clip-rule="evenodd" d="M38.744 45.7733C40.1052 45.7733 41.2087 44.6694 41.2087 43.3078C41.2087 41.9461 40.1052 40.8423 38.744 40.8423C37.3828 40.8423 36.2793 41.9461 36.2793 43.3078C36.2793 44.6694 37.3828 45.7733 38.744 45.7733Z" stroke="#7C8E9C" stroke-dasharray="1 1"/>
<path fill-rule="evenodd" clip-rule="evenodd" d="M78.1786 45.7733C79.5398 45.7733 80.6433 44.6694 80.6433 43.3078C80.6433 41.9461 79.5398 40.8423 78.1786 40.8423C76.8174 40.8423 75.7139 41.9461 75.7139 43.3078C75.7139 44.6694 76.8174 45.7733 78.1786 45.7733Z" stroke="#7C8E9C" stroke-dasharray="1 1"/>
<path fill-rule="evenodd" clip-rule="evenodd" d="M58.4608 45.7733C59.822 45.7733 60.9255 44.6694 60.9255 43.3078C60.9255 41.9461 59.822 40.8423 58.4608 40.8423C57.0996 40.8423 55.9961 41.9461 55.9961 43.3078C55.9961 44.6694 57.0996 45.7733 58.4608 45.7733Z" stroke="#7C8E9C" stroke-dasharray="1 1"/>
<path fill-rule="evenodd" clip-rule="evenodd" d="M97.8973 45.7733C99.2585 45.7733 100.362 44.6694 100.362 43.3078C100.362 41.9461 99.2585 40.8423 97.8973 40.8423C96.5361 40.8423 95.4326 41.9461 95.4326 43.3078C95.4326 44.6694 96.5361 45.7733 97.8973 45.7733Z" stroke="#7C8E9C" stroke-dasharray="1 1"/>
<path fill-rule="evenodd" clip-rule="evenodd" d="M48.6024 45.7733C49.9636 45.7733 51.0671 44.6694 51.0671 43.3078C51.0671 41.9461 49.9636 40.8423 48.6024 40.8423C47.2412 40.8423 46.1377 41.9461 46.1377 43.3078C46.1377 44.6694 47.2412 45.7733 48.6024 45.7733Z" stroke="#7C8E9C" stroke-dasharray="1 1"/>
<path fill-rule="evenodd" clip-rule="evenodd" d="M88.0379 45.7733C89.3992 45.7733 90.5027 44.6694 90.5027 43.3078C90.5027 41.9461 89.3992 40.8423 88.0379 40.8423C86.6767 40.8423 85.5732 41.9461 85.5732 43.3078C85.5732 44.6694 86.6767 45.7733 88.0379 45.7733Z" stroke="#7C8E9C" stroke-dasharray="1 1"/>
<path fill-rule="evenodd" clip-rule="evenodd" d="M68.3202 45.7733C69.6814 45.7733 70.7849 44.6694 70.7849 43.3078C70.7849 41.9461 69.6814 40.8423 68.3202 40.8423C66.959 40.8423 65.8555 41.9461 65.8555 43.3078C65.8555 44.6694 66.959 45.7733 68.3202 45.7733Z" stroke="#7C8E9C" stroke-dasharray="1 1"/>
<path fill-rule="evenodd" clip-rule="evenodd" d="M44.4124 43.3075L42.9336 44.5399V42.0752L44.4124 43.3075Z" fill="#D1D1D1" fill-opacity="0.7"/>
<path fill-rule="evenodd" clip-rule="evenodd" d="M54.2708 43.3075L52.792 44.5399V42.0752L54.2708 43.3075Z" fill="#D1D1D1" fill-opacity="0.7"/>
<path fill-rule="evenodd" clip-rule="evenodd" d="M64.1292 43.3075L62.6504 44.5399V42.0752L64.1292 43.3075Z" fill="#D1D1D1" fill-opacity="0.7"/>
<path fill-rule="evenodd" clip-rule="evenodd" d="M73.9896 43.3075L72.5107 44.5399V42.0752L73.9896 43.3075Z" fill="#D1D1D1" fill-opacity="0.7"/>
<path fill-rule="evenodd" clip-rule="evenodd" d="M83.8489 43.3075L82.3701 44.5399V42.0752L83.8489 43.3075Z" fill="#D1D1D1" fill-opacity="0.7"/>
<path fill-rule="evenodd" clip-rule="evenodd" d="M93.7083 43.3075L92.2295 44.5399V42.0752L93.7083 43.3075Z" fill="#D1D1D1" fill-opacity="0.7"/>
</g>
</g>
<defs>
<filter id="filter0_d_6064_34193" x="14.7673" y="-1.2327" width="76.4068" height="43.3223" filterUnits="userSpaceOnUse" color-interpolation-filters="sRGB">
<feFlood flood-opacity="0" result="BackgroundImageFix"/>
<feColorMatrix in="SourceAlpha" type="matrix" values="0 0 0 0 0 0 0 0 0 0 0 0 0 0 0 0 0 0 127 0" result="hardAlpha"/>
<feOffset/>
<feGaussianBlur stdDeviation="0.616352"/>
<feComposite in2="hardAlpha" operator="out"/>
<feColorMatrix type="matrix" values="0 0 0 0 0 0 0 0 0 0 0 0 0 0 0 0 0 0 0.2 0"/>
<feBlend mode="normal" in2="BackgroundImageFix" result="effect1_dropShadow_6064_34193"/>
<feBlend mode="normal" in="SourceGraphic" in2="effect1_dropShadow_6064_34193" result="shape"/>
</filter>
<filter id="filter1_d_6064_34193" x="22.4411" y="3.33907" width="76.4068" height="43.3223" filterUnits="userSpaceOnUse" color-interpolation-filters="sRGB">
<feFlood flood-opacity="0" result="BackgroundImageFix"/>
<feColorMatrix in="SourceAlpha" type="matrix" values="0 0 0 0 0 0 0 0 0 0 0 0 0 0 0 0 0 0 127 0" result="hardAlpha"/>
<feOffset/>
<feGaussianBlur stdDeviation="0.616352"/>
<feComposite in2="hardAlpha" operator="out"/>
<feColorMatrix type="matrix" values="0 0 0 0 0 0 0 0 0 0 0 0 0 0 0 0 0 0 0.2 0"/>
<feBlend mode="normal" in2="BackgroundImageFix" result="effect1_dropShadow_6064_34193"/>
<feBlend mode="normal" in="SourceGraphic" in2="effect1_dropShadow_6064_34193" result="shape"/>
</filter>
<filter id="filter2_d_6064_34193" x="30.1169" y="7.91036" width="76.4068" height="43.3223" filterUnits="userSpaceOnUse" color-interpolation-filters="sRGB">
<feFlood flood-opacity="0" result="BackgroundImageFix"/>
<feColorMatrix in="SourceAlpha" type="matrix" values="0 0 0 0 0 0 0 0 0 0 0 0 0 0 0 0 0 0 127 0" result="hardAlpha"/>
<feOffset/>
<feGaussianBlur stdDeviation="0.616352"/>
<feComposite in2="hardAlpha" operator="out"/>
<feColorMatrix type="matrix" values="0 0 0 0 0 0 0 0 0 0 0 0 0 0 0 0 0 0 0.2 0"/>
<feBlend mode="normal" in2="BackgroundImageFix" result="effect1_dropShadow_6064_34193"/>
<feBlend mode="normal" in="SourceGraphic" in2="effect1_dropShadow_6064_34193" result="shape"/>
</filter>
<clipPath id="clip0_6064_34193">
<rect width="121" height="50" fill="white"/>
</clipPath>
</defs>
</svg>
