<svg width="116" height="25" viewBox="0 0 116 25" fill="none" xmlns="http://www.w3.org/2000/svg">
<circle cx="4.79405" cy="9.89196" r="4.41051" fill="#4E6287"/>
<rect x="2.68457" y="5.48145" width="2.30113" height="2.30114" fill="#4E6287"/>
<path d="M0 5.48193H2.68466V17.0854C2.68466 18.5681 1.4827 19.7701 0 19.7701V5.48193Z" fill="url(#paint0_linear)"/>
<path d="M0 5.48193H2.68466V17.0854C2.68466 18.5681 1.4827 19.7701 0 19.7701V5.48193Z" fill="#E56A45"/>
<path d="M11.8943 10.1769H14.7427V20H11.8943V10.1769ZM13.3185 8.80753C12.7951 8.80753 12.369 8.65537 12.0404 8.35107C11.7117 8.04676 11.5474 7.66941 11.5474 7.21904C11.5474 6.76866 11.7117 6.39132 12.0404 6.08701C12.369 5.7827 12.7951 5.63055 13.3185 5.63055C13.8419 5.63055 14.2679 5.77661 14.5966 6.06875C14.9252 6.36089 15.0896 6.72606 15.0896 7.16426C15.0896 7.63898 14.9252 8.03459 14.5966 8.35107C14.2679 8.65537 13.8419 8.80753 13.3185 8.80753ZM17.3861 6.45218H20.2345V20H17.3861V6.45218ZM22.878 6.45218H25.7263V20H22.878V6.45218ZM28.3698 6.45218H31.2181V20H28.3698V6.45218Z" fill="#4E6287"/>
<path d="M47.864 7.272C47.864 6.76 48.28 6.344 48.792 6.344C49.288 6.344 49.704 6.76 49.704 7.272C49.704 7.768 49.288 8.184 48.792 8.184C48.28 8.184 47.864 7.768 47.864 7.272ZM46.872 7.272C46.872 7.384 46.888 7.48 46.904 7.576C46.568 7.624 46.216 7.64 45.992 7.64H38.584C38.056 7.64 37.144 7.576 36.68 7.512V9.768C37.08 9.736 37.848 9.704 38.584 9.704H46.024C45.816 11.08 45.208 12.888 44.152 14.216C42.856 15.848 41.048 17.24 37.88 17.976L39.624 19.896C42.472 18.968 44.616 17.384 46.056 15.464C47.4 13.688 48.088 11.208 48.456 9.64C48.504 9.496 48.536 9.336 48.584 9.16C48.648 9.176 48.728 9.176 48.792 9.176C49.832 9.176 50.696 8.312 50.696 7.272C50.696 6.216 49.832 5.352 48.792 5.352C47.736 5.352 46.872 6.216 46.872 7.272ZM54.27 18.36L55.79 19.672C56.158 19.432 56.51 19.32 56.734 19.24C60.51 18.008 63.822 16.104 66.014 13.48L64.878 11.672C62.83 14.168 59.262 16.216 56.654 16.968V8.648C56.654 8.024 56.718 7.448 56.814 6.824H54.302C54.398 7.288 54.478 8.04 54.478 8.648V17.32C54.478 17.688 54.462 17.96 54.27 18.36ZM71.86 6.472L71.108 8.36C73.364 8.648 77.908 9.672 79.764 10.36L80.58 8.36C78.564 7.656 73.956 6.728 71.86 6.472ZM71.124 10.776L70.388 12.712C72.772 13.096 76.868 14.024 78.708 14.728L79.492 12.728C77.476 12.024 73.412 11.16 71.124 10.776ZM70.308 15.352L69.508 17.368C72.068 17.752 77.124 18.856 79.284 19.752L80.164 17.752C77.972 16.936 73.044 15.784 70.308 15.352ZM98.73 8.168L97.466 6.984C97.162 7.08 96.282 7.128 95.834 7.128H87.21C86.538 7.128 85.866 7.064 85.258 6.968V9.192C86.01 9.128 86.538 9.08 87.21 9.08H95.546C95.13 9.864 93.882 11.272 92.602 12.056L94.266 13.384C95.834 12.264 97.354 10.248 98.106 9C98.25 8.76 98.554 8.376 98.73 8.168ZM92.202 10.328H89.882C89.962 10.84 89.994 11.272 89.994 11.768C89.994 14.392 89.61 16.088 87.578 17.496C86.986 17.928 86.41 18.2 85.898 18.376L87.77 19.896C92.122 17.56 92.202 14.296 92.202 10.328ZM108.355 6.936L105.811 6.408C105.747 6.952 105.651 7.448 105.427 8.264C104.963 9.928 103.587 14.312 102.659 16.68C102.515 16.68 102.355 16.696 102.227 16.696C101.699 16.712 101.011 16.712 100.467 16.712L100.835 19.048C101.347 18.984 101.939 18.904 102.339 18.856C104.355 18.648 109.203 18.136 111.795 17.832C112.099 18.52 112.355 19.176 112.563 19.72L114.723 18.76C113.987 16.968 112.355 13.832 111.219 12.104L109.219 12.92C109.747 13.624 110.339 14.696 110.899 15.848C109.283 16.04 107.011 16.296 105.059 16.488C105.859 14.344 107.155 10.28 107.667 8.712C107.907 8.008 108.147 7.416 108.355 6.936Z" fill="#4E6287"/>
<defs>
<linearGradient id="paint0_linear" x1="1.34233" y1="5.48193" x2="1.34233" y2="19.7701" gradientUnits="userSpaceOnUse">
<stop stop-color="#4E6287"/>
<stop offset="1" stop-color="#E56A45"/>
</linearGradient>
</defs>
</svg>
