<?xml version="1.0" encoding="UTF-8"?>
<svg width="140px" height="76px" viewBox="0 0 140 76" version="1.1" xmlns="http://www.w3.org/2000/svg" xmlns:xlink="http://www.w3.org/1999/xlink">
    <!-- Generator: Sketch 59 (86127) - https://sketch.com -->
    <title>pillsheet_28_4</title>
    <desc>Created with Sketch.</desc>
    <g id="Page-1" stroke="none" stroke-width="1" fill="none" fill-rule="evenodd">
        <g id="初期設定01_01" transform="translate(-56.000000, -346.000000)">
            <g id="28錠タイプ(4錠偽薬)" transform="translate(40.000000, 299.000000)">
                <g id="pillsheet_28_4" transform="translate(16.000000, 47.000000)">
                    <g>
                        <path d="M5.30526337,0 L134.694737,0 C137.624753,-5.38235217e-16 140,2.37524732 140,5.30526337 L140,70.6947366 C140,73.6247527 137.624753,76 134.694737,76 L5.30526337,76 C2.37524732,76 -8.52296072e-15,73.6247527 0,70.6947366 L0,5.30526337 C-1.2470019e-15,2.37524732 2.37524732,-3.49943203e-16 5.30526337,0 Z" id="Mask" fill="#E8EBED"></path>
                        <g id="Group-3" transform="translate(11.789474, 8.780488)">
                            <ellipse id="Oval" fill="#BEC0C2" cx="5.01052698" cy="5.12195305" rx="4.42105281" ry="4.39024408"></ellipse>
                            <ellipse id="Oval" fill="#BEC0C2" cx="75.7473719" cy="5.12195305" rx="4.42105281" ry="4.39024408"></ellipse>
                            <ellipse id="Oval" fill="#BEC0C2" cx="40.3789494" cy="5.12195305" rx="4.42105281" ry="4.39024408"></ellipse>
                            <ellipse id="Oval" fill="#BEC0C2" cx="111.115794" cy="5.12195305" rx="4.42105281" ry="4.39024408"></ellipse>
                            <ellipse id="Oval" fill="#BEC0C2" cx="22.6947382" cy="5.12195305" rx="4.42105281" ry="4.39024408"></ellipse>
                            <ellipse id="Oval" fill="#BEC0C2" cx="93.4315831" cy="5.12195305" rx="4.42105281" ry="4.39024408"></ellipse>
                            <ellipse id="Oval" fill="#BEC0C2" cx="58.0631607" cy="5.12195305" rx="4.42105281" ry="4.39024408"></ellipse>
                            <polygon id="Triangle" fill-opacity="0.7" fill="#D1D1D1" points="15.1789484 5.12195305 12.5263168 7.31707509 12.5263168 2.92683101"></polygon>
                            <polygon id="Triangle" fill-opacity="0.7" fill="#D1D1D1" points="32.8631597 5.12195305 30.210528 7.31707509 30.210528 2.92683101"></polygon>
                            <polygon id="Triangle" fill-opacity="0.7" fill="#D1D1D1" points="50.5473709 5.12195305 47.8947392 7.31707509 47.8947392 2.92683101"></polygon>
                            <polygon id="Triangle" fill-opacity="0.7" fill="#D1D1D1" points="68.2315821 5.12195305 65.5789504 7.31707509 65.5789504 2.92683101"></polygon>
                            <polygon id="Triangle" fill-opacity="0.7" fill="#D1D1D1" points="85.9157934 5.12195305 83.2631617 7.31707509 83.2631617 2.92683101"></polygon>
                            <polygon id="Triangle" fill-opacity="0.7" fill="#D1D1D1" points="103.600005 5.12195305 100.947373 7.31707509 100.947373 2.92683101"></polygon>
                        </g>
                        <g id="Group-3" transform="translate(11.789474, 24.878049)">
                            <ellipse id="Oval" fill="#BEC0C2" cx="5.01052698" cy="5.12195305" rx="4.42105281" ry="4.39024408"></ellipse>
                            <ellipse id="Oval" fill="#BEC0C2" cx="75.7473719" cy="5.12195305" rx="4.42105281" ry="4.39024408"></ellipse>
                            <ellipse id="Oval" fill="#BEC0C2" cx="40.3789494" cy="5.12195305" rx="4.42105281" ry="4.39024408"></ellipse>
                            <ellipse id="Oval" fill="#BEC0C2" cx="111.115794" cy="5.12195305" rx="4.42105281" ry="4.39024408"></ellipse>
                            <ellipse id="Oval" fill="#BEC0C2" cx="22.6947382" cy="5.12195305" rx="4.42105281" ry="4.39024408"></ellipse>
                            <ellipse id="Oval" fill="#BEC0C2" cx="93.4315831" cy="5.12195305" rx="4.42105281" ry="4.39024408"></ellipse>
                            <ellipse id="Oval" fill="#BEC0C2" cx="58.0631607" cy="5.12195305" rx="4.42105281" ry="4.39024408"></ellipse>
                            <polygon id="Triangle" fill-opacity="0.7" fill="#D1D1D1" points="15.1789484 5.12195305 12.5263168 7.31707509 12.5263168 2.92683101"></polygon>
                            <polygon id="Triangle" fill-opacity="0.7" fill="#D1D1D1" points="32.8631597 5.12195305 30.210528 7.31707509 30.210528 2.92683101"></polygon>
                            <polygon id="Triangle" fill-opacity="0.7" fill="#D1D1D1" points="50.5473709 5.12195305 47.8947392 7.31707509 47.8947392 2.92683101"></polygon>
                            <polygon id="Triangle" fill-opacity="0.7" fill="#D1D1D1" points="68.2315821 5.12195305 65.5789504 7.31707509 65.5789504 2.92683101"></polygon>
                            <polygon id="Triangle" fill-opacity="0.7" fill="#D1D1D1" points="85.9157934 5.12195305 83.2631617 7.31707509 83.2631617 2.92683101"></polygon>
                            <polygon id="Triangle" fill-opacity="0.7" fill="#D1D1D1" points="103.600005 5.12195305 100.947373 7.31707509 100.947373 2.92683101"></polygon>
                        </g>
                        <g id="Group-3" transform="translate(11.789474, 40.975610)">
                            <ellipse id="Oval" fill="#BEC0C2" cx="5.01052698" cy="5.12195305" rx="4.42105281" ry="4.39024408"></ellipse>
                            <ellipse id="Oval" fill="#BEC0C2" cx="75.7473719" cy="5.12195305" rx="4.42105281" ry="4.39024408"></ellipse>
                            <ellipse id="Oval" fill="#BEC0C2" cx="40.3789494" cy="5.12195305" rx="4.42105281" ry="4.39024408"></ellipse>
                            <ellipse id="Oval" fill="#BEC0C2" cx="111.115794" cy="5.12195305" rx="4.42105281" ry="4.39024408"></ellipse>
                            <ellipse id="Oval" fill="#BEC0C2" cx="22.6947382" cy="5.12195305" rx="4.42105281" ry="4.39024408"></ellipse>
                            <ellipse id="Oval" fill="#BEC0C2" cx="93.4315831" cy="5.12195305" rx="4.42105281" ry="4.39024408"></ellipse>
                            <ellipse id="Oval" fill="#BEC0C2" cx="58.0631607" cy="5.12195305" rx="4.42105281" ry="4.39024408"></ellipse>
                            <polygon id="Triangle" fill-opacity="0.7" fill="#D1D1D1" points="15.1789484 5.12195305 12.5263168 7.31707509 12.5263168 2.92683101"></polygon>
                            <polygon id="Triangle" fill-opacity="0.7" fill="#D1D1D1" points="32.8631597 5.12195305 30.210528 7.31707509 30.210528 2.92683101"></polygon>
                            <polygon id="Triangle" fill-opacity="0.7" fill="#D1D1D1" points="50.5473709 5.12195305 47.8947392 7.31707509 47.8947392 2.92683101"></polygon>
                            <polygon id="Triangle" fill-opacity="0.7" fill="#D1D1D1" points="68.2315821 5.12195305 65.5789504 7.31707509 65.5789504 2.92683101"></polygon>
                            <polygon id="Triangle" fill-opacity="0.7" fill="#D1D1D1" points="85.9157934 5.12195305 83.2631617 7.31707509 83.2631617 2.92683101"></polygon>
                            <polygon id="Triangle" fill-opacity="0.7" fill="#D1D1D1" points="103.600005 5.12195305 100.947373 7.31707509 100.947373 2.92683101"></polygon>
                        </g>
                        <g id="Group-3" transform="translate(11.789474, 57.079987)">
                            <ellipse id="Oval" fill="#BEC0C2" cx="5.01052698" cy="5.12195305" rx="4.42105281" ry="4.39024408"></ellipse>
                            <ellipse id="Oval" fill="#E65E5A" cx="75.7473719" cy="5.12195305" rx="4.42105281" ry="4.39024408"></ellipse>
                            <ellipse id="Oval" fill="#BEC0C2" cx="40.3789494" cy="5.12195305" rx="4.42105281" ry="4.39024408"></ellipse>
                            <ellipse id="Oval" fill="#E65E5A" cx="111.115794" cy="5.12195305" rx="4.42105281" ry="4.39024408"></ellipse>
                            <ellipse id="Oval" fill="#BEC0C2" cx="22.6947382" cy="5.12195305" rx="4.42105281" ry="4.39024408"></ellipse>
                            <ellipse id="Oval" fill="#E65E5A" cx="93.4315831" cy="5.12195305" rx="4.42105281" ry="4.39024408"></ellipse>
                            <ellipse id="Oval" fill="#E65E5A" cx="58.0631607" cy="5.12195305" rx="4.42105281" ry="4.39024408"></ellipse>
                            <polygon id="Triangle" fill-opacity="0.7" fill="#D1D1D1" points="15.1789484 5.12195305 12.5263168 7.31707509 12.5263168 2.92683101"></polygon>
                            <polygon id="Triangle" fill-opacity="0.7" fill="#D1D1D1" points="32.8631597 5.12195305 30.210528 7.31707509 30.210528 2.92683101"></polygon>
                            <polygon id="Triangle" fill-opacity="0.7" fill="#D1D1D1" points="50.5473709 5.12195305 47.8947392 7.31707509 47.8947392 2.92683101"></polygon>
                            <polygon id="Triangle" fill-opacity="0.7" fill="#D1D1D1" points="68.2315821 5.12195305 65.5789504 7.31707509 65.5789504 2.92683101"></polygon>
                            <polygon id="Triangle" fill-opacity="0.7" fill="#D1D1D1" points="85.9157934 5.12195305 83.2631617 7.31707509 83.2631617 2.92683101"></polygon>
                            <polygon id="Triangle" fill-opacity="0.7" fill="#D1D1D1" points="103.600005 5.12195305 100.947373 7.31707509 100.947373 2.92683101"></polygon>
                        </g>
                    </g>
                </g>
            </g>
        </g>
    </g>
</svg>