<svg width="127" height="64" viewBox="0 0 127 64" fill="none" xmlns="http://www.w3.org/2000/svg">
<path d="M33.8446 51.3674C36.3412 52.6988 38.8512 54.028 41.2382 55.515C42.2867 56.1751 43.3133 56.8663 44.2695 57.6244C44.5074 57.4189 44.7025 57.1256 44.706 56.757C43.7857 56.0471 42.8349 55.397 41.8489 54.7804C39.4595 53.2802 36.9809 51.9728 34.5132 50.6499C34.3583 48.6056 33.5409 46.1468 32.5765 44.4088C31.5988 42.6733 30.4983 41.6408 29.4684 42.4084C28.8504 43.3351 28.8335 44.4828 29.1825 45.607C29.5182 46.7334 30.2089 47.8518 30.953 48.7291C29.1183 47.7307 27.3078 46.7143 25.5388 45.6225C25.638 45.019 25.3744 43.7572 24.9526 42.6868C24.5285 41.6031 23.9595 40.7086 23.2901 40.7994C22.7693 40.8776 22.4889 41.3086 22.4319 41.9183C22.3726 42.5148 22.5633 43.2852 22.9573 43.9653C21.7745 43.1654 20.6268 42.332 19.5253 41.4496C19.4883 41.0064 19.3423 39.4785 18.9443 38.0768C18.7387 37.3771 18.469 36.7024 18.0763 36.1856C17.6703 35.6712 17.139 35.3015 16.3658 35.1925C15.9015 35.1245 15.604 35.3814 15.4214 35.8224C15.252 36.2611 15.2059 36.8553 15.2264 37.4377C14.6798 36.8254 14.1597 36.2084 13.6616 35.5603C13.7078 35.5113 13.754 35.4623 13.7869 35.4156C14.1543 34.7784 14.2881 34.0598 14.2998 33.349C14.3116 32.6383 14.1881 31.9378 14.012 31.3283C13.836 30.7188 13.6029 30.1739 13.3468 29.8102C13.0908 29.4465 12.7962 29.2531 12.5263 29.3552C11.4665 29.7192 11.1121 30.5858 11.1173 31.4707C10.5822 30.3794 10.1198 29.2344 9.75052 28.0729C9.84988 28.0145 9.88908 27.9259 9.84152 27.8116C9.776 27.6732 9.69485 27.524 9.61836 27.4012C10.313 27.1424 10.9946 26.6543 11.609 26.0962C12.2234 25.5381 12.7863 24.921 13.1967 24.3717C14.0127 23.2465 14.26 22.3171 12.9779 22.1207C12.1602 21.9923 11.3201 22.3585 10.6289 23.0255C9.92208 23.6816 9.37757 24.6362 9.11459 25.5548C8.87358 24.3435 8.72331 23.1026 8.67077 21.8716C9.50957 21.3421 10.3125 20.7645 11.0199 20.19C11.7298 19.6287 12.3309 19.073 12.7858 18.543C13.6846 17.4987 13.9319 16.5693 12.9632 15.8951C12.04 15.6354 11.2197 15.7255 10.5102 16.0551C9.80062 16.3846 9.21745 16.9644 8.76161 17.6445C8.84011 16.6903 8.97178 15.7267 9.13471 14.7849C9.21681 14.784 9.27863 14.7459 9.30919 14.686C10.0397 14.4754 11.16 13.9099 11.7143 13.3215C12.5653 12.3947 12.6069 11.5424 11.9511 11.3991C11.5375 11.3084 10.4072 11.7394 9.56253 12.6243C9.77864 11.6731 10.0213 10.7172 10.293 9.76984C11.0291 9.43561 12.0634 8.92617 12.9304 8.32355C13.7951 7.70772 14.4793 7.00106 14.5209 6.14876C14.5427 5.57253 13.9144 5.27447 13.0838 5.46181C12.2219 5.6274 11.1891 6.30015 10.4948 7.64912C10.6339 7.03858 10.6011 6.30843 10.3852 5.70596C10.156 5.10585 9.74135 4.62019 9.07057 4.54768C8.09331 4.44742 7.78869 6.21831 7.9798 7.30213C8.1716 8.46761 8.86489 9.36749 9.22703 9.94416C9.03545 10.6457 8.85716 11.345 8.69217 12.0418C7.95417 10.5775 6.75921 9.39807 6.22138 9.3021C5.81019 9.2247 5.5284 9.49244 5.43714 9.98552C5.34588 10.4786 5.44514 11.197 5.82031 12.0031C6.25867 12.9343 7.34122 13.9427 8.19528 14.4326C7.86942 16.3163 7.67254 18.2317 7.66645 20.1408C7.6049 19.9472 7.30251 19.0874 6.8063 18.1392C6.29914 17.2065 5.58021 16.1612 4.49781 15.6979C4.11019 15.5209 3.69768 16.6022 3.99859 18.0755C4.15569 18.811 4.49098 19.624 5.1008 20.3615C5.69965 21.1145 6.5707 21.7786 7.7352 22.241C7.80734 23.4276 7.96158 24.6133 8.1956 25.785C6.91526 24.7433 5.38041 24.0463 4.83765 24.1557C4.42784 24.2416 4.26009 24.6118 4.38224 25.1491C4.50205 25.6731 4.8938 26.3399 5.57804 26.9552C5.98266 27.3063 6.54216 27.6029 7.11426 27.8155C7.69966 28.0257 8.29533 28.1387 8.78163 28.1756C9.06676 29.093 9.38944 29.9901 9.77859 30.8754C8.95579 30.4072 8.46552 30.4255 8.31107 30.7935C8.15428 31.1482 8.3599 31.8479 8.97835 32.5565C7.96365 31.6997 7.05367 30.8925 6.30597 30.3839C5.55828 29.8752 4.96425 29.6937 4.62833 30.1209C4.18906 30.6617 4.42472 31.765 5.017 32.7917C5.61162 33.8316 6.55821 34.7686 7.34043 35.1622C8.88063 35.9672 10.057 36.264 10.9475 36.3387C11.838 36.4134 12.4473 36.2923 12.8674 36.1092C13.6707 37.1669 14.5312 38.1599 15.4512 39.1016L15.4652 39.1809C14.2867 38.6391 13.2409 38.3056 12.3498 38.1493C11.4586 37.993 10.7376 38.0247 10.2221 38.211C9.70666 38.3973 9.4013 38.7646 9.4031 39.2413C9.38928 39.7071 9.66932 40.2846 10.302 40.8409C11.8846 42.1972 13.673 42.6996 15.1937 42.7721C16.7277 42.8424 18.005 42.4672 18.763 42.1019C19.9942 43.0977 21.2824 44.029 22.5903 44.9159C21.145 44.5711 19.6252 44.3484 18.3954 44.2927C17.0834 44.2379 16.1096 44.5459 15.7571 45.1123C15.389 45.6678 15.6312 46.4973 16.7164 47.2872C18.6605 48.3617 20.7706 48.5893 22.5245 48.43C24.2785 48.2706 25.692 47.7352 26.3939 47.2843C28.1223 48.3015 29.8836 49.272 31.6402 50.2161C30.4891 50.2964 28.4723 50.5975 27.3917 51.9328C27.1435 52.2355 27.8873 52.7994 29.1155 52.9236C30.3836 53.0407 32.0986 52.7383 33.8446 51.3674Z" fill="#4E6287"/>
<path d="M92.6817 51.3723C90.1851 52.7037 87.6752 54.0328 85.2882 55.5199C84.2396 56.18 83.213 56.8712 82.2568 57.6293C82.0189 57.4238 81.8239 57.1305 81.8203 56.7619C82.7406 56.0519 83.6914 55.4019 84.6775 54.7853C87.0668 53.285 89.5455 51.9777 92.0132 50.6547C92.168 48.6105 92.9854 46.1516 93.9499 44.4137C94.9276 42.6782 96.0414 41.648 97.0579 42.4133C97.6759 43.3399 97.6929 44.4877 97.3439 45.6118C97.0082 46.7383 96.3175 47.8567 95.5733 48.734C97.4081 47.7355 99.2186 46.7192 100.988 45.6274C100.888 45.0239 101.152 43.762 101.574 42.6916C101.998 41.608 102.567 40.7135 103.236 40.8043C103.757 40.8825 104.037 41.3135 104.094 41.9232C104.154 42.5197 103.963 43.2901 103.569 43.9702C104.752 43.1703 105.9 42.3369 107.001 41.4545C107.038 41.0113 107.184 39.4834 107.582 38.0817C107.788 37.382 108.057 36.7073 108.45 36.1905C108.856 35.6761 109.387 35.3064 110.161 35.1974C110.625 35.1294 110.922 35.3862 111.092 35.825C111.261 36.2637 111.32 36.8602 111.287 37.4402C111.833 36.8279 112.353 36.211 112.851 35.5629C112.805 35.5138 112.759 35.4648 112.726 35.4181C112.359 34.7809 112.225 34.0623 112.213 33.3516C112.201 32.6408 112.325 31.9403 112.501 31.3308C112.677 30.7213 112.91 30.1764 113.166 29.8127C113.422 29.449 113.704 29.2533 113.973 29.3554C115.033 29.7194 115.388 30.586 115.382 31.4709C115.918 30.3796 116.38 29.2346 116.749 28.0731C116.65 28.0147 116.611 27.9261 116.658 27.8118C116.724 27.6734 116.805 27.5242 116.881 27.4014C116.187 27.1426 115.505 26.6545 114.891 26.0964C114.276 25.5383 113.713 24.9212 113.303 24.3719C112.487 23.2467 112.24 22.3173 113.522 22.1209C114.34 21.9925 115.166 22.3563 115.871 23.0257C116.578 23.6818 117.122 24.6364 117.385 25.555C117.626 24.3437 117.776 23.1027 117.829 21.8718C116.99 21.3423 116.187 20.7647 115.48 20.1902C114.77 19.6289 114.169 19.0732 113.714 18.5432C112.815 17.4989 112.568 16.5695 113.537 15.8953C114.46 15.6356 115.28 15.7257 115.99 16.0553C116.699 16.3848 117.282 16.9646 117.738 17.6447C117.66 16.6905 117.528 15.7269 117.365 14.7851C117.283 14.7842 117.221 14.7461 117.191 14.6862C116.46 14.4756 115.34 13.9101 114.785 13.3217C113.934 12.3949 113.893 11.5426 114.549 11.3993C114.962 11.3086 116.093 11.7396 116.937 12.6245C116.721 11.6733 116.478 10.7174 116.207 9.77003C115.471 9.43581 114.436 8.92636 113.583 8.32609C112.718 7.71026 112.034 7.0036 111.992 6.1513C111.97 5.57507 112.599 5.27701 113.429 5.46435C114.26 5.65169 115.293 6.32443 115.987 7.6734C115.848 7.06286 115.881 6.33271 116.097 5.73025C116.313 5.12778 116.74 4.64448 117.411 4.57196C118.388 4.47171 118.693 6.24259 118.502 7.32642C118.31 8.49189 117.617 9.39177 117.255 9.96845C117.446 10.67 117.625 11.3692 117.79 12.0661C118.528 10.6017 119.709 9.42 120.247 9.32404C120.658 9.24663 120.94 9.51438 121.031 10.0075C121.123 10.5005 121.023 11.219 120.648 12.025C120.21 12.9562 119.127 13.9646 118.273 14.4546C118.599 16.3382 118.796 18.2537 118.802 20.1627C118.864 19.9691 119.166 19.1094 119.662 18.1611C120.169 17.2284 120.888 16.1831 121.971 15.7198C122.358 15.5429 122.771 16.6241 122.47 18.0974C122.313 18.8329 121.978 19.646 121.368 20.3834C120.769 21.1364 119.898 21.8005 118.733 22.263C118.661 23.4495 118.507 24.6353 118.273 25.8069C119.553 24.7653 121.088 24.0683 121.631 24.1776C122.041 24.2635 122.208 24.6338 122.086 25.171C121.98 25.6974 121.575 26.3619 120.89 26.9772C120.486 27.3283 119.926 27.6249 119.354 27.8374C118.769 28.0477 118.173 28.1607 117.687 28.1976C117.402 29.1149 117.079 30.012 116.69 30.8974C117.513 30.4292 118.003 30.4475 118.157 30.8154C118.314 31.1702 118.109 31.8698 117.49 32.5785C118.505 31.7216 119.415 30.9145 120.163 30.4058C120.91 29.8971 121.504 29.7156 121.84 30.1428C122.293 30.686 122.044 31.7869 121.451 32.8136C120.857 33.8535 119.91 34.7905 119.128 35.1841C117.588 35.9892 116.411 36.286 115.521 36.3606C114.63 36.4353 114.021 36.3143 113.601 36.1312C112.798 37.1888 111.937 38.1818 111.017 39.1235L111.003 39.2028C112.182 38.6611 113.228 38.3276 114.119 38.1713C115.01 38.015 115.731 38.0467 116.246 38.233C116.762 38.4193 117.067 38.7866 117.065 39.2632C117.079 39.729 116.799 40.3066 116.166 40.8628C114.584 42.2191 112.796 42.7215 111.275 42.7941C109.741 42.8643 108.464 42.4892 107.705 42.1238C106.474 43.1197 105.186 44.0509 103.878 44.9378C105.324 44.593 106.843 44.3704 108.073 44.3147C109.385 44.2598 110.359 44.5678 110.711 45.1342C111.08 45.6897 110.837 46.5192 109.752 47.3091C107.808 48.3837 105.698 48.6113 103.944 48.4519C102.19 48.2925 100.776 47.7571 100.075 47.3063C98.3462 48.3234 96.5849 49.2939 94.8283 50.238C95.9794 50.3183 97.9962 50.6194 99.0768 51.9547C99.325 52.2574 98.5812 52.8214 97.353 52.9455C96.1428 53.0455 94.4277 52.7431 92.6817 51.3723Z" fill="#4E6287"/>
<path fill-rule="evenodd" clip-rule="evenodd" d="M52.0803 17.042C54.5772 17.042 56.6013 15.0179 56.6013 12.521C56.6013 10.09 54.6826 8.10712 52.2769 8.0042V8H52.0803H49.9181V8.54959C48.5128 9.31635 47.5593 10.8073 47.5593 12.521C47.5593 15.0179 49.5834 17.042 52.0803 17.042Z" fill="#4E6287"/>
<path d="M47.166 8H49.9179V19.8942C49.9179 21.414 48.6859 22.6461 47.166 22.6461V8Z" fill="#E56A45"/>
<path d="M59.3583 12.6603H62.278V22.7294H59.3583V12.6603ZM60.8181 11.2566C60.2816 11.2566 59.8449 11.1006 59.508 10.7887C59.1711 10.4767 59.0027 10.0899 59.0027 9.62828C59.0027 9.16662 59.1711 8.77983 59.508 8.4679C59.8449 8.15597 60.2816 8 60.8181 8C61.3546 8 61.7914 8.14973 62.1282 8.44918C62.4651 8.74864 62.6336 9.12295 62.6336 9.57214C62.6336 10.0587 62.4651 10.4643 62.1282 10.7887C61.7914 11.1006 61.3546 11.2566 60.8181 11.2566Z" fill="#4E6287"/>
<path d="M64.9877 8.84222H67.9074V22.7294H64.9877V8.84222Z" fill="#4E6287"/>
<path d="M70.6171 8.84222H73.5367V22.7294H70.6171V8.84222Z" fill="#4E6287"/>
<path d="M76.2464 8.84222H79.1661V22.7294H76.2464V8.84222Z" fill="#4E6287"/>
<path d="M43.444 31.8135C43.444 32.3095 43.352 32.7295 43.168 33.0735C42.984 33.4095 42.736 33.6815 42.424 33.8895C42.112 34.0975 41.752 34.2495 41.344 34.3455C40.936 34.4415 40.512 34.4895 40.072 34.4895H39.052V37.6935H37V29.1975H40.12C40.584 29.1975 41.016 29.2455 41.416 29.3415C41.824 29.4295 42.176 29.5775 42.472 29.7855C42.776 29.9855 43.012 30.2535 43.18 30.5895C43.356 30.9175 43.444 31.3255 43.444 31.8135ZM41.392 31.8255C41.392 31.6255 41.352 31.4615 41.272 31.3335C41.192 31.2055 41.084 31.1055 40.948 31.0335C40.812 30.9615 40.656 30.9135 40.48 30.8895C40.312 30.8655 40.136 30.8535 39.952 30.8535H39.052V32.8575H39.916C40.108 32.8575 40.292 32.8415 40.468 32.8095C40.644 32.7775 40.8 32.7215 40.936 32.6415C41.08 32.5615 41.192 32.4575 41.272 32.3295C41.352 32.1935 41.392 32.0255 41.392 31.8255Z" fill="#4E6287"/>
<path d="M48.8438 33.3255C48.7558 33.3015 48.6678 33.2855 48.5798 33.2775C48.4998 33.2695 48.4198 33.2655 48.3398 33.2655C48.0758 33.2655 47.8518 33.3135 47.6678 33.4095C47.4918 33.5055 47.3478 33.6215 47.2358 33.7575C47.1318 33.8935 47.0558 34.0415 47.0078 34.2015C46.9598 34.3615 46.9358 34.5015 46.9358 34.6215V37.6935H44.9678V31.7175H46.8638V32.5815H46.8878C47.0398 32.2775 47.2558 32.0295 47.5358 31.8375C47.8158 31.6455 48.1398 31.5495 48.5078 31.5495C48.5878 31.5495 48.6638 31.5535 48.7358 31.5615C48.8158 31.5695 48.8798 31.5815 48.9278 31.5975L48.8438 33.3255Z" fill="#4E6287"/>
<path d="M54.1416 34.0215C54.1416 33.7095 54.0416 33.4415 53.8416 33.2175C53.6496 32.9935 53.3576 32.8815 52.9656 32.8815C52.7736 32.8815 52.5976 32.9135 52.4376 32.9775C52.2776 33.0335 52.1376 33.1135 52.0176 33.2175C51.8976 33.3215 51.8016 33.4455 51.7296 33.5895C51.6576 33.7255 51.6176 33.8695 51.6096 34.0215H54.1416ZM55.9536 34.7775C55.9536 34.8575 55.9536 34.9375 55.9536 35.0175C55.9536 35.0975 55.9496 35.1735 55.9416 35.2455H51.6096C51.6256 35.4135 51.6736 35.5655 51.7536 35.7015C51.8416 35.8375 51.9496 35.9575 52.0776 36.0615C52.2136 36.1575 52.3616 36.2335 52.5216 36.2895C52.6896 36.3455 52.8616 36.3735 53.0376 36.3735C53.3496 36.3735 53.6136 36.3175 53.8296 36.2055C54.0456 36.0855 54.2216 35.9335 54.3576 35.7495L55.7256 36.6135C55.4456 37.0215 55.0736 37.3375 54.6096 37.5615C54.1536 37.7775 53.6216 37.8855 53.0136 37.8855C52.5656 37.8855 52.1416 37.8175 51.7416 37.6815C51.3416 37.5375 50.9896 37.3335 50.6856 37.0695C50.3896 36.7975 50.1536 36.4655 49.9776 36.0735C49.8096 35.6815 49.7256 35.2335 49.7256 34.7295C49.7256 34.2415 49.8096 33.8015 49.9776 33.4095C50.1456 33.0095 50.3736 32.6735 50.6616 32.4015C50.9496 32.1215 51.2896 31.9055 51.6816 31.7535C52.0736 31.6015 52.4976 31.5255 52.9536 31.5255C53.3936 31.5255 53.7976 31.6015 54.1656 31.7535C54.5336 31.8975 54.8496 32.1095 55.1136 32.3895C55.3776 32.6695 55.5816 33.0095 55.7256 33.4095C55.8776 33.8095 55.9536 34.2655 55.9536 34.7775Z" fill="#4E6287"/>
<path d="M64.906 37.6935V34.4295C64.906 34.2615 64.894 34.1015 64.87 33.9495C64.846 33.7895 64.802 33.6535 64.738 33.5415C64.674 33.4295 64.586 33.3415 64.474 33.2775C64.37 33.2055 64.23 33.1695 64.054 33.1695C63.886 33.1695 63.738 33.2055 63.61 33.2775C63.49 33.3495 63.386 33.4455 63.298 33.5655C63.218 33.6855 63.158 33.8255 63.118 33.9855C63.078 34.1375 63.058 34.2975 63.058 34.4655V37.6935H61.09V34.2855C61.09 33.9415 61.022 33.6695 60.886 33.4695C60.75 33.2695 60.534 33.1695 60.238 33.1695C59.926 33.1695 59.682 33.2935 59.506 33.5415C59.338 33.7895 59.254 34.0935 59.254 34.4535V37.6935H57.274V31.7175H59.182V32.5455H59.206C59.278 32.4175 59.366 32.2935 59.47 32.1735C59.582 32.0535 59.714 31.9495 59.866 31.8615C60.018 31.7655 60.186 31.6895 60.37 31.6335C60.562 31.5775 60.77 31.5495 60.994 31.5495C61.426 31.5495 61.79 31.6375 62.086 31.8135C62.39 31.9895 62.626 32.2415 62.794 32.5695C62.994 32.2575 63.25 32.0095 63.562 31.8255C63.874 31.6415 64.254 31.5495 64.702 31.5495C65.11 31.5495 65.45 31.6255 65.722 31.7775C66.002 31.9215 66.226 32.1135 66.394 32.3535C66.562 32.5855 66.682 32.8495 66.754 33.1455C66.834 33.4335 66.874 33.7175 66.874 33.9975V37.6935H64.906Z" fill="#4E6287"/>
<path d="M70.596 29.8095C70.596 29.9615 70.564 30.1055 70.5 30.2415C70.444 30.3695 70.364 30.4815 70.26 30.5775C70.164 30.6735 70.044 30.7495 69.9 30.8055C69.764 30.8615 69.62 30.8895 69.468 30.8895C69.148 30.8895 68.88 30.7855 68.664 30.5775C68.448 30.3615 68.34 30.1055 68.34 29.8095C68.34 29.6655 68.368 29.5295 68.424 29.4015C68.48 29.2655 68.56 29.1495 68.664 29.0535C68.768 28.9575 68.888 28.8815 69.024 28.8255C69.16 28.7615 69.308 28.7295 69.468 28.7295C69.62 28.7295 69.764 28.7575 69.9 28.8135C70.044 28.8695 70.164 28.9455 70.26 29.0415C70.364 29.1375 70.444 29.2535 70.5 29.3895C70.564 29.5175 70.596 29.6575 70.596 29.8095ZM68.484 37.6935V31.7175H70.452V37.6935H68.484Z" fill="#4E6287"/>
<path d="M76.1968 37.6935V36.8655H76.1728C76.1008 37.0015 76.0048 37.1295 75.8848 37.2495C75.7728 37.3695 75.6368 37.4735 75.4768 37.5615C75.3248 37.6495 75.1528 37.7215 74.9608 37.7775C74.7767 37.8335 74.5808 37.8615 74.3728 37.8615C73.9728 37.8615 73.6328 37.7895 73.3528 37.6455C73.0808 37.5015 72.8568 37.3175 72.6808 37.0935C72.5128 36.8615 72.3888 36.6015 72.3088 36.3135C72.2368 36.0175 72.2008 35.7175 72.2008 35.4135V31.7175H74.1808V34.9575C74.1808 35.1255 74.1928 35.2855 74.2168 35.4375C74.2407 35.5895 74.2848 35.7255 74.3488 35.8455C74.4207 35.9655 74.5128 36.0615 74.6248 36.1335C74.7368 36.1975 74.8848 36.2295 75.0688 36.2295C75.4128 36.2295 75.6728 36.1015 75.8488 35.8455C76.0328 35.5895 76.1248 35.2895 76.1248 34.9455V31.7175H78.0928V37.6935H76.1968Z" fill="#4E6287"/>
<path d="M87.3638 37.6935V34.4295C87.3638 34.2615 87.3518 34.1015 87.3278 33.9495C87.3038 33.7895 87.2598 33.6535 87.1958 33.5415C87.1318 33.4295 87.0438 33.3415 86.9318 33.2775C86.8278 33.2055 86.6878 33.1695 86.5118 33.1695C86.3438 33.1695 86.1958 33.2055 86.0678 33.2775C85.9478 33.3495 85.8438 33.4455 85.7558 33.5655C85.6758 33.6855 85.6158 33.8255 85.5758 33.9855C85.5358 34.1375 85.5158 34.2975 85.5158 34.4655V37.6935H83.5478V34.2855C83.5478 33.9415 83.4798 33.6695 83.3438 33.4695C83.2078 33.2695 82.9918 33.1695 82.6958 33.1695C82.3838 33.1695 82.1398 33.2935 81.9638 33.5415C81.7958 33.7895 81.7118 34.0935 81.7118 34.4535V37.6935H79.7318V31.7175H81.6398V32.5455H81.6638C81.7358 32.4175 81.8238 32.2935 81.9278 32.1735C82.0398 32.0535 82.1718 31.9495 82.3238 31.8615C82.4758 31.7655 82.6438 31.6895 82.8278 31.6335C83.0198 31.5775 83.2278 31.5495 83.4518 31.5495C83.8838 31.5495 84.2478 31.6375 84.5438 31.8135C84.8478 31.9895 85.0838 32.2415 85.2518 32.5695C85.4518 32.2575 85.7078 32.0095 86.0198 31.8255C86.3318 31.6415 86.7118 31.5495 87.1598 31.5495C87.5678 31.5495 87.9078 31.6255 88.1798 31.7775C88.4598 31.9215 88.6838 32.1135 88.8518 32.3535C89.0198 32.5855 89.1398 32.8495 89.2118 33.1455C89.2918 33.4335 89.3318 33.7175 89.3318 33.9975V37.6935H87.3638Z" fill="#4E6287"/>
</svg>
