<svg width="90" height="40" viewBox="0 0 90 40" fill="none" xmlns="http://www.w3.org/2000/svg">
<path fill-rule="evenodd" clip-rule="evenodd" d="M26.0569 10.5965C26.5483 10.9804 27.8076 12.5109 29.429 15.9373C30.917 19.0815 32.2933 22.908 33.4822 26.7517C33.9808 28.3638 34.4365 29.9461 34.8453 31.44C33.2968 31.4048 31.6513 31.3455 29.9665 31.2516C25.9493 31.0279 21.9036 30.6182 18.4927 29.9351C14.7759 29.1908 12.9862 28.3391 12.4948 27.9552C7.70129 24.2101 6.85139 17.2882 10.5965 12.4948C14.3415 7.70129 21.2634 6.85139 26.0569 10.5965ZM31.1427 4.08694C36.645 8.3858 41.0261 22.3325 43.3895 31.4209C44.1385 34.3008 44.6848 36.6929 45 38.1356C45.3152 36.6929 45.8615 34.3008 46.6105 31.4209C48.9739 22.3325 53.355 8.3858 58.8573 4.08694C67.2459 -2.46694 79.3592 -0.979619 85.9131 7.40897C92.4669 15.7976 90.9796 27.9108 82.591 34.4647C77.0887 38.7636 62.4965 39.6405 53.1062 39.7351C49.048 39.776 45.9614 39.6707 45 39.6323C44.0386 39.6707 40.952 39.776 36.8938 39.7351C27.5035 39.6405 12.9113 38.7636 7.40897 34.4647C-0.979618 27.9108 -2.46694 15.7976 4.08694 7.40897C10.6408 -0.979619 22.7541 -2.46694 31.1427 4.08694ZM63.9431 10.5965C63.4517 10.9804 62.1924 12.5109 60.571 15.9373C59.083 19.0815 57.7067 22.908 56.5178 26.7517C56.0192 28.3638 55.5635 29.9461 55.1547 31.44C56.7032 31.4048 58.3487 31.3455 60.0335 31.2516C64.0507 31.0279 68.0964 30.6182 71.5073 29.9351C75.2241 29.1908 77.0138 28.3391 77.5052 27.9552C82.2987 24.2101 83.1486 17.2882 79.4035 12.4948C75.6585 7.70129 68.7366 6.85139 63.9431 10.5965Z" fill="#D5E2EB"/>
</svg>
