<svg width="24" height="26" viewBox="0 0 24 26" fill="none" xmlns="http://www.w3.org/2000/svg">
<rect x="2.09399" y="4.6524" width="19.0012" height="5.51644" fill="#FBFBFB"/>
<path fill-rule="evenodd" clip-rule="evenodd" d="M19.6759 2.77272H3.47222C1.55457 2.77272 0 4.29902 0 6.18181V22.0909C0 23.9737 1.55457 25.5 3.47222 25.5H19.6759C21.5936 25.5 23.1481 23.9737 23.1481 22.0909V6.18181C23.1481 4.29902 21.5936 2.77272 19.6759 2.77272ZM2.31481 6.18182C2.31481 5.55422 2.833 5.04545 3.47222 5.04545H19.6759C20.3151 5.04545 20.8333 5.55422 20.8333 6.18182V22.0909C20.8333 22.7185 20.3151 23.2273 19.6759 23.2273H3.47222C2.833 23.2273 2.31481 22.7185 2.31481 22.0909V6.18182Z" fill="#7E7E7E"/>
<path d="M15.0464 1.63636V6.18182C15.0464 6.80941 15.5646 7.31818 16.2038 7.31818C16.843 7.31818 17.3612 6.80941 17.3612 6.18182V1.63636C17.3612 1.00877 16.843 0.5 16.2038 0.5C15.5646 0.5 15.0464 1.00877 15.0464 1.63636Z" fill="#7E7E7E"/>
<path d="M5.78711 1.63636V6.18182C5.78711 6.80941 6.3053 7.31818 6.94452 7.31818C7.58374 7.31818 8.10192 6.80941 8.10192 6.18182V1.63636C8.10192 1.00877 7.58374 0.5 6.94452 0.5C6.3053 0.5 5.78711 1.00877 5.78711 1.63636Z" fill="#7E7E7E"/>
<path d="M1.15741 11.8636H21.9907C22.63 11.8636 23.1481 11.3549 23.1481 10.7273C23.1481 10.0997 22.63 9.59091 21.9907 9.59091H1.15741C0.518189 9.59091 0 10.0997 0 10.7273C0 11.3549 0.518189 11.8636 1.15741 11.8636Z" fill="#7E7E7E"/>
</svg>
