<?xml version="1.0" encoding="UTF-8"?>
<svg width="28px" height="28px" viewBox="0 0 28 28" version="1.1" xmlns="http://www.w3.org/2000/svg" xmlns:xlink="http://www.w3.org/1999/xlink">
    <!-- Generator: Sketch 59 (86127) - https://sketch.com -->
    <title>Group</title>
    <desc>Created with Sketch.</desc>
    <defs>
        <path d="M13.5,0.5 C15.363961,0.5 16.875,2.01103897 16.875,3.875 L16.8749911,3.97176315 C16.8761535,4.26321854 17.0502825,4.52615334 17.329236,4.64577959 C17.6027191,4.76647859 17.9221305,4.70856333 18.1270049,4.50825487 L18.1940625,4.44119749 C18.8271054,3.80744997 19.6861188,3.45135502 20.581875,3.45135502 C21.4776312,3.45135502 22.3366446,3.80744997 22.9688025,4.4403125 C23.60255,5.07335537 23.958645,5.93236879 23.958645,6.828125 C23.958645,7.72388121 23.60255,8.58289463 22.9692451,9.21549513 L22.9104704,9.27417308 C22.7014367,9.48786947 22.6435214,9.80728089 22.7642204,10.080764 C22.7960325,10.1528448 22.8200972,10.2278681 22.8361484,10.3045715 C22.9698712,10.5017068 23.1933795,10.6240338 23.43375,10.625 L23.625,10.625 C25.488961,10.625 27,12.136039 27,14 C27,15.863961 25.488961,17.375 23.625,17.375 L23.5282368,17.3749911 C23.2367815,17.3761535 22.9738467,17.5502825 22.8590323,17.8181729 C22.7335214,18.1027191 22.7914367,18.4221305 22.9917451,18.6270049 L23.0588025,18.6940625 C23.69255,19.3271054 24.048645,20.1861188 24.048645,21.081875 C24.048645,21.9776312 23.69255,22.8366446 23.0596875,23.4688025 C22.4266446,24.10255 21.5676312,24.458645 20.671875,24.458645 C19.7761188,24.458645 18.9171054,24.10255 18.2845049,23.4692451 L18.2258269,23.4104704 C18.0121305,23.2014367 17.6927191,23.1435214 17.4081729,23.2690323 C17.1402825,23.3838467 16.9661535,23.6467815 16.965,23.93375 L16.965,24.125 C16.965,25.988961 15.453961,27.5 13.59,27.5 C11.726039,27.5 10.215,25.988961 10.215,24.125 C10.2082861,23.7498777 10.0184781,23.4844979 9.67076399,23.3542204 C9.39728089,23.2335214 9.07786947,23.2914367 8.87299513,23.4917451 L8.8059375,23.5588025 C8.17289463,24.19255 7.31388121,24.548645 6.418125,24.548645 C5.52236879,24.548645 4.66335537,24.19255 4.03119749,23.5596875 C3.39744997,22.9266446 3.04135502,22.0676312 3.04135502,21.171875 C3.04135502,20.2761188 3.39744997,19.4171054 4.03075487,18.7845049 L4.08952959,18.7258269 C4.29856333,18.5121305 4.35647859,18.1927191 4.2309677,17.9081729 C4.11615334,17.6402825 3.85321854,17.4661535 3.56625,17.465 L3.375,17.465 C1.51103897,17.465 0,15.953961 0,14.09 C0,12.226039 1.51103897,10.715 3.375,10.715 C3.75012232,10.7082861 4.01550209,10.5184781 4.14577959,10.170764 C4.26647859,9.89728089 4.20856333,9.57786947 4.00825487,9.37299513 L3.94119749,9.3059375 C3.30744997,8.67289463 2.95135502,7.81388121 2.95135502,6.918125 C2.95135502,6.02236879 3.30744997,5.16335537 3.9403125,4.53119749 C4.57335537,3.89744997 5.43236879,3.54135502 6.328125,3.54135502 C7.22388121,3.54135502 8.08289463,3.89744997 8.71549513,4.53075487 L8.77417308,4.58952959 C8.98786947,4.79856333 9.30728089,4.85647859 9.58076399,4.73577959 C9.65284477,4.70396747 9.7278681,4.67990275 9.80457152,4.66385164 C10.0017068,4.53012884 10.1240338,4.30662054 10.125,4.06625 L10.125,3.875 C10.125,2.01103897 11.636039,0.5 13.5,0.5 Z M13.5,2.75 C12.8786797,2.75 12.375,3.25367966 12.375,3.875 L12.3749911,4.07073685 C12.3702519,5.25897804 11.6603414,6.33094302 10.5681729,6.7990323 C10.4731102,6.83977492 10.3731022,6.86712148 10.2710092,6.88048485 C9.20780753,7.2531928 8.01520855,6.99457682 7.19200487,6.18924513 L7.1240625,6.12130251 C6.91304821,5.91005334 6.6267104,5.79135502 6.328125,5.79135502 C6.0295396,5.79135502 5.74320179,5.91005334 5.53130251,6.1221875 C5.32005334,6.33320179 5.20135502,6.6195396 5.20135502,6.918125 C5.20135502,7.2167104 5.32005334,7.50304821 5.53174513,7.71450487 L5.60797041,7.79082692 C6.46018489,8.66205068 6.69630094,9.96426645 6.23085312,11.0133287 C5.80830127,12.1622334 4.72636833,12.9360662 3.47625,12.965 L3.375,12.965 C2.75367966,12.965 2.25,13.4686797 2.25,14.09 C2.25,14.7113203 2.75367966,15.215 3.375,15.215 L3.57073685,15.2150089 C4.75897804,15.2197481 5.83094302,15.9296586 6.29422041,17.010764 C6.78630094,18.1257335 6.55018489,19.4279493 5.68924513,20.3079951 L5.62130251,20.3759375 C5.41005334,20.5869518 5.29135502,20.8732896 5.29135502,21.171875 C5.29135502,21.4704604 5.41005334,21.7567982 5.6221875,21.9686975 C5.83320179,22.1799467 6.1195396,22.298645 6.418125,22.298645 C6.7167104,22.298645 7.00304821,22.1799467 7.21450487,21.9682549 L7.29082692,21.8920296 C8.16205068,21.0398151 9.46426645,20.8036991 10.5133287,21.2691469 C11.6622334,21.6916987 12.4360662,22.7736317 12.465,24.02375 L12.465,24.125 C12.465,24.7463203 12.9686797,25.25 13.59,25.25 C14.2113203,25.25 14.715,24.7463203 14.715,24.125 L14.7150089,23.9292632 C14.7197481,22.741022 15.4296586,21.669057 16.510764,21.2057796 C17.6257335,20.7136991 18.9279493,20.9498151 19.8079951,21.8107549 L19.8759375,21.8786975 C20.0869518,22.0899467 20.3732896,22.208645 20.671875,22.208645 C20.9704604,22.208645 21.2567982,22.0899467 21.4686975,21.8778125 C21.6799467,21.6667982 21.798645,21.3804604 21.798645,21.081875 C21.798645,20.7832896 21.6799467,20.4969518 21.4682549,20.2854951 L21.3920296,20.2091731 C20.5398151,19.3379493 20.3036991,18.0357335 20.7957796,16.920764 C21.259057,15.8396586 22.331022,15.1297481 23.52375,15.125 L23.625,15.125 C24.2463203,15.125 24.75,14.6213203 24.75,14 C24.75,13.3786797 24.2463203,12.875 23.625,12.875 L23.4292632,12.8749911 C22.241022,12.8702519 21.169057,12.1603414 20.7009677,11.0681729 C20.6602251,10.9731102 20.6328785,10.8731022 20.6195151,10.7710092 C20.2468072,9.70780753 20.5054232,8.51520855 21.3107549,7.69200487 L21.3786975,7.6240625 C21.5899467,7.41304821 21.708645,7.1267104 21.708645,6.828125 C21.708645,6.5295396 21.5899467,6.24320179 21.3778125,6.03130251 C21.1667982,5.82005334 20.8804604,5.70135502 20.581875,5.70135502 C20.2832896,5.70135502 19.9969518,5.82005334 19.7854951,6.03174513 L19.7091731,6.10797041 C18.8379493,6.96018489 17.5357335,7.19630094 16.4318271,6.7090323 C15.3396586,6.24094302 14.6297481,5.16897804 14.625,3.97625 L14.625,3.875 C14.625,3.25367966 14.1213203,2.75 13.5,2.75 Z M13.5,9.5 C15.9852814,9.5 18,11.5147186 18,14 C18,16.4852814 15.9852814,18.5 13.5,18.5 C11.0147186,18.5 9,16.4852814 9,14 C9,11.5147186 11.0147186,9.5 13.5,9.5 Z M13.5,16.25 C14.7426407,16.25 15.75,15.2426407 15.75,14 C15.75,12.7573593 14.7426407,11.75 13.5,11.75 C12.2573593,11.75 11.25,12.7573593 11.25,14 C11.25,15.2426407 12.2573593,16.25 13.5,16.25 Z" id="path-1"></path>
    </defs>
    <g id="Symbols" stroke="none" stroke-width="1" fill="none" fill-rule="evenodd">
        <g id="Overrides/Tab-Bar/Icons/Unselected/2" transform="translate(-10.000000, -3.000000)">
            <g id="Group" transform="translate(10.500000, 3.000000)">
                <mask id="mask-2" fill="white">
                    <use xlink:href="#path-1"></use>
                </mask>
                <use id="Combined-Shape" fill="#000000" fill-rule="nonzero" xlink:href="#path-1"></use>
                <g id="Colors/Fourth" mask="url(#mask-2)" fill="#7E7E7E">
                    <g transform="translate(-2.000000, -2.500000)" id="Rectangle">
                        <rect x="0" y="0" width="32.0520325" height="32.0520325"></rect>
                    </g>
                </g>
            </g>
        </g>
    </g>
</svg>