<svg width="30" height="30" viewBox="0 0 30 30" fill="none" xmlns="http://www.w3.org/2000/svg">
<path d="M23.9251 16.175C23.9751 15.8 24.0001 15.4125 24.0001 15C24.0001 14.6 23.9751 14.2 23.9126 13.825L26.4501 11.85C26.6751 11.675 26.7376 11.3375 26.6001 11.0875L24.2001 6.9375C24.0501 6.6625 23.7376 6.575 23.4626 6.6625L20.4751 7.8625C19.8501 7.3875 19.1876 6.9875 18.4501 6.6875L18.0001 3.5125C17.9501 3.2125 17.7001 3 17.4001 3H12.6001C12.3001 3 12.0626 3.2125 12.0126 3.5125L11.5626 6.6875C10.8251 6.9875 10.1501 7.4 9.53764 7.8625L6.55014 6.6625C6.27514 6.5625 5.96264 6.6625 5.81264 6.9375L3.42514 11.0875C3.27514 11.35 3.32514 11.675 3.57514 11.85L6.11264 13.825C6.05014 14.2 6.00014 14.6125 6.00014 15C6.00014 15.3875 6.02514 15.8 6.08764 16.175L3.55014 18.15C3.32514 18.325 3.26264 18.6625 3.40014 18.9125L5.80014 23.0625C5.95014 23.3375 6.26264 23.425 6.53764 23.3375L9.52514 22.1375C10.1501 22.6125 10.8126 23.0125 11.5501 23.3125L12.0001 26.4875C12.0626 26.7875 12.3001 27 12.6001 27H17.4001C17.7001 27 17.9501 26.7875 17.9876 26.4875L18.4376 23.3125C19.1751 23.0125 19.8501 22.6125 20.4626 22.1375L23.4501 23.3375C23.7251 23.4375 24.0376 23.3375 24.1876 23.0625L26.5876 18.9125C26.7376 18.6375 26.6751 18.325 26.4376 18.15L23.9251 16.175ZM15.0001 19.5C12.5251 19.5 10.5001 17.475 10.5001 15C10.5001 12.525 12.5251 10.5 15.0001 10.5C17.4751 10.5 19.5001 12.525 19.5001 15C19.5001 17.475 17.4751 19.5 15.0001 19.5Z" fill="#FBFBFB"/>
<path d="M24.2883 16.225C24.3383 15.825 24.3758 15.425 24.3758 15C24.3758 14.575 24.3383 14.175 24.2883 13.775L26.9258 11.7125C27.1633 11.525 27.2258 11.1875 27.0758 10.9125L24.5758 6.58747C24.4633 6.38747 24.2508 6.27497 24.0258 6.27497C23.9508 6.27497 23.8758 6.28747 23.8133 6.31247L20.7008 7.56247C20.0508 7.06247 19.3508 6.64997 18.5883 6.33747L18.1133 3.02497C18.0758 2.72497 17.8133 2.49997 17.5008 2.49997H12.5008C12.1883 2.49997 11.9258 2.72497 11.8883 3.02497L11.4133 6.33747C10.6508 6.64997 9.95077 7.07497 9.30077 7.56247L6.18828 6.31247C6.11328 6.28747 6.03828 6.27497 5.96328 6.27497C5.75078 6.27497 5.53828 6.38747 5.42578 6.58747L2.92578 10.9125C2.76328 11.1875 2.83828 11.525 3.07578 11.7125L5.71328 13.775C5.66328 14.175 5.62578 14.5875 5.62578 15C5.62578 15.4125 5.66328 15.825 5.71328 16.225L3.07578 18.2875C2.83828 18.475 2.77578 18.8125 2.92578 19.0875L5.42578 23.4125C5.53828 23.6125 5.75078 23.725 5.97578 23.725C6.05078 23.725 6.12578 23.7125 6.18828 23.6875L9.30077 22.4375C9.95077 22.9375 10.6508 23.35 11.4133 23.6625L11.8883 26.975C11.9258 27.275 12.1883 27.5 12.5008 27.5H17.5008C17.8133 27.5 18.0758 27.275 18.1133 26.975L18.5883 23.6625C19.3508 23.35 20.0508 22.925 20.7008 22.4375L23.8133 23.6875C23.8883 23.7125 23.9633 23.725 24.0383 23.725C24.2508 23.725 24.4633 23.6125 24.5758 23.4125L27.0758 19.0875C27.2258 18.8125 27.1633 18.475 26.9258 18.2875L24.2883 16.225ZM21.8133 14.0875C21.8633 14.475 21.8758 14.7375 21.8758 15C21.8758 15.2625 21.8508 15.5375 21.8133 15.9125L21.6383 17.325L22.7508 18.2L24.1008 19.25L23.2258 20.7625L21.6383 20.125L20.3383 19.6L19.2133 20.45C18.6758 20.85 18.1633 21.15 17.6508 21.3625L16.3258 21.9L16.1258 23.3125L15.8758 25H14.1258L13.8883 23.3125L13.6883 21.9L12.3633 21.3625C11.8258 21.1375 11.3258 20.85 10.8258 20.475L9.68827 19.6L8.36327 20.1375L6.77578 20.775L5.90078 19.2625L7.25078 18.2125L8.36327 17.3375L8.18827 15.925C8.15077 15.5375 8.12577 15.25 8.12577 15C8.12577 14.75 8.15077 14.4625 8.18827 14.0875L8.36327 12.675L7.25078 11.8L5.90078 10.75L6.77578 9.23747L8.36327 9.87497L9.66327 10.4L10.7883 9.54997C11.3258 9.14997 11.8383 8.84997 12.3508 8.63747L13.6758 8.09997L13.8758 6.68747L14.1258 4.99997H15.8633L16.1008 6.68747L16.3008 8.09997L17.6258 8.63747C18.1633 8.86247 18.6633 9.14997 19.1633 9.52497L20.3008 10.4L21.6258 9.86247L23.2133 9.22497L24.0883 10.7375L22.7508 11.8L21.6383 12.675L21.8133 14.0875ZM15.0008 9.99997C12.2383 9.99997 10.0008 12.2375 10.0008 15C10.0008 17.7625 12.2383 20 15.0008 20C17.7633 20 20.0008 17.7625 20.0008 15C20.0008 12.2375 17.7633 9.99997 15.0008 9.99997ZM15.0008 17.5C13.6258 17.5 12.5008 16.375 12.5008 15C12.5008 13.625 13.6258 12.5 15.0008 12.5C16.3758 12.5 17.5008 13.625 17.5008 15C17.5008 16.375 16.3758 17.5 15.0008 17.5Z" fill="#7E7E7E"/>
</svg>
