<svg width="30" height="30" viewBox="0 0 30 30" fill="none" xmlns="http://www.w3.org/2000/svg">
<path fill-rule="evenodd" clip-rule="evenodd" d="M5.75952 13.1672L14.9747 5.43469C16.1307 4.4647 17.3549 3.84144 18.5738 3.56112C19.7926 3.28081 21.006 3.34344 22.1406 3.74522C23.2751 4.14699 24.3307 4.88792 25.2338 5.96419C26.1369 7.04047 26.6832 8.20868 26.8819 9.39574C27.0806 10.5828 26.9315 11.7887 26.4438 12.9403C25.9561 14.092 25.1298 15.1893 23.9738 16.1593L14.7585 23.8918C13.6025 24.8618 12.3784 25.4851 11.1595 25.7654C9.94071 26.0457 8.72726 25.9831 7.59273 25.5813C6.45821 25.1795 5.40261 24.4386 4.49951 23.3623C3.59641 22.286 3.05005 21.1178 2.85138 19.9308C2.65272 18.7437 2.80175 17.5378 3.28945 16.3862C3.77715 15.2346 4.60352 14.1372 5.75952 13.1672ZM13.2587 22.1044L22.4739 14.3719C23.3 13.6787 23.8775 12.9226 24.2056 12.1477C24.5101 11.4288 24.6014 10.6898 24.4774 9.94875C24.3437 9.15001 23.9593 8.34424 23.3139 7.57513C22.6686 6.80603 21.9418 6.28752 21.1784 6.01717C20.4702 5.76637 19.7265 5.72799 18.9657 5.90297C18.1456 6.09159 17.3007 6.52897 16.4746 7.22213L12.761 10.3382L18.7603 17.488L13.2587 22.1044Z" fill="#4E6287"/>
</svg>
