<svg width="30" height="30" viewBox="0 0 30 30" fill="none" xmlns="http://www.w3.org/2000/svg">
<rect x="4.76147" y="5.9846" width="20.5213" height="5.95776" fill="#FBFBFB"/>
<path fill-rule="evenodd" clip-rule="evenodd" d="M18.75 3.95455V2.72727C18.75 2.04947 19.3096 1.5 20 1.5C20.6904 1.5 21.25 2.04947 21.25 2.72727V3.95455H23.75C25.8211 3.95455 27.5 5.60295 27.5 7.63636V12.5455V24.8182C27.5 26.8516 25.8211 28.5 23.75 28.5H6.25C4.17893 28.5 2.5 26.8516 2.5 24.8182V12.5455V7.63636C2.5 5.60295 4.17893 3.95455 6.25 3.95455H8.75V2.72727C8.75 2.04947 9.30964 1.5 10 1.5C10.6904 1.5 11.25 2.04947 11.25 2.72727V3.95455H18.75ZM5 13.7727V24.8182C5 25.496 5.55964 26.0455 6.25 26.0455H23.75C24.4404 26.0455 25 25.496 25 24.8182V13.7727H5ZM25 11.3182H5V7.63636C5 6.95856 5.55964 6.40909 6.25 6.40909H8.75V7.63636C8.75 8.31417 9.30964 8.86364 10 8.86364C10.6904 8.86364 11.25 8.31417 11.25 7.63636V6.40909H18.75V7.63636C18.75 8.31417 19.3096 8.86364 20 8.86364C20.6904 8.86364 21.25 8.31417 21.25 7.63636V6.40909H23.75C24.4404 6.40909 25 6.95856 25 7.63636V11.3182Z" fill="black"/>
<path fill-rule="evenodd" clip-rule="evenodd" d="M23.75 3.95454H6.25C4.17893 3.95454 2.5 5.60295 2.5 7.63636V24.8182C2.5 26.8516 4.17893 28.5 6.25 28.5H23.75C25.8211 28.5 27.5 26.8516 27.5 24.8182V7.63636C27.5 5.60295 25.8211 3.95454 23.75 3.95454ZM5 7.63636C5 6.95856 5.55964 6.40909 6.25 6.40909H23.75C24.4404 6.40909 25 6.95856 25 7.63636V24.8182C25 25.496 24.4404 26.0455 23.75 26.0455H6.25C5.55964 26.0455 5 25.496 5 24.8182V7.63636Z" fill="#7E7E7E"/>
<path d="M18.75 2.72727V7.63636C18.75 8.31417 19.3096 8.86364 20 8.86364C20.6904 8.86364 21.25 8.31417 21.25 7.63636V2.72727C21.25 2.04947 20.6904 1.5 20 1.5C19.3096 1.5 18.75 2.04947 18.75 2.72727Z" fill="#7E7E7E"/>
<path d="M8.75 2.72727V7.63636C8.75 8.31417 9.30964 8.86364 10 8.86364C10.6904 8.86364 11.25 8.31417 11.25 7.63636V2.72727C11.25 2.04947 10.6904 1.5 10 1.5C9.30964 1.5 8.75 2.04947 8.75 2.72727Z" fill="#7E7E7E"/>
<path d="M3.75 13.7727H26.25C26.9404 13.7727 27.5 13.2233 27.5 12.5454C27.5 11.8676 26.9404 11.3182 26.25 11.3182H3.75C3.05964 11.3182 2.5 11.8676 2.5 12.5454C2.5 13.2233 3.05964 13.7727 3.75 13.7727Z" fill="#7E7E7E"/>
</svg>
