<svg width="30" height="30" viewBox="0 0 30 30" fill="none" xmlns="http://www.w3.org/2000/svg">
<rect x="5.5752" y="6.61499" width="18.83" height="5.46675" fill="#FBFBFB"/>
<path fill-rule="evenodd" clip-rule="evenodd" d="M22.9987 4.97748H6.94094C5.04056 4.97748 3.5 6.49003 3.5 8.35586V24.1216C3.5 25.9874 5.04056 27.5 6.94094 27.5H22.9987C24.899 27.5 26.4396 25.9874 26.4396 24.1216V8.35586C26.4396 6.49003 24.899 4.97748 22.9987 4.97748ZM5.79396 8.35586C5.79396 7.73392 6.30748 7.22973 6.94094 7.22973H22.9987C23.6321 7.22973 24.1456 7.73392 24.1456 8.35586V24.1216C24.1456 24.7436 23.6321 25.2478 22.9987 25.2478H6.94094C6.30748 25.2478 5.79396 24.7436 5.79396 24.1216V8.35586Z" fill="#7E7E7E"/>
<path d="M18.4109 3.62613V8.13063C18.4109 8.75257 18.9244 9.25676 19.5579 9.25676C20.1913 9.25676 20.7048 8.75257 20.7048 8.13063V3.62613C20.7048 3.00418 20.1913 2.5 19.5579 2.5C18.9244 2.5 18.4109 3.00418 18.4109 3.62613Z" fill="#7E7E7E"/>
<path d="M9.23486 3.62613V8.13063C9.23486 8.75257 9.74838 9.25676 10.3818 9.25676C11.0153 9.25676 11.5288 8.75257 11.5288 8.13063V3.62613C11.5288 3.00418 11.0153 2.5 10.3818 2.5C9.74838 2.5 9.23486 3.00418 9.23486 3.62613Z" fill="#7E7E7E"/>
<path d="M4.64698 13.7613H25.2926C25.9261 13.7613 26.4396 13.2571 26.4396 12.6351C26.4396 12.0132 25.9261 11.509 25.2926 11.509H4.64698C4.01352 11.509 3.5 12.0132 3.5 12.6351C3.5 13.2571 4.01352 13.7613 4.64698 13.7613Z" fill="#7E7E7E"/>
</svg>
