<?xml version="1.0" encoding="UTF-8"?>
<svg width="26px" height="28px" viewBox="0 0 26 28" version="1.1" xmlns="http://www.w3.org/2000/svg" xmlns:xlink="http://www.w3.org/1999/xlink">
    <!-- Generator: Sketch 59 (86127) - https://sketch.com -->
    <title>Group</title>
    <desc>Created with Sketch.</desc>
    <defs>
        <path d="M18,0 C18.6903559,0 19.25,0.549468716 19.25,1.22727273 L19.25,1.22727273 L19.249,2.454 L21.75,2.45454545 C23.8210678,2.45454545 25.5,4.1029516 25.5,6.13636364 L25.5,23.3181818 C25.5,25.3515939 23.8210678,27 21.75,27 L4.25,27 C2.17893219,27 0.5,25.3515939 0.5,23.3181818 L0.5,6.13636364 C0.5,4.1029516 2.17893219,2.45454545 4.25,2.45454545 L6.749,2.454 L6.75,1.22727273 C6.75,0.591831467 7.24187466,0.0691848993 7.87219476,0.00633627074 L8,0 C8.69035594,0 9.25,0.549468716 9.25,1.22727273 L9.25,1.22727273 L9.25,2.454 L16.749,2.454 L16.75,1.22727273 C16.75,0.591831467 17.2418747,0.0691848993 17.8721948,0.00633627074 Z M23,12.272 L3,12.272 L3,23.3181818 C3,23.9959858 3.55964406,24.5454545 4.25,24.5454545 L21.75,24.5454545 C22.4403559,24.5454545 23,23.9959858 23,23.3181818 L23,12.272 Z M6.749,4.909 L4.25,4.90909091 C3.55964406,4.90909091 3,5.45855963 3,6.13636364 L3,9.818 L23,9.818 L23,6.13636364 C23,5.45855963 22.4403559,4.90909091 21.75,4.90909091 L19.249,4.909 L19.25,6.13636364 C19.25,6.7718049 18.7581253,7.29445146 18.1278052,7.35730009 L18,7.36363636 C17.3096441,7.36363636 16.75,6.81416765 16.75,6.13636364 L16.75,6.13636364 L16.749,4.909 L9.25,4.909 L9.25,6.13636364 C9.25,6.7718049 8.75812534,7.29445146 8.12780524,7.35730009 L8,7.36363636 C7.30964406,7.36363636 6.75,6.81416765 6.75,6.13636364 L6.75,6.13636364 L6.749,4.909 Z" id="path-1"></path>
    </defs>
    <g id="Symbols" stroke="none" stroke-width="1" fill="none" fill-rule="evenodd">
        <g id="Overrides/Tab-Bar/Icons/Unselected/1" transform="translate(-11.000000, -3.000000)">
            <g id="Group" transform="translate(11.000000, 3.500000)">
                <mask id="mask-2" fill="white">
                    <use xlink:href="#path-1"></use>
                </mask>
                <use id="Combined-Shape" fill="#000000" fill-rule="nonzero" xlink:href="#path-1"></use>
                <g id="Colors/Fourth" mask="url(#mask-2)" fill="#7E7E7E">
                    <g transform="translate(-3.000000, -2.500000)" id="Rectangle">
                        <rect x="0" y="0" width="32.0520325" height="32.0520325"></rect>
                    </g>
                </g>
            </g>
        </g>
    </g>
</svg>