<svg width="26" height="28" viewBox="0 0 26 28" fill="none" xmlns="http://www.w3.org/2000/svg">
<path fill-rule="evenodd" clip-rule="evenodd" d="M5.75 2.95454V6.51834C5.75 7.73839 6.75736 8.72743 8 8.72743C9.24264 8.72743 10.25 7.73839 10.25 6.51834V2.95454H15.75V6.51834C15.75 7.73839 16.7574 8.72743 18 8.72743C19.2426 8.72743 20.25 7.73839 20.25 6.51834V2.95454H21.75C23.8211 2.95454 25.5 4.60295 25.5 6.63636V11.5455V23.8182C25.5 25.8516 23.8211 27.5 21.75 27.5H4.25C2.17893 27.5 0.5 25.8516 0.5 23.8182V11.5455V6.63636C0.5 4.60295 2.17893 2.95454 4.25 2.95454H5.75ZM3 23.8182V12.7727H23V23.8182C23 24.496 22.4404 25.0455 21.75 25.0455H4.25C3.55964 25.0455 3 24.496 3 23.8182Z" fill="#4E6287"/>
<path d="M16.75 1.72727V6.63636C16.75 7.31417 17.3096 7.86364 18 7.86364C18.6904 7.86364 19.25 7.31417 19.25 6.63636V1.72727C19.25 1.04947 18.6904 0.5 18 0.5C17.3096 0.5 16.75 1.04947 16.75 1.72727Z" fill="#4E6287"/>
<path d="M6.75 1.72727V6.63636C6.75 7.31417 7.30964 7.86364 8 7.86364C8.69036 7.86364 9.25 7.31417 9.25 6.63636V1.72727C9.25 1.04947 8.69036 0.5 8 0.5C7.30964 0.5 6.75 1.04947 6.75 1.72727Z" fill="#4E6287"/>
</svg>
