<svg width="26" height="28" viewBox="0 0 26 28" fill="none" xmlns="http://www.w3.org/2000/svg">
<path fill-rule="evenodd" clip-rule="evenodd" d="M16.75 2.95455V1.72727C16.75 1.04947 17.3096 0.5 18 0.5C18.6904 0.5 19.25 1.04947 19.25 1.72727V2.95455H21.75C23.8211 2.95455 25.5 4.60295 25.5 6.63636V11.5455V23.8182C25.5 25.8516 23.8211 27.5 21.75 27.5H4.25C2.17893 27.5 0.5 25.8516 0.5 23.8182V11.5455V6.63636C0.5 4.60295 2.17893 2.95455 4.25 2.95455H6.75V1.72727C6.75 1.04947 7.30964 0.5 8 0.5C8.69036 0.5 9.25 1.04947 9.25 1.72727V2.95455H16.75ZM3 12.7727V23.8182C3 24.496 3.55964 25.0455 4.25 25.0455H21.75C22.4404 25.0455 23 24.496 23 23.8182V12.7727H3ZM23 10.3182H3V6.63636C3 5.95856 3.55964 5.40909 4.25 5.40909H6.75V6.63636C6.75 7.31417 7.30964 7.86364 8 7.86364C8.69036 7.86364 9.25 7.31417 9.25 6.63636V5.40909H16.75V6.63636C16.75 7.31417 17.3096 7.86364 18 7.86364C18.6904 7.86364 19.25 7.31417 19.25 6.63636V5.40909H21.75C22.4404 5.40909 23 5.95856 23 6.63636V10.3182Z" fill="black"/>
<path fill-rule="evenodd" clip-rule="evenodd" d="M21.75 2.95454H4.25C2.17893 2.95454 0.5 4.60295 0.5 6.63636V23.8182C0.5 25.8516 2.17893 27.5 4.25 27.5H21.75C23.8211 27.5 25.5 25.8516 25.5 23.8182V6.63636C25.5 4.60295 23.8211 2.95454 21.75 2.95454ZM3 6.63636C3 5.95856 3.55964 5.40909 4.25 5.40909H21.75C22.4404 5.40909 23 5.95856 23 6.63636V23.8182C23 24.496 22.4404 25.0455 21.75 25.0455H4.25C3.55964 25.0455 3 24.496 3 23.8182V6.63636Z" fill="#7E7E7E"/>
<path d="M16.75 1.72727V6.63636C16.75 7.31417 17.3096 7.86364 18 7.86364C18.6904 7.86364 19.25 7.31417 19.25 6.63636V1.72727C19.25 1.04947 18.6904 0.5 18 0.5C17.3096 0.5 16.75 1.04947 16.75 1.72727Z" fill="#7E7E7E"/>
<path d="M6.75 1.72727V6.63636C6.75 7.31417 7.30964 7.86364 8 7.86364C8.69036 7.86364 9.25 7.31417 9.25 6.63636V1.72727C9.25 1.04947 8.69036 0.5 8 0.5C7.30964 0.5 6.75 1.04947 6.75 1.72727Z" fill="#7E7E7E"/>
<path d="M1.75 12.7727H24.25C24.9404 12.7727 25.5 12.2233 25.5 11.5454C25.5 10.8676 24.9404 10.3182 24.25 10.3182H1.75C1.05964 10.3182 0.5 10.8676 0.5 11.5454C0.5 12.2233 1.05964 12.7727 1.75 12.7727Z" fill="#7E7E7E"/>
</svg>
