<svg width="24" height="26" viewBox="0 0 24 26" fill="none" xmlns="http://www.w3.org/2000/svg">
<path fill-rule="evenodd" clip-rule="evenodd" d="M4.86111 2.77272V6.07254C4.86111 7.20221 5.79385 8.118 6.94445 8.118C8.09504 8.118 9.02778 7.20221 9.02778 6.07254V2.77272H14.1204V6.07254C14.1204 7.20221 15.0531 8.11799 16.2037 8.11799C17.3543 8.11799 18.287 7.20221 18.287 6.07254V2.77272H19.6759C21.5936 2.77272 23.1482 4.29902 23.1482 6.18181V10.7273V22.0909C23.1482 23.9737 21.5936 25.5 19.6759 25.5H3.47222C1.55457 25.5 0 23.9737 0 22.0909V10.7273V6.18181C0 4.29902 1.55457 2.77272 3.47222 2.77272H4.86111ZM2.31482 22.0909V11.8636H20.8333V22.0909C20.8333 22.7185 20.3152 23.2273 19.6759 23.2273H3.47222C2.833 23.2273 2.31482 22.7185 2.31482 22.0909Z" fill="#4E6287"/>
<path d="M15.0464 1.63636V6.18182C15.0464 6.80942 15.5646 7.31818 16.2038 7.31818C16.843 7.31818 17.3612 6.80942 17.3612 6.18182V1.63636C17.3612 1.00877 16.843 0.5 16.2038 0.5C15.5646 0.5 15.0464 1.00877 15.0464 1.63636Z" fill="#4E6287"/>
<path d="M5.78711 1.63636V6.18182C5.78711 6.80942 6.3053 7.31818 6.94452 7.31818C7.58374 7.31818 8.10192 6.80942 8.10192 6.18182V1.63636C8.10192 1.00877 7.58374 0.5 6.94452 0.5C6.3053 0.5 5.78711 1.00877 5.78711 1.63636Z" fill="#4E6287"/>
</svg>
