<svg width="30" height="30" viewBox="0 0 30 30" fill="none" xmlns="http://www.w3.org/2000/svg">
<path fill-rule="evenodd" clip-rule="evenodd" d="M8.36111 4.77272V8.07253C8.36111 9.20221 9.29385 10.118 10.4444 10.118C11.595 10.118 12.5278 9.20221 12.5278 8.07253V4.77272H17.6204V8.07253C17.6204 9.20221 18.5531 10.118 19.7037 10.118C20.8543 10.118 21.787 9.20221 21.787 8.07253V4.77272H23.1759C25.0936 4.77272 26.6482 6.29902 26.6482 8.18181V12.7273V24.0909C26.6482 25.9737 25.0936 27.5 23.1759 27.5H6.97222C5.05457 27.5 3.5 25.9737 3.5 24.0909V12.7273V8.18181C3.5 6.29902 5.05457 4.77272 6.97222 4.77272H8.36111ZM5.81482 24.0909V13.8636H24.3333V24.0909C24.3333 24.7185 23.8152 25.2273 23.1759 25.2273H6.97222C6.333 25.2273 5.81482 24.7185 5.81482 24.0909Z" fill="#4E6287"/>
<path d="M18.5464 3.63636V8.18182C18.5464 8.80942 19.0646 9.31818 19.7038 9.31818C20.343 9.31818 20.8612 8.80942 20.8612 8.18182V3.63636C20.8612 3.00877 20.343 2.5 19.7038 2.5C19.0646 2.5 18.5464 3.00877 18.5464 3.63636Z" fill="#4E6287"/>
<path d="M9.28711 3.63636V8.18182C9.28711 8.80942 9.8053 9.31818 10.4445 9.31818C11.0837 9.31818 11.6019 8.80942 11.6019 8.18182V3.63636C11.6019 3.00877 11.0837 2.5 10.4445 2.5C9.8053 2.5 9.28711 3.00877 9.28711 3.63636Z" fill="#4E6287"/>
</svg>
