<?xml version="1.0" encoding="UTF-8"?>
<svg width="27px" height="25px" viewBox="0 0 27 25" version="1.1" xmlns="http://www.w3.org/2000/svg" xmlns:xlink="http://www.w3.org/1999/xlink">
    <!-- Generator: Sketch 59 (86127) - https://sketch.com -->
    <title>medicine</title>
    <desc>Created with Sketch.</desc>
    <defs>
        <path d="M9.48410705,10.5657537 C8.32871562,10.5657537 7.3340164,10.7886565 6.53099608,11.1986625 C5.786019,11.5790329 5.20207362,12.1227062 4.79352768,12.8163055 C4.3531508,13.5639451 4.11373668,14.4900444 4.11373668,15.5657537 C4.11373668,16.6414629 4.3531508,17.5675622 4.79352768,18.3152018 C5.20207362,19.0088012 5.786019,19.5524745 6.53099608,19.9328448 C7.3340164,20.3428509 8.32871562,20.5657537 9.48410705,20.5657537 L22.3729959,20.5657537 C23.5283874,20.5657537 24.5230866,20.3428509 25.3261069,19.9328448 C26.071084,19.5524745 26.6550294,19.0088012 27.0635753,18.3152018 C27.5039522,17.5675622 27.7433663,16.6414629 27.7433663,15.5657537 C27.7433663,14.4900444 27.5039522,13.5639451 27.0635753,12.8163055 C26.6550294,12.1227062 26.071084,11.5790329 25.3261069,11.1986625 C24.5230866,10.7886565 23.5283874,10.5657537 22.3729959,10.5657537 L9.48410705,10.5657537 Z M9.48410705,8.06575366 L22.3729959,8.06575366 C23.989833,8.06575366 25.4238405,8.39730997 26.6172561,9.00664405 C27.8106717,9.61597814 28.7634956,10.50309 29.4179655,11.6142011 C30.0724355,12.7253122 30.4285515,14.0604226 30.4285515,15.5657537 C30.4285515,17.0710847 30.0724355,18.4061951 29.4179655,19.5173062 C28.7634956,20.6284173 27.8106717,21.5155292 26.6172561,22.1248633 C25.4238405,22.7341974 23.989833,23.0657537 22.3729959,23.0657537 L9.48410705,23.0657537 C7.86726996,23.0657537 6.43326254,22.7341974 5.2398469,22.1248633 C4.04643126,21.5155292 3.09360741,20.6284173 2.43913747,19.5173062 C1.78466753,18.4061951 1.4285515,17.0710847 1.4285515,15.5657537 C1.4285515,14.0604226 1.78466753,12.7253122 2.43913747,11.6142011 C3.09360741,10.50309 4.04643126,9.61597814 5.2398469,9.00664405 C6.43326254,8.39730997 7.86726996,8.06575366 9.48410705,8.06575366 Z M8.9285515,8.06575366 L15.9285515,8.06575366 L15.9285515,8.06575366 L15.9285515,23.0657537 L8.9285515,23.0657537 C7.42322041,23.0657537 6.08811005,22.7341974 4.97699894,22.1248633 C3.86588783,21.5155292 2.97877597,20.6284173 2.36944189,19.5173062 C1.7601078,18.4061951 1.4285515,17.0710847 1.4285515,15.5657537 C1.4285515,14.0604226 1.7601078,12.7253122 2.36944189,11.6142011 C2.97877597,10.50309 3.86588783,9.61597814 4.97699894,9.00664405 C6.08811005,8.39730997 7.42322041,8.06575366 8.9285515,8.06575366 Z" id="path-1"></path>
    </defs>
    <g id="Symbols" stroke="none" stroke-width="1" fill="none" fill-rule="evenodd">
        <g id="Overrides/Tab-Bar/Icons/Unselected/0" transform="translate(-10.000000, -5.000000)">
            <g id="icon_record" transform="translate(8.000000, 1.500000)">
                <mask id="mask-2" fill="white">
                    <use xlink:href="#path-1"></use>
                </mask>
                <use id="medicine" fill="#979797" fill-rule="nonzero" transform="translate(15.928551, 15.565754) rotate(-40.000000) translate(-15.928551, -15.565754) " xlink:href="#path-1"></use>
            </g>
        </g>
    </g>
</svg>