<svg width="30" height="30" viewBox="0 0 30 30" fill="none" xmlns="http://www.w3.org/2000/svg">
<path fill-rule="evenodd" clip-rule="evenodd" d="M5.21974 13.3724L15.0932 5.08763C16.3318 4.04835 17.6434 3.38057 18.9493 3.08024C20.2552 2.7799 21.5553 2.847 22.7709 3.27748C23.9864 3.70795 25.1174 4.5018 26.085 5.65495C27.0526 6.8081 27.638 8.05976 27.8509 9.33161C28.0637 10.6035 27.9041 11.8955 27.3815 13.1294C26.859 14.3633 25.9736 15.539 24.735 16.5783L14.8616 24.8631C13.623 25.9024 12.3114 26.5702 11.0055 26.8705C9.69959 27.1708 8.39946 27.1037 7.1839 26.6733C5.96834 26.2428 4.83734 25.4489 3.86974 24.2958C2.90213 23.1426 2.31674 21.891 2.10388 20.6191C1.89102 19.3473 2.05071 18.0553 2.57324 16.8214C3.09578 15.5875 3.98117 14.4117 5.21974 13.3724ZM6.82671 15.2876C5.94163 16.0302 5.32293 16.8404 4.97132 17.6706C4.64513 18.4409 4.54727 19.2327 4.68015 20.0266C4.82337 20.8824 5.23525 21.7457 5.92671 22.5698C6.61816 23.3938 7.39685 23.9494 8.21477 24.239C8.97357 24.5077 9.77036 24.5489 10.5855 24.3614C11.4642 24.1593 12.3695 23.6907 13.2546 22.948L23.128 14.6632C24.0131 13.9205 24.6318 13.1104 24.9834 12.2801C25.3096 11.5099 25.4075 10.7181 25.2746 9.92412C25.1314 9.06832 24.7195 8.205 24.0281 7.38096C23.3366 6.55692 22.5579 6.00138 21.74 5.71172C20.9812 5.443 20.1844 5.40187 19.3692 5.58936C18.4905 5.79144 17.5853 6.26007 16.7002 7.00274L12.721 10.3417L12.721 10.3416L10.8059 11.9486L10.8059 11.9486L6.82671 15.2876ZM10.8059 11.9486L17.2337 19.609L19.1488 18.0021L12.721 10.3417L10.8059 11.9486Z" fill="#7E7E7E"/>
</svg>
