<svg width="30" height="30" viewBox="0 0 30 30" fill="none" xmlns="http://www.w3.org/2000/svg">
<path fill-rule="evenodd" clip-rule="evenodd" d="M7.75 3.95454V7.51834C7.75 8.73839 8.75736 9.72743 10 9.72743C11.2426 9.72743 12.25 8.73839 12.25 7.51834V3.95454H17.75V7.51834C17.75 8.73839 18.7574 9.72743 20 9.72743C21.2426 9.72743 22.25 8.73839 22.25 7.51834V3.95454H23.75C25.8211 3.95454 27.5 5.60295 27.5 7.63636V12.5455V24.8182C27.5 26.8516 25.8211 28.5 23.75 28.5H6.25C4.17893 28.5 2.5 26.8516 2.5 24.8182V12.5455V7.63636C2.5 5.60295 4.17893 3.95454 6.25 3.95454H7.75ZM5 24.8182V13.7727H25V24.8182C25 25.496 24.4404 26.0455 23.75 26.0455H6.25C5.55964 26.0455 5 25.496 5 24.8182Z" fill="#4E6287"/>
<path d="M18.75 2.72727V7.63636C18.75 8.31417 19.3096 8.86364 20 8.86364C20.6904 8.86364 21.25 8.31417 21.25 7.63636V2.72727C21.25 2.04947 20.6904 1.5 20 1.5C19.3096 1.5 18.75 2.04947 18.75 2.72727Z" fill="#4E6287"/>
<path d="M8.75 2.72727V7.63636C8.75 8.31417 9.30964 8.86364 10 8.86364C10.6904 8.86364 11.25 8.31417 11.25 7.63636V2.72727C11.25 2.04947 10.6904 1.5 10 1.5C9.30964 1.5 8.75 2.04947 8.75 2.72727Z" fill="#4E6287"/>
</svg>
