<svg width="30" height="30" viewBox="0 0 30 30" fill="none" xmlns="http://www.w3.org/2000/svg">
<path fill-rule="evenodd" clip-rule="evenodd" d="M5.75952 13.1672L14.9747 5.43469C16.1307 4.46469 17.3549 3.84144 18.5738 3.56112C19.7926 3.28081 21.006 3.34344 22.1406 3.74522C23.2751 4.147 24.3307 4.88792 25.2338 5.96419C26.1369 7.04047 26.6832 8.20868 26.8819 9.39574C27.0806 10.5828 26.9315 11.7887 26.4438 12.9403C25.9561 14.092 25.1298 15.1893 23.9738 16.1593L14.7585 23.8918C13.6025 24.8618 12.3784 25.4851 11.1595 25.7654C9.94071 26.0457 8.72726 25.9831 7.59273 25.5813C6.45821 25.1795 5.40261 24.4386 4.49951 23.3623C3.59641 22.286 3.05005 21.1178 2.85138 19.9308C2.65272 18.7437 2.80175 17.5378 3.28945 16.3862C3.77715 15.2346 4.60352 14.1372 5.75952 13.1672ZM7.25924 14.9546C6.43317 15.6478 5.85571 16.4039 5.52755 17.1788C5.22311 17.8977 5.13177 18.6367 5.25578 19.3778C5.38946 20.1765 5.77388 20.9823 6.41924 21.7514C7.06459 22.5205 7.79137 23.039 8.55476 23.3093C9.26298 23.5601 10.0067 23.5985 10.7675 23.4235C11.5876 23.2349 12.4325 22.7975 13.2586 22.1044L16.9726 18.9879L16.9727 18.988L18.7601 17.4882L18.76 17.4881L22.4738 14.3719C23.2999 13.6787 23.8774 12.9226 24.2055 12.1477C24.51 11.4288 24.6013 10.6897 24.4773 9.94874C24.3436 9.15 23.9592 8.34423 23.3138 7.57513C22.6685 6.80602 21.9417 6.28752 21.1783 6.01717C20.4701 5.76636 19.7264 5.72798 18.9656 5.90296C18.1455 6.09158 17.3005 6.52896 16.4745 7.22212L7.25924 14.9546ZM18.76 17.4881L12.7607 10.3384L10.9733 11.8383L16.9726 18.9879L18.76 17.4881Z" fill="#7E7E7E"/>
</svg>
