<svg width="60" height="59" viewBox="0 0 60 59" fill="none" xmlns="http://www.w3.org/2000/svg">
<path d="M27.3231 0.618066C28.6543 -1.18108 31.3457 -1.18108 32.6769 0.618067C33.7305 2.04215 35.7146 2.39201 37.1918 1.41417C39.0579 0.178792 41.5871 1.09933 42.2226 3.24524C42.7256 4.9438 44.4705 5.95118 46.193 5.53753C48.3691 5.01492 50.4309 6.74498 50.2941 8.97883C50.1859 10.747 51.4809 12.2904 53.241 12.4908C55.4647 12.744 56.8105 15.0749 55.9179 17.1273C55.2114 18.7518 55.9005 20.645 57.4859 21.4353C59.4889 22.4338 59.9562 25.0844 58.4156 26.7077C57.1961 27.9926 57.1961 30.0074 58.4156 31.2923C59.9562 32.9156 59.4889 35.5662 57.4859 36.5647C55.9005 37.355 55.2114 39.2482 55.9179 40.8727C56.8105 42.9251 55.4647 45.256 53.241 45.5092C51.4809 45.7096 50.1859 47.253 50.2941 49.0212C50.4309 51.255 48.3691 52.9851 46.193 52.4625C44.4705 52.0488 42.7256 53.0562 42.2226 54.7548C41.5871 56.9007 39.0579 57.8212 37.1918 56.5858C35.7146 55.608 33.7305 55.9579 32.6769 57.3819C31.3457 59.1811 28.6543 59.1811 27.3231 57.3819C26.2695 55.9579 24.2854 55.608 22.8082 56.5858C20.942 57.8212 18.4129 56.9007 17.7774 54.7548C17.2744 53.0562 15.5295 52.0488 13.807 52.4625C11.6309 52.9851 9.56908 51.255 9.70585 49.0212C9.81411 47.253 8.51905 45.7096 6.75895 45.5092C4.53529 45.256 3.18955 42.9251 4.0821 40.8727C4.78858 39.2482 4.09949 37.355 2.51408 36.5647C0.511127 35.5662 0.0437536 32.9156 1.58442 31.2923C2.80391 30.0074 2.80391 27.9926 1.58442 26.7077C0.0437536 25.0844 0.511126 22.4338 2.51408 21.4353C4.09949 20.645 4.78858 18.7518 4.0821 17.1273C3.18955 15.0749 4.53529 12.744 6.75895 12.4908C8.51905 12.2904 9.81411 10.747 9.70585 8.97883C9.56908 6.74498 11.6309 5.01492 13.807 5.53753C15.5295 5.95118 17.2744 4.9438 17.7774 3.24525C18.4129 1.09934 20.942 0.178792 22.8082 1.41417C24.2854 2.39201 26.2695 2.04215 27.3231 0.618066Z" fill="#E6D56C"/>
</svg>
