<svg width="16" height="17" viewBox="0 0 16 17" fill="none" xmlns="http://www.w3.org/2000/svg">
<path fill-rule="evenodd" clip-rule="evenodd" d="M1.09035 0.923706C2.39485 0.923706 3.41648 1.25465 4.15514 1.91647C4.29709 2.04929 4.42513 2.1926 4.5392 2.3464C5.65073 1.45909 7.0909 0.923706 8.66427 0.923706C12.1831 0.923706 15.0357 3.60166 15.0357 6.90505C15.0357 10.2084 12.1831 12.8863 8.66427 12.8863C7.40371 12.8863 6.22866 12.5427 5.23964 11.9497V16.9237H2.29272V4.96097C2.29272 3.84425 1.76179 3.25747 0.700012 3.20059V0.936309C0.828377 0.927923 0.958522 0.923706 1.09035 0.923706ZM12.1685 6.97982C12.1685 8.75538 10.6353 10.1948 8.74391 10.1948C6.85254 10.1948 5.31928 8.75538 5.31928 6.97982C5.31928 5.20421 6.85254 3.76484 8.74391 3.76484C10.6353 3.76484 12.1685 5.20421 12.1685 6.97982Z" fill="#4E6287"/>
</svg>
