<svg width="108" height="108" viewBox="0 0 108 108" fill="none" xmlns="http://www.w3.org/2000/svg">
<path fill-rule="evenodd" clip-rule="evenodd" d="M40.5332 37.9237C43.3177 37.9237 45.4984 38.6301 47.0751 40.0428C47.3781 40.3263 47.6514 40.6322 47.8949 40.9605C50.2675 39.0665 53.3416 37.9237 56.7 37.9237C64.2111 37.9237 70.3 43.6399 70.3 50.6911C70.3 57.7423 64.2111 63.4584 56.7 63.4584C54.0093 63.4584 51.5011 62.7249 49.39 61.4592V72.0763H43.0997V46.5414C43.0997 44.1577 41.9664 42.9052 39.7 42.7838V37.9506C39.974 37.9327 40.2518 37.9237 40.5332 37.9237ZM64.18 50.8507C64.18 54.6407 60.9072 57.7131 56.87 57.7131C52.8328 57.7131 49.56 54.6407 49.56 50.8507C49.56 47.0606 52.8328 43.9882 56.87 43.9882C60.9072 43.9882 64.18 47.0606 64.18 50.8507Z" fill="#4E6287"/>
</svg>
